<?xml version="1.0" encoding="utf-8"?>
<!-- Generator: Adobe Illustrator 21.0.0, SVG Export Plug-In . SVG Version: 6.00 Build 0)  -->
<svg version="1.1" id="Ebene_1" xmlns="http://www.w3.org/2000/svg" xmlns:xlink="http://www.w3.org/1999/xlink" x="0px" y="0px"
	 viewBox="0 0 691 382" style="enable-background:new 0 0 691 382;" xml:space="preserve">
<style type="text/css">
	.st0{clip-path:url(#SVGID_2_);fill:#FFFFFF;}
	.st1{clip-path:url(#SVGID_2_);fill:#007993;}
	
		.st2{clip-path:url(#SVGID_2_);fill:none;stroke:#007993;stroke-width:2;stroke-linecap:round;stroke-linejoin:round;stroke-miterlimit:10;}
	.st3{clip-path:url(#SVGID_2_);}
	.st4{fill:#FFFFFF;}
	.st5{clip-path:url(#SVGID_2_);fill:#4F4F4C;}
	
		.st6{clip-path:url(#SVGID_2_);fill:none;stroke:#4F4F4C;stroke-width:2;stroke-linecap:round;stroke-linejoin:round;stroke-miterlimit:10;}
	.st7{clip-path:url(#SVGID_2_);fill:#2C9050;}
	
		.st8{clip-path:url(#SVGID_2_);fill:none;stroke:#2C9050;stroke-width:2;stroke-linecap:round;stroke-linejoin:round;stroke-miterlimit:10;}
	.st9{clip-path:url(#SVGID_2_);fill:none;stroke:#4F4F4C;stroke-width:2;stroke-miterlimit:10;}
	.st10{fill:#4F4F4C;}
	.st11{fill:#888886;}
	.st12{clip-path:url(#SVGID_4_);}
	.st13{clip-path:url(#SVGID_6_);fill:none;stroke:#7A7878;stroke-width:1.2415;stroke-linejoin:round;stroke-miterlimit:10;}
	.st14{clip-path:url(#SVGID_8_);}
	.st15{clip-path:url(#SVGID_10_);fill:#006784;}
	.st16{clip-path:url(#SVGID_12_);}
	.st17{clip-path:url(#SVGID_14_);fill:none;stroke:#383335;stroke-width:0.916;stroke-linejoin:round;stroke-miterlimit:10;}
	.st18{clip-path:url(#SVGID_14_);fill:#FFFFFF;}
	.st19{clip-path:url(#SVGID_16_);}
	.st20{clip-path:url(#SVGID_18_);fill:none;stroke:#7A7878;stroke-width:0.5436;stroke-linejoin:round;stroke-miterlimit:10;}
	.st21{clip-path:url(#SVGID_20_);}
	.st22{clip-path:url(#SVGID_22_);fill:none;stroke:#7A7878;stroke-width:0.5436;stroke-linejoin:round;stroke-miterlimit:10;}
	.st23{clip-path:url(#SVGID_24_);}
	.st24{clip-path:url(#SVGID_26_);fill:none;stroke:#7A7878;stroke-width:0.5436;stroke-linejoin:round;stroke-miterlimit:10;}
	.st25{clip-path:url(#SVGID_28_);}
	.st26{clip-path:url(#SVGID_30_);fill:none;stroke:#7A7878;stroke-width:0.5436;stroke-linejoin:round;stroke-miterlimit:10;}
	.st27{clip-path:url(#SVGID_32_);}
	.st28{clip-path:url(#SVGID_34_);fill:#29833B;}
</style>
<g>
	<defs>
		<rect id="SVGID_1_" width="691" height="382"/>
	</defs>
	<clipPath id="SVGID_2_">
		<use xlink:href="#SVGID_1_"  style="overflow:visible;"/>
	</clipPath>
	<rect class="st0" width="691" height="382"/>
	<rect x="27" y="24" class="st1" width="135" height="291"/>
	<rect x="27" y="24" class="st2" width="135" height="291"/>
	<g class="st3">
		<path class="st4" d="M78.9,175.1c-1,0.7-2.1,1.1-3.4,1.1c-0.8,0-1.6-0.2-2.2-0.5c-0.7-0.3-1.2-0.8-1.7-1.3
			c-0.9-1.2-1.4-2.6-1.4-4.4c0-1.5,0.3-2.7,0.8-3.8c0.5-0.9,1.1-1.6,1.9-2.1c0.8-0.5,1.7-0.8,2.7-0.8c0.6,0,1.2,0.1,1.7,0.3
			c0.5,0.2,1,0.4,1.4,0.7l-1,1.4c-0.3-0.2-0.7-0.4-1-0.5s-0.7-0.2-1.1-0.2c-0.5,0-1,0.1-1.4,0.4c-0.4,0.3-0.8,0.6-1,1.1
			c-0.2,0.4-0.4,0.8-0.5,1.4s-0.2,1.2-0.2,1.9c0,0.8,0,1.4,0.1,1.9c0.1,0.5,0.2,0.9,0.4,1.2c0.3,0.6,0.7,1,1.1,1.3
			c0.5,0.3,1,0.4,1.6,0.4c0.4,0,0.8-0.1,1.2-0.2c0.3-0.1,0.7-0.3,1-0.6L78.9,175.1z"/>
		<path class="st4" d="M86.9,176h-5.6v-9.7h2v8.1h4L86.9,176z"/>
		<path class="st4" d="M88.9,176v-9.7H91v9.7H88.9z"/>
		<path class="st4" d="M94.2,176v-9.7h6.1l-0.3,1.6h-3.8v2.2h3.2v1.6h-3.2v2.6h4.2v1.7H94.2z"/>
		<path class="st4" d="M108.1,176l-2.3-4.5c-0.1-0.2-0.3-0.5-0.4-0.8c-0.1-0.3-0.3-0.6-0.4-0.9c-0.1-0.3-0.3-0.7-0.4-1
			c0,0.4,0,0.7,0.1,1.1c0,0.3,0,0.6,0,1s0,0.6,0,0.9l0.1,4.3h-2v-9.7h2.2l2.4,4.4c0.1,0.2,0.2,0.5,0.4,0.7c0.1,0.3,0.2,0.5,0.3,0.8
			s0.2,0.4,0.3,0.6c0.1,0.2,0.1,0.3,0.1,0.3c0,0,0-0.1,0-0.3s0-0.4-0.1-0.7s0-0.6-0.1-0.9s0-0.6,0-0.8l0-4.1h1.9v9.7H108.1z"/>
		<path class="st4" d="M119.5,167.9h-2.6v8.1h-2v-8.1h-2.7v-1.6h7.7L119.5,167.9z"/>
	</g>
	<rect x="504" y="24" class="st5" width="162" height="75"/>
	<rect x="504" y="24" class="st6" width="162" height="75"/>
	<g class="st3">
		<path class="st4" d="M553.3,58.5l-1.1-1.9c-0.4-0.8-0.8-1.4-1.1-1.9c-0.3-0.5-0.7-0.9-1-1.2c-0.1-0.1-0.2-0.2-0.3-0.3
			c-0.1-0.1-0.3-0.1-0.5-0.1v5.4h-2V46h3.8c0.7,0,1.3,0.1,1.8,0.3c0.5,0.2,0.9,0.5,1.3,0.8c0.3,0.3,0.6,0.7,0.7,1.1
			c0.2,0.4,0.2,0.9,0.2,1.4c0,0.4-0.1,0.9-0.2,1.3c-0.1,0.4-0.3,0.8-0.6,1.1c-0.3,0.3-0.6,0.6-1,0.8c-0.4,0.2-0.8,0.3-1.3,0.3
			c0.1,0.1,0.2,0.2,0.4,0.3c0.2,0.2,0.3,0.4,0.5,0.6c0.2,0.2,0.3,0.5,0.5,0.7c0.2,0.3,0.3,0.5,0.5,0.8l1.8,3H553.3z M553,49.6
			c0-0.6-0.2-1.1-0.6-1.4c-0.4-0.3-1-0.5-2-0.5h-1.1v3.9h1.1c0.5,0,1,0,1.3-0.1s0.6-0.2,0.8-0.4c0.2-0.2,0.3-0.4,0.4-0.6
			S553,50,553,49.6z"/>
		<path class="st4" d="M557.9,58.5v-9.7h6.1l-0.3,1.6H560v2.2h3.2v1.6H560v2.6h4.2v1.7H557.9z"/>
		<path class="st4" d="M573.6,55.5c0,0.6-0.1,1.1-0.4,1.5c-0.3,0.4-0.6,0.8-1,1c-0.4,0.3-0.9,0.4-1.4,0.6s-1,0.2-1.5,0.2
			c-0.6,0-1.2-0.1-1.8-0.2c-0.6-0.1-1.2-0.4-1.8-0.6l0.7-1.5c0.5,0.3,1,0.4,1.5,0.6c0.5,0.1,1,0.2,1.5,0.2c0.2,0,0.4,0,0.6,0
			c0.2,0,0.4-0.1,0.6-0.2s0.4-0.2,0.5-0.4c0.1-0.2,0.2-0.4,0.2-0.6c0-0.3-0.1-0.6-0.4-0.8c-0.2-0.2-0.6-0.4-1.2-0.5l-1.3-0.3
			c-0.7-0.2-1.3-0.5-1.7-0.9c-0.5-0.4-0.7-1-0.7-1.8c0-0.4,0.1-0.8,0.3-1.2c0.2-0.4,0.4-0.7,0.8-0.9s0.7-0.5,1.2-0.6
			c0.5-0.2,1-0.2,1.5-0.2c0.6,0,1.3,0.1,2,0.3s1.2,0.4,1.6,0.7l-1,1.4c-0.9-0.5-1.8-0.8-2.6-0.8c-0.5,0-0.9,0.1-1.2,0.3
			c-0.3,0.2-0.4,0.5-0.4,0.8c0,0.3,0.1,0.5,0.3,0.7c0.2,0.2,0.5,0.3,1,0.4l1.3,0.3c0.4,0.1,0.7,0.2,1.1,0.4c0.3,0.1,0.6,0.3,0.9,0.5
			c0.2,0.2,0.4,0.5,0.6,0.8C573.5,54.7,573.6,55,573.6,55.5z"/>
		<path class="st4" d="M584.9,53.6c0,0.7-0.1,1.4-0.3,2c-0.2,0.6-0.5,1.1-0.8,1.6c-0.4,0.4-0.8,0.8-1.4,1c-0.6,0.2-1.3,0.4-2,0.4
			c-0.8,0-1.4-0.1-2-0.4c-0.6-0.2-1.1-0.6-1.5-1c-0.4-0.4-0.7-1-0.9-1.6c-0.2-0.6-0.3-1.3-0.3-2c0-1.6,0.4-2.8,1.2-3.7
			s1.9-1.3,3.4-1.3c0.8,0,1.4,0.1,2,0.4c0.6,0.2,1.1,0.6,1.4,1c0.4,0.4,0.7,1,0.9,1.6C584.8,52.2,584.9,52.9,584.9,53.6z
			 M582.6,53.7c0-0.4,0-0.8-0.1-1.3s-0.2-0.8-0.3-1.1s-0.4-0.6-0.7-0.8s-0.7-0.3-1.3-0.3c-0.5,0-0.9,0.1-1.2,0.3
			c-0.3,0.2-0.5,0.5-0.7,0.8c-0.2,0.3-0.3,0.7-0.3,1.1s-0.1,0.8-0.1,1.2c0,0.4,0,0.9,0.1,1.3c0,0.4,0.2,0.8,0.3,1.1
			c0.2,0.3,0.4,0.6,0.7,0.8s0.7,0.3,1.3,0.3c0.5,0,0.9-0.1,1.2-0.3c0.3-0.2,0.5-0.5,0.7-0.8c0.2-0.3,0.3-0.7,0.3-1.1
			S582.6,54.1,582.6,53.7z"/>
		<path class="st4" d="M595.2,55.1c0,0.4,0,0.7,0,1s-0.1,0.5-0.1,0.7c-0.1,0.2-0.2,0.4-0.3,0.5c-0.1,0.2-0.2,0.3-0.4,0.4
			c-0.3,0.3-0.7,0.5-1.2,0.7s-1.1,0.3-1.8,0.3c-0.9,0-1.6-0.1-2.2-0.4c-0.6-0.3-1-0.6-1.3-1c-0.2-0.3-0.3-0.6-0.3-0.9
			c-0.1-0.3-0.1-0.7-0.1-1.2v-6.4h2.1v6.1c0,0.3,0,0.6,0,0.8s0.1,0.4,0.1,0.5c0.1,0.3,0.3,0.5,0.6,0.6c0.3,0.1,0.6,0.2,1,0.2
			c0.7,0,1.1-0.2,1.4-0.5c0.1-0.1,0.1-0.2,0.2-0.3c0-0.1,0.1-0.2,0.1-0.3c0-0.1,0.1-0.3,0.1-0.4s0-0.4,0-0.6v-6.2h2.1V55.1z"/>
		<path class="st4" d="M603.6,58.5l-1-1.6c-0.3-0.4-0.5-0.7-0.6-1c-0.2-0.3-0.3-0.5-0.4-0.6c-0.1-0.2-0.2-0.3-0.3-0.4
			c-0.1-0.1-0.2-0.2-0.3-0.3c-0.1-0.1-0.2-0.1-0.3-0.2c-0.1,0-0.3-0.1-0.4-0.1v4h-2v-9.7h3.3c0.6,0,1.2,0.1,1.6,0.2
			c0.4,0.1,0.8,0.3,1.1,0.5c0.7,0.6,1,1.3,1,2.2c0,0.4-0.1,0.7-0.2,1.1c-0.1,0.3-0.3,0.6-0.5,0.8c-0.2,0.2-0.5,0.4-0.8,0.6
			c-0.3,0.1-0.6,0.2-1,0.3c0.1,0.1,0.3,0.3,0.4,0.5c0.2,0.2,0.4,0.5,0.6,0.8c0.2,0.3,0.5,0.6,0.7,1l1.3,2H603.6z M603.3,51.6
			c0-0.3-0.1-0.5-0.2-0.7s-0.3-0.3-0.5-0.4c-0.2-0.1-0.4-0.1-0.7-0.2c-0.2,0-0.5,0-0.7,0h-1V53h0.9c0.3,0,0.5,0,0.8,0
			c0.3,0,0.5-0.1,0.7-0.2s0.4-0.2,0.5-0.4C603.3,52.2,603.3,52,603.3,51.6z"/>
		<path class="st4" d="M615.3,57.7c-0.8,0.6-1.8,0.9-3,0.9c-0.7,0-1.3-0.1-1.9-0.3c-0.6-0.2-1-0.5-1.5-0.9c-1-0.9-1.5-2.2-1.5-3.7
			c0-1.2,0.3-2.2,0.8-3.1c0.4-0.7,1-1.2,1.7-1.6c0.7-0.4,1.5-0.6,2.3-0.6c0.5,0,1,0.1,1.5,0.2c0.5,0.1,0.9,0.3,1.2,0.6l-1,1.3
			c-0.6-0.3-1.1-0.5-1.7-0.5c-0.4,0-0.8,0.1-1.2,0.3c-0.4,0.2-0.7,0.4-0.9,0.8c-0.4,0.5-0.6,1.3-0.6,2.4c0,0.7,0,1.2,0.1,1.6
			c0.1,0.4,0.3,0.8,0.5,1.1c0.5,0.6,1.2,0.9,2,0.9c0.3,0,0.7,0,1-0.1c0.3-0.1,0.6-0.2,0.9-0.4L615.3,57.7z"/>
		<path class="st4" d="M617.5,58.5v-9.7h6.1l-0.3,1.6h-3.8v2.2h3.2v1.6h-3.2v2.6h4.2v1.7H617.5z"/>
	</g>
	<g class="st3">
		<path class="st4" d="M569.2,71.3c0,1-0.1,1.9-0.3,2.6s-0.6,1.5-1,2c-0.4,0.6-1,1-1.6,1.3c-0.6,0.3-1.4,0.5-2.2,0.5
			c-0.9,0-1.7-0.2-2.3-0.5c-0.7-0.3-1.2-0.8-1.7-1.3s-0.8-1.2-1-2s-0.3-1.6-0.3-2.6c0-1,0.1-1.9,0.4-2.7s0.6-1.5,1.1-2s1-1,1.6-1.2
			c0.6-0.3,1.3-0.4,2.1-0.4c0.9,0,1.6,0.2,2.3,0.5s1.2,0.8,1.6,1.4c0.4,0.6,0.8,1.3,1,2C569.1,69.5,569.2,70.4,569.2,71.3z
			 M566.9,71.4c0-0.8,0-1.4-0.1-2.1c-0.1-0.6-0.2-1.1-0.5-1.6c-0.2-0.4-0.5-0.8-0.9-1c-0.4-0.2-0.8-0.3-1.4-0.3
			c-1,0-1.8,0.4-2.2,1.2c-0.4,0.8-0.7,2-0.7,3.5c0,0.8,0.1,1.5,0.2,2.1c0.1,0.6,0.3,1.1,0.5,1.6c0.2,0.4,0.5,0.7,0.9,1
			c0.4,0.2,0.8,0.3,1.4,0.3c0.5,0,0.9-0.1,1.2-0.3c0.3-0.2,0.6-0.5,0.9-0.8c0.2-0.4,0.4-0.9,0.5-1.5C566.8,73,566.9,72.3,566.9,71.4
			z"/>
		<path class="st4" d="M580.6,77.6h-2.2l-1-4.1c-0.1-0.3-0.2-0.7-0.2-1c-0.1-0.4-0.1-0.7-0.2-1c0-0.3-0.1-0.6-0.1-0.8
			c0-0.2,0-0.4,0-0.4c0,0,0,0.1-0.1,0.4c0,0.2-0.1,0.5-0.2,0.8c-0.1,0.3-0.1,0.7-0.2,1c-0.1,0.4-0.1,0.7-0.2,1l-0.9,4.1H573
			l-2.6-9.8h2.1l1,4c0.1,0.4,0.2,0.7,0.2,1.1c0.1,0.4,0.1,0.8,0.2,1.1c0.1,0.3,0.1,0.6,0.1,0.9c0,0.2,0.1,0.4,0.1,0.4
			c0,0,0-0.2,0.1-0.4c0-0.2,0.1-0.5,0.1-0.9c0.1-0.3,0.1-0.7,0.2-1.1c0.1-0.4,0.2-0.8,0.2-1.1l1-4.1h2.2l1,4.5
			c0.1,0.2,0.1,0.5,0.2,0.9c0.1,0.3,0.1,0.7,0.2,1c0.1,0.4,0.1,0.7,0.2,1.1c0.1-0.5,0.1-0.9,0.2-1.3c0.1-0.4,0.1-0.7,0.2-1.1
			c0.1-0.4,0.2-0.7,0.2-1l1-4h2.1L580.6,77.6z"/>
		<path class="st4" d="M590.3,77.5L588,73c-0.1-0.2-0.3-0.5-0.4-0.8c-0.1-0.3-0.3-0.6-0.4-0.9c-0.1-0.3-0.3-0.7-0.4-1
			c0,0.4,0,0.7,0.1,1.1c0,0.3,0,0.6,0,1s0,0.6,0,0.9l0.1,4.3h-2v-9.7h2.2l2.4,4.4c0.1,0.2,0.2,0.5,0.4,0.7c0.1,0.3,0.2,0.5,0.3,0.8
			c0.1,0.2,0.2,0.4,0.3,0.6c0.1,0.2,0.1,0.3,0.1,0.3c0,0,0-0.1,0-0.3c0-0.2,0-0.4-0.1-0.7s0-0.6-0.1-0.9s0-0.6,0-0.8l0-4.1h1.9v9.7
			H590.3z"/>
		<path class="st4" d="M595.7,77.5v-9.7h6.1l-0.3,1.6h-3.8v2.2h3.2v1.6h-3.2v2.6h4.2v1.7H595.7z"/>
		<path class="st4" d="M609.5,77.5l-1-1.6c-0.3-0.4-0.5-0.7-0.6-1s-0.3-0.5-0.4-0.6s-0.2-0.3-0.3-0.4c-0.1-0.1-0.2-0.2-0.3-0.3
			c-0.1-0.1-0.2-0.1-0.3-0.2c-0.1,0-0.3-0.1-0.4-0.1v4h-2v-9.7h3.3c0.6,0,1.2,0.1,1.6,0.2c0.5,0.1,0.8,0.3,1.1,0.5
			c0.7,0.6,1,1.3,1,2.2c0,0.4-0.1,0.7-0.2,1.1c-0.1,0.3-0.3,0.6-0.5,0.8c-0.2,0.2-0.5,0.4-0.8,0.6c-0.3,0.1-0.6,0.2-1,0.3
			c0.1,0.1,0.3,0.3,0.4,0.5c0.2,0.2,0.4,0.5,0.6,0.8c0.2,0.3,0.5,0.6,0.7,1l1.3,2H609.5z M609.2,70.6c0-0.3-0.1-0.5-0.2-0.7
			s-0.3-0.3-0.5-0.4c-0.2-0.1-0.4-0.1-0.7-0.2c-0.2,0-0.5,0-0.7,0h-1V72h0.9c0.3,0,0.5,0,0.8,0c0.3,0,0.5-0.1,0.7-0.2
			s0.4-0.2,0.5-0.4C609.1,71.2,609.2,71,609.2,70.6z"/>
	</g>
	<rect x="504" y="132" class="st7" width="162" height="75"/>
	<rect x="504" y="132" class="st8" width="162" height="75"/>
	<g class="st3">
		<path class="st4" d="M533.1,166.5l-1-3.3h-4l-1,3.3h-2.1L529,154h2.4l4,12.5H533.1z M531.7,161.5c0,0-0.1-0.2-0.2-0.5
			s-0.2-0.6-0.3-1c-0.1-0.4-0.2-0.8-0.3-1.2c-0.1-0.4-0.2-0.8-0.3-1.2c-0.1-0.4-0.2-0.7-0.3-1c-0.1-0.3-0.1-0.5-0.1-0.5h0
			c-0.2,0.9-0.5,1.7-0.7,2.4c-0.1,0.3-0.2,0.6-0.3,0.9c-0.1,0.3-0.2,0.6-0.3,0.9c-0.1,0.3-0.2,0.5-0.2,0.7c-0.1,0.2-0.1,0.4-0.1,0.5
			H531.7z"/>
		<path class="st4" d="M544.6,163.1c0,0.4,0,0.7,0,1c0,0.3-0.1,0.5-0.1,0.7c-0.1,0.2-0.2,0.4-0.3,0.5s-0.2,0.3-0.4,0.4
			c-0.3,0.3-0.7,0.5-1.2,0.7c-0.5,0.2-1.1,0.3-1.8,0.3c-0.9,0-1.6-0.1-2.2-0.4c-0.6-0.3-1-0.6-1.3-1c-0.2-0.3-0.3-0.6-0.3-0.9
			c-0.1-0.3-0.1-0.7-0.1-1.2v-6.4h2.1v6.1c0,0.3,0,0.6,0,0.8c0,0.2,0.1,0.4,0.1,0.5c0.1,0.3,0.3,0.5,0.6,0.6c0.3,0.1,0.6,0.2,1,0.2
			c0.7,0,1.1-0.2,1.4-0.5c0.1-0.1,0.1-0.2,0.2-0.3c0-0.1,0.1-0.2,0.1-0.3c0-0.1,0.1-0.3,0.1-0.4s0-0.4,0-0.6v-6.2h2.1V163.1z"/>
		<path class="st4" d="M553.7,158.4h-2.6v8.1h-2v-8.1h-2.7v-1.6h7.7L553.7,158.4z"/>
		<path class="st4" d="M561.2,166.5v-4.3h-3.3v4.3h-2v-9.7h2v3.8h3.3v-3.8h2.1v9.7H561.2z"/>
		<path class="st4" d="M575.2,161.6c0,0.7-0.1,1.4-0.3,2c-0.2,0.6-0.5,1.1-0.8,1.6c-0.4,0.4-0.8,0.8-1.4,1c-0.6,0.2-1.3,0.4-2,0.4
			c-0.8,0-1.4-0.1-2-0.4c-0.6-0.2-1.1-0.6-1.5-1c-0.4-0.4-0.7-1-0.9-1.6c-0.2-0.6-0.3-1.3-0.3-2c0-1.6,0.4-2.8,1.2-3.7
			s1.9-1.3,3.4-1.3c0.8,0,1.4,0.1,2,0.4s1.1,0.6,1.4,1c0.4,0.4,0.7,1,0.9,1.6C575.1,160.2,575.2,160.9,575.2,161.6z M572.9,161.7
			c0-0.4,0-0.8-0.1-1.3c0-0.4-0.2-0.8-0.3-1.1s-0.4-0.6-0.7-0.8c-0.3-0.2-0.7-0.3-1.3-0.3c-0.5,0-0.9,0.1-1.2,0.3s-0.5,0.5-0.7,0.8
			c-0.2,0.3-0.3,0.7-0.3,1.1c0,0.4-0.1,0.8-0.1,1.2c0,0.4,0,0.9,0.1,1.3c0,0.4,0.2,0.8,0.3,1.1c0.2,0.3,0.4,0.6,0.7,0.8
			c0.3,0.2,0.7,0.3,1.3,0.3c0.5,0,0.9-0.1,1.2-0.3c0.3-0.2,0.5-0.5,0.7-0.8s0.3-0.7,0.3-1.1C572.8,162.5,572.9,162.1,572.9,161.7z"
			/>
		<path class="st4" d="M583.2,166.5l-1-1.6c-0.3-0.4-0.5-0.7-0.6-1c-0.2-0.3-0.3-0.5-0.4-0.6s-0.2-0.3-0.3-0.4
			c-0.1-0.1-0.2-0.2-0.3-0.3c-0.1-0.1-0.2-0.1-0.3-0.2c-0.1,0-0.3-0.1-0.4-0.1v4h-2v-9.7h3.3c0.6,0,1.2,0.1,1.6,0.2
			c0.5,0.1,0.8,0.3,1.1,0.5c0.7,0.6,1,1.3,1,2.2c0,0.4-0.1,0.7-0.2,1.1c-0.1,0.3-0.3,0.6-0.5,0.8c-0.2,0.2-0.5,0.4-0.8,0.6
			c-0.3,0.1-0.6,0.2-1,0.3c0.1,0.1,0.3,0.3,0.4,0.5c0.2,0.2,0.4,0.5,0.6,0.8c0.2,0.3,0.5,0.6,0.7,1l1.3,2H583.2z M582.8,159.6
			c0-0.3-0.1-0.5-0.2-0.7c-0.1-0.2-0.3-0.3-0.5-0.4c-0.2-0.1-0.4-0.1-0.7-0.2c-0.2,0-0.5,0-0.7,0h-1v2.7h0.9c0.3,0,0.5,0,0.8,0
			c0.3,0,0.5-0.1,0.7-0.2s0.4-0.2,0.5-0.4C582.8,160.2,582.8,160,582.8,159.6z"/>
		<path class="st4" d="M587.6,166.5v-9.7h2.1v9.7H587.6z"/>
		<path class="st4" d="M598.8,166.5h-6.7v-1.4l4.2-6c0.1-0.1,0.1-0.2,0.2-0.3s0.2-0.2,0.2-0.3c0.1-0.1,0.2-0.2,0.3-0.3
			c-0.1,0-0.3,0-0.4,0c-0.1,0-0.3,0-0.4,0c-0.1,0-0.3,0-0.4,0h-3.5l0.5-1.6h6.4v1.4l-4.1,6c-0.1,0.1-0.1,0.2-0.2,0.3
			c-0.1,0.1-0.1,0.2-0.2,0.2c-0.1,0.1-0.2,0.2-0.2,0.3c0.1,0,0.3,0,0.4,0c0.1,0,0.2,0,0.4,0s0.2,0,0.3,0h3.8L598.8,166.5z"/>
		<path class="st4" d="M607.4,166.5l-0.8-2.3h-3.3l-0.8,2.3h-2.1l3.6-9.8h2.2l3.5,9.8H607.4z M604.9,158.5l-1.2,4.1h2.4L604.9,158.5
			z"/>
		<path class="st4" d="M617.2,158.4h-2.6v8.1h-2v-8.1h-2.7v-1.6h7.7L617.2,158.4z"/>
		<path class="st4" d="M619.2,166.5v-9.7h2.1v9.7H619.2z"/>
		<path class="st4" d="M633.2,161.6c0,0.7-0.1,1.4-0.3,2c-0.2,0.6-0.5,1.1-0.8,1.6c-0.4,0.4-0.8,0.8-1.4,1c-0.6,0.2-1.3,0.4-2,0.4
			c-0.8,0-1.4-0.1-2-0.4c-0.6-0.2-1.1-0.6-1.5-1c-0.4-0.4-0.7-1-0.9-1.6c-0.2-0.6-0.3-1.3-0.3-2c0-1.6,0.4-2.8,1.2-3.7
			c0.8-0.9,1.9-1.3,3.4-1.3c0.8,0,1.4,0.1,2,0.4s1.1,0.6,1.4,1c0.4,0.4,0.7,1,0.9,1.6C633.1,160.2,633.2,160.9,633.2,161.6z
			 M630.9,161.7c0-0.4,0-0.8-0.1-1.3s-0.2-0.8-0.3-1.1s-0.4-0.6-0.7-0.8s-0.7-0.3-1.3-0.3c-0.5,0-0.9,0.1-1.2,0.3
			c-0.3,0.2-0.5,0.5-0.7,0.8s-0.3,0.7-0.3,1.1s-0.1,0.8-0.1,1.2c0,0.4,0,0.9,0.1,1.3c0,0.4,0.2,0.8,0.3,1.1s0.4,0.6,0.7,0.8
			s0.7,0.3,1.3,0.3c0.5,0,0.9-0.1,1.2-0.3c0.3-0.2,0.5-0.5,0.7-0.8c0.2-0.3,0.3-0.7,0.3-1.1S630.9,162.1,630.9,161.7z"/>
		<path class="st4" d="M641.3,166.5L639,162c-0.1-0.2-0.3-0.5-0.4-0.8c-0.1-0.3-0.3-0.6-0.4-0.9c-0.1-0.3-0.3-0.7-0.4-1
			c0,0.4,0,0.7,0.1,1.1c0,0.3,0,0.6,0,1s0,0.6,0,0.9l0.1,4.3h-2v-9.7h2.2l2.4,4.4c0.1,0.2,0.2,0.5,0.4,0.7c0.1,0.3,0.2,0.5,0.3,0.8
			c0.1,0.2,0.2,0.4,0.3,0.6c0.1,0.2,0.1,0.3,0.1,0.3c0,0,0-0.1,0-0.3c0-0.2,0-0.4-0.1-0.7s0-0.6-0.1-0.9s0-0.6,0-0.8l0-4.1h1.9v9.7
			H641.3z"/>
	</g>
	<g class="st3">
		<path class="st4" d="M566.8,181.7c0,0.5-0.1,1-0.3,1.5c-0.2,0.5-0.5,0.9-0.9,1.3c-0.4,0.4-0.9,0.7-1.5,0.9
			c-0.6,0.2-1.3,0.3-2.1,0.3c-0.7,0-1.4-0.1-2.1-0.3s-1.4-0.5-2-0.8l0.8-1.6c0.6,0.3,1.1,0.6,1.6,0.8s1.1,0.3,1.7,0.3
			c0.8,0,1.4-0.2,1.8-0.5c0.4-0.3,0.6-0.8,0.6-1.5c0-0.5-0.1-0.8-0.4-1.1c-0.3-0.3-0.8-0.5-1.4-0.7l-1.3-0.4
			c-0.6-0.2-1.1-0.4-1.5-0.6s-0.7-0.5-1-0.9c-0.3-0.5-0.5-1.1-0.5-1.8c0-0.6,0.1-1.1,0.3-1.5s0.5-0.8,0.9-1.2
			c0.4-0.3,0.8-0.6,1.3-0.8c0.5-0.2,1.1-0.3,1.7-0.3c0.7,0,1.4,0.1,2.1,0.3s1.3,0.5,1.8,0.9l-0.9,1.5c-0.6-0.3-1.1-0.6-1.5-0.7
			c-0.4-0.1-0.9-0.2-1.4-0.2c-0.6,0-1.1,0.2-1.5,0.5s-0.6,0.7-0.6,1.2c0,0.4,0.1,0.7,0.4,0.9c0.2,0.2,0.7,0.4,1.3,0.6l1.5,0.4
			c0.9,0.3,1.6,0.7,2.2,1.3C566.5,180,566.8,180.8,566.8,181.7z"/>
		<path class="st4" d="M569.4,185.5v-9.7h6.1l-0.3,1.6h-3.8v2.2h3.2v1.6h-3.2v2.6h4.2v1.7H569.4z"/>
		<path class="st4" d="M583.2,185.5l-1-1.6c-0.3-0.4-0.5-0.7-0.6-1s-0.3-0.5-0.4-0.6c-0.1-0.2-0.2-0.3-0.3-0.4
			c-0.1-0.1-0.2-0.2-0.3-0.3c-0.1-0.1-0.2-0.1-0.3-0.2c-0.1,0-0.3-0.1-0.4-0.1v4h-2v-9.7h3.3c0.6,0,1.2,0.1,1.6,0.2
			c0.5,0.1,0.8,0.3,1.1,0.5c0.7,0.6,1,1.3,1,2.2c0,0.4-0.1,0.7-0.2,1.1s-0.3,0.6-0.5,0.8c-0.2,0.2-0.5,0.4-0.8,0.6
			c-0.3,0.1-0.6,0.2-1,0.3c0.1,0.1,0.3,0.3,0.4,0.5c0.2,0.2,0.4,0.5,0.6,0.8c0.2,0.3,0.5,0.6,0.7,1l1.3,2H583.2z M582.9,178.6
			c0-0.3-0.1-0.5-0.2-0.7c-0.1-0.2-0.3-0.3-0.5-0.4c-0.2-0.1-0.4-0.1-0.7-0.2c-0.2,0-0.5,0-0.7,0h-1v2.7h0.9c0.3,0,0.5,0,0.8,0
			c0.3,0,0.5-0.1,0.7-0.2s0.4-0.2,0.5-0.4C582.8,179.2,582.9,179,582.9,178.6z"/>
		<path class="st4" d="M591.3,185.6h-1.8l-3.7-9.8h2.2l1.8,5c0.1,0.2,0.1,0.4,0.2,0.7c0.1,0.3,0.1,0.5,0.2,0.8
			c0.1,0.3,0.1,0.6,0.2,0.8c0.1-0.3,0.1-0.6,0.2-0.8c0.1-0.2,0.1-0.5,0.2-0.7c0.1-0.3,0.2-0.5,0.2-0.7l1.9-5.1h2.1L591.3,185.6z"/>
		<path class="st4" d="M596.6,185.5v-9.7h6.1l-0.3,1.6h-3.8v2.2h3.2v1.6h-3.2v2.6h4.2v1.7H596.6z"/>
		<path class="st4" d="M610.4,185.5l-1-1.6c-0.3-0.4-0.5-0.7-0.6-1s-0.3-0.5-0.4-0.6c-0.1-0.2-0.2-0.3-0.3-0.4
			c-0.1-0.1-0.2-0.2-0.3-0.3c-0.1-0.1-0.2-0.1-0.3-0.2c-0.1,0-0.3-0.1-0.4-0.1v4h-2v-9.7h3.3c0.6,0,1.2,0.1,1.6,0.2
			c0.5,0.1,0.8,0.3,1.1,0.5c0.7,0.6,1,1.3,1,2.2c0,0.4-0.1,0.7-0.2,1.1s-0.3,0.6-0.5,0.8c-0.2,0.2-0.5,0.4-0.8,0.6
			c-0.3,0.1-0.6,0.2-1,0.3c0.1,0.1,0.3,0.3,0.4,0.5c0.2,0.2,0.4,0.5,0.6,0.8c0.2,0.3,0.5,0.6,0.7,1l1.3,2H610.4z M610.1,178.6
			c0-0.3-0.1-0.5-0.2-0.7c-0.1-0.2-0.3-0.3-0.5-0.4c-0.2-0.1-0.4-0.1-0.7-0.2c-0.2,0-0.5,0-0.7,0h-1v2.7h0.9c0.3,0,0.5,0,0.8,0
			c0.3,0,0.5-0.1,0.7-0.2s0.4-0.2,0.5-0.4C610,179.2,610.1,179,610.1,178.6z"/>
	</g>
	<rect x="504" y="240" class="st7" width="162" height="75"/>
	<rect x="504" y="240" class="st8" width="162" height="75"/>
	<g class="st3">
		<path class="st4" d="M553.3,274.5l-1.1-1.9c-0.4-0.8-0.8-1.4-1.1-1.9c-0.3-0.5-0.7-0.9-1-1.2c-0.1-0.1-0.2-0.2-0.3-0.3
			c-0.1-0.1-0.3-0.1-0.5-0.1v5.4h-2V262h3.8c0.7,0,1.3,0.1,1.8,0.3c0.5,0.2,0.9,0.5,1.3,0.8c0.3,0.3,0.6,0.7,0.7,1.1
			c0.2,0.4,0.2,0.9,0.2,1.4c0,0.4-0.1,0.9-0.2,1.3c-0.1,0.4-0.3,0.8-0.6,1.1c-0.3,0.3-0.6,0.6-1,0.8c-0.4,0.2-0.8,0.3-1.3,0.3
			c0.1,0.1,0.2,0.2,0.4,0.3c0.2,0.2,0.3,0.4,0.5,0.6c0.2,0.2,0.3,0.5,0.5,0.7c0.2,0.3,0.3,0.5,0.5,0.8l1.8,3H553.3z M553,265.6
			c0-0.6-0.2-1.1-0.6-1.4c-0.4-0.3-1-0.5-2-0.5h-1.1v3.9h1.1c0.5,0,1,0,1.3-0.1s0.6-0.2,0.8-0.4c0.2-0.2,0.3-0.4,0.4-0.6
			S553,266,553,265.6z"/>
		<path class="st4" d="M557.9,274.5v-9.7h6.1l-0.3,1.6H560v2.2h3.2v1.6H560v2.6h4.2v1.7H557.9z"/>
		<path class="st4" d="M573.6,271.5c0,0.6-0.1,1.1-0.4,1.5c-0.3,0.4-0.6,0.8-1,1c-0.4,0.3-0.9,0.4-1.4,0.6s-1,0.2-1.5,0.2
			c-0.6,0-1.2-0.1-1.8-0.2c-0.6-0.1-1.2-0.4-1.8-0.6l0.7-1.5c0.5,0.3,1,0.4,1.5,0.6c0.5,0.1,1,0.2,1.5,0.2c0.2,0,0.4,0,0.6,0
			c0.2,0,0.4-0.1,0.6-0.2s0.4-0.2,0.5-0.4c0.1-0.2,0.2-0.4,0.2-0.6c0-0.3-0.1-0.6-0.4-0.8c-0.2-0.2-0.6-0.4-1.2-0.5l-1.3-0.3
			c-0.7-0.2-1.3-0.5-1.7-0.9c-0.5-0.4-0.7-1-0.7-1.8c0-0.4,0.1-0.8,0.3-1.2c0.2-0.4,0.4-0.7,0.8-0.9s0.7-0.5,1.2-0.6
			c0.5-0.2,1-0.2,1.5-0.2c0.6,0,1.3,0.1,2,0.3s1.2,0.4,1.6,0.7l-1,1.4c-0.9-0.5-1.8-0.8-2.6-0.8c-0.5,0-0.9,0.1-1.2,0.3
			c-0.3,0.2-0.4,0.5-0.4,0.8c0,0.3,0.1,0.5,0.3,0.7c0.2,0.2,0.5,0.3,1,0.4l1.3,0.3c0.4,0.1,0.7,0.2,1.1,0.4c0.3,0.1,0.6,0.3,0.9,0.5
			c0.2,0.2,0.4,0.5,0.6,0.8C573.5,270.7,573.6,271,573.6,271.5z"/>
		<path class="st4" d="M584.9,269.6c0,0.7-0.1,1.4-0.3,2c-0.2,0.6-0.5,1.1-0.8,1.6c-0.4,0.4-0.8,0.8-1.4,1c-0.6,0.2-1.3,0.4-2,0.4
			c-0.8,0-1.4-0.1-2-0.4c-0.6-0.2-1.1-0.6-1.5-1c-0.4-0.4-0.7-1-0.9-1.6c-0.2-0.6-0.3-1.3-0.3-2c0-1.6,0.4-2.8,1.2-3.7
			s1.9-1.3,3.4-1.3c0.8,0,1.4,0.1,2,0.4c0.6,0.2,1.1,0.6,1.4,1c0.4,0.4,0.7,1,0.9,1.6C584.8,268.2,584.9,268.9,584.9,269.6z
			 M582.6,269.7c0-0.4,0-0.8-0.1-1.3s-0.2-0.8-0.3-1.1s-0.4-0.6-0.7-0.8s-0.7-0.3-1.3-0.3c-0.5,0-0.9,0.1-1.2,0.3
			c-0.3,0.2-0.5,0.5-0.7,0.8c-0.2,0.3-0.3,0.7-0.3,1.1s-0.1,0.8-0.1,1.2c0,0.4,0,0.9,0.1,1.3c0,0.4,0.2,0.8,0.3,1.1
			c0.2,0.3,0.4,0.6,0.7,0.8s0.7,0.3,1.3,0.3c0.5,0,0.9-0.1,1.2-0.3c0.3-0.2,0.5-0.5,0.7-0.8c0.2-0.3,0.3-0.7,0.3-1.1
			S582.6,270.1,582.6,269.7z"/>
		<path class="st4" d="M595.2,271.1c0,0.4,0,0.7,0,1s-0.1,0.5-0.1,0.7c-0.1,0.2-0.2,0.4-0.3,0.5c-0.1,0.2-0.2,0.3-0.4,0.4
			c-0.3,0.3-0.7,0.5-1.2,0.7s-1.1,0.3-1.8,0.3c-0.9,0-1.6-0.1-2.2-0.4c-0.6-0.3-1-0.6-1.3-1c-0.2-0.3-0.3-0.6-0.3-0.9
			c-0.1-0.3-0.1-0.7-0.1-1.2v-6.4h2.1v6.1c0,0.3,0,0.6,0,0.8s0.1,0.4,0.1,0.5c0.1,0.3,0.3,0.5,0.6,0.6c0.3,0.1,0.6,0.2,1,0.2
			c0.7,0,1.1-0.2,1.4-0.5c0.1-0.1,0.1-0.2,0.2-0.3c0-0.1,0.1-0.2,0.1-0.3c0-0.1,0.1-0.3,0.1-0.4s0-0.4,0-0.6v-6.2h2.1V271.1z"/>
		<path class="st4" d="M603.6,274.5l-1-1.6c-0.3-0.4-0.5-0.7-0.6-1c-0.2-0.3-0.3-0.5-0.4-0.6c-0.1-0.2-0.2-0.3-0.3-0.4
			c-0.1-0.1-0.2-0.2-0.3-0.3c-0.1-0.1-0.2-0.1-0.3-0.2c-0.1,0-0.3-0.1-0.4-0.1v4h-2v-9.7h3.3c0.6,0,1.2,0.1,1.6,0.2
			c0.4,0.1,0.8,0.3,1.1,0.5c0.7,0.6,1,1.3,1,2.2c0,0.4-0.1,0.7-0.2,1.1c-0.1,0.3-0.3,0.6-0.5,0.8c-0.2,0.2-0.5,0.4-0.8,0.6
			c-0.3,0.1-0.6,0.2-1,0.3c0.1,0.1,0.3,0.3,0.4,0.5c0.2,0.2,0.4,0.5,0.6,0.8c0.2,0.3,0.5,0.6,0.7,1l1.3,2H603.6z M603.3,267.6
			c0-0.3-0.1-0.5-0.2-0.7s-0.3-0.3-0.5-0.4c-0.2-0.1-0.4-0.1-0.7-0.2c-0.2,0-0.5,0-0.7,0h-1v2.7h0.9c0.3,0,0.5,0,0.8,0
			c0.3,0,0.5-0.1,0.7-0.2s0.4-0.2,0.5-0.4C603.3,268.2,603.3,268,603.3,267.6z"/>
		<path class="st4" d="M615.3,273.7c-0.8,0.6-1.8,0.9-3,0.9c-0.7,0-1.3-0.1-1.9-0.3c-0.6-0.2-1-0.5-1.5-0.9c-1-0.9-1.5-2.2-1.5-3.7
			c0-1.2,0.3-2.2,0.8-3.1c0.4-0.7,1-1.2,1.7-1.6c0.7-0.4,1.5-0.6,2.3-0.6c0.5,0,1,0.1,1.5,0.2c0.5,0.1,0.9,0.3,1.2,0.6l-1,1.3
			c-0.6-0.3-1.1-0.5-1.7-0.5c-0.4,0-0.8,0.1-1.2,0.3c-0.4,0.2-0.7,0.4-0.9,0.8c-0.4,0.5-0.6,1.3-0.6,2.4c0,0.7,0,1.2,0.1,1.6
			c0.1,0.4,0.3,0.8,0.5,1.1c0.5,0.6,1.2,0.9,2,0.9c0.3,0,0.7,0,1-0.1c0.3-0.1,0.6-0.2,0.9-0.4L615.3,273.7z"/>
		<path class="st4" d="M617.5,274.5v-9.7h6.1l-0.3,1.6h-3.8v2.2h3.2v1.6h-3.2v2.6h4.2v1.7H617.5z"/>
	</g>
	<g class="st3">
		<path class="st4" d="M566.8,289.7c0,0.5-0.1,1-0.3,1.5c-0.2,0.5-0.5,0.9-0.9,1.3c-0.4,0.4-0.9,0.7-1.5,0.9
			c-0.6,0.2-1.3,0.3-2.1,0.3c-0.7,0-1.4-0.1-2.1-0.3s-1.4-0.5-2-0.8l0.8-1.6c0.6,0.3,1.1,0.6,1.6,0.8s1.1,0.3,1.7,0.3
			c0.8,0,1.4-0.2,1.8-0.5c0.4-0.3,0.6-0.8,0.6-1.5c0-0.5-0.1-0.8-0.4-1.1c-0.3-0.3-0.8-0.5-1.4-0.7l-1.3-0.4
			c-0.6-0.2-1.1-0.4-1.5-0.6s-0.7-0.5-1-0.9c-0.3-0.5-0.5-1.1-0.5-1.8c0-0.6,0.1-1.1,0.3-1.5s0.5-0.8,0.9-1.2
			c0.4-0.3,0.8-0.6,1.3-0.8c0.5-0.2,1.1-0.3,1.7-0.3c0.7,0,1.4,0.1,2.1,0.3s1.3,0.5,1.8,0.9l-0.9,1.5c-0.6-0.3-1.1-0.6-1.5-0.7
			c-0.4-0.1-0.9-0.2-1.4-0.2c-0.6,0-1.1,0.2-1.5,0.5s-0.6,0.7-0.6,1.2c0,0.4,0.1,0.7,0.4,0.9c0.2,0.2,0.7,0.4,1.3,0.6l1.5,0.4
			c0.9,0.3,1.6,0.7,2.2,1.3C566.5,288,566.8,288.8,566.8,289.7z"/>
		<path class="st4" d="M569.4,293.5v-9.7h6.1l-0.3,1.6h-3.8v2.2h3.2v1.6h-3.2v2.6h4.2v1.7H569.4z"/>
		<path class="st4" d="M583.2,293.5l-1-1.6c-0.3-0.4-0.5-0.7-0.6-1s-0.3-0.5-0.4-0.6c-0.1-0.2-0.2-0.3-0.3-0.4
			c-0.1-0.1-0.2-0.2-0.3-0.3c-0.1-0.1-0.2-0.1-0.3-0.2c-0.1,0-0.3-0.1-0.4-0.1v4h-2v-9.7h3.3c0.6,0,1.2,0.1,1.6,0.2
			c0.5,0.1,0.8,0.3,1.1,0.5c0.7,0.6,1,1.3,1,2.2c0,0.4-0.1,0.7-0.2,1.1s-0.3,0.6-0.5,0.8c-0.2,0.2-0.5,0.4-0.8,0.6
			c-0.3,0.1-0.6,0.2-1,0.3c0.1,0.1,0.3,0.3,0.4,0.5c0.2,0.2,0.4,0.5,0.6,0.8c0.2,0.3,0.5,0.6,0.7,1l1.3,2H583.2z M582.9,286.6
			c0-0.3-0.1-0.5-0.2-0.7c-0.1-0.2-0.3-0.3-0.5-0.4c-0.2-0.1-0.4-0.1-0.7-0.2c-0.2,0-0.5,0-0.7,0h-1v2.7h0.9c0.3,0,0.5,0,0.8,0
			c0.3,0,0.5-0.1,0.7-0.2s0.4-0.2,0.5-0.4C582.8,287.2,582.9,287,582.9,286.6z"/>
		<path class="st4" d="M591.3,293.6h-1.8l-3.7-9.8h2.2l1.8,5c0.1,0.2,0.1,0.4,0.2,0.7c0.1,0.3,0.1,0.5,0.2,0.8
			c0.1,0.3,0.1,0.6,0.2,0.8c0.1-0.3,0.1-0.6,0.2-0.8c0.1-0.2,0.1-0.5,0.2-0.7c0.1-0.3,0.2-0.5,0.2-0.7l1.9-5.1h2.1L591.3,293.6z"/>
		<path class="st4" d="M596.6,293.5v-9.7h6.1l-0.3,1.6h-3.8v2.2h3.2v1.6h-3.2v2.6h4.2v1.7H596.6z"/>
		<path class="st4" d="M610.4,293.5l-1-1.6c-0.3-0.4-0.5-0.7-0.6-1s-0.3-0.5-0.4-0.6c-0.1-0.2-0.2-0.3-0.3-0.4
			c-0.1-0.1-0.2-0.2-0.3-0.3c-0.1-0.1-0.2-0.1-0.3-0.2c-0.1,0-0.3-0.1-0.4-0.1v4h-2v-9.7h3.3c0.6,0,1.2,0.1,1.6,0.2
			c0.5,0.1,0.8,0.3,1.1,0.5c0.7,0.6,1,1.3,1,2.2c0,0.4-0.1,0.7-0.2,1.1s-0.3,0.6-0.5,0.8c-0.2,0.2-0.5,0.4-0.8,0.6
			c-0.3,0.1-0.6,0.2-1,0.3c0.1,0.1,0.3,0.3,0.4,0.5c0.2,0.2,0.4,0.5,0.6,0.8c0.2,0.3,0.5,0.6,0.7,1l1.3,2H610.4z M610.1,286.6
			c0-0.3-0.1-0.5-0.2-0.7c-0.1-0.2-0.3-0.3-0.5-0.4c-0.2-0.1-0.4-0.1-0.7-0.2c-0.2,0-0.5,0-0.7,0h-1v2.7h0.9c0.3,0,0.5,0,0.8,0
			c0.3,0,0.5-0.1,0.7-0.2s0.4-0.2,0.5-0.4C610,287.2,610.1,287,610.1,286.6z"/>
	</g>
	<line class="st6" x1="171" y1="45" x2="482.1" y2="45"/>
	<polygon class="st5" points="491.7,45 482.1,41.4 482.1,48.6 	"/>
	<polygon class="st9" points="491.7,45 482.1,41.4 482.1,48.6 	"/>
	<line class="st6" x1="495" y1="81" x2="183.9" y2="81"/>
	<polygon class="st5" points="174.3,81 183.9,84.6 183.9,77.4 	"/>
	<polygon class="st9" points="174.3,81 183.9,84.6 183.9,77.4 	"/>
	<g class="st3">
		<path class="st10" d="M282.7,35.7h-1.4l-1-3.2h-3.8l-1,3.2h-1.2l3.4-10.3h1.6L282.7,35.7z M280,31.6l-1.6-5L278,28
			c-0.1,0.4-0.5,1.6-1.1,3.5H280z"/>
		<path class="st10" d="M290.1,35.2l-0.8,0.8c-0.5-0.4-0.7-0.8-0.8-1.2c-0.6,0.8-1.4,1.1-2.4,1.1c-1.4,0-2.2-0.7-2.2-2.2v-5.5
			l1.2-0.2v5.4c0,1,0.5,1.5,1.4,1.5c0.4,0,0.8-0.1,1.1-0.4c0.3-0.2,0.6-0.6,0.8-0.9v-5.3l1.2-0.2v5.3c0,0.7,0.1,1.2,0.2,1.4
			C289.9,35,290,35.1,290.1,35.2z"/>
		<path class="st10" d="M295.3,28.2l-0.4,0.9h-1.6V34c0,0.4,0.1,0.7,0.2,0.8c0.1,0.2,0.4,0.3,0.8,0.3c0.3,0,0.6,0,0.8-0.1l0.2,0.8
			c-0.4,0.2-0.8,0.3-1.3,0.3c-1.1,0-1.7-0.6-1.7-1.7v-5.1h-1v-0.9h1v-0.1c0-0.1,0-0.6,0.1-1.6l0-0.2l1.2-0.3
			c-0.1,0.8-0.1,1.5-0.1,2.1H295.3z"/>
		<path class="st10" d="M302.5,35.7h-1.2v-5.1c0-0.5-0.1-0.8-0.2-1c-0.2-0.3-0.5-0.4-0.9-0.4c-0.8,0-1.5,0.4-2.2,1.3v5.3h-1.2v-9.2
			c0-0.5-0.1-1-0.2-1.5l1.2-0.2c0.1,0.5,0.2,1.1,0.2,1.7v1.7c0,0.3,0,0.6,0,1c0.2-0.2,0.5-0.4,0.8-0.6c0.6-0.4,1.2-0.6,1.7-0.6
			c0.5,0,0.9,0.1,1.3,0.4c0.4,0.3,0.6,0.7,0.7,1.1c0,0.2,0,0.4,0,0.7V35.7z"/>
		<path class="st10" d="M311,32.2c0,1.4-0.4,2.4-1.2,3.1c-0.6,0.5-1.2,0.7-2,0.7c-1.1,0-1.9-0.4-2.5-1.2c-0.5-0.7-0.8-1.6-0.8-2.8
			c0-1.1,0.2-2,0.7-2.7c0.6-0.8,1.4-1.2,2.4-1.2c1.1,0,2,0.4,2.5,1.3C310.8,30.1,311,31,311,32.2z M309.7,32.3
			c0-0.9-0.1-1.6-0.3-2.1c-0.3-0.7-0.9-1.1-1.6-1.1c-0.8,0-1.3,0.3-1.6,0.9c-0.2,0.4-0.3,1-0.3,1.9c0,1,0.1,1.7,0.3,2.1
			c0.3,0.7,0.9,1.1,1.7,1.1C309,35,309.7,34.1,309.7,32.3z"/>
		<path class="st10" d="M316.9,28.1l-0.5,1.2c-0.1,0-0.2,0-0.3,0c-0.3,0-0.6,0.1-0.9,0.3c-0.3,0.2-0.5,0.4-0.7,0.6
			c-0.1,0.2-0.1,0.4-0.1,0.8v4.7h-1.2V30c0-0.7-0.1-1.2-0.3-1.6l1.2-0.3c0.2,0.4,0.3,0.7,0.3,1.1v0.1c0.6-0.8,1.3-1.2,2.1-1.2
			C316.6,28.1,316.7,28.1,316.9,28.1z"/>
		<path class="st10" d="M319.5,26c0,0.3-0.1,0.5-0.3,0.7c-0.2,0.2-0.4,0.3-0.7,0.3c-0.2,0-0.5-0.1-0.6-0.3c-0.2-0.2-0.3-0.4-0.3-0.6
			c0-0.3,0.1-0.5,0.3-0.7c0.2-0.2,0.4-0.3,0.7-0.3s0.5,0.1,0.7,0.3C319.4,25.5,319.5,25.7,319.5,26z M319.2,35.7h-1.2v-7.4l1.2-0.2
			V35.7z"/>
		<path class="st10" d="M326.4,34.8l-0.6,0.9h-5v-0.9l4.1-5.6h-3.8v-0.9h5v1l-3.9,5.6H326.4z"/>
		<path class="st10" d="M333.7,35.2l-0.6,0.8c-0.5-0.2-0.9-0.5-1-1.1c-0.7,0.7-1.4,1-2.2,1c-0.7,0-1.3-0.2-1.7-0.5
			c-0.5-0.4-0.7-0.9-0.7-1.6c0-1,0.4-1.7,1.3-2.1c0.7-0.4,1.6-0.5,2.6-0.5c0.2,0,0.4,0,0.5,0v-0.5c0-0.6-0.1-1-0.2-1.2
			c-0.2-0.3-0.6-0.4-1-0.4c-0.9,0-1.6,0.3-2.4,0.9l-0.6-0.8c1-0.7,2.1-1,3.1-1c1.1,0,1.8,0.4,2.1,1.2c0.1,0.3,0.2,0.7,0.2,1.3v0.4
			l-0.1,2.5c0,0.1,0,0.2,0,0.3c0,0.4,0,0.7,0.1,0.9C333.3,34.8,333.4,35,333.7,35.2z M332,31.9c-0.3,0-0.5,0-0.6,0
			c-1.7,0-2.6,0.6-2.6,1.8c0,0.9,0.4,1.4,1.3,1.4c0.8,0,1.4-0.4,1.8-1.2L332,31.9z"/>
		<path class="st10" d="M338.8,28.2l-0.4,0.9h-1.6V34c0,0.4,0.1,0.7,0.2,0.8c0.1,0.2,0.4,0.3,0.8,0.3c0.3,0,0.6,0,0.8-0.1l0.2,0.8
			c-0.4,0.2-0.8,0.3-1.3,0.3c-1.1,0-1.7-0.6-1.7-1.7v-5.1h-1v-0.9h1v-0.1c0-0.1,0-0.6,0.1-1.6l0-0.2l1.2-0.3
			c-0.1,0.8-0.1,1.5-0.1,2.1H338.8z"/>
		<path class="st10" d="M342,26c0,0.3-0.1,0.5-0.3,0.7c-0.2,0.2-0.4,0.3-0.7,0.3c-0.2,0-0.5-0.1-0.6-0.3c-0.2-0.2-0.3-0.4-0.3-0.6
			c0-0.3,0.1-0.5,0.3-0.7c0.2-0.2,0.4-0.3,0.7-0.3s0.5,0.1,0.7,0.3C341.9,25.5,342,25.7,342,26z M341.7,35.7h-1.2v-7.4l1.2-0.2V35.7
			z"/>
		<path class="st10" d="M350.3,32.2c0,1.4-0.4,2.4-1.2,3.1c-0.6,0.5-1.2,0.7-2,0.7c-1.1,0-1.9-0.4-2.5-1.2c-0.5-0.7-0.8-1.6-0.8-2.8
			c0-1.1,0.2-2,0.7-2.7c0.6-0.8,1.4-1.2,2.4-1.2c1.1,0,2,0.4,2.5,1.3C350,30.1,350.3,31,350.3,32.2z M348.9,32.3
			c0-0.9-0.1-1.6-0.3-2.1c-0.3-0.7-0.9-1.1-1.7-1.1c-0.8,0-1.3,0.3-1.6,0.9c-0.2,0.4-0.3,1-0.3,1.9c0,1,0.1,1.7,0.3,2.1
			c0.3,0.7,0.9,1.1,1.7,1.1C348.3,35,348.9,34.1,348.9,32.3z"/>
		<path class="st10" d="M358,35.7h-1.2v-5.1c0-0.5-0.1-0.9-0.2-1.1c-0.2-0.3-0.5-0.5-0.9-0.5c-0.3,0-0.7,0.1-1.1,0.3
			c-0.4,0.2-0.7,0.4-0.9,0.7v5.6h-1.1v-5.6c0-0.8-0.1-1.3-0.3-1.8l1.1-0.3c0.2,0.4,0.3,0.8,0.3,1.2c0.8-0.8,1.6-1.2,2.4-1.2
			c0.4,0,0.8,0.1,1.1,0.3c0.3,0.2,0.6,0.5,0.7,0.8c0.1,0.3,0.2,0.6,0.2,0.9V35.7z"/>
		<path class="st10" d="M372.1,35.7h-1.5c-0.5-1.1-1.4-2.5-2.6-4c-0.3-0.4-0.7-0.6-1.1-0.7v4.6h-1.2V25.5h2.4c1.2,0,2.1,0.2,2.6,0.7
			c0.7,0.6,1,1.3,1,2.2c0,0.8-0.2,1.5-0.7,2c-0.5,0.5-1.2,0.8-2,0.8h-0.1c0.3,0.3,0.7,0.6,1,1.2c0.1,0.2,0.4,0.6,0.8,1.2
			C370.9,33.8,371.4,34.6,372.1,35.7z M370.3,28.3c0-0.3-0.1-0.6-0.3-0.9s-0.4-0.5-0.7-0.6c-0.4-0.1-0.8-0.2-1.3-0.2h-1.2v3.8h1.1
			c0.8,0,1.4-0.1,1.8-0.4C370.1,29.6,370.3,29,370.3,28.3z"/>
		<path class="st10" d="M379.5,32.2h-4.7v0.2c0,0.7,0.1,1.3,0.3,1.6c0.4,0.6,1,0.9,1.9,0.9c0.7,0,1.3-0.2,1.8-0.7l0.5,0.8
			c-0.7,0.6-1.5,0.9-2.5,0.9c-1.1,0-2-0.4-2.5-1.2c-0.5-0.7-0.8-1.6-0.8-2.8c0-1.1,0.3-1.9,0.8-2.7c0.6-0.8,1.4-1.2,2.4-1.2
			c0.8,0,1.5,0.3,2,0.8c0.4,0.4,0.6,0.9,0.7,1.5c0.1,0.4,0.1,0.9,0.1,1.7V32.2z M378.3,31.3c0-0.7-0.1-1.2-0.3-1.6
			c-0.3-0.5-0.7-0.7-1.4-0.7c-1.1,0-1.7,0.8-1.7,2.3H378.3z"/>
		<path class="st10" d="M387.6,28.2c-0.2,0.3-0.2,1-0.2,2.1v8.2l-1.1,0.2v-3.9c-0.6,0.7-1.3,1-2.1,1c-0.7,0-1.2-0.2-1.7-0.6
			c-0.8-0.7-1.2-1.7-1.2-3c0-1.4,0.2-2.3,0.7-3c0.6-0.8,1.3-1.2,2.2-1.2c0.8,0,1.5,0.4,2.1,1.1c0-0.4,0.1-0.7,0.2-0.8H387.6z
			 M386.2,33.7v-3.6c-0.2-0.3-0.5-0.6-0.8-0.8c-0.4-0.2-0.7-0.3-1.1-0.3c-1.2,0-1.9,1-1.9,2.9c0,1.9,0.7,2.9,2,2.9
			C385.2,34.9,385.8,34.5,386.2,33.7z"/>
		<path class="st10" d="M396,35.2l-0.8,0.8c-0.5-0.4-0.7-0.8-0.8-1.2c-0.6,0.8-1.4,1.1-2.4,1.1c-1.4,0-2.2-0.7-2.2-2.2v-5.5l1.2-0.2
			v5.4c0,1,0.5,1.5,1.4,1.5c0.4,0,0.8-0.1,1.1-0.4c0.3-0.2,0.6-0.6,0.8-0.9v-5.3l1.2-0.2v5.3c0,0.7,0.1,1.2,0.2,1.4
			C395.7,35,395.8,35.1,396,35.2z"/>
		<path class="st10" d="M403.4,32.2h-4.7v0.2c0,0.7,0.1,1.3,0.3,1.6c0.4,0.6,1,0.9,1.9,0.9c0.7,0,1.3-0.2,1.8-0.7l0.5,0.8
			c-0.7,0.6-1.5,0.9-2.5,0.9c-1.1,0-2-0.4-2.5-1.2c-0.5-0.7-0.8-1.6-0.8-2.8c0-1.1,0.3-1.9,0.8-2.7c0.6-0.8,1.4-1.2,2.4-1.2
			c0.8,0,1.5,0.3,2,0.8c0.4,0.4,0.6,0.9,0.7,1.5c0.1,0.4,0.1,0.9,0.1,1.7V32.2z M402.1,31.3c0-0.7-0.1-1.2-0.3-1.6
			c-0.3-0.5-0.7-0.7-1.4-0.7c-1.1,0-1.7,0.8-1.7,2.3H402.1z"/>
		<path class="st10" d="M410.1,33.5c0,0.8-0.3,1.4-0.9,1.8c-0.5,0.4-1.2,0.6-2,0.6c-1,0-1.9-0.2-2.7-0.8l0.5-0.9
			c0.8,0.5,1.6,0.7,2.4,0.7c0.4,0,0.8-0.1,1.1-0.3s0.4-0.5,0.4-1c0-0.6-0.4-1-1.2-1.2l-0.9-0.2c-1.3-0.3-1.9-1-1.9-2
			c0-0.7,0.3-1.3,0.8-1.7c0.5-0.4,1.1-0.6,1.8-0.6c0.8,0,1.6,0.2,2.3,0.6l-0.4,0.9c-0.8-0.4-1.4-0.5-1.9-0.5c-0.4,0-0.7,0.1-1,0.3
			c-0.3,0.2-0.4,0.5-0.4,0.9c0,0.6,0.4,0.9,1.1,1.1l1,0.2C409.5,31.7,410.1,32.4,410.1,33.5z"/>
		<path class="st10" d="M415.3,28.2l-0.4,0.9h-1.6V34c0,0.4,0.1,0.7,0.2,0.8c0.1,0.2,0.4,0.3,0.8,0.3c0.3,0,0.6,0,0.8-0.1l0.2,0.8
			c-0.4,0.2-0.8,0.3-1.3,0.3c-1.1,0-1.7-0.6-1.7-1.7v-5.1h-1v-0.9h1v-0.1c0-0.1,0-0.6,0.1-1.6l0-0.2l1.2-0.3
			c-0.1,0.8-0.1,1.5-0.1,2.1H415.3z"/>
	</g>
	<g class="st3">
		<path class="st10" d="M282.3,71.3h-1.4l-1-3.2h-3.8l-1,3.2h-1.2l3.4-10.3h1.6L282.3,71.3z M279.6,67.1l-1.6-5l-0.5,1.5
			c-0.1,0.4-0.5,1.6-1.1,3.5H279.6z"/>
		<path class="st10" d="M289.7,70.8l-0.8,0.8c-0.5-0.4-0.7-0.8-0.8-1.2c-0.6,0.8-1.4,1.1-2.4,1.1c-1.4,0-2.2-0.7-2.2-2.2v-5.5
			l1.2-0.2v5.4c0,1,0.5,1.5,1.4,1.5c0.4,0,0.8-0.1,1.1-0.4c0.3-0.2,0.6-0.6,0.8-0.9v-5.3l1.2-0.2V69c0,0.7,0.1,1.2,0.2,1.4
			C289.4,70.6,289.5,70.7,289.7,70.8z"/>
		<path class="st10" d="M294.8,63.8l-0.4,0.9h-1.6v4.8c0,0.4,0.1,0.7,0.2,0.8c0.1,0.2,0.4,0.3,0.8,0.3c0.3,0,0.6,0,0.8-0.1l0.2,0.8
			c-0.4,0.2-0.8,0.3-1.3,0.3c-1.1,0-1.7-0.6-1.7-1.7v-5.1h-1v-0.9h1v-0.1c0-0.1,0-0.6,0.1-1.6l0-0.2l1.2-0.3
			c-0.1,0.8-0.1,1.5-0.1,2.1H294.8z"/>
		<path class="st10" d="M302,71.3h-1.2v-5.1c0-0.5-0.1-0.8-0.2-1c-0.2-0.3-0.5-0.4-0.9-0.4c-0.8,0-1.5,0.4-2.2,1.3v5.3h-1.2v-9.2
			c0-0.5-0.1-1-0.2-1.5l1.2-0.2c0.1,0.5,0.2,1.1,0.2,1.7v1.7c0,0.3,0,0.6,0,1c0.2-0.2,0.5-0.4,0.8-0.6c0.6-0.4,1.2-0.6,1.7-0.6
			c0.5,0,0.9,0.1,1.3,0.4c0.4,0.3,0.6,0.7,0.7,1.1c0,0.2,0,0.4,0,0.7V71.3z"/>
		<path class="st10" d="M310.6,67.8c0,1.4-0.4,2.4-1.2,3.1c-0.6,0.5-1.2,0.7-2,0.7c-1.1,0-1.9-0.4-2.5-1.2c-0.5-0.7-0.8-1.6-0.8-2.8
			c0-1.1,0.2-2,0.7-2.7c0.6-0.8,1.4-1.2,2.4-1.2c1.1,0,2,0.4,2.5,1.3C310.3,65.7,310.6,66.6,310.6,67.8z M309.2,67.9
			c0-0.9-0.1-1.6-0.3-2.1c-0.3-0.7-0.9-1.1-1.6-1.1c-0.8,0-1.3,0.3-1.6,0.9c-0.2,0.4-0.3,1-0.3,1.9c0,1,0.1,1.7,0.3,2.1
			c0.3,0.7,0.9,1.1,1.7,1.1C308.6,70.6,309.2,69.7,309.2,67.9z"/>
		<path class="st10" d="M316.4,63.7l-0.5,1.2c-0.1,0-0.2,0-0.3,0c-0.3,0-0.6,0.1-0.9,0.3c-0.3,0.2-0.5,0.4-0.7,0.6
			c-0.1,0.2-0.1,0.4-0.1,0.8v4.7h-1.2v-5.7c0-0.7-0.1-1.2-0.3-1.6l1.2-0.3c0.2,0.4,0.3,0.7,0.3,1.1v0.1c0.6-0.8,1.3-1.2,2.1-1.2
			C316.1,63.7,316.3,63.7,316.4,63.7z"/>
		<path class="st10" d="M319,61.5c0,0.3-0.1,0.5-0.3,0.7c-0.2,0.2-0.4,0.3-0.7,0.3c-0.2,0-0.5-0.1-0.6-0.3c-0.2-0.2-0.3-0.4-0.3-0.6
			c0-0.3,0.1-0.5,0.3-0.7c0.2-0.2,0.4-0.3,0.7-0.3s0.5,0.1,0.7,0.3C319,61.1,319,61.3,319,61.5z M318.7,71.3h-1.2v-7.4l1.2-0.2V71.3
			z"/>
		<path class="st10" d="M326,70.4l-0.6,0.9h-5v-0.9l4.1-5.6h-3.8v-0.9h5v1l-3.9,5.6H326z"/>
		<path class="st10" d="M333.3,70.8l-0.6,0.8c-0.5-0.2-0.9-0.5-1-1.1c-0.7,0.7-1.4,1-2.2,1c-0.7,0-1.3-0.2-1.7-0.5
			c-0.5-0.4-0.7-0.9-0.7-1.6c0-1,0.4-1.7,1.3-2.1c0.7-0.4,1.6-0.5,2.6-0.5c0.2,0,0.4,0,0.5,0v-0.5c0-0.6-0.1-1-0.2-1.2
			c-0.2-0.3-0.6-0.4-1-0.4c-0.9,0-1.6,0.3-2.4,0.9l-0.6-0.8c1-0.7,2.1-1,3.1-1c1.1,0,1.8,0.4,2.1,1.2c0.1,0.3,0.2,0.7,0.2,1.3v0.4
			l-0.1,2.5c0,0.1,0,0.2,0,0.3c0,0.4,0,0.7,0.1,0.9C332.8,70.4,333,70.6,333.3,70.8z M331.6,67.5c-0.3,0-0.5,0-0.6,0
			c-1.7,0-2.6,0.6-2.6,1.8c0,0.9,0.4,1.4,1.3,1.4c0.8,0,1.4-0.4,1.8-1.2L331.6,67.5z"/>
		<path class="st10" d="M338.4,63.8l-0.4,0.9h-1.6v4.8c0,0.4,0.1,0.7,0.2,0.8c0.1,0.2,0.4,0.3,0.8,0.3c0.3,0,0.6,0,0.8-0.1l0.2,0.8
			c-0.4,0.2-0.8,0.3-1.3,0.3c-1.1,0-1.7-0.6-1.7-1.7v-5.1h-1v-0.9h1v-0.1c0-0.1,0-0.6,0.1-1.6l0-0.2l1.2-0.3
			c-0.1,0.8-0.1,1.5-0.1,2.1H338.4z"/>
		<path class="st10" d="M341.5,61.5c0,0.3-0.1,0.5-0.3,0.7c-0.2,0.2-0.4,0.3-0.7,0.3c-0.2,0-0.5-0.1-0.6-0.3
			c-0.2-0.2-0.3-0.4-0.3-0.6c0-0.3,0.1-0.5,0.3-0.7c0.2-0.2,0.4-0.3,0.7-0.3s0.5,0.1,0.7,0.3C341.5,61.1,341.5,61.3,341.5,61.5z
			 M341.2,71.3H340v-7.4l1.2-0.2V71.3z"/>
		<path class="st10" d="M349.8,67.8c0,1.4-0.4,2.4-1.2,3.1c-0.6,0.5-1.2,0.7-2,0.7c-1.1,0-1.9-0.4-2.5-1.2c-0.5-0.7-0.8-1.6-0.8-2.8
			c0-1.1,0.2-2,0.7-2.7c0.6-0.8,1.4-1.2,2.4-1.2c1.1,0,2,0.4,2.5,1.3C349.6,65.7,349.8,66.6,349.8,67.8z M348.5,67.9
			c0-0.9-0.1-1.6-0.3-2.1c-0.3-0.7-0.9-1.1-1.7-1.1c-0.8,0-1.3,0.3-1.6,0.9c-0.2,0.4-0.3,1-0.3,1.9c0,1,0.1,1.7,0.3,2.1
			c0.3,0.7,0.9,1.1,1.7,1.1C347.9,70.6,348.5,69.7,348.5,67.9z"/>
		<path class="st10" d="M357.5,71.3h-1.2v-5.1c0-0.5-0.1-0.9-0.2-1.1c-0.2-0.3-0.5-0.5-0.9-0.5c-0.3,0-0.7,0.1-1.1,0.3
			c-0.4,0.2-0.7,0.4-0.9,0.7v5.6H352v-5.6c0-0.8-0.1-1.3-0.3-1.8l1.1-0.3c0.2,0.4,0.3,0.8,0.3,1.2c0.8-0.8,1.6-1.2,2.4-1.2
			c0.4,0,0.8,0.1,1.1,0.3c0.3,0.2,0.6,0.5,0.7,0.8c0.1,0.3,0.2,0.6,0.2,0.9V71.3z"/>
		<path class="st10" d="M371.7,71.3h-1.5c-0.5-1.1-1.4-2.5-2.6-4c-0.3-0.4-0.7-0.6-1.1-0.7v4.6h-1.2V61h2.4c1.2,0,2.1,0.2,2.6,0.7
			c0.7,0.6,1,1.3,1,2.2c0,0.8-0.2,1.5-0.7,2c-0.5,0.5-1.2,0.8-2,0.8h-0.1c0.3,0.3,0.7,0.6,1,1.2c0.1,0.2,0.4,0.6,0.8,1.2
			C370.4,69.4,370.9,70.2,371.7,71.3z M369.9,63.8c0-0.3-0.1-0.6-0.3-0.9s-0.4-0.5-0.7-0.6c-0.4-0.1-0.8-0.2-1.3-0.2h-1.2v3.8h1.1
			c0.8,0,1.4-0.1,1.8-0.4C369.7,65.2,369.9,64.6,369.9,63.8z"/>
		<path class="st10" d="M379.1,67.8h-4.7v0.2c0,0.7,0.1,1.3,0.3,1.6c0.4,0.6,1,0.9,1.9,0.9c0.7,0,1.3-0.2,1.8-0.7l0.5,0.8
			c-0.7,0.6-1.5,0.9-2.5,0.9c-1.1,0-2-0.4-2.5-1.2c-0.5-0.7-0.8-1.6-0.8-2.8c0-1.1,0.3-1.9,0.8-2.7c0.6-0.8,1.4-1.2,2.4-1.2
			c0.8,0,1.5,0.3,2,0.8c0.4,0.4,0.6,0.9,0.7,1.5c0.1,0.4,0.1,0.9,0.1,1.7V67.8z M377.8,66.9c0-0.7-0.1-1.2-0.3-1.6
			c-0.3-0.5-0.7-0.7-1.4-0.7c-1.1,0-1.7,0.8-1.7,2.3H377.8z"/>
		<path class="st10" d="M385.9,69.1c0,0.8-0.3,1.4-0.9,1.8c-0.5,0.4-1.2,0.6-2,0.6c-1,0-1.9-0.2-2.7-0.8l0.5-0.9
			c0.8,0.5,1.6,0.7,2.4,0.7c0.4,0,0.8-0.1,1.1-0.3s0.4-0.5,0.4-1c0-0.6-0.4-1-1.2-1.2l-0.9-0.2c-1.3-0.3-1.9-1-1.9-2
			c0-0.7,0.3-1.3,0.8-1.7c0.5-0.4,1.1-0.6,1.8-0.6c0.8,0,1.6,0.2,2.3,0.6l-0.4,0.9c-0.8-0.4-1.4-0.5-1.9-0.5c-0.4,0-0.7,0.1-1,0.3
			c-0.3,0.2-0.4,0.5-0.4,0.9c0,0.6,0.4,0.9,1.1,1.1l1,0.2C385.2,67.3,385.9,68,385.9,69.1z"/>
		<path class="st10" d="M393.9,67.6c0,1.1-0.2,1.9-0.6,2.6c-0.6,0.9-1.3,1.4-2.3,1.4c-0.8,0-1.5-0.3-2.1-0.9v3.6l-1.2,0.2v-8.8
			c0-0.8-0.1-1.4-0.2-1.8l1.2-0.2c0,0.2,0.1,0.6,0.1,0.9v0.2c0.6-0.7,1.4-1.1,2.2-1.1c1,0,1.7,0.4,2.2,1.3
			C393.7,65.6,393.9,66.5,393.9,67.6z M392.7,67.7c0-0.8-0.1-1.5-0.3-1.9c-0.3-0.7-0.8-1-1.5-1c-0.8,0-1.4,0.3-2,1v3.8
			c0.6,0.6,1.2,1,1.8,1C392,70.5,392.7,69.6,392.7,67.7z"/>
		<path class="st10" d="M402.2,67.8c0,1.4-0.4,2.4-1.2,3.1c-0.5,0.5-1.2,0.7-2,0.7c-1.1,0-1.9-0.4-2.5-1.2c-0.5-0.7-0.8-1.6-0.8-2.8
			c0-1.1,0.2-2,0.7-2.7c0.6-0.8,1.4-1.2,2.4-1.2c1.1,0,2,0.4,2.5,1.3C401.9,65.7,402.2,66.6,402.2,67.8z M400.8,67.9
			c0-0.9-0.1-1.6-0.3-2.1c-0.3-0.7-0.8-1.1-1.6-1.1c-0.8,0-1.3,0.3-1.6,0.9c-0.2,0.4-0.3,1-0.3,1.9c0,1,0.1,1.7,0.3,2.1
			c0.3,0.7,0.9,1.1,1.7,1.1C400.2,70.6,400.8,69.7,400.8,67.9z"/>
		<path class="st10" d="M409.9,71.3h-1.2v-5.1c0-0.5-0.1-0.9-0.2-1.1c-0.2-0.3-0.5-0.5-0.9-0.5c-0.3,0-0.7,0.1-1.1,0.3
			c-0.4,0.2-0.7,0.4-0.9,0.7v5.6h-1.1v-5.6c0-0.8-0.1-1.3-0.3-1.8l1.1-0.3c0.2,0.4,0.3,0.8,0.3,1.2c0.8-0.8,1.6-1.2,2.4-1.2
			c0.4,0,0.8,0.1,1.1,0.3c0.3,0.2,0.6,0.5,0.7,0.8c0.1,0.3,0.2,0.6,0.2,0.9V71.3z"/>
		<path class="st10" d="M417.1,69.1c0,0.8-0.3,1.4-0.9,1.8c-0.5,0.4-1.2,0.6-2,0.6c-1,0-1.9-0.2-2.7-0.8l0.4-0.9
			c0.8,0.5,1.6,0.7,2.4,0.7c0.4,0,0.8-0.1,1.1-0.3s0.4-0.5,0.4-1c0-0.6-0.4-1-1.2-1.2l-0.9-0.2c-1.3-0.3-1.9-1-1.9-2
			c0-0.7,0.3-1.3,0.8-1.7c0.5-0.4,1.1-0.6,1.8-0.6c0.8,0,1.6,0.2,2.3,0.6l-0.4,0.9c-0.8-0.4-1.4-0.5-1.9-0.5c-0.4,0-0.7,0.1-1,0.3
			c-0.3,0.2-0.4,0.5-0.4,0.9c0,0.6,0.4,0.9,1.1,1.1l1,0.2C416.5,67.3,417.1,68,417.1,69.1z"/>
		<path class="st10" d="M424.6,67.8h-4.7v0.2c0,0.7,0.1,1.3,0.3,1.6c0.4,0.6,1,0.9,1.9,0.9c0.7,0,1.3-0.2,1.8-0.7l0.5,0.8
			c-0.7,0.6-1.5,0.9-2.5,0.9c-1.1,0-2-0.4-2.5-1.2c-0.5-0.7-0.8-1.6-0.8-2.8c0-1.1,0.3-1.9,0.8-2.7c0.6-0.8,1.4-1.2,2.4-1.2
			c0.8,0,1.5,0.3,2,0.8c0.4,0.4,0.6,0.9,0.7,1.5c0.1,0.4,0.1,0.9,0.1,1.7V67.8z M423.3,66.9c0-0.7-0.1-1.2-0.3-1.6
			c-0.3-0.5-0.7-0.7-1.4-0.7c-1.1,0-1.7,0.8-1.7,2.3H423.3z"/>
	</g>
	<line class="st6" x1="171" y1="153" x2="482.1" y2="153"/>
	<polygon class="st5" points="491.7,153 482.1,149.4 482.1,156.6 	"/>
	<polygon class="st9" points="491.7,153 482.1,149.4 482.1,156.6 	"/>
	<g class="st3">
		<path class="st10" d="M281.8,143.9h-1.4l-1-3.2h-3.8l-1,3.2h-1.2l3.4-10.3h1.6L281.8,143.9z M279.1,139.8l-1.6-5l-0.5,1.5
			c-0.1,0.4-0.5,1.6-1.1,3.5H279.1z"/>
		<path class="st10" d="M288,143.1c-0.7,0.7-1.4,1-2.3,1c-1.1,0-1.9-0.4-2.4-1.1c-0.5-0.7-0.7-1.5-0.7-2.6c0-1.4,0.4-2.4,1.1-3.2
			c0.6-0.6,1.3-0.9,2-0.9c0.7,0,1.4,0.3,2,0.8l-0.6,0.8c-0.5-0.4-1-0.6-1.4-0.6c-1.2,0-1.8,1.1-1.8,3.3c0,1.7,0.6,2.6,1.9,2.6
			c0.6,0,1.2-0.3,1.6-0.8L288,143.1z"/>
		<path class="st10" d="M294.5,143.1c-0.7,0.7-1.4,1-2.3,1c-1.1,0-1.9-0.4-2.4-1.1c-0.5-0.7-0.7-1.5-0.7-2.6c0-1.4,0.4-2.4,1.1-3.2
			c0.6-0.6,1.3-0.9,2-0.9c0.7,0,1.4,0.3,2,0.8l-0.6,0.8c-0.5-0.4-1-0.6-1.4-0.6c-1.2,0-1.8,1.1-1.8,3.3c0,1.7,0.6,2.6,1.9,2.6
			c0.6,0,1.2-0.3,1.6-0.8L294.5,143.1z"/>
		<path class="st10" d="M301.4,140.4h-4.7v0.2c0,0.7,0.1,1.3,0.3,1.6c0.4,0.6,1,0.9,1.9,0.9c0.7,0,1.3-0.2,1.8-0.7l0.4,0.8
			c-0.7,0.6-1.5,0.9-2.5,0.9c-1.1,0-2-0.4-2.5-1.2c-0.5-0.7-0.8-1.6-0.8-2.8c0-1.1,0.3-1.9,0.8-2.7c0.6-0.8,1.4-1.2,2.4-1.2
			c0.8,0,1.5,0.3,2,0.8c0.4,0.4,0.6,0.9,0.7,1.5c0.1,0.4,0.1,0.9,0.1,1.7V140.4z M300.2,139.5c0-0.7-0.1-1.2-0.3-1.6
			c-0.3-0.5-0.7-0.7-1.4-0.7c-1.1,0-1.7,0.8-1.7,2.3H300.2z"/>
		<path class="st10" d="M308.2,141.7c0,0.8-0.3,1.4-0.9,1.8c-0.5,0.4-1.2,0.6-2,0.6c-1,0-1.9-0.2-2.7-0.8l0.4-0.9
			c0.8,0.5,1.6,0.7,2.4,0.7c0.4,0,0.8-0.1,1.1-0.3s0.4-0.5,0.4-1c0-0.6-0.4-1-1.2-1.2l-0.9-0.2c-1.3-0.3-1.9-1-1.9-2
			c0-0.7,0.3-1.3,0.8-1.7c0.5-0.4,1.1-0.6,1.8-0.6c0.8,0,1.6,0.2,2.3,0.6l-0.4,0.9c-0.8-0.4-1.4-0.5-1.9-0.5c-0.4,0-0.7,0.1-1,0.3
			c-0.3,0.2-0.4,0.5-0.4,0.9c0,0.6,0.4,0.9,1.1,1.1l1,0.2C307.5,139.9,308.2,140.6,308.2,141.7z"/>
		<path class="st10" d="M314.9,141.7c0,0.8-0.3,1.4-0.9,1.8c-0.5,0.4-1.2,0.6-2,0.6c-1,0-1.9-0.2-2.7-0.8l0.4-0.9
			c0.8,0.5,1.6,0.7,2.4,0.7c0.4,0,0.8-0.1,1.1-0.3s0.4-0.5,0.4-1c0-0.6-0.4-1-1.2-1.2l-0.9-0.2c-1.3-0.3-1.9-1-1.9-2
			c0-0.7,0.3-1.3,0.8-1.7c0.5-0.4,1.1-0.6,1.8-0.6c0.8,0,1.6,0.2,2.3,0.6l-0.4,0.9c-0.8-0.4-1.4-0.5-1.9-0.5c-0.4,0-0.7,0.1-1,0.3
			c-0.3,0.2-0.4,0.5-0.4,0.9c0,0.6,0.4,0.9,1.1,1.1l1,0.2C314.2,139.9,314.9,140.6,314.9,141.7z"/>
		<path class="st10" d="M327.7,133.6l-0.1,1h-2.8v9.3h-1.2v-9.3h-2.8v-1H327.7z"/>
		<path class="st10" d="M335.4,140.4c0,1.4-0.4,2.4-1.2,3.1c-0.6,0.5-1.2,0.7-2,0.7c-1.1,0-1.9-0.4-2.5-1.2
			c-0.5-0.7-0.8-1.6-0.8-2.8c0-1.1,0.2-2,0.7-2.7c0.6-0.8,1.4-1.2,2.4-1.2c1.1,0,2,0.4,2.5,1.3C335.2,138.3,335.4,139.2,335.4,140.4
			z M334.1,140.5c0-0.9-0.1-1.6-0.3-2.1c-0.3-0.7-0.9-1.1-1.6-1.1c-0.8,0-1.3,0.3-1.6,0.9c-0.2,0.4-0.3,1-0.3,1.9
			c0,1,0.1,1.7,0.3,2.1c0.3,0.7,0.9,1.1,1.7,1.1C333.5,143.2,334.1,142.3,334.1,140.5z"/>
		<path class="st10" d="M338.7,143.9h-1.2v-8.5c0-0.6,0-1.1-0.1-1.7c0-0.1-0.1-0.3-0.1-0.5l1.2-0.3c0.1,0.2,0.1,0.4,0.1,0.6
			c0.1,0.4,0.1,1,0.1,1.6V143.9z M343.7,143.9h-1.6l-3.4-4.2l2.9-3.2h1.5l-2.9,3.2L343.7,143.9z"/>
		<path class="st10" d="M350.6,140.4h-4.7v0.2c0,0.7,0.1,1.3,0.3,1.6c0.4,0.6,1,0.9,1.9,0.9c0.7,0,1.3-0.2,1.8-0.7l0.4,0.8
			c-0.7,0.6-1.5,0.9-2.5,0.9c-1.1,0-2-0.4-2.5-1.2c-0.5-0.7-0.8-1.6-0.8-2.8c0-1.1,0.3-1.9,0.8-2.7c0.6-0.8,1.4-1.2,2.4-1.2
			c0.8,0,1.5,0.3,2,0.8c0.4,0.4,0.6,0.9,0.7,1.5c0.1,0.4,0.1,0.9,0.1,1.7V140.4z M349.3,139.5c0-0.7-0.1-1.2-0.3-1.6
			c-0.3-0.5-0.7-0.7-1.4-0.7c-1.1,0-1.7,0.8-1.7,2.3H349.3z"/>
		<path class="st10" d="M358.1,143.9h-1.2v-5.1c0-0.5-0.1-0.9-0.2-1.1c-0.2-0.3-0.5-0.5-0.9-0.5c-0.3,0-0.7,0.1-1.1,0.3
			c-0.4,0.2-0.7,0.4-0.9,0.7v5.6h-1.1v-5.6c0-0.8-0.1-1.3-0.3-1.8l1.1-0.3c0.2,0.4,0.3,0.8,0.3,1.2c0.8-0.8,1.6-1.2,2.4-1.2
			c0.4,0,0.8,0.1,1.1,0.3c0.3,0.2,0.6,0.5,0.7,0.8c0.1,0.3,0.2,0.6,0.2,0.9V143.9z"/>
		<path class="st10" d="M372.2,143.9h-1.5c-0.5-1.1-1.4-2.5-2.6-4c-0.3-0.4-0.7-0.6-1.1-0.7v4.6h-1.2v-10.3h2.4
			c1.2,0,2.1,0.2,2.6,0.7c0.7,0.6,1,1.3,1,2.2c0,0.8-0.2,1.5-0.7,2c-0.5,0.5-1.2,0.8-2,0.8h-0.1c0.3,0.3,0.7,0.6,1,1.2
			c0.1,0.2,0.4,0.6,0.8,1.2C371,142,371.5,142.8,372.2,143.9z M370.4,136.5c0-0.3-0.1-0.6-0.3-0.9s-0.4-0.5-0.7-0.6
			c-0.4-0.1-0.8-0.2-1.3-0.2h-1.2v3.8h1.1c0.8,0,1.4-0.1,1.8-0.4C370.2,137.8,370.4,137.2,370.4,136.5z"/>
		<path class="st10" d="M379.7,140.4H375v0.2c0,0.7,0.1,1.3,0.3,1.6c0.4,0.6,1,0.9,1.9,0.9c0.7,0,1.3-0.2,1.8-0.7l0.5,0.8
			c-0.7,0.6-1.5,0.9-2.5,0.9c-1.1,0-2-0.4-2.5-1.2c-0.5-0.7-0.8-1.6-0.8-2.8c0-1.1,0.3-1.9,0.8-2.7c0.6-0.8,1.4-1.2,2.4-1.2
			c0.8,0,1.5,0.3,2,0.8c0.4,0.4,0.6,0.9,0.7,1.5c0.1,0.4,0.1,0.9,0.1,1.7V140.4z M378.4,139.5c0-0.7-0.1-1.2-0.3-1.6
			c-0.3-0.5-0.7-0.7-1.4-0.7c-1.1,0-1.7,0.8-1.7,2.3H378.4z"/>
		<path class="st10" d="M387.7,136.4c-0.2,0.3-0.2,1-0.2,2.1v8.2l-1.1,0.2v-3.9c-0.6,0.7-1.3,1-2.1,1c-0.7,0-1.2-0.2-1.7-0.6
			c-0.8-0.7-1.2-1.7-1.2-3c0-1.4,0.2-2.3,0.7-3c0.6-0.8,1.3-1.2,2.2-1.2c0.8,0,1.5,0.4,2.1,1.1c0-0.4,0.1-0.7,0.2-0.8H387.7z
			 M386.3,141.9v-3.6c-0.2-0.3-0.5-0.6-0.8-0.8c-0.4-0.2-0.7-0.3-1.1-0.3c-1.2,0-1.9,1-1.9,2.9c0,1.9,0.7,2.9,2,2.9
			C385.3,143.1,385.9,142.7,386.3,141.9z"/>
		<path class="st10" d="M396.1,143.4l-0.8,0.8c-0.5-0.4-0.7-0.8-0.8-1.2c-0.6,0.8-1.4,1.1-2.4,1.1c-1.4,0-2.2-0.7-2.2-2.2v-5.5
			l1.2-0.2v5.4c0,1,0.5,1.5,1.4,1.5c0.4,0,0.8-0.1,1.1-0.4c0.3-0.2,0.6-0.6,0.8-0.9v-5.3l1.2-0.2v5.3c0,0.7,0.1,1.2,0.2,1.4
			C395.8,143.2,395.9,143.3,396.1,143.4z"/>
		<path class="st10" d="M403.5,140.4h-4.7v0.2c0,0.7,0.1,1.3,0.3,1.6c0.4,0.6,1,0.9,1.9,0.9c0.7,0,1.3-0.2,1.8-0.7l0.5,0.8
			c-0.7,0.6-1.5,0.9-2.5,0.9c-1.1,0-2-0.4-2.5-1.2c-0.5-0.7-0.8-1.6-0.8-2.8c0-1.1,0.3-1.9,0.8-2.7c0.6-0.8,1.4-1.2,2.4-1.2
			c0.8,0,1.5,0.3,2,0.8c0.4,0.4,0.6,0.9,0.7,1.5c0.1,0.4,0.1,0.9,0.1,1.7V140.4z M402.3,139.5c0-0.7-0.1-1.2-0.3-1.6
			c-0.3-0.5-0.7-0.7-1.4-0.7c-1.1,0-1.7,0.8-1.7,2.3H402.3z"/>
		<path class="st10" d="M410.3,141.7c0,0.8-0.3,1.4-0.9,1.8c-0.5,0.4-1.2,0.6-2,0.6c-1,0-1.9-0.2-2.7-0.8l0.5-0.9
			c0.8,0.5,1.6,0.7,2.4,0.7c0.4,0,0.8-0.1,1.1-0.3s0.4-0.5,0.4-1c0-0.6-0.4-1-1.2-1.2l-0.9-0.2c-1.3-0.3-1.9-1-1.9-2
			c0-0.7,0.3-1.3,0.8-1.7c0.5-0.4,1.1-0.6,1.8-0.6c0.8,0,1.6,0.2,2.3,0.6l-0.4,0.9c-0.8-0.4-1.4-0.5-1.9-0.5c-0.4,0-0.7,0.1-1,0.3
			c-0.3,0.2-0.4,0.5-0.4,0.9c0,0.6,0.4,0.9,1.1,1.1l1,0.2C409.6,139.9,410.3,140.6,410.3,141.7z"/>
		<path class="st10" d="M415.4,136.4l-0.4,0.9h-1.6v4.8c0,0.4,0.1,0.7,0.2,0.8c0.1,0.2,0.4,0.3,0.8,0.3c0.3,0,0.6,0,0.8-0.1l0.2,0.8
			c-0.4,0.2-0.8,0.3-1.3,0.3c-1.1,0-1.7-0.6-1.7-1.7v-5.1h-1v-0.9h1v-0.1c0-0.1,0-0.6,0.1-1.6l0-0.2l1.2-0.3
			c-0.1,0.8-0.2,1.5-0.2,2.1H415.4z"/>
	</g>
	<line class="st6" x1="495" y1="189" x2="183.9" y2="189"/>
	<polygon class="st5" points="174.3,189 183.9,192.6 183.9,185.4 	"/>
	<polygon class="st9" points="174.3,189 183.9,192.6 183.9,185.4 	"/>
	<g class="st3">
		<path class="st10" d="M281.4,179.7H280l-1-3.2h-3.8l-1,3.2H273l3.4-10.3h1.6L281.4,179.7z M278.7,175.5l-1.6-5l-0.5,1.5
			c-0.1,0.4-0.5,1.6-1.1,3.5H278.7z"/>
		<path class="st10" d="M287.7,178.9c-0.7,0.7-1.4,1-2.3,1c-1.1,0-1.9-0.4-2.4-1.1c-0.5-0.7-0.7-1.5-0.7-2.6c0-1.4,0.4-2.4,1.1-3.2
			c0.6-0.6,1.3-0.9,2-0.9c0.7,0,1.4,0.3,2,0.8l-0.6,0.8c-0.5-0.4-1-0.6-1.4-0.6c-1.2,0-1.8,1.1-1.8,3.3c0,1.7,0.6,2.6,1.9,2.6
			c0.6,0,1.2-0.3,1.6-0.8L287.7,178.9z"/>
		<path class="st10" d="M294.1,178.9c-0.7,0.7-1.4,1-2.3,1c-1.1,0-1.9-0.4-2.4-1.1c-0.5-0.7-0.7-1.5-0.7-2.6c0-1.4,0.4-2.4,1.1-3.2
			c0.6-0.6,1.3-0.9,2-0.9c0.7,0,1.4,0.3,2,0.8l-0.6,0.8c-0.5-0.4-1-0.6-1.4-0.6c-1.2,0-1.8,1.1-1.8,3.3c0,1.7,0.6,2.6,1.9,2.6
			c0.6,0,1.2-0.3,1.6-0.8L294.1,178.9z"/>
		<path class="st10" d="M301.1,176.1h-4.7v0.2c0,0.7,0.1,1.3,0.3,1.6c0.4,0.6,1,0.9,1.9,0.9c0.7,0,1.3-0.2,1.8-0.7l0.4,0.8
			c-0.7,0.6-1.5,0.9-2.5,0.9c-1.1,0-2-0.4-2.5-1.2c-0.5-0.7-0.8-1.6-0.8-2.8c0-1.1,0.3-1.9,0.8-2.7c0.6-0.8,1.4-1.2,2.4-1.2
			c0.8,0,1.5,0.3,2,0.8c0.4,0.4,0.6,0.9,0.7,1.5c0.1,0.4,0.1,0.9,0.1,1.7V176.1z M299.8,175.3c0-0.7-0.1-1.2-0.3-1.6
			c-0.3-0.5-0.7-0.7-1.4-0.7c-1.1,0-1.7,0.8-1.7,2.3H299.8z"/>
		<path class="st10" d="M307.8,177.5c0,0.8-0.3,1.4-0.9,1.8c-0.5,0.4-1.2,0.6-2,0.6c-1,0-1.9-0.2-2.7-0.8l0.4-0.9
			c0.8,0.5,1.6,0.7,2.4,0.7c0.4,0,0.8-0.1,1.1-0.3s0.4-0.5,0.4-1c0-0.6-0.4-1-1.2-1.2l-0.9-0.2c-1.3-0.3-1.9-1-1.9-2
			c0-0.7,0.3-1.3,0.8-1.7c0.5-0.4,1.1-0.6,1.8-0.6c0.8,0,1.6,0.2,2.3,0.6l-0.4,0.9c-0.8-0.4-1.4-0.5-1.9-0.5c-0.4,0-0.7,0.1-1,0.3
			c-0.3,0.2-0.4,0.5-0.4,0.9c0,0.6,0.4,0.9,1.1,1.1l1,0.2C307.2,175.7,307.8,176.4,307.8,177.5z"/>
		<path class="st10" d="M314.5,177.5c0,0.8-0.3,1.4-0.9,1.8c-0.5,0.4-1.2,0.6-2,0.6c-1,0-1.9-0.2-2.7-0.8l0.4-0.9
			c0.8,0.5,1.6,0.7,2.4,0.7c0.4,0,0.8-0.1,1.1-0.3s0.4-0.5,0.4-1c0-0.6-0.4-1-1.2-1.2l-0.9-0.2c-1.3-0.3-1.9-1-1.9-2
			c0-0.7,0.3-1.3,0.8-1.7c0.5-0.4,1.1-0.6,1.8-0.6c0.8,0,1.6,0.2,2.3,0.6l-0.4,0.9c-0.8-0.4-1.4-0.5-1.9-0.5c-0.4,0-0.7,0.1-1,0.3
			c-0.3,0.2-0.4,0.5-0.4,0.9c0,0.6,0.4,0.9,1.1,1.1l1,0.2C313.9,175.7,314.5,176.4,314.5,177.5z"/>
		<path class="st10" d="M327.4,169.4l-0.1,1h-2.8v9.3h-1.2v-9.3h-2.8v-1H327.4z"/>
		<path class="st10" d="M335.1,176.1c0,1.4-0.4,2.4-1.2,3.1c-0.6,0.5-1.2,0.7-2,0.7c-1.1,0-1.9-0.4-2.5-1.2
			c-0.5-0.7-0.8-1.6-0.8-2.8c0-1.1,0.2-2,0.7-2.7c0.6-0.8,1.4-1.2,2.4-1.2c1.1,0,2,0.4,2.5,1.3C334.8,174,335.1,175,335.1,176.1z
			 M333.7,176.2c0-0.9-0.1-1.6-0.3-2.1c-0.3-0.7-0.9-1.1-1.6-1.1c-0.8,0-1.3,0.3-1.6,0.9c-0.2,0.4-0.3,1-0.3,1.9
			c0,1,0.1,1.7,0.3,2.1c0.3,0.7,0.9,1.1,1.7,1.1C333.1,179,333.7,178.1,333.7,176.2z"/>
		<path class="st10" d="M338.3,179.7h-1.2v-8.5c0-0.6,0-1.1-0.1-1.7c0-0.1-0.1-0.3-0.1-0.5l1.2-0.3c0.1,0.2,0.1,0.4,0.1,0.6
			c0.1,0.4,0.1,1,0.1,1.6V179.7z M343.4,179.7h-1.6l-3.4-4.2l2.9-3.2h1.5l-2.9,3.2L343.4,179.7z"/>
		<path class="st10" d="M350.2,176.1h-4.7v0.2c0,0.7,0.1,1.3,0.3,1.6c0.4,0.6,1,0.9,1.9,0.9c0.7,0,1.3-0.2,1.8-0.7l0.5,0.8
			c-0.7,0.6-1.5,0.9-2.5,0.9c-1.1,0-2-0.4-2.5-1.2c-0.5-0.7-0.8-1.6-0.8-2.8c0-1.1,0.3-1.9,0.8-2.7c0.6-0.8,1.4-1.2,2.4-1.2
			c0.8,0,1.5,0.3,2,0.8c0.4,0.4,0.6,0.9,0.7,1.5c0.1,0.4,0.1,0.9,0.1,1.7V176.1z M349,175.3c0-0.7-0.1-1.2-0.3-1.6
			c-0.3-0.5-0.7-0.7-1.4-0.7c-1.1,0-1.7,0.8-1.7,2.3H349z"/>
		<path class="st10" d="M357.7,179.7h-1.2v-5.1c0-0.5-0.1-0.9-0.2-1.1c-0.2-0.3-0.5-0.5-0.9-0.5c-0.3,0-0.7,0.1-1.1,0.3
			c-0.4,0.2-0.7,0.4-0.9,0.7v5.6h-1.1v-5.6c0-0.8-0.1-1.3-0.3-1.8l1.1-0.3c0.2,0.4,0.3,0.8,0.3,1.2c0.8-0.8,1.6-1.2,2.4-1.2
			c0.4,0,0.8,0.1,1.1,0.3c0.3,0.2,0.6,0.5,0.7,0.8c0.1,0.3,0.2,0.6,0.2,0.9V179.7z"/>
		<path class="st10" d="M371.9,179.7h-1.5c-0.5-1.1-1.4-2.5-2.6-4c-0.4-0.4-0.7-0.6-1.1-0.7v4.6h-1.2v-10.3h2.4
			c1.2,0,2.1,0.2,2.6,0.7c0.7,0.6,1,1.3,1,2.2c0,0.8-0.2,1.5-0.7,2c-0.5,0.5-1.2,0.8-2,0.8h-0.2c0.3,0.3,0.7,0.6,1,1.2
			c0.1,0.2,0.4,0.6,0.8,1.2C370.6,177.8,371.1,178.6,371.9,179.7z M370.1,172.2c0-0.3-0.1-0.6-0.3-0.9s-0.4-0.5-0.7-0.6
			c-0.4-0.1-0.8-0.2-1.3-0.2h-1.2v3.8h1.1c0.8,0,1.4-0.1,1.8-0.4C369.9,173.5,370.1,173,370.1,172.2z"/>
		<path class="st10" d="M379.3,176.1h-4.7v0.2c0,0.7,0.1,1.3,0.3,1.6c0.4,0.6,1,0.9,1.9,0.9c0.7,0,1.3-0.2,1.8-0.7l0.4,0.8
			c-0.7,0.6-1.5,0.9-2.5,0.9c-1.1,0-2-0.4-2.5-1.2c-0.5-0.7-0.8-1.6-0.8-2.8c0-1.1,0.3-1.9,0.8-2.7c0.6-0.8,1.4-1.2,2.4-1.2
			c0.8,0,1.5,0.3,2,0.8c0.4,0.4,0.6,0.9,0.7,1.5c0.1,0.4,0.1,0.9,0.1,1.7V176.1z M378.1,175.3c0-0.7-0.1-1.2-0.3-1.6
			c-0.3-0.5-0.7-0.7-1.4-0.7c-1.1,0-1.7,0.8-1.7,2.3H378.1z"/>
		<path class="st10" d="M386.1,177.5c0,0.8-0.3,1.4-0.9,1.8c-0.5,0.4-1.2,0.6-2,0.6c-1,0-1.9-0.2-2.7-0.8l0.4-0.9
			c0.8,0.5,1.6,0.7,2.4,0.7c0.4,0,0.8-0.1,1.1-0.3s0.4-0.5,0.4-1c0-0.6-0.4-1-1.2-1.2l-0.9-0.2c-1.3-0.3-1.9-1-1.9-2
			c0-0.7,0.3-1.3,0.8-1.7c0.5-0.4,1.1-0.6,1.8-0.6c0.8,0,1.6,0.2,2.3,0.6l-0.4,0.9c-0.8-0.4-1.4-0.5-1.9-0.5c-0.4,0-0.7,0.1-1,0.3
			c-0.3,0.2-0.4,0.5-0.4,0.9c0,0.6,0.4,0.9,1.1,1.1l1,0.2C385.4,175.7,386.1,176.4,386.1,177.5z"/>
		<path class="st10" d="M394.1,176c0,1.1-0.2,1.9-0.6,2.6c-0.6,0.9-1.3,1.4-2.3,1.4c-0.8,0-1.5-0.3-2.1-0.9v3.6l-1.2,0.2V174
			c0-0.8-0.1-1.4-0.2-1.8l1.2-0.2c0,0.2,0.1,0.6,0.1,0.9v0.2c0.6-0.7,1.4-1.1,2.2-1.1c1,0,1.7,0.4,2.2,1.3
			C393.9,174,394.1,174.9,394.1,176z M392.9,176.1c0-0.8-0.1-1.5-0.3-1.9c-0.3-0.7-0.8-1-1.5-1c-0.8,0-1.4,0.3-2,1v3.8
			c0.6,0.6,1.2,1,1.8,1C392.3,178.9,392.9,178,392.9,176.1z"/>
		<path class="st10" d="M402.4,176.1c0,1.4-0.4,2.4-1.2,3.1c-0.5,0.5-1.2,0.7-2,0.7c-1.1,0-1.9-0.4-2.5-1.2
			c-0.5-0.7-0.8-1.6-0.8-2.8c0-1.1,0.2-2,0.7-2.7c0.6-0.8,1.4-1.2,2.4-1.2c1.1,0,2,0.4,2.5,1.3C402.1,174,402.4,175,402.4,176.1z
			 M401.1,176.2c0-0.9-0.1-1.6-0.3-2.1c-0.3-0.7-0.8-1.1-1.6-1.1c-0.8,0-1.3,0.3-1.6,0.9c-0.2,0.4-0.3,1-0.3,1.9
			c0,1,0.1,1.7,0.3,2.1c0.3,0.7,0.9,1.1,1.7,1.1C400.4,179,401.1,178.1,401.1,176.2z"/>
		<path class="st10" d="M410.1,179.7h-1.2v-5.1c0-0.5-0.1-0.9-0.2-1.1c-0.2-0.3-0.5-0.5-0.9-0.5c-0.3,0-0.7,0.1-1.1,0.3
			c-0.4,0.2-0.7,0.4-0.9,0.7v5.6h-1.1v-5.6c0-0.8-0.1-1.3-0.3-1.8l1.1-0.3c0.2,0.4,0.3,0.8,0.3,1.2c0.8-0.8,1.6-1.2,2.4-1.2
			c0.4,0,0.8,0.1,1.1,0.3c0.3,0.2,0.6,0.5,0.7,0.8c0.1,0.3,0.2,0.6,0.2,0.9V179.7z"/>
		<path class="st10" d="M417.3,177.5c0,0.8-0.3,1.4-0.9,1.8c-0.5,0.4-1.2,0.6-2,0.6c-1,0-1.9-0.2-2.7-0.8l0.4-0.9
			c0.8,0.5,1.6,0.7,2.4,0.7c0.4,0,0.8-0.1,1.1-0.3s0.4-0.5,0.4-1c0-0.6-0.4-1-1.2-1.2l-0.9-0.2c-1.3-0.3-1.9-1-1.9-2
			c0-0.7,0.3-1.3,0.8-1.7c0.5-0.4,1.1-0.6,1.8-0.6c0.8,0,1.6,0.2,2.3,0.6l-0.4,0.9c-0.8-0.4-1.4-0.5-1.9-0.5c-0.4,0-0.7,0.1-1,0.3
			c-0.3,0.2-0.4,0.5-0.4,0.9c0,0.6,0.4,0.9,1.1,1.1l1,0.2C416.7,175.7,417.3,176.4,417.3,177.5z"/>
		<path class="st10" d="M424.8,176.1h-4.7v0.2c0,0.7,0.1,1.3,0.3,1.6c0.4,0.6,1,0.9,1.9,0.9c0.7,0,1.3-0.2,1.8-0.7l0.5,0.8
			c-0.7,0.6-1.5,0.9-2.5,0.9c-1.1,0-2-0.4-2.5-1.2c-0.5-0.7-0.8-1.6-0.8-2.8c0-1.1,0.3-1.9,0.8-2.7c0.6-0.8,1.4-1.2,2.4-1.2
			c0.8,0,1.5,0.3,2,0.8c0.4,0.4,0.6,0.9,0.7,1.5c0.1,0.4,0.1,0.9,0.1,1.7V176.1z M423.5,175.3c0-0.7-0.1-1.2-0.3-1.6
			c-0.3-0.5-0.7-0.7-1.4-0.7c-1.1,0-1.7,0.8-1.7,2.3H423.5z"/>
	</g>
	<line class="st6" x1="171" y1="261" x2="482.1" y2="261"/>
	<polygon class="st5" points="491.7,261 482.1,257.4 482.1,264.6 	"/>
	<polygon class="st9" points="491.7,261 482.1,257.4 482.1,264.6 	"/>
	<g class="st3">
		<path class="st10" d="M280.6,251.6h-1.4l-1-3.2h-3.8l-1,3.2h-1.2l3.4-10.3h1.6L280.6,251.6z M277.9,247.5l-1.6-5l-0.5,1.5
			c-0.1,0.4-0.5,1.6-1.1,3.5H277.9z"/>
		<path class="st10" d="M287.5,251.6h-1.2v-5.1c0-0.5-0.1-0.9-0.2-1.1c-0.2-0.3-0.5-0.5-0.9-0.5c-0.3,0-0.7,0.1-1.1,0.3
			c-0.4,0.2-0.7,0.4-0.9,0.7v5.6H282v-5.6c0-0.8-0.1-1.3-0.3-1.8l1.1-0.3c0.2,0.4,0.3,0.8,0.3,1.2c0.8-0.8,1.6-1.2,2.4-1.2
			c0.4,0,0.8,0.1,1.1,0.3c0.3,0.2,0.6,0.5,0.7,0.8c0.1,0.3,0.2,0.6,0.2,0.9V251.6z"/>
		<path class="st10" d="M294,241.2l-0.4,0.8c-0.4-0.2-0.8-0.3-1.1-0.3c-0.7,0-1,0.4-1,1.3v1.2h2.1l-0.4,0.9h-1.7v6.5h-1.2v-6.5h-0.7
			v-0.9h0.7V243c0-0.8,0.3-1.4,0.8-1.8c0.3-0.3,0.8-0.4,1.3-0.4C293,240.8,293.6,240.9,294,241.2z"/>
		<path class="st10" d="M298,244l-0.5,1.2c-0.1,0-0.2,0-0.3,0c-0.3,0-0.6,0.1-0.9,0.3c-0.3,0.2-0.5,0.4-0.7,0.6
			c-0.1,0.2-0.1,0.4-0.1,0.8v4.7h-1.2v-5.7c0-0.7-0.1-1.2-0.3-1.6l1.2-0.3c0.2,0.4,0.3,0.7,0.3,1.1v0.1c0.6-0.8,1.3-1.2,2.1-1.2
			C297.7,244,297.8,244,298,244z"/>
		<path class="st10" d="M304.7,251.1l-0.6,0.8c-0.5-0.2-0.9-0.5-1-1.1c-0.7,0.7-1.4,1-2.2,1c-0.7,0-1.3-0.2-1.7-0.5
			c-0.5-0.4-0.7-0.9-0.7-1.6c0-1,0.4-1.7,1.3-2.1c0.7-0.4,1.6-0.5,2.6-0.5c0.2,0,0.4,0,0.5,0v-0.5c0-0.6-0.1-1-0.2-1.2
			c-0.2-0.3-0.6-0.4-1-0.4c-0.9,0-1.6,0.3-2.4,0.9l-0.6-0.8c1-0.7,2.1-1,3.1-1c1.1,0,1.8,0.4,2.1,1.2c0.1,0.3,0.2,0.7,0.2,1.3v0.4
			l-0.1,2.5c0,0.1,0,0.2,0,0.3c0,0.4,0,0.7,0.1,0.9C304.2,250.7,304.4,250.9,304.7,251.1z M303,247.8c-0.3,0-0.5,0-0.6,0
			c-1.7,0-2.6,0.6-2.6,1.8c0,0.9,0.4,1.4,1.3,1.4c0.8,0,1.4-0.4,1.8-1.2L303,247.8z"/>
		<path class="st10" d="M313.1,244.8c-0.4,0.3-0.8,0.4-1.3,0.4c-0.2,0-0.4,0-0.5-0.1c0.3,0.4,0.4,0.8,0.4,1.3c0,0.7-0.2,1.3-0.7,1.7
			s-1,0.7-1.7,0.7h-0.2l-0.2,0.1c-0.8,0.3-1.2,0.6-1.2,0.8c0,0.2,0.2,0.4,0.6,0.4h1.2c0.8,0,1.4,0.1,1.8,0.4
			c0.6,0.4,0.8,0.9,0.8,1.6c0,1.6-1,2.4-3,2.4c-2.2,0-3.2-0.6-3.2-1.9c0-0.2,0.1-0.5,0.2-0.8l1.2-0.1l-0.1,0.1
			c-0.1,0.2-0.1,0.4-0.1,0.6c0,0.8,0.6,1.2,1.9,1.2c1.2,0,1.8-0.4,1.8-1.3c0-0.5-0.2-0.8-0.6-1c-0.3-0.1-0.7-0.2-1.3-0.2
			c-0.1,0-0.3,0-0.6,0c-0.3,0-0.4,0-0.6,0c-0.9,0-1.4-0.4-1.4-1.1c0-0.5,0.4-1,1.3-1.2l0.1,0c-0.5-0.2-0.9-0.4-1.2-0.8
			s-0.5-0.8-0.5-1.3c0-0.8,0.3-1.4,0.8-1.8c0.5-0.4,1.2-0.7,2-0.7c0.4,0,0.7,0.1,1.1,0.2l0.5,0.2c0.2,0.1,0.4,0.1,0.7,0.1
			c0.4,0,0.7-0.1,1-0.3L313.1,244.8z M310.4,246.5c0-1-0.5-1.5-1.4-1.5c-0.9,0-1.4,0.5-1.4,1.5c0,1,0.5,1.4,1.4,1.4
			C309.9,248,310.4,247.5,310.4,246.5z"/>
		<path class="st10" d="M319.8,248.1h-4.7v0.2c0,0.7,0.1,1.3,0.3,1.6c0.4,0.6,1,0.9,1.9,0.9c0.7,0,1.3-0.2,1.8-0.7l0.4,0.8
			c-0.7,0.6-1.5,0.9-2.5,0.9c-1.1,0-2-0.4-2.5-1.2c-0.5-0.7-0.8-1.6-0.8-2.8c0-1.1,0.3-1.9,0.8-2.7c0.6-0.8,1.4-1.2,2.4-1.2
			c0.8,0,1.5,0.3,2,0.8c0.4,0.4,0.6,0.9,0.7,1.5c0.1,0.4,0.1,0.9,0.1,1.7V248.1z M318.6,247.2c0-0.7-0.1-1.2-0.3-1.6
			c-0.3-0.5-0.7-0.7-1.4-0.7c-1.1,0-1.7,0.8-1.7,2.3H318.6z"/>
		<path class="st10" d="M336.2,251.6H335v-5.5c0-0.7-0.3-1.1-1-1.1c-0.4,0-0.7,0.1-1.1,0.4c-0.1,0.1-0.4,0.3-0.8,0.6l-0.1,0.1v5.4
			h-1.2v-5.3c0-0.4-0.1-0.7-0.2-0.9c-0.1-0.2-0.4-0.4-0.8-0.4c-0.5,0-1.2,0.3-1.9,1v5.6h-1.1v-5.6c0-0.8-0.1-1.4-0.3-1.8l1.1-0.3
			c0.2,0.4,0.3,0.7,0.3,1.1v0.1c0.7-0.7,1.4-1.1,2.2-1.1c0.9,0,1.4,0.4,1.7,1.2c0.8-0.8,1.6-1.2,2.4-1.2c0.6,0,1,0.2,1.4,0.6
			c0.3,0.4,0.5,0.9,0.5,1.4V251.6z"/>
		<path class="st10" d="M340.1,241.9c0,0.3-0.1,0.5-0.3,0.7c-0.2,0.2-0.4,0.3-0.7,0.3c-0.2,0-0.5-0.1-0.6-0.3
			c-0.2-0.2-0.3-0.4-0.3-0.6c0-0.3,0.1-0.5,0.3-0.7c0.2-0.2,0.4-0.3,0.7-0.3s0.5,0.1,0.7,0.3C340,241.4,340.1,241.6,340.1,241.9z
			 M339.8,251.6h-1.2v-7.4l1.2-0.2V251.6z"/>
		<path class="st10" d="M345.5,244.2l-0.4,0.9h-1.6v4.8c0,0.4,0.1,0.7,0.2,0.8c0.1,0.2,0.4,0.3,0.8,0.3c0.3,0,0.6,0,0.8-0.1l0.2,0.8
			c-0.4,0.2-0.8,0.3-1.3,0.3c-1.1,0-1.7-0.6-1.7-1.7v-5.1h-1v-0.9h1v-0.1c0-0.1,0-0.6,0.1-1.6l0-0.2l1.2-0.3
			c-0.1,0.8-0.1,1.5-0.1,2.1H345.5z"/>
		<path class="st10" d="M359.4,251.6H358l-1-3.2h-3.8l-1,3.2H351l3.4-10.3h1.6L359.4,251.6z M356.7,247.5l-1.6-5l-0.5,1.5
			c-0.1,0.4-0.5,1.6-1.1,3.5H356.7z"/>
		<path class="st10" d="M365.7,250.8c-0.7,0.7-1.4,1-2.3,1c-1.1,0-1.9-0.4-2.4-1.1c-0.5-0.7-0.7-1.5-0.7-2.6c0-1.4,0.4-2.4,1.1-3.2
			c0.6-0.6,1.3-0.9,2-0.9c0.7,0,1.4,0.3,2,0.8l-0.6,0.8c-0.5-0.4-1-0.6-1.4-0.6c-1.2,0-1.8,1.1-1.8,3.3c0,1.7,0.6,2.6,1.9,2.6
			c0.6,0,1.2-0.3,1.6-0.8L365.7,250.8z"/>
		<path class="st10" d="M372.1,250.8c-0.7,0.7-1.4,1-2.3,1c-1.1,0-1.9-0.4-2.4-1.1c-0.5-0.7-0.7-1.5-0.7-2.6c0-1.4,0.4-2.4,1.1-3.2
			c0.6-0.6,1.3-0.9,2-0.9c0.7,0,1.4,0.3,2,0.8l-0.6,0.8c-0.5-0.4-1-0.6-1.4-0.6c-1.2,0-1.8,1.1-1.8,3.3c0,1.7,0.6,2.6,1.9,2.6
			c0.6,0,1.2-0.3,1.6-0.8L372.1,250.8z"/>
		<path class="st10" d="M379.1,248.1h-4.7v0.2c0,0.7,0.1,1.3,0.3,1.6c0.4,0.6,1,0.9,1.9,0.9c0.7,0,1.3-0.2,1.8-0.7l0.5,0.8
			c-0.7,0.6-1.5,0.9-2.5,0.9c-1.1,0-2-0.4-2.5-1.2c-0.5-0.7-0.8-1.6-0.8-2.8c0-1.1,0.3-1.9,0.8-2.7c0.6-0.8,1.4-1.2,2.4-1.2
			c0.8,0,1.5,0.3,2,0.8c0.4,0.4,0.6,0.9,0.7,1.5c0.1,0.4,0.1,0.9,0.1,1.7V248.1z M377.9,247.2c0-0.7-0.1-1.2-0.3-1.6
			c-0.3-0.5-0.7-0.7-1.4-0.7c-1.1,0-1.7,0.8-1.7,2.3H377.9z"/>
		<path class="st10" d="M385.9,249.4c0,0.8-0.3,1.4-0.9,1.8c-0.5,0.4-1.2,0.6-2,0.6c-1,0-1.9-0.2-2.7-0.8l0.5-0.9
			c0.8,0.5,1.6,0.7,2.4,0.7c0.4,0,0.8-0.1,1.1-0.3s0.4-0.5,0.4-1c0-0.6-0.4-1-1.2-1.2l-0.9-0.2c-1.3-0.3-1.9-1-1.9-2
			c0-0.7,0.3-1.3,0.8-1.7c0.5-0.4,1.1-0.6,1.8-0.6c0.8,0,1.6,0.2,2.3,0.6l-0.4,0.9c-0.8-0.4-1.4-0.5-1.9-0.5c-0.4,0-0.7,0.1-1,0.3
			c-0.3,0.2-0.4,0.5-0.4,0.9c0,0.6,0.4,0.9,1.1,1.1l1,0.2C385.2,247.6,385.9,248.3,385.9,249.4z"/>
		<path class="st10" d="M392.6,249.4c0,0.8-0.3,1.4-0.9,1.8c-0.5,0.4-1.2,0.6-2,0.6c-1,0-1.9-0.2-2.7-0.8l0.4-0.9
			c0.8,0.5,1.6,0.7,2.4,0.7c0.4,0,0.8-0.1,1.1-0.3s0.4-0.5,0.4-1c0-0.6-0.4-1-1.2-1.2l-0.9-0.2c-1.3-0.3-1.9-1-1.9-2
			c0-0.7,0.3-1.3,0.8-1.7c0.5-0.4,1.1-0.6,1.8-0.6c0.8,0,1.6,0.2,2.3,0.6l-0.4,0.9c-0.8-0.4-1.4-0.5-1.9-0.5c-0.4,0-0.7,0.1-1,0.3
			c-0.3,0.2-0.4,0.5-0.4,0.9c0,0.6,0.4,0.9,1.1,1.1l1,0.2C391.9,247.6,392.6,248.3,392.6,249.4z"/>
		<path class="st10" d="M405.4,241.3l-0.1,1h-2.8v9.3h-1.2v-9.3h-2.8v-1H405.4z"/>
		<path class="st10" d="M413.1,248.1c0,1.4-0.4,2.4-1.2,3.1c-0.6,0.5-1.2,0.7-2,0.7c-1.1,0-1.9-0.4-2.5-1.2
			c-0.5-0.7-0.8-1.6-0.8-2.8c0-1.1,0.2-2,0.7-2.7c0.6-0.8,1.4-1.2,2.4-1.2c1.1,0,2,0.4,2.5,1.3C412.8,246,413.1,246.9,413.1,248.1z
			 M411.7,248.2c0-0.9-0.1-1.6-0.3-2.1c-0.3-0.7-0.9-1.1-1.7-1.1c-0.8,0-1.3,0.3-1.6,0.9c-0.2,0.4-0.3,1-0.3,1.9
			c0,1,0.1,1.7,0.3,2.1c0.3,0.7,0.9,1.1,1.7,1.1C411.1,250.9,411.7,250,411.7,248.2z"/>
		<path class="st10" d="M416.4,251.6h-1.2v-8.5c0-0.6,0-1.1-0.1-1.7c0-0.1-0.1-0.3-0.1-0.5l1.2-0.3c0.1,0.2,0.1,0.4,0.1,0.6
			c0.1,0.4,0.1,1,0.1,1.6V251.6z M421.4,251.6h-1.6l-3.4-4.2l2.8-3.2h1.5l-2.9,3.2L421.4,251.6z"/>
		<path class="st10" d="M428.2,248.1h-4.7v0.2c0,0.7,0.1,1.3,0.3,1.6c0.4,0.6,1,0.9,1.9,0.9c0.7,0,1.3-0.2,1.8-0.7l0.5,0.8
			c-0.7,0.6-1.5,0.9-2.5,0.9c-1.1,0-2-0.4-2.5-1.2c-0.5-0.7-0.8-1.6-0.8-2.8c0-1.1,0.3-1.9,0.8-2.7c0.6-0.8,1.4-1.2,2.4-1.2
			c0.8,0,1.5,0.3,2,0.8c0.4,0.4,0.6,0.9,0.7,1.5c0.1,0.4,0.1,0.9,0.1,1.7V248.1z M427,247.2c0-0.7-0.1-1.2-0.3-1.6
			c-0.3-0.5-0.7-0.7-1.4-0.7c-1.1,0-1.7,0.8-1.7,2.3H427z"/>
		<path class="st10" d="M435.8,251.6h-1.2v-5.1c0-0.5-0.1-0.9-0.2-1.1c-0.2-0.3-0.5-0.5-0.9-0.5c-0.3,0-0.7,0.1-1.1,0.3
			c-0.4,0.2-0.7,0.4-0.9,0.7v5.6h-1.1v-5.6c0-0.8-0.1-1.3-0.3-1.8l1.1-0.3c0.2,0.4,0.3,0.8,0.3,1.2c0.8-0.8,1.6-1.2,2.4-1.2
			c0.4,0,0.8,0.1,1.1,0.3c0.3,0.2,0.6,0.5,0.7,0.8c0.1,0.3,0.2,0.6,0.2,0.9V251.6z"/>
	</g>
	<line class="st6" x1="495" y1="297" x2="183.9" y2="297"/>
	<polygon class="st5" points="174.3,297 183.9,300.6 183.9,293.4 	"/>
	<polygon class="st9" points="174.3,297 183.9,300.6 183.9,293.4 	"/>
	<g class="st3">
		<path class="st10" d="M280.3,286.7c-0.8,0.5-1.8,0.8-2.9,0.8c-1.5,0-2.6-0.5-3.4-1.6c-0.7-0.9-1-2.2-1-3.7c0-1.9,0.5-3.4,1.6-4.3
			c0.7-0.6,1.6-1,2.7-1c1.1,0,2,0.3,2.8,1l-0.6,0.8c-0.8-0.5-1.5-0.8-2.2-0.8c-1.3,0-2.2,0.6-2.6,1.7c-0.3,0.8-0.4,1.6-0.4,2.6
			c0,1.4,0.2,2.4,0.7,3.1c0.2,0.4,0.6,0.6,1.1,0.8c0.4,0.2,0.9,0.3,1.4,0.3c0.7,0,1.2-0.1,1.6-0.4V283h-2.1l-0.2-1h3.5V286.7z"/>
		<path class="st10" d="M288,283.8h-4.7v0.2c0,0.7,0.1,1.3,0.3,1.6c0.4,0.6,1,0.9,1.9,0.9c0.7,0,1.3-0.2,1.8-0.7l0.4,0.8
			c-0.7,0.6-1.5,0.9-2.5,0.9c-1.1,0-2-0.4-2.5-1.2c-0.5-0.7-0.8-1.6-0.8-2.8c0-1.1,0.3-1.9,0.8-2.7c0.6-0.8,1.4-1.2,2.4-1.2
			c0.8,0,1.5,0.3,2,0.8c0.4,0.4,0.6,0.9,0.7,1.5c0.1,0.4,0.1,0.9,0.1,1.7V283.8z M286.8,282.9c0-0.7-0.1-1.2-0.3-1.6
			c-0.3-0.5-0.7-0.7-1.4-0.7c-1.1,0-1.7,0.8-1.7,2.3H286.8z"/>
		<path class="st10" d="M294.8,285.1c0,0.8-0.3,1.4-0.9,1.8c-0.5,0.4-1.2,0.6-2,0.6c-1,0-1.9-0.2-2.7-0.8l0.4-0.9
			c0.8,0.5,1.6,0.7,2.4,0.7c0.4,0,0.8-0.1,1.1-0.3s0.4-0.5,0.4-1c0-0.6-0.4-1-1.2-1.2l-0.9-0.2c-1.3-0.3-1.9-1-1.9-2
			c0-0.7,0.3-1.3,0.8-1.7c0.5-0.4,1.1-0.6,1.8-0.6c0.8,0,1.6,0.2,2.3,0.6L294,281c-0.8-0.4-1.4-0.5-1.9-0.5c-0.4,0-0.7,0.1-1,0.3
			c-0.3,0.2-0.4,0.5-0.4,0.9c0,0.6,0.4,0.9,1.1,1.1l1,0.2C294.1,283.3,294.8,284,294.8,285.1z"/>
		<path class="st10" d="M301.7,286.5c-0.7,0.7-1.4,1-2.3,1c-1.1,0-1.9-0.4-2.4-1.1c-0.5-0.7-0.7-1.5-0.7-2.6c0-1.4,0.4-2.4,1.1-3.2
			c0.6-0.6,1.3-0.9,2-0.9c0.7,0,1.4,0.3,2,0.8l-0.6,0.8c-0.5-0.4-1-0.6-1.4-0.6c-1.2,0-1.8,1.1-1.8,3.3c0,1.7,0.6,2.6,1.9,2.6
			c0.6,0,1.2-0.3,1.6-0.8L301.7,286.5z"/>
		<path class="st10" d="M308.8,287.3h-1.2v-5.1c0-0.5-0.1-0.8-0.2-1c-0.2-0.3-0.5-0.4-0.9-0.4c-0.8,0-1.5,0.4-2.2,1.3v5.3h-1.2v-9.2
			c0-0.5-0.1-1-0.2-1.5l1.2-0.2c0.1,0.5,0.2,1.1,0.2,1.7v1.7c0,0.3,0,0.6,0,1c0.2-0.2,0.5-0.4,0.8-0.6c0.6-0.4,1.2-0.6,1.7-0.6
			c0.5,0,0.9,0.1,1.3,0.4c0.4,0.3,0.6,0.7,0.7,1.1c0,0.2,0,0.4,0,0.7V287.3z"/>
		<path class="st10" d="M317.3,286.8l-0.8,0.8c-0.5-0.4-0.7-0.8-0.8-1.2c-0.6,0.8-1.4,1.1-2.4,1.1c-1.4,0-2.2-0.7-2.2-2.2v-5.5
			l1.2-0.2v5.4c0,1,0.5,1.5,1.4,1.5c0.4,0,0.8-0.1,1.1-0.4c0.3-0.2,0.6-0.6,0.8-0.9v-5.3l1.2-0.2v5.3c0,0.7,0.1,1.2,0.2,1.4
			C317,286.6,317.1,286.7,317.3,286.8z M313.2,278c0,0.2-0.1,0.4-0.2,0.6c-0.1,0.2-0.3,0.2-0.5,0.2s-0.4-0.1-0.6-0.2
			c-0.2-0.2-0.2-0.3-0.2-0.6c0-0.2,0.1-0.4,0.2-0.5c0.1-0.1,0.3-0.2,0.5-0.2c0.2,0,0.4,0.1,0.6,0.2
			C313.1,277.6,313.2,277.8,313.2,278z M316.3,278c0,0.2-0.1,0.4-0.2,0.6c-0.1,0.2-0.3,0.2-0.5,0.2c-0.2,0-0.4-0.1-0.6-0.2
			c-0.2-0.2-0.2-0.3-0.2-0.6c0-0.2,0.1-0.4,0.2-0.5c0.1-0.1,0.3-0.2,0.6-0.2c0.2,0,0.4,0.1,0.5,0.2
			C316.2,277.6,316.3,277.8,316.3,278z"/>
		<path class="st10" d="M322.4,279.8l-0.4,0.9h-1.6v4.8c0,0.4,0.1,0.7,0.2,0.8c0.1,0.2,0.4,0.3,0.8,0.3c0.3,0,0.6,0,0.8-0.1l0.2,0.8
			c-0.4,0.2-0.8,0.3-1.3,0.3c-1.1,0-1.7-0.6-1.7-1.7v-5.1h-1v-0.9h1v-0.1c0-0.1,0-0.6,0.1-1.6l0-0.2l1.2-0.3
			c-0.1,0.8-0.1,1.5-0.1,2.1H322.4z"/>
		<path class="st10" d="M328.8,286.4l-0.6,0.9h-5v-0.9l4.1-5.6h-3.8v-0.9h5v1l-3.9,5.6H328.8z"/>
		<path class="st10" d="M333.7,279.8l-0.4,0.9h-1.6v4.8c0,0.4,0.1,0.7,0.2,0.8c0.1,0.2,0.4,0.3,0.8,0.3c0.3,0,0.6,0,0.8-0.1l0.2,0.8
			c-0.4,0.2-0.8,0.3-1.3,0.3c-1.1,0-1.7-0.6-1.7-1.7v-5.1h-1v-0.9h1v-0.1c0-0.1,0-0.6,0.1-1.6l0-0.2l1.2-0.3
			c-0.1,0.8-0.1,1.5-0.1,2.1H333.7z"/>
		<path class="st10" d="M340.8,283.8h-4.7v0.2c0,0.7,0.1,1.3,0.3,1.6c0.4,0.6,1,0.9,1.9,0.9c0.7,0,1.3-0.2,1.8-0.7l0.4,0.8
			c-0.7,0.6-1.5,0.9-2.5,0.9c-1.1,0-2-0.4-2.5-1.2c-0.5-0.7-0.8-1.6-0.8-2.8c0-1.1,0.3-1.9,0.8-2.7c0.6-0.8,1.4-1.2,2.4-1.2
			c0.8,0,1.5,0.3,2,0.8c0.4,0.4,0.6,0.9,0.7,1.5c0.1,0.4,0.1,0.9,0.1,1.7V283.8z M339.6,282.9c0-0.7-0.1-1.2-0.3-1.6
			c-0.3-0.5-0.7-0.7-1.4-0.7c-1.1,0-1.7,0.8-1.7,2.3H339.6z"/>
		<path class="st10" d="M354.5,287.3h-1.5c-0.5-1.1-1.4-2.5-2.6-4c-0.4-0.4-0.7-0.6-1.1-0.7v4.6h-1.2V277h2.4c1.2,0,2.1,0.2,2.6,0.7
			c0.7,0.6,1,1.3,1,2.2c0,0.8-0.2,1.5-0.7,2c-0.5,0.5-1.2,0.8-2,0.8h-0.1c0.3,0.3,0.7,0.6,1,1.2c0.1,0.2,0.4,0.6,0.8,1.2
			C353.2,285.4,353.7,286.2,354.5,287.3z M352.7,279.8c0-0.3-0.1-0.6-0.3-0.9s-0.4-0.5-0.7-0.6c-0.4-0.1-0.8-0.2-1.3-0.2h-1.2v3.8
			h1.1c0.8,0,1.4-0.1,1.8-0.4C352.4,281.2,352.7,280.6,352.7,279.8z"/>
		<path class="st10" d="M361.9,283.8h-4.7v0.2c0,0.7,0.1,1.3,0.3,1.6c0.4,0.6,1,0.9,1.9,0.9c0.7,0,1.3-0.2,1.8-0.7l0.5,0.8
			c-0.7,0.6-1.5,0.9-2.5,0.9c-1.1,0-2-0.4-2.5-1.2c-0.5-0.7-0.8-1.6-0.8-2.8c0-1.1,0.3-1.9,0.8-2.7c0.6-0.8,1.4-1.2,2.4-1.2
			c0.8,0,1.5,0.3,2,0.8c0.4,0.4,0.6,0.9,0.7,1.5c0.1,0.4,0.1,0.9,0.1,1.7V283.8z M360.6,282.9c0-0.7-0.1-1.2-0.3-1.6
			c-0.3-0.5-0.7-0.7-1.4-0.7c-1.1,0-1.7,0.8-1.7,2.3H360.6z"/>
		<path class="st10" d="M368.6,285.1c0,0.8-0.3,1.4-0.9,1.8c-0.5,0.4-1.2,0.6-2,0.6c-1,0-1.9-0.2-2.7-0.8l0.5-0.9
			c0.8,0.5,1.6,0.7,2.4,0.7c0.4,0,0.8-0.1,1.1-0.3s0.4-0.5,0.4-1c0-0.6-0.4-1-1.2-1.2l-0.9-0.2c-1.3-0.3-1.9-1-1.9-2
			c0-0.7,0.3-1.3,0.8-1.7c0.5-0.4,1.1-0.6,1.8-0.6c0.8,0,1.6,0.2,2.3,0.6l-0.4,0.9c-0.8-0.4-1.4-0.5-1.9-0.5c-0.4,0-0.7,0.1-1,0.3
			c-0.3,0.2-0.4,0.5-0.4,0.9c0,0.6,0.4,0.9,1.1,1.1l1,0.2C368,283.3,368.6,284,368.6,285.1z"/>
		<path class="st10" d="M375.3,285.1c0,0.8-0.3,1.4-0.9,1.8c-0.5,0.4-1.2,0.6-2,0.6c-1,0-1.9-0.2-2.7-0.8l0.5-0.9
			c0.8,0.5,1.6,0.7,2.4,0.7c0.4,0,0.8-0.1,1.1-0.3s0.4-0.5,0.4-1c0-0.6-0.4-1-1.2-1.2l-0.9-0.2c-1.3-0.3-1.9-1-1.9-2
			c0-0.7,0.3-1.3,0.8-1.7c0.5-0.4,1.1-0.6,1.8-0.6c0.8,0,1.6,0.2,2.3,0.6l-0.4,0.9c-0.8-0.4-1.4-0.5-1.9-0.5c-0.4,0-0.7,0.1-1,0.3
			c-0.3,0.2-0.4,0.5-0.4,0.9c0,0.6,0.4,0.9,1.1,1.1l1,0.2C374.7,283.3,375.3,284,375.3,285.1z"/>
		<path class="st10" d="M383.3,283.8c0,1.4-0.4,2.4-1.2,3.1c-0.6,0.5-1.2,0.7-2,0.7c-1.1,0-1.9-0.4-2.5-1.2
			c-0.5-0.7-0.8-1.6-0.8-2.8c0-1.1,0.2-2,0.7-2.7c0.6-0.8,1.4-1.2,2.4-1.2c1.1,0,2,0.4,2.5,1.3C383.1,281.7,383.3,282.6,383.3,283.8
			z M382,283.9c0-0.9-0.1-1.6-0.3-2.1c-0.3-0.7-0.8-1.1-1.6-1.1c-0.8,0-1.3,0.3-1.6,0.9c-0.2,0.4-0.3,1-0.3,1.9c0,1,0.1,1.7,0.3,2.1
			c0.3,0.7,0.9,1.1,1.7,1.1C381.4,286.6,382,285.7,382,283.9z"/>
		<path class="st10" d="M391.6,286.8l-0.8,0.8c-0.5-0.4-0.7-0.8-0.8-1.2c-0.6,0.8-1.4,1.1-2.4,1.1c-1.4,0-2.2-0.7-2.2-2.2v-5.5
			l1.2-0.2v5.4c0,1,0.5,1.5,1.4,1.5c0.4,0,0.8-0.1,1.1-0.4c0.3-0.2,0.6-0.6,0.8-0.9v-5.3l1.2-0.2v5.3c0,0.7,0.1,1.2,0.2,1.4
			C391.3,286.6,391.4,286.7,391.6,286.8z"/>
		<path class="st10" d="M397.2,279.7l-0.5,1.2c-0.1,0-0.2,0-0.3,0c-0.3,0-0.6,0.1-0.9,0.3c-0.3,0.2-0.5,0.4-0.7,0.6
			c-0.1,0.2-0.1,0.4-0.1,0.8v4.7h-1.2v-5.7c0-0.7-0.1-1.2-0.3-1.6l1.2-0.3c0.2,0.4,0.3,0.7,0.3,1.1v0.1c0.6-0.8,1.3-1.2,2.1-1.2
			C397,279.7,397.1,279.7,397.2,279.7z"/>
		<path class="st10" d="M403.3,286.5c-0.7,0.7-1.4,1-2.3,1c-1.1,0-1.9-0.4-2.4-1.1c-0.5-0.7-0.7-1.5-0.7-2.6c0-1.4,0.4-2.4,1.1-3.2
			c0.6-0.6,1.3-0.9,2-0.9c0.7,0,1.4,0.3,2,0.8l-0.6,0.8c-0.5-0.4-1-0.6-1.4-0.6c-1.2,0-1.8,1.1-1.8,3.3c0,1.7,0.6,2.6,1.9,2.6
			c0.6,0,1.2-0.3,1.6-0.8L403.3,286.5z"/>
		<path class="st10" d="M410.3,283.8h-4.7v0.2c0,0.7,0.1,1.3,0.3,1.6c0.4,0.6,1,0.9,1.9,0.9c0.7,0,1.3-0.2,1.8-0.7l0.5,0.8
			c-0.7,0.6-1.5,0.9-2.5,0.9c-1.1,0-2-0.4-2.5-1.2c-0.5-0.7-0.8-1.6-0.8-2.8c0-1.1,0.3-1.9,0.8-2.7c0.6-0.8,1.4-1.2,2.4-1.2
			c0.8,0,1.5,0.3,2,0.8c0.4,0.4,0.6,0.9,0.7,1.5c0.1,0.4,0.1,0.9,0.1,1.7V283.8z M409,282.9c0-0.7-0.1-1.2-0.3-1.6
			c-0.3-0.5-0.7-0.7-1.4-0.7c-1.1,0-1.7,0.8-1.7,2.3H409z"/>
	</g>
	<g class="st3">
		<path class="st11" d="M263.3,35.7h-3.9v-0.9h1.4v-5.2c-0.4,0.2-1.1,0.6-2,1l-0.3-0.6l2.6-1.7h0.9v6.7h1.4V35.7z"/>
		<path class="st11" d="M266.8,34.9c0,0.3-0.1,0.5-0.3,0.7s-0.4,0.3-0.7,0.3c-0.3,0-0.5-0.1-0.7-0.3c-0.2-0.2-0.3-0.4-0.3-0.7
			c0-0.3,0.1-0.5,0.3-0.7c0.2-0.2,0.4-0.3,0.7-0.3c0.3,0,0.5,0.1,0.7,0.3C266.7,34.4,266.8,34.6,266.8,34.9z"/>
	</g>
	<g class="st3">
		<path class="st11" d="M264.9,70.4l-0.2,1h-5.7v-0.9c0.4-0.3,0.7-0.5,1-0.8l1.2-1c0.5-0.4,0.8-0.7,1.1-0.9c0.3-0.3,0.5-0.5,0.6-0.6
			c0.2-0.4,0.3-0.8,0.3-1.1c0-0.9-0.5-1.3-1.6-1.3c-0.7,0-1.4,0.3-2.3,0.9l-0.1,0.1l-0.5-0.6c1.1-0.9,2.1-1.4,3.1-1.4
			c0.7,0,1.4,0.2,1.8,0.5c0.6,0.4,0.8,0.9,0.8,1.6c0,0.7-0.4,1.4-1.1,2.2c-0.4,0.4-1,0.9-2,1.6l-1.4,1c0.5,0,1-0.1,1.5-0.1H264.9z"
			/>
		<path class="st11" d="M268.8,70.5c0,0.3-0.1,0.5-0.3,0.7s-0.4,0.3-0.7,0.3c-0.3,0-0.5-0.1-0.7-0.3c-0.2-0.2-0.3-0.4-0.3-0.7
			c0-0.3,0.1-0.5,0.3-0.7c0.2-0.2,0.4-0.3,0.7-0.3c0.3,0,0.5,0.1,0.7,0.3C268.7,69.9,268.8,70.2,268.8,70.5z"/>
	</g>
	<g class="st3">
		<path class="st11" d="M264.8,140.2c0,0.7-0.2,1.3-0.7,1.8c-0.5,0.6-1.1,1-1.6,1.2c-0.7,0.3-1.7,0.5-2.8,0.5c-0.3,0-0.5,0-0.7,0
			l-0.3-0.8c0.2,0,0.4,0,0.8,0c0.7,0,1.3-0.1,1.7-0.2c0.6-0.1,1.1-0.4,1.5-0.8c0.3-0.3,0.6-0.7,0.7-1c0.1-0.2,0.1-0.5,0.1-0.7
			c0-0.9-0.4-1.4-1.2-1.7c-0.3-0.1-0.9-0.2-1.8-0.2h-0.1v-0.8h0.1c0.8,0,1.3,0,1.5,0c0.1,0,0.3-0.1,0.5-0.1c0.6-0.2,0.8-0.7,0.8-1.4
			c0-0.5-0.2-0.9-0.5-1.2s-0.8-0.4-1.3-0.4c-0.5,0-1,0.1-1.5,0.3c-0.3,0.2-0.5,0.3-0.8,0.5l-0.1,0.1l-0.5-0.6
			c0.9-0.8,1.9-1.2,3.1-1.2c0.8,0,1.5,0.2,2,0.6c0.6,0.5,0.9,1.1,0.9,1.8c0,0.6-0.2,1-0.5,1.4c-0.3,0.4-0.8,0.7-1.3,0.8l0.1,0
			c0.4,0.1,0.7,0.3,1,0.5C264.5,138.9,264.8,139.5,264.8,140.2z"/>
		<path class="st11" d="M268.8,140.2c0,0.3-0.1,0.5-0.3,0.7s-0.4,0.3-0.7,0.3c-0.3,0-0.5-0.1-0.7-0.3c-0.2-0.2-0.3-0.4-0.3-0.7
			c0-0.3,0.1-0.5,0.3-0.7c0.2-0.2,0.4-0.3,0.7-0.3c0.3,0,0.5,0.1,0.7,0.3C268.7,139.6,268.8,139.9,268.8,140.2z"/>
	</g>
	<g class="st3">
		<path class="st11" d="M265.2,179.6h-0.8c-0.1,0-0.2,0-0.4,0c0,0.2,0,0.3,0,0.4v2.2l-1.2,0.3v-2.4c0-0.1,0-0.3,0-0.6
			c-0.3,0-0.5,0-0.6,0h-3.9v-0.9l3.5-6.8h1.3l-2.9,5.6c-0.2,0.3-0.4,0.7-0.7,1.2c0.2,0,0.4-0.1,0.6-0.1h2.6v-0.4
			c0-0.3,0-0.8,0.1-1.3l0.1-2.1l0.9-0.3v3c0,0.5,0,0.9,0,1.2c0.2,0,0.3,0,0.5,0h0.7V179.6z"/>
		<path class="st11" d="M268.8,178.9c0,0.3-0.1,0.5-0.3,0.7s-0.4,0.3-0.7,0.3c-0.3,0-0.5-0.1-0.7-0.3c-0.2-0.2-0.3-0.4-0.3-0.7
			c0-0.3,0.1-0.5,0.3-0.7c0.2-0.2,0.4-0.3,0.7-0.3c0.3,0,0.5,0.1,0.7,0.3C268.7,178.3,268.8,178.6,268.8,178.9z"/>
	</g>
	<g class="st3">
		<path class="st11" d="M264.5,250.9c0,1.1-0.5,2-1.4,2.7c-0.8,0.6-1.8,0.9-3,0.9c-0.4,0-0.7,0-1.1-0.1l-0.2-0.9
			c0.3,0.1,0.7,0.2,1.1,0.2c0.9,0,1.6-0.2,2.2-0.7c0.7-0.5,1-1.2,1-2c0-0.7-0.2-1.1-0.6-1.5c-0.4-0.3-0.9-0.5-1.6-0.5
			c-0.8,0-1.4,0.1-1.9,0.3l0.5-5.1h4.4l-0.2,1h-3.2l-0.3,2.9c0.4,0,0.8-0.1,1-0.1c0.9,0,1.7,0.2,2.3,0.8
			C264.2,249.3,264.5,250,264.5,250.9z"/>
		<path class="st11" d="M268.8,250.8c0,0.3-0.1,0.5-0.3,0.7s-0.4,0.3-0.7,0.3c-0.3,0-0.5-0.1-0.7-0.3c-0.2-0.2-0.3-0.4-0.3-0.7
			c0-0.3,0.1-0.5,0.3-0.7c0.2-0.2,0.4-0.3,0.7-0.3c0.3,0,0.5,0.1,0.7,0.3C268.7,250.3,268.8,250.5,268.8,250.8z"/>
	</g>
	<g class="st3">
		<path class="st11" d="M265.2,284.3c0,0.9-0.3,1.7-0.9,2.3c-0.6,0.6-1.4,0.9-2.4,0.9c-1.1,0-2-0.4-2.6-1.3
			c-0.5-0.7-0.8-1.7-0.8-2.8c0-1.6,0.5-2.9,1.6-4.2c1-1.1,2.3-1.9,3.9-2.4l0.3,0.8c-0.7,0.2-1.4,0.5-2,1c-0.7,0.5-1.2,1-1.6,1.6
			c-0.3,0.5-0.5,1.1-0.7,1.8c0.5-0.5,1.3-0.8,2.2-0.8c0.9,0,1.6,0.3,2.1,0.8C264.9,282.7,265.2,283.4,265.2,284.3z M263.8,284.3
			c0-0.6-0.2-1.1-0.5-1.5c-0.3-0.4-0.8-0.6-1.4-0.6c-0.7,0-1.4,0.3-2,0.8c0,0.2,0,0.5,0,0.8c0,0.8,0.1,1.4,0.4,1.9
			c0.3,0.6,0.9,0.9,1.6,0.9c0.6,0,1.1-0.2,1.5-0.7C263.7,285.5,263.8,285,263.8,284.3z"/>
		<path class="st11" d="M268.8,286.5c0,0.3-0.1,0.5-0.3,0.7s-0.4,0.3-0.7,0.3c-0.3,0-0.5-0.1-0.7-0.3c-0.2-0.2-0.3-0.4-0.3-0.7
			c0-0.3,0.1-0.5,0.3-0.7c0.2-0.2,0.4-0.3,0.7-0.3c0.3,0,0.5,0.1,0.7,0.3C268.7,286,268.8,286.2,268.8,286.5z"/>
	</g>
</g>
<g>
	<defs>
		<rect id="SVGID_3_" x="54" y="324" width="80.4" height="45"/>
	</defs>
	<clipPath id="SVGID_4_">
		<use xlink:href="#SVGID_3_"  style="overflow:visible;"/>
	</clipPath>
	<g class="st12">
		<defs>
			<rect id="SVGID_5_" x="54" y="324" width="80.4" height="45"/>
		</defs>
		<clipPath id="SVGID_6_">
			<use xlink:href="#SVGID_5_"  style="overflow:visible;"/>
		</clipPath>
		<ellipse class="st13" cx="94.2" cy="347.1" rx="39.6" ry="17.6"/>
	</g>
</g>
<g>
	<defs>
		<rect id="SVGID_7_" x="54" y="324" width="80.4" height="45"/>
	</defs>
	<clipPath id="SVGID_8_">
		<use xlink:href="#SVGID_7_"  style="overflow:visible;"/>
	</clipPath>
	<g class="st14">
		<defs>
			<rect id="SVGID_9_" x="54" y="324" width="80.4" height="45"/>
		</defs>
		<clipPath id="SVGID_10_">
			<use xlink:href="#SVGID_9_"  style="overflow:visible;"/>
		</clipPath>
		<polygon class="st15" points="70.1,368.5 93.7,324.5 105.6,324.5 85.9,361.2 115.2,361.2 111.3,368.5 		"/>
	</g>
</g>
<g>
	<defs>
		<rect id="SVGID_11_" x="54" y="324" width="80.4" height="45"/>
	</defs>
	<clipPath id="SVGID_12_">
		<use xlink:href="#SVGID_11_"  style="overflow:visible;"/>
	</clipPath>
	<g class="st16">
		<defs>
			<rect id="SVGID_13_" x="54" y="324" width="80.4" height="45"/>
		</defs>
		<clipPath id="SVGID_14_">
			<use xlink:href="#SVGID_13_"  style="overflow:visible;"/>
		</clipPath>
		<polygon class="st17" points="111.3,368.5 115.2,361.2 85.9,361.2 105.6,324.5 93.7,324.5 70,368.5 		"/>
		<path class="st18" d="M82.2,347.1c-0.1,0-0.3,0.1-0.5,0.1c-1.1,0.1-1.8,0.2-2.1,0.4c-0.2,0.1-0.3,0.3-0.3,0.5
			c0,0.2,0.1,0.3,0.3,0.5c0.2,0.1,0.4,0.2,0.7,0.2c0.3,0,0.6-0.1,0.9-0.2c0.3-0.1,0.5-0.3,0.6-0.5c0.1-0.2,0.3-0.5,0.4-0.9
			L82.2,347.1z M80.2,345.6l-2.1-0.1c0.2-0.5,0.6-0.9,1.2-1.2c0.6-0.3,1.4-0.4,2.3-0.4c1,0,1.7,0.2,2.2,0.5c0.5,0.3,0.7,0.7,0.7,1.1
			c0,0.2,0,0.4-0.1,0.6c0,0.2-0.2,0.7-0.4,1.6c-0.2,0.7-0.3,1.2-0.3,1.5c0,0.3,0.1,0.5,0.2,0.8h-2c-0.1-0.2-0.1-0.4-0.2-0.7
			c-0.3,0.3-0.7,0.5-1.1,0.6c-0.4,0.1-0.8,0.2-1.2,0.2c-0.6,0-1.2-0.2-1.6-0.5c-0.4-0.3-0.6-0.7-0.6-1.2c0-0.6,0.2-1,0.7-1.4
			c0.5-0.3,1.3-0.5,2.5-0.6c1-0.1,1.7-0.1,2-0.2c0.1-0.2,0.1-0.4,0.1-0.5c0-0.2-0.1-0.3-0.3-0.4c-0.2-0.1-0.5-0.2-0.8-0.2
			c-0.4,0-0.7,0.1-0.9,0.2C80.4,345.2,80.3,345.4,80.2,345.6"/>
		<path class="st18" d="M87.1,343.9h2l-0.3,1.2c0.7-0.9,1.5-1.3,2.4-1.3c0.3,0,0.6,0.1,1,0.2l-0.8,1.3c-0.2-0.1-0.4-0.1-0.6-0.1
			c-0.4,0-0.7,0.1-1.1,0.3c-0.4,0.2-0.7,0.5-0.9,0.8c-0.2,0.4-0.4,0.9-0.6,1.7l-0.5,1.9h-2.1L87.1,343.9z"/>
		<path class="st18" d="M93.1,343.9h2l-0.2,0.8c0.5-0.3,1-0.6,1.4-0.7c0.4-0.1,0.9-0.2,1.4-0.2c0.6,0,1.1,0.1,1.5,0.4
			c0.4,0.3,0.6,0.7,0.6,1.1c0,0.2-0.1,0.6-0.2,1.2l-0.9,3.4h-2.1l0.9-3.4c0.1-0.5,0.2-0.8,0.2-0.9c0-0.2-0.1-0.4-0.2-0.5
			c-0.2-0.1-0.4-0.2-0.7-0.2c-0.3,0-0.7,0.1-1,0.3c-0.4,0.2-0.7,0.5-0.9,0.8c-0.2,0.2-0.3,0.7-0.5,1.4l-0.7,2.4h-2.1L93.1,343.9z"/>
	</g>
</g>
<g>
	<defs>
		<rect id="SVGID_15_" x="54" y="324" width="80.4" height="45"/>
	</defs>
	<clipPath id="SVGID_16_">
		<use xlink:href="#SVGID_15_"  style="overflow:visible;"/>
	</clipPath>
	<g class="st19">
		<defs>
			<rect id="SVGID_17_" x="54" y="324" width="80.4" height="45"/>
		</defs>
		<clipPath id="SVGID_18_">
			<use xlink:href="#SVGID_17_"  style="overflow:visible;"/>
		</clipPath>
		<polygon class="st20" points="67.4,349.8 67.8,348.5 62.3,348.5 64.2,341.7 62,341.7 59.7,349.8 		"/>
	</g>
</g>
<g>
	<defs>
		<rect id="SVGID_19_" x="54" y="324" width="80.4" height="45"/>
	</defs>
	<clipPath id="SVGID_20_">
		<use xlink:href="#SVGID_19_"  style="overflow:visible;"/>
	</clipPath>
	<g class="st21">
		<defs>
			<rect id="SVGID_21_" x="54" y="324" width="80.4" height="45"/>
		</defs>
		<clipPath id="SVGID_22_">
			<use xlink:href="#SVGID_21_"  style="overflow:visible;"/>
		</clipPath>
		<path class="st22" d="M71.4,346.4c0.1-0.5,0.4-0.9,0.7-1.1c0.3-0.2,0.7-0.4,1.2-0.4c0.4,0,0.8,0.1,1,0.3c0.3,0.2,0.4,0.5,0.4,1
			c0,0,0,0.1,0,0.2H71.4z M76.6,346.3c0-0.8-0.3-1.4-0.8-1.9c-0.6-0.4-1.3-0.7-2.3-0.7c-1.5,0-2.7,0.4-3.5,1.3
			c-0.6,0.6-0.9,1.4-0.9,2.2c0,0.8,0.3,1.5,1,2c0.7,0.5,1.5,0.8,2.6,0.8c0.8,0,1.5-0.1,2.1-0.4c0.6-0.3,1.1-0.7,1.5-1.3l-1.9-0.2
			c-0.4,0.5-0.9,0.8-1.6,0.8c-0.4,0-0.8-0.1-1.1-0.4c-0.3-0.2-0.4-0.6-0.4-1c0,0,0-0.1,0-0.1h5.3C76.5,347.1,76.6,346.7,76.6,346.3z
			"/>
		<path class="st22" d="M82.2,347.3c-0.1,0.4-0.2,0.7-0.4,0.9c-0.1,0.2-0.4,0.3-0.6,0.5c-0.3,0.1-0.6,0.2-0.9,0.2
			c-0.3,0-0.5-0.1-0.7-0.2c-0.2-0.1-0.3-0.3-0.3-0.5c0-0.2,0.1-0.4,0.3-0.5c0.3-0.2,1-0.3,2.1-0.4c0.2,0,0.4,0,0.5-0.1L82.2,347.3z
			 M80.6,345.1c0.2-0.1,0.5-0.2,0.9-0.2c0.4,0,0.6,0.1,0.8,0.2c0.2,0.1,0.3,0.3,0.3,0.4c0,0.1,0,0.3-0.1,0.5c-0.3,0.1-1,0.2-2,0.2
			c-1.2,0.1-2,0.3-2.5,0.6c-0.5,0.3-0.7,0.8-0.7,1.4c0,0.5,0.2,0.9,0.6,1.2c0.4,0.3,1,0.5,1.6,0.5c0.4,0,0.8-0.1,1.2-0.2
			c0.4-0.1,0.8-0.3,1.1-0.6c0,0.2,0.1,0.5,0.2,0.7H84c-0.1-0.3-0.2-0.6-0.2-0.8c0-0.3,0.1-0.8,0.3-1.5c0.2-0.9,0.4-1.4,0.4-1.6
			c0-0.2,0.1-0.4,0.1-0.6c0-0.4-0.2-0.8-0.7-1.1c-0.5-0.3-1.2-0.5-2.2-0.5c-1,0-1.7,0.1-2.3,0.4c-0.6,0.3-1,0.7-1.2,1.2l2.1,0.1
			C80.3,345.4,80.4,345.2,80.6,345.1z"/>
		<path class="st22" d="M85.5,349.8h2.1l0.5-1.9c0.2-0.8,0.4-1.3,0.6-1.7c0.2-0.3,0.5-0.6,0.9-0.8c0.4-0.2,0.7-0.3,1.1-0.3
			c0.2,0,0.4,0,0.6,0.1l0.8-1.3c-0.3-0.1-0.7-0.2-1-0.2c-0.9,0-1.7,0.4-2.4,1.3l0.3-1.1h-2L85.5,349.8z"/>
		<path class="st22" d="M91.5,349.8h2.1l0.7-2.4c0.2-0.7,0.4-1.2,0.5-1.4c0.2-0.3,0.5-0.6,0.9-0.8c0.4-0.2,0.7-0.3,1-0.3
			c0.3,0,0.5,0.1,0.7,0.2c0.2,0.1,0.2,0.3,0.2,0.5c0,0.1-0.1,0.4-0.2,0.9l-0.9,3.4h2.1l0.9-3.3c0.2-0.6,0.2-1,0.2-1.2
			c0-0.5-0.2-0.8-0.6-1.1c-0.4-0.3-0.9-0.4-1.5-0.4c-0.5,0-0.9,0.1-1.4,0.2c-0.4,0.1-0.9,0.4-1.4,0.7l0.2-0.8h-2L91.5,349.8z"/>
	</g>
</g>
<g>
	<defs>
		<rect id="SVGID_23_" x="54" y="324" width="80.4" height="45"/>
	</defs>
	<clipPath id="SVGID_24_">
		<use xlink:href="#SVGID_23_"  style="overflow:visible;"/>
	</clipPath>
	<g class="st23">
		<defs>
			<rect id="SVGID_25_" x="54" y="324" width="80.4" height="45"/>
		</defs>
		<clipPath id="SVGID_26_">
			<use xlink:href="#SVGID_25_"  style="overflow:visible;"/>
		</clipPath>
		<polygon class="st24" points="112.8,343.9 110.6,343.9 108.2,347.9 107.9,343.9 106,343.9 103.6,347.9 103,343.9 101.2,343.9 
			102.1,349.8 104.1,349.8 106.5,346.1 106.9,349.8 108.9,349.8 		"/>
	</g>
</g>
<g>
	<defs>
		<rect id="SVGID_27_" x="54" y="324" width="80.4" height="45"/>
	</defs>
	<clipPath id="SVGID_28_">
		<use xlink:href="#SVGID_27_"  style="overflow:visible;"/>
	</clipPath>
	<g class="st25">
		<defs>
			<rect id="SVGID_29_" x="54" y="324" width="80.4" height="45"/>
		</defs>
		<clipPath id="SVGID_30_">
			<use xlink:href="#SVGID_29_"  style="overflow:visible;"/>
		</clipPath>
		<path class="st26" d="M114.9,346.4c0.1-0.5,0.4-0.9,0.7-1.1c0.3-0.2,0.7-0.4,1.2-0.4s0.8,0.1,1,0.3c0.3,0.2,0.4,0.5,0.4,1
			c0,0,0,0.1,0,0.2H114.9z M120.2,346.3c0-0.8-0.3-1.4-0.8-1.9c-0.6-0.4-1.3-0.7-2.3-0.7c-1.5,0-2.7,0.4-3.5,1.3
			c-0.6,0.6-0.9,1.4-0.9,2.2c0,0.8,0.3,1.5,1,2c0.7,0.5,1.5,0.8,2.6,0.8c0.8,0,1.5-0.1,2.1-0.4c0.6-0.3,1.1-0.7,1.5-1.3l-1.9-0.2
			c-0.4,0.5-0.9,0.8-1.6,0.8c-0.4,0-0.8-0.1-1.1-0.4c-0.3-0.2-0.4-0.6-0.4-1c0,0,0-0.1,0-0.1h5.3
			C120.1,347.1,120.2,346.7,120.2,346.3z"/>
		<path class="st26" d="M124.4,345.5c0.4-0.4,0.8-0.6,1.4-0.6c0.4,0,0.8,0.1,1,0.4c0.3,0.2,0.4,0.6,0.4,1c0,0.4-0.1,0.9-0.3,1.3
			c-0.2,0.4-0.5,0.7-0.8,0.9c-0.3,0.2-0.7,0.3-1,0.3c-0.4,0-0.8-0.1-1-0.4c-0.3-0.2-0.4-0.6-0.4-1
			C123.6,346.6,123.9,346,124.4,345.5z M122.7,349.8l0.3-1c0.5,0.7,1.3,1.1,2.5,1.1c0.5,0,0.9-0.1,1.4-0.2c0.4-0.2,0.8-0.4,1.2-0.7
			c0.4-0.3,0.7-0.7,0.9-1.2c0.2-0.5,0.4-1,0.4-1.6c0-0.8-0.2-1.4-0.7-1.8c-0.5-0.4-1.2-0.6-2-0.6c-0.4,0-0.8,0-1.1,0.1
			c-0.3,0.1-0.7,0.3-1.1,0.5l0.8-2.7H123l-2.3,8.2H122.7z"/>
	</g>
</g>
<g>
	<defs>
		<rect id="SVGID_31_" x="514" y="325" width="143" height="44"/>
	</defs>
	<clipPath id="SVGID_32_">
		<use xlink:href="#SVGID_31_"  style="overflow:visible;"/>
	</clipPath>
	<g class="st27">
		<defs>
			<rect id="SVGID_33_" x="514" y="325.2" width="143" height="43.6"/>
		</defs>
		<clipPath id="SVGID_34_">
			<use xlink:href="#SVGID_33_"  style="overflow:visible;"/>
		</clipPath>
		<path class="st28" d="M535.8,325.2c-12,0-21.8,9.8-21.8,21.8c0,12,9.8,21.8,21.8,21.8s21.8-9.8,21.8-21.8
			C557.6,335,547.8,325.2,535.8,325.2 M535.8,366.8c-10.9,0-19.8-8.9-19.8-19.8c0-10.9,8.9-19.8,19.8-19.8
			c10.9,0,19.8,8.9,19.8,19.8C555.6,357.9,546.7,366.8,535.8,366.8"/>
		<path class="st28" d="M544.7,331.7c-3.6-2-8.5-0.3-10.4,3.3c-2.1,3.8-1.5,9.5,1.2,12.2c1.9,1.9,4.6,1.9,7.7,0.2l1,1.8
			c-2,1.1-3.7,1.6-5.2,1.6c-2.4,0-4-1.1-4.9-2c-3.3-3.3-4.1-9.9-1.6-14.6c1.2-2.3,3.1-3.8,5.4-4.6c-0.7-0.1-1.4-0.1-2.1-0.1
			c-9.8,0-17.7,8-17.7,17.7c0,9.1,6.9,16.7,15.8,17.6v-8.7h2v8.8c3.4,0,6.6-1,9.4-2.7l-3.7-4.3l0.8-0.6c0.1,0,5.2-4.1,5.7-9.1l2,0.2
			c-0.5,4.6-4,8.3-5.7,9.8l2.4,2.9c4-3.3,6.6-8.2,6.6-13.8C553.5,340.5,550,334.7,544.7,331.7 M547.6,340.5c-0.3,0.8-1.1,1.2-1.9,1
			c-0.8-0.3-1.2-1.1-1-1.9c0.3-0.8,1.1-1.2,1.9-1C547.4,338.9,547.9,339.7,547.6,340.5"/>
		<path class="st28" d="M572,356.2c-2.1,0-4.2-0.7-6.4-1.9l1.8-3.6c1,0.6,3.4,1.9,4.9,1.9c0.9,0,1.6-0.6,1.6-1.1c0-0.8-0.5-1-2-1.4
			l-1.9-0.4c-2.4-0.5-3.5-2-3.5-4.1c0-3.1,2.4-5.1,6.1-5.1c2.9,0,4.4,0.9,5.9,1.5l-1.6,3.1c-1.5-0.8-2.7-1.1-3.7-1.1
			c-0.8,0-1.3,0.3-1.3,0.8c0,0.5,0.3,0.9,1.6,1.2l1.8,0.4c2.6,0.6,3.7,2,3.7,4.3C578.9,354.2,576.2,356.2,572,356.2"/>
		<path class="st28" d="M589.1,356.2c-4.1,0-6.7-2.6-6.7-7.7c0-5,2.6-7.9,7.1-7.9c1.8,0,3.1,0.5,4.6,1.8l-2.3,3
			c-0.6-0.6-1.4-1.1-2.1-1.1c-1.2,0-1.8,0.6-1.8,3.9c0,3,0.3,4.3,1.8,4.3c1.1,0,2-0.5,2.7-1.3l2.1,2.9
			C592.9,355.7,590.9,356.2,589.1,356.2"/>
		<path class="st28" d="M600.8,339.9c-1.6,0-2.9-1.3-2.9-2.8c0-1.6,1.3-2.8,2.9-2.8c1.6,0,2.8,1.3,2.8,2.8
			C603.7,338.7,602.4,339.9,600.8,339.9 M598.3,355.9v-14.6l5-0.5v15.1H598.3z"/>
		<path class="st28" d="M613.2,350c0,0.9,0.3,2.7,2.4,2.7c1.3,0,2.6-0.5,3.9-1.5l1.9,2.9c-2,1.5-3.8,2.1-6,2.1
			c-4.8,0-7.4-2.9-7.4-7.7c0-4.9,2.6-7.9,6.8-7.9c4.7,0,6.7,3,6.7,8v1.4H613.2z M616.6,346.5c0-1.5-0.4-2.4-1.6-2.4
			c-1.1,0-1.8,0.7-1.8,2.6h3.3V346.5z"/>
		<path class="st28" d="M636.4,355.1c-1.1,0.9-2.1,1.2-3.3,1.2c-1.3,0-2.3-0.6-2.9-1.3c0,0.3-0.1,0.7-0.3,0.9h-4.3
			c0.3-0.6,0.3-1.6,0.3-2.8v-13.3c0-1.8-0.1-2.8-0.4-4.1l5.1-0.9c0.1,0.7,0.3,1.8,0.3,2.9v2.3c0,0.6,0,1.4-0.1,1.6
			c0.4-0.4,1.3-0.8,2.6-0.8c3.5,0,5.8,2.4,5.8,7.4C639.3,351.1,638.4,353.6,636.4,355.1 M632.3,344.7c-0.7,0-1.1,0.5-1.3,0.7v6.2
			c0.3,0.2,0.6,0.5,1.2,0.5c1.3,0,1.8-1,1.8-3.8C634,345.4,633.4,344.7,632.3,344.7"/>
		<path class="st28" d="M649.9,356.2c-4.3,0-6.9-2.8-6.9-7.7c0-4.6,2.8-7.9,7.2-7.9c3.7,0,6.8,2.1,6.8,7.4
			C657,353.9,653.5,356.2,649.9,356.2 M650,344.1c-1,0-1.6,0.8-1.6,4.5c0,2.9,0.2,4.1,1.6,4.1c1.2,0,1.6-1.3,1.6-4.8
			C651.6,345,651.2,344.1,650,344.1"/>
	</g>
</g>
</svg>
