<?xml version="1.0" encoding="utf-8"?>
<!-- Generator: Adobe Illustrator 21.0.2, SVG Export Plug-In . SVG Version: 6.00 Build 0)  -->
<svg version="1.1" id="Ebene_1" xmlns="http://www.w3.org/2000/svg" xmlns:xlink="http://www.w3.org/1999/xlink" x="0px" y="0px"
	 viewBox="0 0 691 311.8" style="enable-background:new 0 0 691 311.8;" xml:space="preserve">
<style type="text/css">
	.st0{clip-path:url(#SVGID_2_);fill:#FFFFFF;}
	.st1{clip-path:url(#SVGID_2_);fill:#FA8C10;}
	
		.st2{clip-path:url(#SVGID_2_);fill:none;stroke:#FA8C10;stroke-width:2;stroke-linecap:round;stroke-linejoin:round;stroke-miterlimit:10;}
	.st3{clip-path:url(#SVGID_2_);}
	.st4{fill:#FFFFFF;}
	.st5{clip-path:url(#SVGID_2_);fill:#4F4F4C;}
	
		.st6{clip-path:url(#SVGID_2_);fill:none;stroke:#4F4F4C;stroke-width:2;stroke-linecap:round;stroke-linejoin:round;stroke-miterlimit:10;}
	.st7{clip-path:url(#SVGID_2_);fill:#20334D;}
	
		.st8{clip-path:url(#SVGID_2_);fill:none;stroke:#20334D;stroke-width:2;stroke-linecap:round;stroke-linejoin:round;stroke-miterlimit:10;}
	.st9{clip-path:url(#SVGID_2_);fill:none;stroke:#4F4F4C;stroke-width:2;stroke-miterlimit:10;}
	.st10{fill:#4F4F4C;}
	.st11{fill:#888886;}
</style>
<g>
	<defs>
		<rect id="SVGID_1_" width="691" height="311.8"/>
	</defs>
	<clipPath id="SVGID_2_">
		<use xlink:href="#SVGID_1_"  style="overflow:visible;"/>
	</clipPath>
	<rect class="st0" width="691" height="311.8"/>
	<rect x="26.9" y="12" class="st1" width="135" height="291"/>
	<rect x="26.9" y="12" class="st2" width="135" height="291"/>
	<g class="st3">
		<path class="st4" d="M78.9,163.1c-1,0.7-2.1,1.1-3.4,1.1c-0.8,0-1.6-0.2-2.2-0.5c-0.7-0.3-1.2-0.8-1.7-1.3
			c-0.9-1.2-1.4-2.6-1.4-4.4c0-1.5,0.3-2.7,0.8-3.8c0.5-0.9,1.1-1.6,1.9-2.1c0.8-0.5,1.7-0.8,2.7-0.8c0.6,0,1.2,0.1,1.7,0.3
			c0.5,0.2,1,0.4,1.4,0.7l-1,1.4c-0.3-0.2-0.7-0.4-1-0.5s-0.7-0.2-1.1-0.2c-0.5,0-1,0.1-1.4,0.4c-0.4,0.3-0.8,0.6-1,1.1
			c-0.2,0.4-0.4,0.8-0.5,1.4s-0.2,1.2-0.2,1.9c0,0.8,0,1.4,0.1,1.9c0.1,0.5,0.2,0.9,0.4,1.2c0.3,0.6,0.7,1,1.1,1.3
			c0.5,0.3,1,0.4,1.6,0.4c0.4,0,0.8-0.1,1.2-0.2c0.3-0.1,0.7-0.3,1-0.6L78.9,163.1z"/>
		<path class="st4" d="M86.8,164h-5.6v-9.7h2v8.1h4L86.8,164z"/>
		<path class="st4" d="M88.8,164v-9.7h2.1v9.7H88.8z"/>
		<path class="st4" d="M94.2,164v-9.7h6.1l-0.3,1.6h-3.8v2.2h3.2v1.6h-3.2v2.6h4.2v1.7H94.2z"/>
		<path class="st4" d="M108.1,164l-2.3-4.5c-0.1-0.2-0.3-0.5-0.4-0.8c-0.1-0.3-0.3-0.6-0.4-0.9c-0.1-0.3-0.3-0.7-0.4-1
			c0,0.4,0,0.7,0.1,1.1c0,0.3,0,0.6,0,1s0,0.6,0,0.9l0.1,4.3h-2v-9.7h2.2l2.4,4.4c0.1,0.2,0.2,0.5,0.4,0.7c0.1,0.3,0.2,0.5,0.3,0.8
			s0.2,0.4,0.3,0.6c0.1,0.2,0.1,0.3,0.1,0.3c0,0,0-0.1,0-0.3s0-0.4-0.1-0.7s0-0.6-0.1-0.9s0-0.6,0-0.8l0-4.1h1.9v9.7H108.1z"/>
		<path class="st4" d="M119.4,155.9h-2.6v8.1h-2v-8.1H112v-1.6h7.7L119.4,155.9z"/>
	</g>
	<rect x="503.9" y="12" class="st5" width="162" height="75"/>
	<rect x="503.9" y="12" class="st6" width="162" height="75"/>
	<g class="st3">
		<path class="st4" d="M553.2,46.5l-1.1-1.9c-0.4-0.8-0.8-1.4-1.1-1.9c-0.3-0.5-0.7-0.9-1-1.2c-0.1-0.1-0.2-0.2-0.3-0.3
			c-0.1-0.1-0.3-0.1-0.5-0.1v5.4h-2V34.1h3.8c0.7,0,1.3,0.1,1.8,0.3c0.5,0.2,0.9,0.5,1.3,0.8c0.3,0.3,0.6,0.7,0.7,1.1
			c0.2,0.4,0.2,0.9,0.2,1.4c0,0.4-0.1,0.9-0.2,1.3c-0.1,0.4-0.3,0.8-0.6,1.1c-0.3,0.3-0.6,0.6-1,0.8c-0.4,0.2-0.8,0.3-1.3,0.3
			c0.1,0.1,0.2,0.2,0.4,0.3s0.3,0.4,0.5,0.6c0.2,0.2,0.3,0.5,0.5,0.7c0.2,0.3,0.3,0.5,0.5,0.8l1.8,3H553.2z M552.9,37.6
			c0-0.6-0.2-1.1-0.6-1.4c-0.4-0.3-1-0.5-2-0.5h-1.1v3.9h1.1c0.5,0,1,0,1.3-0.1c0.3-0.1,0.6-0.2,0.8-0.4c0.2-0.2,0.3-0.4,0.4-0.6
			C552.8,38.3,552.9,38,552.9,37.6z"/>
		<path class="st4" d="M557.9,46.5v-9.7h6.1l-0.3,1.6h-3.8v2.2h3.2v1.6h-3.2v2.6h4.2v1.7H557.9z"/>
		<path class="st4" d="M573.5,43.5c0,0.6-0.1,1.1-0.4,1.5c-0.3,0.4-0.6,0.8-1,1s-0.9,0.4-1.4,0.6c-0.5,0.1-1,0.2-1.5,0.2
			c-0.6,0-1.2-0.1-1.8-0.2c-0.6-0.1-1.2-0.4-1.8-0.6l0.7-1.5c0.5,0.3,1,0.4,1.5,0.6s1,0.2,1.5,0.2c0.2,0,0.4,0,0.6,0
			c0.2,0,0.4-0.1,0.6-0.2s0.4-0.2,0.5-0.4s0.2-0.4,0.2-0.6c0-0.3-0.1-0.6-0.4-0.8c-0.2-0.2-0.6-0.4-1.2-0.5l-1.3-0.3
			c-0.7-0.2-1.3-0.5-1.7-0.9c-0.5-0.4-0.7-1-0.7-1.8c0-0.4,0.1-0.8,0.3-1.2c0.2-0.4,0.4-0.7,0.8-0.9s0.7-0.5,1.2-0.6s1-0.2,1.5-0.2
			c0.6,0,1.3,0.1,2,0.3c0.7,0.2,1.2,0.4,1.6,0.7l-1,1.4c-0.9-0.5-1.8-0.8-2.6-0.8c-0.5,0-0.9,0.1-1.2,0.3c-0.3,0.2-0.4,0.5-0.4,0.8
			c0,0.3,0.1,0.5,0.3,0.7c0.2,0.2,0.5,0.3,1,0.4l1.3,0.3c0.4,0.1,0.7,0.2,1.1,0.4c0.3,0.1,0.6,0.3,0.9,0.5c0.2,0.2,0.4,0.5,0.6,0.8
			C573.5,42.7,573.5,43.1,573.5,43.5z"/>
		<path class="st4" d="M584.8,41.6c0,0.7-0.1,1.4-0.3,2c-0.2,0.6-0.5,1.1-0.8,1.6c-0.4,0.4-0.8,0.8-1.4,1c-0.6,0.2-1.3,0.4-2,0.4
			c-0.8,0-1.4-0.1-2-0.4c-0.6-0.2-1.1-0.6-1.5-1c-0.4-0.4-0.7-1-0.9-1.6c-0.2-0.6-0.3-1.3-0.3-2c0-1.6,0.4-2.8,1.2-3.7
			s1.9-1.3,3.4-1.3c0.8,0,1.4,0.1,2,0.4c0.6,0.2,1.1,0.6,1.4,1c0.4,0.4,0.7,1,0.9,1.6C584.7,40.2,584.8,40.9,584.8,41.6z
			 M582.5,41.7c0-0.4,0-0.8-0.1-1.3s-0.2-0.8-0.3-1.1s-0.4-0.6-0.7-0.8c-0.3-0.2-0.7-0.3-1.3-0.3c-0.5,0-0.9,0.1-1.2,0.3
			c-0.3,0.2-0.5,0.5-0.7,0.8s-0.3,0.7-0.3,1.1s-0.1,0.8-0.1,1.2c0,0.4,0,0.9,0.1,1.3c0,0.4,0.2,0.8,0.3,1.1s0.4,0.6,0.7,0.8
			c0.3,0.2,0.7,0.3,1.3,0.3c0.5,0,0.9-0.1,1.2-0.3c0.3-0.2,0.5-0.5,0.7-0.8c0.2-0.3,0.3-0.7,0.3-1.1S582.5,42.1,582.5,41.7z"/>
		<path class="st4" d="M595.1,43.1c0,0.4,0,0.7,0,1c0,0.3-0.1,0.5-0.1,0.7c-0.1,0.2-0.2,0.4-0.3,0.5c-0.1,0.2-0.2,0.3-0.4,0.4
			c-0.3,0.3-0.7,0.5-1.2,0.7c-0.5,0.2-1.1,0.3-1.8,0.3c-0.9,0-1.6-0.1-2.2-0.4c-0.6-0.3-1-0.6-1.3-1c-0.2-0.3-0.3-0.6-0.3-0.9
			c-0.1-0.3-0.1-0.7-0.1-1.2v-6.4h2.1v6.1c0,0.3,0,0.6,0,0.8s0.1,0.4,0.1,0.5c0.1,0.3,0.3,0.5,0.6,0.6s0.6,0.2,1,0.2
			c0.7,0,1.1-0.2,1.4-0.5c0.1-0.1,0.1-0.2,0.2-0.3c0-0.1,0.1-0.2,0.1-0.3c0-0.1,0.1-0.3,0.1-0.4c0-0.2,0-0.4,0-0.6v-6.2h2.1V43.1z"
			/>
		<path class="st4" d="M603.6,46.5l-1-1.6c-0.3-0.4-0.5-0.7-0.6-1s-0.3-0.5-0.4-0.6s-0.2-0.3-0.3-0.4c-0.1-0.1-0.2-0.2-0.3-0.3
			c-0.1-0.1-0.2-0.1-0.3-0.2c-0.1,0-0.3-0.1-0.4-0.1v4h-2v-9.7h3.3c0.6,0,1.2,0.1,1.6,0.2c0.5,0.1,0.8,0.3,1.1,0.5
			c0.7,0.6,1,1.3,1,2.2c0,0.4-0.1,0.7-0.2,1.1s-0.3,0.6-0.5,0.8c-0.2,0.2-0.5,0.4-0.8,0.6c-0.3,0.1-0.6,0.2-1,0.3
			c0.1,0.1,0.3,0.3,0.4,0.5c0.2,0.2,0.4,0.5,0.6,0.8c0.2,0.3,0.5,0.6,0.7,1l1.3,2H603.6z M603.3,39.7c0-0.3-0.1-0.5-0.2-0.7
			c-0.1-0.2-0.3-0.3-0.5-0.4c-0.2-0.1-0.4-0.1-0.7-0.2c-0.2,0-0.5,0-0.7,0h-1V41h0.9c0.3,0,0.5,0,0.8,0c0.3,0,0.5-0.1,0.7-0.2
			s0.4-0.2,0.5-0.4C603.2,40.2,603.3,40,603.3,39.7z"/>
		<path class="st4" d="M615.2,45.8c-0.8,0.6-1.8,0.9-3,0.9c-0.7,0-1.3-0.1-1.9-0.3c-0.6-0.2-1-0.5-1.5-0.9c-1-0.9-1.5-2.2-1.5-3.7
			c0-1.2,0.3-2.2,0.8-3.1c0.4-0.7,1-1.2,1.7-1.6c0.7-0.4,1.5-0.6,2.3-0.6c0.5,0,1,0.1,1.5,0.2c0.5,0.1,0.9,0.3,1.2,0.6l-1,1.3
			c-0.6-0.3-1.1-0.5-1.7-0.5c-0.4,0-0.8,0.1-1.2,0.3c-0.4,0.2-0.7,0.4-0.9,0.8c-0.4,0.5-0.6,1.3-0.6,2.4c0,0.7,0,1.2,0.1,1.6
			c0.1,0.4,0.3,0.8,0.5,1.1c0.5,0.6,1.2,0.9,2,0.9c0.3,0,0.7,0,1-0.1c0.3-0.1,0.6-0.2,0.9-0.4L615.2,45.8z"/>
		<path class="st4" d="M617.4,46.5v-9.7h6.1l-0.3,1.6h-3.8v2.2h3.2v1.6h-3.2v2.6h4.2v1.7H617.4z"/>
	</g>
	<g class="st3">
		<path class="st4" d="M569.1,59.3c0,1-0.1,1.9-0.3,2.6s-0.6,1.5-1,2s-1,1-1.6,1.3c-0.6,0.3-1.4,0.5-2.2,0.5c-0.9,0-1.7-0.2-2.3-0.5
			s-1.2-0.8-1.7-1.3s-0.8-1.2-1-2c-0.2-0.8-0.3-1.6-0.3-2.6c0-1,0.1-1.9,0.4-2.7s0.6-1.5,1.1-2s1-1,1.6-1.2c0.6-0.3,1.3-0.4,2.1-0.4
			c0.9,0,1.6,0.2,2.3,0.5c0.7,0.3,1.2,0.8,1.6,1.4c0.4,0.6,0.8,1.3,1,2S569.1,58.4,569.1,59.3z M566.8,59.4c0-0.8,0-1.4-0.1-2.1
			c-0.1-0.6-0.2-1.1-0.5-1.6c-0.2-0.4-0.5-0.8-0.9-1c-0.4-0.2-0.8-0.3-1.4-0.3c-1,0-1.8,0.4-2.2,1.2c-0.4,0.8-0.7,2-0.7,3.5
			c0,0.8,0.1,1.5,0.2,2.1c0.1,0.6,0.3,1.1,0.5,1.6c0.2,0.4,0.5,0.7,0.9,1c0.4,0.2,0.8,0.3,1.3,0.3c0.5,0,0.9-0.1,1.2-0.3
			c0.3-0.2,0.6-0.5,0.9-0.8c0.2-0.4,0.4-0.9,0.5-1.5C566.7,61,566.8,60.3,566.8,59.4z"/>
		<path class="st4" d="M580.6,65.6h-2.2l-1-4.1c-0.1-0.3-0.2-0.7-0.2-1c-0.1-0.4-0.1-0.7-0.2-1c0-0.3-0.1-0.6-0.1-0.8
			c0-0.2,0-0.4,0-0.4c0,0,0,0.1-0.1,0.4c0,0.2-0.1,0.5-0.2,0.8c-0.1,0.3-0.1,0.7-0.2,1c-0.1,0.4-0.1,0.7-0.2,1l-0.9,4.1h-2.3
			l-2.6-9.8h2.1l1,4c0.1,0.4,0.2,0.7,0.2,1.1c0.1,0.4,0.1,0.8,0.2,1.1c0.1,0.3,0.1,0.6,0.1,0.9c0,0.2,0.1,0.4,0.1,0.4
			c0,0,0-0.2,0.1-0.4c0-0.2,0.1-0.5,0.1-0.9c0.1-0.3,0.1-0.7,0.2-1.1c0.1-0.4,0.2-0.8,0.2-1.1l1-4.1h2.2l1,4.5
			c0.1,0.2,0.1,0.5,0.2,0.9c0.1,0.3,0.1,0.7,0.2,1c0.1,0.4,0.1,0.7,0.2,1.1c0.1-0.5,0.1-0.9,0.2-1.3c0.1-0.4,0.1-0.7,0.2-1.1
			c0.1-0.4,0.2-0.7,0.2-1l1-4h2.1L580.6,65.6z"/>
		<path class="st4" d="M590.3,65.5l-2.3-4.5c-0.1-0.2-0.3-0.5-0.4-0.8c-0.1-0.3-0.3-0.6-0.4-0.9c-0.1-0.3-0.3-0.7-0.4-1
			c0,0.4,0,0.7,0.1,1.1c0,0.3,0,0.6,0,1s0,0.6,0,0.9l0.1,4.3h-2v-9.7h2.2l2.4,4.4c0.1,0.2,0.2,0.5,0.4,0.7c0.1,0.3,0.2,0.5,0.3,0.8
			c0.1,0.2,0.2,0.4,0.3,0.6c0.1,0.2,0.1,0.3,0.1,0.3c0,0,0-0.1,0-0.3c0-0.2,0-0.4-0.1-0.7c0-0.3,0-0.6-0.1-0.9c0-0.3,0-0.6,0-0.8
			l0-4.1h1.9v9.7H590.3z"/>
		<path class="st4" d="M595.6,65.5v-9.7h6.1l-0.3,1.6h-3.8v2.2h3.2v1.6h-3.2v2.6h4.2v1.7H595.6z"/>
		<path class="st4" d="M609.4,65.5l-1-1.6c-0.3-0.4-0.5-0.7-0.6-1c-0.2-0.3-0.3-0.5-0.4-0.6s-0.2-0.3-0.3-0.4
			c-0.1-0.1-0.2-0.2-0.3-0.3c-0.1-0.1-0.2-0.1-0.3-0.2c-0.1,0-0.3-0.1-0.4-0.1v4h-2v-9.7h3.3c0.6,0,1.2,0.1,1.6,0.2
			c0.5,0.1,0.8,0.3,1.1,0.5c0.7,0.6,1,1.3,1,2.2c0,0.4-0.1,0.7-0.2,1.1c-0.1,0.3-0.3,0.6-0.5,0.8c-0.2,0.2-0.5,0.4-0.8,0.6
			c-0.3,0.1-0.6,0.2-1,0.3c0.1,0.1,0.3,0.3,0.4,0.5c0.2,0.2,0.4,0.5,0.6,0.8c0.2,0.3,0.5,0.6,0.7,1l1.3,2H609.4z M609.1,58.7
			c0-0.3-0.1-0.5-0.2-0.7s-0.3-0.3-0.5-0.4c-0.2-0.1-0.4-0.1-0.7-0.2c-0.2,0-0.5,0-0.7,0h-1V60h0.9c0.3,0,0.5,0,0.8,0
			c0.3,0,0.5-0.1,0.7-0.2s0.4-0.2,0.5-0.4C609,59.2,609.1,59,609.1,58.7z"/>
	</g>
	<rect x="503.9" y="120" class="st7" width="162" height="75"/>
	<rect x="503.9" y="120" class="st8" width="162" height="75"/>
	<g class="st3">
		<path class="st4" d="M533.1,154.5l-1-3.3h-4l-1,3.3h-2.1L529,142h2.4l4,12.5H533.1z M531.6,149.5c0,0-0.1-0.2-0.2-0.5
			s-0.2-0.6-0.3-1c-0.1-0.4-0.2-0.8-0.3-1.2s-0.2-0.8-0.3-1.2c-0.1-0.4-0.2-0.7-0.3-1c-0.1-0.3-0.1-0.5-0.1-0.5h0
			c-0.2,0.9-0.5,1.7-0.7,2.4c-0.1,0.3-0.2,0.6-0.3,0.9c-0.1,0.3-0.2,0.6-0.3,0.9c-0.1,0.3-0.2,0.5-0.2,0.7c-0.1,0.2-0.1,0.4-0.1,0.5
			H531.6z"/>
		<path class="st4" d="M544.5,151.1c0,0.4,0,0.7,0,1c0,0.3-0.1,0.5-0.1,0.7c-0.1,0.2-0.2,0.4-0.3,0.5c-0.1,0.2-0.2,0.3-0.4,0.4
			c-0.3,0.3-0.7,0.5-1.2,0.7c-0.5,0.2-1.1,0.3-1.8,0.3c-0.9,0-1.6-0.1-2.2-0.4s-1-0.6-1.3-1c-0.2-0.3-0.3-0.6-0.3-0.9
			c-0.1-0.3-0.1-0.7-0.1-1.2v-6.4h2.1v6.1c0,0.3,0,0.6,0,0.8c0,0.2,0.1,0.4,0.1,0.5c0.1,0.3,0.3,0.5,0.6,0.6c0.3,0.1,0.6,0.2,1,0.2
			c0.7,0,1.1-0.2,1.4-0.5c0.1-0.1,0.1-0.2,0.2-0.3c0-0.1,0.1-0.2,0.1-0.3c0-0.1,0.1-0.3,0.1-0.4s0-0.4,0-0.6v-6.2h2.1V151.1z"/>
		<path class="st4" d="M553.7,146.4H551v8.1h-2v-8.1h-2.7v-1.6h7.7L553.7,146.4z"/>
		<path class="st4" d="M561.1,154.5v-4.3h-3.3v4.3h-2v-9.7h2v3.8h3.3v-3.8h2.1v9.7H561.1z"/>
		<path class="st4" d="M575.1,149.6c0,0.7-0.1,1.4-0.3,2c-0.2,0.6-0.5,1.1-0.8,1.6c-0.4,0.4-0.8,0.8-1.4,1c-0.6,0.2-1.3,0.4-2,0.4
			c-0.8,0-1.4-0.1-2-0.4c-0.6-0.2-1.1-0.6-1.5-1c-0.4-0.4-0.7-1-0.9-1.6c-0.2-0.6-0.3-1.3-0.3-2c0-1.6,0.4-2.8,1.2-3.7
			c0.8-0.9,1.9-1.3,3.4-1.3c0.8,0,1.4,0.1,2,0.4s1.1,0.6,1.4,1c0.4,0.4,0.7,1,0.9,1.6C575,148.2,575.1,148.9,575.1,149.6z
			 M572.8,149.7c0-0.4,0-0.8-0.1-1.3s-0.2-0.8-0.3-1.1s-0.4-0.6-0.7-0.8c-0.3-0.2-0.7-0.3-1.3-0.3c-0.5,0-0.9,0.1-1.2,0.3
			c-0.3,0.2-0.5,0.5-0.7,0.8c-0.2,0.3-0.3,0.7-0.3,1.1s-0.1,0.8-0.1,1.2c0,0.4,0,0.9,0.1,1.3c0,0.4,0.2,0.8,0.3,1.1
			c0.2,0.3,0.4,0.6,0.7,0.8c0.3,0.2,0.7,0.3,1.3,0.3c0.5,0,0.9-0.1,1.2-0.3s0.5-0.5,0.7-0.8c0.2-0.3,0.3-0.7,0.3-1.1
			S572.8,150.1,572.8,149.7z"/>
		<path class="st4" d="M583.1,154.5l-1-1.6c-0.3-0.4-0.5-0.7-0.6-1c-0.2-0.3-0.3-0.5-0.4-0.6s-0.2-0.3-0.3-0.4
			c-0.1-0.1-0.2-0.2-0.3-0.3c-0.1-0.1-0.2-0.1-0.3-0.2c-0.1,0-0.3-0.1-0.4-0.1v4h-2v-9.7h3.3c0.6,0,1.2,0.1,1.6,0.2
			c0.5,0.1,0.8,0.3,1.1,0.5c0.7,0.6,1,1.3,1,2.2c0,0.4-0.1,0.7-0.2,1.1c-0.1,0.3-0.3,0.6-0.5,0.8c-0.2,0.2-0.5,0.4-0.8,0.6
			c-0.3,0.1-0.6,0.2-1,0.3c0.1,0.1,0.3,0.3,0.4,0.5c0.2,0.2,0.4,0.5,0.6,0.8c0.2,0.3,0.5,0.6,0.7,1l1.3,2H583.1z M582.8,147.7
			c0-0.3-0.1-0.5-0.2-0.7s-0.3-0.3-0.5-0.4c-0.2-0.1-0.4-0.1-0.7-0.2c-0.2,0-0.5,0-0.7,0h-1v2.7h0.9c0.3,0,0.5,0,0.8,0
			c0.3,0,0.5-0.1,0.7-0.2s0.4-0.2,0.5-0.4C582.7,148.2,582.8,148,582.8,147.7z"/>
		<path class="st4" d="M587.5,154.5v-9.7h2.1v9.7H587.5z"/>
		<path class="st4" d="M598.8,154.5h-6.7v-1.4l4.2-6c0.1-0.1,0.1-0.2,0.2-0.3s0.2-0.2,0.2-0.3c0.1-0.1,0.2-0.2,0.3-0.3
			c-0.1,0-0.3,0-0.4,0c-0.1,0-0.3,0-0.4,0c-0.1,0-0.3,0-0.4,0h-3.5l0.5-1.6h6.4v1.4l-4.1,6c-0.1,0.1-0.1,0.2-0.2,0.3
			c-0.1,0.1-0.1,0.2-0.2,0.2c-0.1,0.1-0.2,0.2-0.2,0.3c0.1,0,0.3,0,0.4,0c0.1,0,0.2,0,0.4,0s0.2,0,0.3,0h3.8L598.8,154.5z"/>
		<path class="st4" d="M607.3,154.5l-0.8-2.3h-3.3l-0.8,2.3h-2.1l3.6-9.8h2.2l3.5,9.8H607.3z M604.8,146.5l-1.2,4.1h2.4L604.8,146.5
			z"/>
		<path class="st4" d="M617.1,146.4h-2.6v8.1h-2v-8.1h-2.7v-1.6h7.7L617.1,146.4z"/>
		<path class="st4" d="M619.1,154.5v-9.7h2.1v9.7H619.1z"/>
		<path class="st4" d="M633.2,149.6c0,0.7-0.1,1.4-0.3,2c-0.2,0.6-0.5,1.1-0.8,1.6c-0.4,0.4-0.8,0.8-1.4,1c-0.6,0.2-1.3,0.4-2,0.4
			c-0.8,0-1.4-0.1-2-0.4c-0.6-0.2-1.1-0.6-1.5-1c-0.4-0.4-0.7-1-0.9-1.6c-0.2-0.6-0.3-1.3-0.3-2c0-1.6,0.4-2.8,1.2-3.7
			s1.9-1.3,3.4-1.3c0.8,0,1.4,0.1,2,0.4c0.6,0.2,1.1,0.6,1.4,1c0.4,0.4,0.7,1,0.9,1.6C633.1,148.2,633.2,148.9,633.2,149.6z
			 M630.9,149.7c0-0.4,0-0.8-0.1-1.3s-0.2-0.8-0.3-1.1s-0.4-0.6-0.7-0.8c-0.3-0.2-0.7-0.3-1.3-0.3c-0.5,0-0.9,0.1-1.2,0.3
			c-0.3,0.2-0.5,0.5-0.7,0.8s-0.3,0.7-0.3,1.1s-0.1,0.8-0.1,1.2c0,0.4,0,0.9,0.1,1.3c0,0.4,0.2,0.8,0.3,1.1s0.4,0.6,0.7,0.8
			c0.3,0.2,0.7,0.3,1.3,0.3c0.5,0,0.9-0.1,1.2-0.3c0.3-0.2,0.5-0.5,0.7-0.8c0.2-0.3,0.3-0.7,0.3-1.1S630.9,150.1,630.9,149.7z"/>
		<path class="st4" d="M641.2,154.5l-2.3-4.5c-0.1-0.2-0.3-0.5-0.4-0.8c-0.1-0.3-0.3-0.6-0.4-0.9c-0.1-0.3-0.3-0.7-0.4-1
			c0,0.4,0,0.7,0.1,1.1c0,0.3,0,0.6,0,1s0,0.6,0,0.9l0.1,4.3h-2v-9.7h2.2l2.4,4.4c0.1,0.2,0.2,0.5,0.4,0.7c0.1,0.3,0.2,0.5,0.3,0.8
			c0.1,0.2,0.2,0.4,0.3,0.6c0.1,0.2,0.1,0.3,0.1,0.3c0,0,0-0.1,0-0.3c0-0.2,0-0.4-0.1-0.7c0-0.3,0-0.6-0.1-0.9c0-0.3,0-0.6,0-0.8
			l0-4.1h1.9v9.7H641.2z"/>
	</g>
	<g class="st3">
		<path class="st4" d="M566.7,169.8c0,0.5-0.1,1-0.3,1.5c-0.2,0.5-0.5,0.9-0.9,1.3c-0.4,0.4-0.9,0.7-1.5,0.9
			c-0.6,0.2-1.3,0.3-2.1,0.3c-0.7,0-1.4-0.1-2.1-0.3s-1.3-0.5-2-0.8l0.8-1.6c0.6,0.3,1.1,0.6,1.6,0.8c0.5,0.2,1.1,0.3,1.7,0.3
			c0.8,0,1.4-0.2,1.8-0.5s0.6-0.8,0.6-1.5c0-0.5-0.1-0.8-0.4-1.1s-0.8-0.5-1.4-0.7l-1.3-0.4c-0.6-0.2-1.1-0.4-1.5-0.6
			c-0.4-0.2-0.7-0.5-1-0.9c-0.3-0.5-0.5-1.1-0.5-1.8c0-0.6,0.1-1.1,0.3-1.5s0.5-0.8,0.9-1.2c0.4-0.3,0.8-0.6,1.3-0.8
			c0.5-0.2,1.1-0.3,1.7-0.3c0.7,0,1.4,0.1,2.1,0.3c0.7,0.2,1.3,0.5,1.8,0.9l-0.9,1.5c-0.6-0.3-1.1-0.6-1.5-0.7
			c-0.4-0.1-0.9-0.2-1.4-0.2c-0.6,0-1.1,0.2-1.5,0.5s-0.6,0.7-0.6,1.2c0,0.4,0.1,0.7,0.4,0.9c0.2,0.2,0.7,0.4,1.3,0.6l1.5,0.4
			c0.9,0.3,1.6,0.7,2.2,1.3S566.7,168.8,566.7,169.8z"/>
		<path class="st4" d="M569.3,173.5v-9.7h6.1l-0.3,1.6h-3.8v2.2h3.2v1.6h-3.2v2.6h4.2v1.7H569.3z"/>
		<path class="st4" d="M583.1,173.5l-1-1.6c-0.3-0.4-0.5-0.7-0.6-1s-0.3-0.5-0.4-0.6s-0.2-0.3-0.3-0.4c-0.1-0.1-0.2-0.2-0.3-0.3
			c-0.1-0.1-0.2-0.1-0.3-0.2c-0.1,0-0.3-0.1-0.4-0.1v4h-2v-9.7h3.3c0.6,0,1.2,0.1,1.6,0.2c0.5,0.1,0.8,0.3,1.1,0.5
			c0.7,0.6,1,1.3,1,2.2c0,0.4-0.1,0.7-0.2,1.1s-0.3,0.6-0.5,0.8c-0.2,0.2-0.5,0.4-0.8,0.6c-0.3,0.1-0.6,0.2-1,0.3
			c0.1,0.1,0.3,0.3,0.4,0.5c0.2,0.2,0.4,0.5,0.6,0.8c0.2,0.3,0.5,0.6,0.7,1l1.3,2H583.1z M582.8,166.7c0-0.3-0.1-0.5-0.2-0.7
			c-0.1-0.2-0.3-0.3-0.5-0.4c-0.2-0.1-0.4-0.1-0.7-0.2c-0.2,0-0.5,0-0.7,0h-1v2.7h0.9c0.3,0,0.5,0,0.8,0c0.3,0,0.5-0.1,0.7-0.2
			s0.4-0.2,0.5-0.4C582.7,167.2,582.8,167,582.8,166.7z"/>
		<path class="st4" d="M591.3,173.6h-1.8l-3.7-9.8h2.2l1.8,5c0.1,0.2,0.1,0.4,0.2,0.7c0.1,0.3,0.1,0.5,0.2,0.8
			c0.1,0.3,0.1,0.6,0.2,0.8c0.1-0.3,0.1-0.6,0.2-0.8c0.1-0.2,0.1-0.5,0.2-0.7c0.1-0.3,0.2-0.5,0.2-0.7l1.9-5.1h2.1L591.3,173.6z"/>
		<path class="st4" d="M596.5,173.5v-9.7h6.1l-0.3,1.6h-3.8v2.2h3.2v1.6h-3.2v2.6h4.2v1.7H596.5z"/>
		<path class="st4" d="M610.3,173.5l-1-1.6c-0.3-0.4-0.5-0.7-0.6-1s-0.3-0.5-0.4-0.6s-0.2-0.3-0.3-0.4c-0.1-0.1-0.2-0.2-0.3-0.3
			c-0.1-0.1-0.2-0.1-0.3-0.2c-0.1,0-0.3-0.1-0.4-0.1v4h-2v-9.7h3.3c0.6,0,1.2,0.1,1.6,0.2c0.5,0.1,0.8,0.3,1.1,0.5
			c0.7,0.6,1,1.3,1,2.2c0,0.4-0.1,0.7-0.2,1.1s-0.3,0.6-0.5,0.8c-0.2,0.2-0.5,0.4-0.8,0.6c-0.3,0.1-0.6,0.2-1,0.3
			c0.1,0.1,0.3,0.3,0.4,0.5c0.2,0.2,0.4,0.5,0.6,0.8c0.2,0.3,0.5,0.6,0.7,1l1.3,2H610.3z M610,166.7c0-0.3-0.1-0.5-0.2-0.7
			c-0.1-0.2-0.3-0.3-0.5-0.4c-0.2-0.1-0.4-0.1-0.7-0.2c-0.2,0-0.5,0-0.7,0h-1v2.7h0.9c0.3,0,0.5,0,0.8,0c0.3,0,0.5-0.1,0.7-0.2
			s0.4-0.2,0.5-0.4C609.9,167.2,610,167,610,166.7z"/>
	</g>
	<rect x="503.9" y="228" class="st7" width="162" height="75"/>
	<rect x="503.9" y="228" class="st8" width="162" height="75"/>
	<g class="st3">
		<path class="st4" d="M553.2,262.5l-1.1-1.9c-0.4-0.8-0.8-1.4-1.1-1.9c-0.3-0.5-0.7-0.9-1-1.2c-0.1-0.1-0.2-0.2-0.3-0.3
			c-0.1-0.1-0.3-0.1-0.5-0.1v5.4h-2v-12.5h3.8c0.7,0,1.3,0.1,1.8,0.3c0.5,0.2,0.9,0.5,1.3,0.8c0.3,0.3,0.6,0.7,0.7,1.1
			c0.2,0.4,0.2,0.9,0.2,1.4c0,0.4-0.1,0.9-0.2,1.3c-0.1,0.4-0.3,0.8-0.6,1.1c-0.3,0.3-0.6,0.6-1,0.8c-0.4,0.2-0.8,0.3-1.3,0.3
			c0.1,0.1,0.2,0.2,0.4,0.3s0.3,0.4,0.5,0.6c0.2,0.2,0.3,0.5,0.5,0.7c0.2,0.3,0.3,0.5,0.5,0.8l1.8,3H553.2z M552.9,253.6
			c0-0.6-0.2-1.1-0.6-1.4c-0.4-0.3-1-0.5-2-0.5h-1.1v3.9h1.1c0.5,0,1,0,1.3-0.1c0.3-0.1,0.6-0.2,0.8-0.4c0.2-0.2,0.3-0.4,0.4-0.6
			C552.8,254.3,552.9,254,552.9,253.6z"/>
		<path class="st4" d="M557.9,262.5v-9.7h6.1l-0.3,1.6h-3.8v2.2h3.2v1.6h-3.2v2.6h4.2v1.7H557.9z"/>
		<path class="st4" d="M573.5,259.5c0,0.6-0.1,1.1-0.4,1.5c-0.3,0.4-0.6,0.8-1,1s-0.9,0.4-1.4,0.6c-0.5,0.1-1,0.2-1.5,0.2
			c-0.6,0-1.2-0.1-1.8-0.2c-0.6-0.1-1.2-0.4-1.8-0.6l0.7-1.5c0.5,0.3,1,0.4,1.5,0.6s1,0.2,1.5,0.2c0.2,0,0.4,0,0.6,0
			c0.2,0,0.4-0.1,0.6-0.2s0.4-0.2,0.5-0.4s0.2-0.4,0.2-0.6c0-0.3-0.1-0.6-0.4-0.8c-0.2-0.2-0.6-0.4-1.2-0.5l-1.3-0.3
			c-0.7-0.2-1.3-0.5-1.7-0.9c-0.5-0.4-0.7-1-0.7-1.8c0-0.4,0.1-0.8,0.3-1.2c0.2-0.4,0.4-0.7,0.8-0.9s0.7-0.5,1.2-0.6s1-0.2,1.5-0.2
			c0.6,0,1.3,0.1,2,0.3c0.7,0.2,1.2,0.4,1.6,0.7l-1,1.4c-0.9-0.5-1.8-0.8-2.6-0.8c-0.5,0-0.9,0.1-1.2,0.3c-0.3,0.2-0.4,0.5-0.4,0.8
			c0,0.3,0.1,0.5,0.3,0.7c0.2,0.2,0.5,0.3,1,0.4l1.3,0.3c0.4,0.1,0.7,0.2,1.1,0.4c0.3,0.1,0.6,0.3,0.9,0.5c0.2,0.2,0.4,0.5,0.6,0.8
			C573.5,258.7,573.5,259.1,573.5,259.5z"/>
		<path class="st4" d="M584.8,257.6c0,0.7-0.1,1.4-0.3,2c-0.2,0.6-0.5,1.1-0.8,1.6c-0.4,0.4-0.8,0.8-1.4,1c-0.6,0.2-1.3,0.4-2,0.4
			c-0.8,0-1.4-0.1-2-0.4c-0.6-0.2-1.1-0.6-1.5-1c-0.4-0.4-0.7-1-0.9-1.6c-0.2-0.6-0.3-1.3-0.3-2c0-1.6,0.4-2.8,1.2-3.7
			s1.9-1.3,3.4-1.3c0.8,0,1.4,0.1,2,0.4c0.6,0.2,1.1,0.6,1.4,1c0.4,0.4,0.7,1,0.9,1.6C584.7,256.2,584.8,256.9,584.8,257.6z
			 M582.5,257.7c0-0.4,0-0.8-0.1-1.3s-0.2-0.8-0.3-1.1s-0.4-0.6-0.7-0.8c-0.3-0.2-0.7-0.3-1.3-0.3c-0.5,0-0.9,0.1-1.2,0.3
			c-0.3,0.2-0.5,0.5-0.7,0.8s-0.3,0.7-0.3,1.1s-0.1,0.8-0.1,1.2c0,0.4,0,0.9,0.1,1.3c0,0.4,0.2,0.8,0.3,1.1s0.4,0.6,0.7,0.8
			c0.3,0.2,0.7,0.3,1.3,0.3c0.5,0,0.9-0.1,1.2-0.3c0.3-0.2,0.5-0.5,0.7-0.8c0.2-0.3,0.3-0.7,0.3-1.1S582.5,258.1,582.5,257.7z"/>
		<path class="st4" d="M595.1,259.1c0,0.4,0,0.7,0,1c0,0.3-0.1,0.5-0.1,0.7c-0.1,0.2-0.2,0.4-0.3,0.5c-0.1,0.2-0.2,0.3-0.4,0.4
			c-0.3,0.3-0.7,0.5-1.2,0.7c-0.5,0.2-1.1,0.3-1.8,0.3c-0.9,0-1.6-0.1-2.2-0.4c-0.6-0.3-1-0.6-1.3-1c-0.2-0.3-0.3-0.6-0.3-0.9
			c-0.1-0.3-0.1-0.7-0.1-1.2v-6.4h2.1v6.1c0,0.3,0,0.6,0,0.8s0.1,0.4,0.1,0.5c0.1,0.3,0.3,0.5,0.6,0.6s0.6,0.2,1,0.2
			c0.7,0,1.1-0.2,1.4-0.5c0.1-0.1,0.1-0.2,0.2-0.3c0-0.1,0.1-0.2,0.1-0.3c0-0.1,0.1-0.3,0.1-0.4c0-0.2,0-0.4,0-0.6v-6.2h2.1V259.1z"
			/>
		<path class="st4" d="M603.6,262.5l-1-1.6c-0.3-0.4-0.5-0.7-0.6-1s-0.3-0.5-0.4-0.6s-0.2-0.3-0.3-0.4c-0.1-0.1-0.2-0.2-0.3-0.3
			c-0.1-0.1-0.2-0.1-0.3-0.2c-0.1,0-0.3-0.1-0.4-0.1v4h-2v-9.7h3.3c0.6,0,1.2,0.1,1.6,0.2c0.5,0.1,0.8,0.3,1.1,0.5
			c0.7,0.6,1,1.3,1,2.2c0,0.4-0.1,0.7-0.2,1.1s-0.3,0.6-0.5,0.8c-0.2,0.2-0.5,0.4-0.8,0.6c-0.3,0.1-0.6,0.2-1,0.3
			c0.1,0.1,0.3,0.3,0.4,0.5c0.2,0.2,0.4,0.5,0.6,0.8c0.2,0.3,0.5,0.6,0.7,1l1.3,2H603.6z M603.3,255.7c0-0.3-0.1-0.5-0.2-0.7
			c-0.1-0.2-0.3-0.3-0.5-0.4c-0.2-0.1-0.4-0.1-0.7-0.2c-0.2,0-0.5,0-0.7,0h-1v2.7h0.9c0.3,0,0.5,0,0.8,0c0.3,0,0.5-0.1,0.7-0.2
			s0.4-0.2,0.5-0.4C603.2,256.2,603.3,256,603.3,255.7z"/>
		<path class="st4" d="M615.2,261.8c-0.8,0.6-1.8,0.9-3,0.9c-0.7,0-1.3-0.1-1.9-0.3c-0.6-0.2-1-0.5-1.5-0.9c-1-0.9-1.5-2.2-1.5-3.7
			c0-1.2,0.3-2.2,0.8-3.1c0.4-0.7,1-1.2,1.7-1.6c0.7-0.4,1.5-0.6,2.3-0.6c0.5,0,1,0.1,1.5,0.2c0.5,0.1,0.9,0.3,1.2,0.6l-1,1.3
			c-0.6-0.3-1.1-0.5-1.7-0.5c-0.4,0-0.8,0.1-1.2,0.3c-0.4,0.2-0.7,0.4-0.9,0.8c-0.4,0.5-0.6,1.3-0.6,2.4c0,0.7,0,1.2,0.1,1.6
			c0.1,0.4,0.3,0.8,0.5,1.1c0.5,0.6,1.2,0.9,2,0.9c0.3,0,0.7,0,1-0.1c0.3-0.1,0.6-0.2,0.9-0.4L615.2,261.8z"/>
		<path class="st4" d="M617.4,262.5v-9.7h6.1l-0.3,1.6h-3.8v2.2h3.2v1.6h-3.2v2.6h4.2v1.7H617.4z"/>
	</g>
	<g class="st3">
		<path class="st4" d="M566.7,277.8c0,0.5-0.1,1-0.3,1.5c-0.2,0.5-0.5,0.9-0.9,1.3c-0.4,0.4-0.9,0.7-1.5,0.9
			c-0.6,0.2-1.3,0.3-2.1,0.3c-0.7,0-1.4-0.1-2.1-0.3s-1.3-0.5-2-0.8l0.8-1.6c0.6,0.3,1.1,0.6,1.6,0.8c0.5,0.2,1.1,0.3,1.7,0.3
			c0.8,0,1.4-0.2,1.8-0.5s0.6-0.8,0.6-1.5c0-0.5-0.1-0.8-0.4-1.1s-0.8-0.5-1.4-0.7l-1.3-0.4c-0.6-0.2-1.1-0.4-1.5-0.6
			c-0.4-0.2-0.7-0.5-1-0.9c-0.3-0.5-0.5-1.1-0.5-1.8c0-0.6,0.1-1.1,0.3-1.5s0.5-0.8,0.9-1.2c0.4-0.3,0.8-0.6,1.3-0.8
			c0.5-0.2,1.1-0.3,1.7-0.3c0.7,0,1.4,0.1,2.1,0.3c0.7,0.2,1.3,0.5,1.8,0.9l-0.9,1.5c-0.6-0.3-1.1-0.6-1.5-0.7
			c-0.4-0.1-0.9-0.2-1.4-0.2c-0.6,0-1.1,0.2-1.5,0.5s-0.6,0.7-0.6,1.2c0,0.4,0.1,0.7,0.4,0.9c0.2,0.2,0.7,0.4,1.3,0.6l1.5,0.4
			c0.9,0.3,1.6,0.7,2.2,1.3S566.7,276.8,566.7,277.8z"/>
		<path class="st4" d="M569.3,281.5v-9.7h6.1l-0.3,1.6h-3.8v2.2h3.2v1.6h-3.2v2.6h4.2v1.7H569.3z"/>
		<path class="st4" d="M583.1,281.5l-1-1.6c-0.3-0.4-0.5-0.7-0.6-1s-0.3-0.5-0.4-0.6s-0.2-0.3-0.3-0.4c-0.1-0.1-0.2-0.2-0.3-0.3
			c-0.1-0.1-0.2-0.1-0.3-0.2c-0.1,0-0.3-0.1-0.4-0.1v4h-2v-9.7h3.3c0.6,0,1.2,0.1,1.6,0.2c0.5,0.1,0.8,0.3,1.1,0.5
			c0.7,0.6,1,1.3,1,2.2c0,0.4-0.1,0.7-0.2,1.1s-0.3,0.6-0.5,0.8c-0.2,0.2-0.5,0.4-0.8,0.6c-0.3,0.1-0.6,0.2-1,0.3
			c0.1,0.1,0.3,0.3,0.4,0.5c0.2,0.2,0.4,0.5,0.6,0.8c0.2,0.3,0.5,0.6,0.7,1l1.3,2H583.1z M582.8,274.7c0-0.3-0.1-0.5-0.2-0.7
			c-0.1-0.2-0.3-0.3-0.5-0.4c-0.2-0.1-0.4-0.1-0.7-0.2c-0.2,0-0.5,0-0.7,0h-1v2.7h0.9c0.3,0,0.5,0,0.8,0c0.3,0,0.5-0.1,0.7-0.2
			s0.4-0.2,0.5-0.4C582.7,275.2,582.8,275,582.8,274.7z"/>
		<path class="st4" d="M591.3,281.6h-1.8l-3.7-9.8h2.2l1.8,5c0.1,0.2,0.1,0.4,0.2,0.7c0.1,0.3,0.1,0.5,0.2,0.8
			c0.1,0.3,0.1,0.6,0.2,0.8c0.1-0.3,0.1-0.6,0.2-0.8c0.1-0.2,0.1-0.5,0.2-0.7c0.1-0.3,0.2-0.5,0.2-0.7l1.9-5.1h2.1L591.3,281.6z"/>
		<path class="st4" d="M596.5,281.5v-9.7h6.1l-0.3,1.6h-3.8v2.2h3.2v1.6h-3.2v2.6h4.2v1.7H596.5z"/>
		<path class="st4" d="M610.3,281.5l-1-1.6c-0.3-0.4-0.5-0.7-0.6-1s-0.3-0.5-0.4-0.6s-0.2-0.3-0.3-0.4c-0.1-0.1-0.2-0.2-0.3-0.3
			c-0.1-0.1-0.2-0.1-0.3-0.2c-0.1,0-0.3-0.1-0.4-0.1v4h-2v-9.7h3.3c0.6,0,1.2,0.1,1.6,0.2c0.5,0.1,0.8,0.3,1.1,0.5
			c0.7,0.6,1,1.3,1,2.2c0,0.4-0.1,0.7-0.2,1.1s-0.3,0.6-0.5,0.8c-0.2,0.2-0.5,0.4-0.8,0.6c-0.3,0.1-0.6,0.2-1,0.3
			c0.1,0.1,0.3,0.3,0.4,0.5c0.2,0.2,0.4,0.5,0.6,0.8c0.2,0.3,0.5,0.6,0.7,1l1.3,2H610.3z M610,274.7c0-0.3-0.1-0.5-0.2-0.7
			c-0.1-0.2-0.3-0.3-0.5-0.4c-0.2-0.1-0.4-0.1-0.7-0.2c-0.2,0-0.5,0-0.7,0h-1v2.7h0.9c0.3,0,0.5,0,0.8,0c0.3,0,0.5-0.1,0.7-0.2
			s0.4-0.2,0.5-0.4C609.9,275.2,610,275,610,274.7z"/>
	</g>
	<line class="st6" x1="170.9" y1="33" x2="482" y2="33"/>
	<polygon class="st5" points="491.6,33 482,29.4 482,36.6 	"/>
	<polygon class="st9" points="491.6,33 482,29.4 482,36.6 	"/>
	<line class="st6" x1="494.9" y1="69" x2="183.8" y2="69"/>
	<polygon class="st5" points="174.2,69 183.8,72.6 183.8,65.4 	"/>
	<polygon class="st9" points="174.2,69 183.8,72.6 183.8,65.4 	"/>
	<g class="st3">
		<path class="st10" d="M282.6,23.8h-1.4l-1-3.2h-3.8l-1,3.2h-1.2l3.4-10.3h1.6L282.6,23.8z M279.9,19.6l-1.6-5l-0.5,1.5
			c-0.1,0.4-0.5,1.6-1.1,3.5H279.9z"/>
		<path class="st10" d="M290.1,23.3l-0.8,0.8c-0.5-0.4-0.7-0.8-0.8-1.2c-0.6,0.8-1.4,1.1-2.4,1.1c-1.4,0-2.2-0.7-2.2-2.2v-5.5
			l1.2-0.2v5.4c0,1,0.5,1.5,1.4,1.5c0.4,0,0.8-0.1,1.1-0.4c0.3-0.2,0.6-0.6,0.8-0.9v-5.3l1.2-0.2v5.3c0,0.7,0.1,1.2,0.2,1.4
			C289.8,23,289.9,23.1,290.1,23.3z"/>
		<path class="st10" d="M295.2,16.3l-0.4,0.9h-1.6V22c0,0.4,0.1,0.7,0.2,0.8c0.1,0.2,0.4,0.3,0.8,0.3c0.3,0,0.6,0,0.8-0.1l0.2,0.8
			c-0.4,0.2-0.8,0.3-1.3,0.3c-1.1,0-1.7-0.6-1.7-1.7v-5.1h-1v-0.9h1v-0.1c0-0.1,0-0.6,0.1-1.6l0-0.2l1.2-0.3
			c-0.1,0.8-0.1,1.5-0.1,2.1H295.2z"/>
		<path class="st10" d="M302.4,23.8h-1.2v-5.1c0-0.5-0.1-0.8-0.2-1c-0.2-0.3-0.5-0.4-0.9-0.4c-0.8,0-1.5,0.4-2.2,1.3v5.3h-1.2v-9.2
			c0-0.5-0.1-1-0.2-1.5l1.2-0.2c0.1,0.5,0.2,1.1,0.2,1.7v1.7c0,0.3,0,0.6,0,1c0.2-0.2,0.5-0.4,0.8-0.6c0.6-0.4,1.2-0.6,1.7-0.6
			c0.5,0,0.9,0.1,1.3,0.4c0.4,0.3,0.6,0.7,0.7,1.1c0,0.2,0,0.4,0,0.7V23.8z"/>
		<path class="st10" d="M310.9,20.2c0,1.4-0.4,2.4-1.2,3.1c-0.6,0.5-1.2,0.7-2,0.7c-1.1,0-1.9-0.4-2.5-1.2c-0.5-0.7-0.8-1.6-0.8-2.8
			c0-1.1,0.2-2,0.7-2.7c0.6-0.8,1.4-1.2,2.4-1.2c1.1,0,2,0.4,2.5,1.3C310.7,18.1,310.9,19,310.9,20.2z M309.6,20.3
			c0-0.9-0.1-1.6-0.3-2.1c-0.3-0.7-0.9-1.1-1.6-1.1c-0.8,0-1.3,0.3-1.6,0.9c-0.2,0.4-0.3,1-0.3,1.9c0,1,0.1,1.7,0.3,2.1
			c0.3,0.7,0.9,1.1,1.7,1.1C309,23,309.6,22.1,309.6,20.3z"/>
		<path class="st10" d="M316.8,16.2l-0.5,1.2c-0.1,0-0.2,0-0.3,0c-0.3,0-0.6,0.1-0.9,0.3c-0.3,0.2-0.5,0.4-0.7,0.6
			c-0.1,0.2-0.1,0.4-0.1,0.8v4.7h-1.2v-5.7c0-0.7-0.1-1.2-0.3-1.6l1.2-0.3c0.2,0.4,0.3,0.7,0.3,1.1v0.1c0.6-0.8,1.3-1.2,2.1-1.2
			C316.5,16.1,316.6,16.1,316.8,16.2z"/>
		<path class="st10" d="M319.4,14c0,0.3-0.1,0.5-0.3,0.7c-0.2,0.2-0.4,0.3-0.7,0.3c-0.2,0-0.5-0.1-0.6-0.3c-0.2-0.2-0.3-0.4-0.3-0.6
			c0-0.3,0.1-0.5,0.3-0.7c0.2-0.2,0.4-0.3,0.7-0.3s0.5,0.1,0.7,0.3C319.3,13.5,319.4,13.7,319.4,14z M319.1,23.8h-1.2v-7.4l1.2-0.2
			V23.8z"/>
		<path class="st10" d="M326.4,22.9l-0.6,0.9h-5v-0.9l4.1-5.6h-3.8v-0.9h5v1l-3.9,5.6H326.4z"/>
		<path class="st10" d="M333.7,23.2l-0.6,0.8c-0.5-0.2-0.9-0.5-1-1.1c-0.7,0.7-1.4,1-2.2,1c-0.7,0-1.3-0.2-1.7-0.5
			c-0.5-0.4-0.7-0.9-0.7-1.6c0-1,0.4-1.7,1.3-2.1c0.7-0.4,1.6-0.5,2.6-0.5c0.2,0,0.4,0,0.5,0v-0.5c0-0.6-0.1-1-0.2-1.2
			c-0.2-0.3-0.6-0.4-1-0.4c-0.9,0-1.6,0.3-2.4,0.9l-0.6-0.8c1-0.7,2.1-1,3.1-1c1.1,0,1.8,0.4,2.1,1.2c0.1,0.3,0.2,0.7,0.2,1.3v0.4
			l-0.1,2.5c0,0.1,0,0.2,0,0.3c0,0.4,0,0.7,0.1,0.9C333.2,22.9,333.4,23.1,333.7,23.2z M332,20c-0.3,0-0.5,0-0.6,0
			c-1.7,0-2.6,0.6-2.6,1.8c0,0.9,0.4,1.4,1.3,1.4c0.8,0,1.4-0.4,1.8-1.2L332,20z"/>
		<path class="st10" d="M338.8,16.3l-0.4,0.9h-1.6V22c0,0.4,0.1,0.7,0.2,0.8c0.1,0.2,0.4,0.3,0.8,0.3c0.3,0,0.6,0,0.8-0.1l0.2,0.8
			c-0.4,0.2-0.8,0.3-1.3,0.3c-1.1,0-1.7-0.6-1.7-1.7v-5.1h-1v-0.9h1v-0.1c0-0.1,0-0.6,0.1-1.6l0-0.2l1.2-0.3
			c-0.1,0.8-0.1,1.5-0.1,2.1H338.8z"/>
		<path class="st10" d="M341.9,14c0,0.3-0.1,0.5-0.3,0.7c-0.2,0.2-0.4,0.3-0.7,0.3c-0.2,0-0.5-0.1-0.6-0.3c-0.2-0.2-0.3-0.4-0.3-0.6
			c0-0.3,0.1-0.5,0.3-0.7c0.2-0.2,0.4-0.3,0.7-0.3s0.5,0.1,0.7,0.3C341.8,13.5,341.9,13.7,341.9,14z M341.6,23.8h-1.2v-7.4l1.2-0.2
			V23.8z"/>
		<path class="st10" d="M350.2,20.2c0,1.4-0.4,2.4-1.2,3.1c-0.5,0.5-1.2,0.7-2,0.7c-1.1,0-1.9-0.4-2.5-1.2c-0.5-0.7-0.8-1.6-0.8-2.8
			c0-1.1,0.2-2,0.7-2.7c0.6-0.8,1.4-1.2,2.4-1.2c1.1,0,2,0.4,2.5,1.3C350,18.1,350.2,19,350.2,20.2z M348.9,20.3
			c0-0.9-0.1-1.6-0.3-2.1c-0.3-0.7-0.8-1.1-1.6-1.1c-0.8,0-1.3,0.3-1.6,0.9c-0.2,0.4-0.3,1-0.3,1.9c0,1,0.1,1.7,0.3,2.1
			c0.3,0.7,0.9,1.1,1.7,1.1C348.3,23,348.9,22.1,348.9,20.3z"/>
		<path class="st10" d="M357.9,23.8h-1.2v-5.1c0-0.5-0.1-0.9-0.2-1.1c-0.2-0.3-0.5-0.5-0.9-0.5c-0.3,0-0.7,0.1-1.1,0.3
			c-0.4,0.2-0.7,0.4-0.9,0.7v5.6h-1.1v-5.6c0-0.8-0.1-1.3-0.3-1.8l1.1-0.3c0.2,0.4,0.3,0.8,0.3,1.2c0.8-0.8,1.6-1.2,2.4-1.2
			c0.4,0,0.8,0.1,1.1,0.3c0.3,0.2,0.6,0.5,0.7,0.8c0.1,0.3,0.2,0.6,0.2,0.9V23.8z"/>
		<path class="st10" d="M372,23.8h-1.5c-0.5-1.1-1.4-2.5-2.6-4c-0.4-0.4-0.7-0.6-1.1-0.7v4.6h-1.2V13.5h2.4c1.2,0,2.1,0.2,2.6,0.7
			c0.7,0.6,1,1.3,1,2.2c0,0.8-0.2,1.5-0.7,2c-0.5,0.5-1.2,0.8-2,0.8h-0.2c0.3,0.3,0.7,0.6,1,1.2c0.1,0.2,0.4,0.6,0.8,1.2
			C370.8,21.9,371.3,22.6,372,23.8z M370.2,16.3c0-0.3-0.1-0.6-0.3-0.9s-0.4-0.5-0.7-0.6c-0.4-0.1-0.8-0.2-1.3-0.2h-1.2v3.8h1.1
			c0.8,0,1.4-0.1,1.8-0.4C370,17.6,370.2,17,370.2,16.3z"/>
		<path class="st10" d="M379.5,20.2h-4.7v0.2c0,0.7,0.1,1.3,0.3,1.6c0.4,0.6,1,0.9,1.9,0.9c0.7,0,1.3-0.2,1.8-0.7l0.4,0.8
			c-0.7,0.6-1.5,0.9-2.5,0.9c-1.1,0-2-0.4-2.5-1.2c-0.5-0.7-0.8-1.6-0.8-2.8c0-1.1,0.3-1.9,0.8-2.7c0.6-0.8,1.4-1.2,2.4-1.2
			c0.8,0,1.5,0.3,2,0.8c0.4,0.4,0.6,0.9,0.7,1.5c0.1,0.4,0.1,0.9,0.1,1.7V20.2z M378.2,19.3c0-0.7-0.1-1.2-0.3-1.6
			c-0.3-0.5-0.7-0.7-1.4-0.7c-1.1,0-1.7,0.8-1.7,2.3H378.2z"/>
		<path class="st10" d="M387.5,16.3c-0.2,0.3-0.2,1-0.2,2.1v8.2l-1.1,0.2v-3.9c-0.6,0.7-1.3,1-2.1,1c-0.7,0-1.2-0.2-1.7-0.6
			c-0.8-0.7-1.2-1.7-1.2-3c0-1.4,0.2-2.3,0.7-3c0.6-0.8,1.3-1.2,2.2-1.2c0.8,0,1.5,0.4,2.1,1.1c0-0.4,0.1-0.7,0.2-0.8H387.5z
			 M386.1,21.7v-3.6c-0.2-0.3-0.5-0.6-0.8-0.8c-0.4-0.2-0.7-0.3-1.1-0.3c-1.2,0-1.9,1-1.9,2.9c0,1.9,0.6,2.9,2,2.9
			C385.1,22.9,385.7,22.5,386.1,21.7z"/>
		<path class="st10" d="M395.9,23.3l-0.8,0.8c-0.5-0.4-0.7-0.8-0.8-1.2c-0.6,0.8-1.4,1.1-2.4,1.1c-1.4,0-2.2-0.7-2.2-2.2v-5.5
			l1.2-0.2v5.4c0,1,0.5,1.5,1.4,1.5c0.4,0,0.8-0.1,1.1-0.4c0.3-0.2,0.6-0.6,0.8-0.9v-5.3l1.2-0.2v5.3c0,0.7,0.1,1.2,0.2,1.4
			C395.6,23,395.7,23.1,395.9,23.3z"/>
		<path class="st10" d="M403.3,20.2h-4.7v0.2c0,0.7,0.1,1.3,0.3,1.6c0.4,0.6,1,0.9,1.9,0.9c0.7,0,1.3-0.2,1.8-0.7l0.4,0.8
			c-0.7,0.6-1.5,0.9-2.5,0.9c-1.1,0-2-0.4-2.5-1.2c-0.5-0.7-0.8-1.6-0.8-2.8c0-1.1,0.3-1.9,0.8-2.7c0.6-0.8,1.4-1.2,2.4-1.2
			c0.8,0,1.5,0.3,2,0.8c0.4,0.4,0.6,0.9,0.7,1.5c0.1,0.4,0.1,0.9,0.1,1.7V20.2z M402.1,19.3c0-0.7-0.1-1.2-0.3-1.6
			c-0.3-0.5-0.7-0.7-1.4-0.7c-1.1,0-1.7,0.8-1.7,2.3H402.1z"/>
		<path class="st10" d="M410.1,21.5c0,0.8-0.3,1.4-0.9,1.8c-0.5,0.4-1.2,0.6-2,0.6c-1,0-1.9-0.2-2.7-0.8l0.4-0.9
			c0.8,0.5,1.6,0.7,2.4,0.7c0.4,0,0.8-0.1,1.1-0.3s0.4-0.5,0.4-1c0-0.6-0.4-1-1.2-1.2l-0.9-0.2c-1.3-0.3-1.9-1-1.9-2
			c0-0.7,0.3-1.3,0.8-1.7c0.5-0.4,1.1-0.6,1.8-0.6c0.8,0,1.6,0.2,2.3,0.6l-0.4,0.9c-0.8-0.4-1.4-0.5-1.9-0.5c-0.4,0-0.7,0.1-1,0.3
			c-0.3,0.2-0.4,0.5-0.4,0.9c0,0.6,0.4,0.9,1.1,1.1l1,0.2C409.4,19.7,410.1,20.4,410.1,21.5z"/>
		<path class="st10" d="M415.2,16.3l-0.4,0.9h-1.6V22c0,0.4,0.1,0.7,0.2,0.8c0.1,0.2,0.4,0.3,0.8,0.3c0.3,0,0.6,0,0.8-0.1l0.2,0.8
			c-0.4,0.2-0.8,0.3-1.3,0.3c-1.1,0-1.7-0.6-1.7-1.7v-5.1h-1v-0.9h1v-0.1c0-0.1,0-0.6,0.1-1.6l0-0.2l1.2-0.3
			c-0.1,0.8-0.2,1.5-0.2,2.1H415.2z"/>
	</g>
	<g class="st3">
		<path class="st10" d="M282.2,59.3h-1.4l-1-3.2H276l-1,3.2h-1.2l3.4-10.3h1.6L282.2,59.3z M279.5,55.2l-1.6-5l-0.5,1.5
			c-0.1,0.4-0.5,1.6-1.1,3.5H279.5z"/>
		<path class="st10" d="M289.6,58.9l-0.8,0.8c-0.5-0.4-0.7-0.8-0.8-1.2c-0.6,0.8-1.4,1.1-2.4,1.1c-1.4,0-2.2-0.7-2.2-2.2v-5.5
			l1.2-0.2v5.4c0,1,0.5,1.5,1.4,1.5c0.4,0,0.8-0.1,1.1-0.4c0.3-0.2,0.6-0.6,0.8-0.9v-5.3l1.2-0.2V57c0,0.7,0.1,1.2,0.2,1.4
			C289.4,58.6,289.5,58.7,289.6,58.9z"/>
		<path class="st10" d="M294.7,51.9l-0.4,0.9h-1.6v4.8c0,0.4,0.1,0.7,0.2,0.8c0.1,0.2,0.4,0.3,0.8,0.3c0.3,0,0.6,0,0.8-0.1l0.2,0.8
			c-0.4,0.2-0.8,0.3-1.3,0.3c-1.1,0-1.7-0.6-1.7-1.7v-5.1h-1v-0.9h1v-0.1c0-0.1,0-0.6,0.1-1.6l0-0.2l1.2-0.3
			c-0.1,0.8-0.1,1.5-0.1,2.1H294.7z"/>
		<path class="st10" d="M302,59.3h-1.2v-5.1c0-0.5-0.1-0.8-0.2-1c-0.2-0.3-0.5-0.4-0.9-0.4c-0.8,0-1.5,0.4-2.2,1.3v5.3h-1.2v-9.2
			c0-0.5-0.1-1-0.2-1.5l1.2-0.2c0.1,0.5,0.2,1.1,0.2,1.7v1.7c0,0.3,0,0.6,0,1c0.2-0.2,0.5-0.4,0.8-0.6c0.6-0.4,1.2-0.6,1.7-0.6
			c0.5,0,0.9,0.1,1.3,0.4c0.4,0.3,0.6,0.7,0.7,1.1c0,0.2,0,0.4,0,0.7V59.3z"/>
		<path class="st10" d="M310.5,55.8c0,1.4-0.4,2.4-1.2,3.1c-0.6,0.5-1.2,0.7-2,0.7c-1.1,0-1.9-0.4-2.5-1.2c-0.5-0.7-0.8-1.6-0.8-2.8
			c0-1.1,0.2-2,0.7-2.7c0.6-0.8,1.4-1.2,2.4-1.2c1.1,0,2,0.4,2.5,1.3C310.2,53.7,310.5,54.6,310.5,55.8z M309.1,55.9
			c0-0.9-0.1-1.6-0.3-2.1c-0.3-0.7-0.9-1.1-1.6-1.1c-0.8,0-1.3,0.3-1.6,0.9c-0.2,0.4-0.3,1-0.3,1.9c0,1,0.1,1.7,0.3,2.1
			c0.3,0.7,0.9,1.1,1.7,1.1C308.5,58.6,309.1,57.7,309.1,55.9z"/>
		<path class="st10" d="M316.3,51.7l-0.5,1.2c-0.1,0-0.2,0-0.3,0c-0.3,0-0.6,0.1-0.9,0.3c-0.3,0.2-0.5,0.4-0.7,0.6
			c-0.1,0.2-0.1,0.4-0.1,0.8v4.7h-1.2v-5.7c0-0.7-0.1-1.2-0.3-1.6l1.2-0.3c0.2,0.4,0.3,0.7,0.3,1.1v0.1c0.6-0.8,1.3-1.2,2.1-1.2
			C316.1,51.7,316.2,51.7,316.3,51.7z"/>
		<path class="st10" d="M319,49.6c0,0.3-0.1,0.5-0.3,0.7c-0.2,0.2-0.4,0.3-0.7,0.3c-0.2,0-0.5-0.1-0.6-0.3c-0.2-0.2-0.3-0.4-0.3-0.6
			c0-0.3,0.1-0.5,0.3-0.7c0.2-0.2,0.4-0.3,0.7-0.3s0.5,0.1,0.7,0.3C318.9,49.1,319,49.3,319,49.6z M318.7,59.3h-1.2v-7.4l1.2-0.2
			V59.3z"/>
		<path class="st10" d="M325.9,58.4l-0.6,0.9h-5v-0.9l4.1-5.6h-3.8v-0.9h5v1l-3.9,5.6H325.9z"/>
		<path class="st10" d="M333.2,58.8l-0.6,0.8c-0.5-0.2-0.9-0.5-1-1.1c-0.7,0.7-1.4,1-2.2,1c-0.7,0-1.3-0.2-1.7-0.5
			c-0.5-0.4-0.7-0.9-0.7-1.6c0-1,0.4-1.7,1.3-2.1c0.7-0.4,1.6-0.5,2.6-0.5c0.2,0,0.4,0,0.5,0v-0.5c0-0.6-0.1-1-0.2-1.2
			c-0.2-0.3-0.6-0.4-1-0.4c-0.9,0-1.6,0.3-2.4,0.9l-0.6-0.8c1-0.7,2.1-1,3.1-1c1.1,0,1.8,0.4,2.1,1.2c0.1,0.3,0.2,0.7,0.2,1.3v0.4
			l-0.1,2.5c0,0.1,0,0.2,0,0.3c0,0.4,0,0.7,0.1,0.9C332.7,58.4,332.9,58.6,333.2,58.8z M331.5,55.5c-0.3,0-0.5,0-0.6,0
			c-1.7,0-2.6,0.6-2.6,1.8c0,0.9,0.4,1.4,1.3,1.4c0.8,0,1.4-0.4,1.8-1.2L331.5,55.5z"/>
		<path class="st10" d="M338.3,51.9l-0.4,0.9h-1.6v4.8c0,0.4,0.1,0.7,0.2,0.8c0.1,0.2,0.4,0.3,0.8,0.3c0.3,0,0.6,0,0.8-0.1l0.2,0.8
			c-0.4,0.2-0.8,0.3-1.3,0.3c-1.1,0-1.7-0.6-1.7-1.7v-5.1h-1v-0.9h1v-0.1c0-0.1,0-0.6,0.1-1.6l0-0.2l1.2-0.3
			c-0.1,0.8-0.1,1.5-0.1,2.1H338.3z"/>
		<path class="st10" d="M341.5,49.6c0,0.3-0.1,0.5-0.3,0.7c-0.2,0.2-0.4,0.3-0.7,0.3c-0.2,0-0.5-0.1-0.6-0.3
			c-0.2-0.2-0.3-0.4-0.3-0.6c0-0.3,0.1-0.5,0.3-0.7c0.2-0.2,0.4-0.3,0.7-0.3s0.5,0.1,0.7,0.3C341.4,49.1,341.5,49.3,341.5,49.6z
			 M341.2,59.3h-1.2v-7.4l1.2-0.2V59.3z"/>
		<path class="st10" d="M349.8,55.8c0,1.4-0.4,2.4-1.2,3.1c-0.5,0.5-1.2,0.7-2,0.7c-1.1,0-1.9-0.4-2.5-1.2c-0.5-0.7-0.8-1.6-0.8-2.8
			c0-1.1,0.2-2,0.7-2.7c0.6-0.8,1.4-1.2,2.4-1.2c1.1,0,2,0.4,2.5,1.3C349.5,53.7,349.8,54.6,349.8,55.8z M348.4,55.9
			c0-0.9-0.1-1.6-0.3-2.1c-0.3-0.7-0.8-1.1-1.6-1.1c-0.8,0-1.3,0.3-1.6,0.9c-0.2,0.4-0.3,1-0.3,1.9c0,1,0.1,1.7,0.3,2.1
			c0.3,0.7,0.9,1.1,1.7,1.1C347.8,58.6,348.4,57.7,348.4,55.9z"/>
		<path class="st10" d="M357.5,59.3h-1.2v-5.1c0-0.5-0.1-0.9-0.2-1.1c-0.2-0.3-0.5-0.5-0.9-0.5c-0.3,0-0.7,0.1-1.1,0.3
			c-0.4,0.2-0.7,0.4-0.9,0.7v5.6H352v-5.6c0-0.8-0.1-1.3-0.3-1.8l1.1-0.3c0.2,0.4,0.3,0.8,0.3,1.2c0.8-0.8,1.6-1.2,2.4-1.2
			c0.4,0,0.8,0.1,1.1,0.3c0.3,0.2,0.6,0.5,0.7,0.8c0.1,0.3,0.2,0.6,0.2,0.9V59.3z"/>
		<path class="st10" d="M371.6,59.3h-1.5c-0.5-1.1-1.4-2.5-2.6-4c-0.4-0.4-0.7-0.6-1.1-0.7v4.6h-1.2V49.1h2.4c1.2,0,2.1,0.2,2.6,0.7
			c0.7,0.6,1,1.3,1,2.2c0,0.8-0.2,1.5-0.7,2c-0.5,0.5-1.2,0.8-2,0.8h-0.2c0.3,0.3,0.7,0.6,1,1.2c0.1,0.2,0.4,0.6,0.8,1.2
			C370.3,57.4,370.9,58.2,371.6,59.3z M369.8,51.9c0-0.3-0.1-0.6-0.3-0.9s-0.4-0.5-0.7-0.6c-0.4-0.1-0.8-0.2-1.3-0.2h-1.2v3.8h1.1
			c0.8,0,1.4-0.1,1.8-0.4C369.6,53.2,369.8,52.6,369.8,51.9z"/>
		<path class="st10" d="M379,55.8h-4.7V56c0,0.7,0.1,1.3,0.3,1.6c0.4,0.6,1,0.9,1.9,0.9c0.7,0,1.3-0.2,1.8-0.7l0.4,0.8
			c-0.7,0.6-1.5,0.9-2.5,0.9c-1.1,0-2-0.4-2.5-1.2c-0.5-0.7-0.8-1.6-0.8-2.8c0-1.1,0.3-1.9,0.8-2.7c0.6-0.8,1.4-1.2,2.4-1.2
			c0.8,0,1.5,0.3,2,0.8c0.4,0.4,0.6,0.9,0.7,1.5c0.1,0.4,0.1,0.9,0.1,1.7V55.8z M377.8,54.9c0-0.7-0.1-1.2-0.3-1.6
			c-0.3-0.5-0.7-0.7-1.4-0.7c-1.1,0-1.7,0.8-1.7,2.3H377.8z"/>
		<path class="st10" d="M385.8,57.1c0,0.8-0.3,1.4-0.9,1.8c-0.5,0.4-1.2,0.6-2,0.6c-1,0-1.9-0.2-2.7-0.8l0.4-0.9
			c0.8,0.5,1.6,0.7,2.4,0.7c0.4,0,0.8-0.1,1.1-0.3s0.4-0.5,0.4-1c0-0.6-0.4-1-1.2-1.2l-0.9-0.2c-1.3-0.3-1.9-1-1.9-2
			c0-0.7,0.3-1.3,0.8-1.7c0.5-0.4,1.1-0.6,1.8-0.6c0.8,0,1.6,0.2,2.3,0.6L385,53c-0.8-0.4-1.4-0.5-1.9-0.5c-0.4,0-0.7,0.1-1,0.3
			c-0.3,0.2-0.4,0.5-0.4,0.9c0,0.6,0.4,0.9,1.1,1.1l1,0.2C385.1,55.3,385.8,56,385.8,57.1z"/>
		<path class="st10" d="M393.9,55.6c0,1.1-0.2,1.9-0.6,2.6c-0.6,0.9-1.3,1.4-2.3,1.4c-0.8,0-1.5-0.3-2.1-0.9v3.6l-1.2,0.2v-8.8
			c0-0.8-0.1-1.4-0.2-1.8l1.2-0.2c0,0.2,0.1,0.6,0.1,0.9v0.2c0.6-0.7,1.4-1.1,2.2-1.1c1,0,1.7,0.4,2.2,1.3
			C393.7,53.7,393.9,54.5,393.9,55.6z M392.6,55.7c0-0.8-0.1-1.5-0.3-1.9c-0.3-0.7-0.8-1-1.5-1c-0.8,0-1.4,0.3-2,1v3.8
			c0.6,0.6,1.2,1,1.8,1C392,58.6,392.6,57.6,392.6,55.7z"/>
		<path class="st10" d="M402.1,55.8c0,1.4-0.4,2.4-1.2,3.1c-0.6,0.5-1.2,0.7-2,0.7c-1.1,0-1.9-0.4-2.5-1.2c-0.5-0.7-0.8-1.6-0.8-2.8
			c0-1.1,0.2-2,0.7-2.7c0.6-0.8,1.4-1.2,2.4-1.2c1.1,0,2,0.4,2.5,1.3C401.9,53.7,402.1,54.6,402.1,55.8z M400.8,55.9
			c0-0.9-0.1-1.6-0.3-2.1c-0.3-0.7-0.9-1.1-1.7-1.1c-0.8,0-1.3,0.3-1.6,0.9c-0.2,0.4-0.3,1-0.3,1.9c0,1,0.1,1.7,0.3,2.1
			c0.3,0.7,0.9,1.1,1.7,1.1C400.2,58.6,400.8,57.7,400.8,55.9z"/>
		<path class="st10" d="M409.8,59.3h-1.2v-5.1c0-0.5-0.1-0.9-0.2-1.1c-0.2-0.3-0.5-0.5-0.9-0.5c-0.3,0-0.7,0.1-1.1,0.3
			c-0.4,0.2-0.7,0.4-0.9,0.7v5.6h-1.1v-5.6c0-0.8-0.1-1.3-0.3-1.8l1.1-0.3c0.2,0.4,0.3,0.8,0.3,1.2c0.8-0.8,1.6-1.2,2.4-1.2
			c0.4,0,0.8,0.1,1.1,0.3c0.3,0.2,0.6,0.5,0.7,0.8c0.1,0.3,0.2,0.6,0.2,0.9V59.3z"/>
		<path class="st10" d="M417.1,57.1c0,0.8-0.3,1.4-0.9,1.8c-0.5,0.4-1.2,0.6-2,0.6c-1,0-1.9-0.2-2.7-0.8l0.5-0.9
			c0.8,0.5,1.6,0.7,2.4,0.7c0.4,0,0.8-0.1,1.1-0.3s0.4-0.5,0.4-1c0-0.6-0.4-1-1.2-1.2l-0.9-0.2c-1.3-0.3-1.9-1-1.9-2
			c0-0.7,0.3-1.3,0.8-1.7c0.5-0.4,1.1-0.6,1.8-0.6c0.8,0,1.6,0.2,2.3,0.6l-0.4,0.9c-0.8-0.4-1.4-0.5-1.9-0.5c-0.4,0-0.7,0.1-1,0.3
			c-0.3,0.2-0.4,0.5-0.4,0.9c0,0.6,0.4,0.9,1.1,1.1l1,0.2C416.4,55.3,417.1,56,417.1,57.1z"/>
		<path class="st10" d="M424.5,55.8h-4.7V56c0,0.7,0.1,1.3,0.3,1.6c0.4,0.6,1,0.9,1.9,0.9c0.7,0,1.3-0.2,1.8-0.7l0.4,0.8
			c-0.7,0.6-1.5,0.9-2.5,0.9c-1.1,0-2-0.4-2.5-1.2c-0.5-0.7-0.8-1.6-0.8-2.8c0-1.1,0.3-1.9,0.8-2.7c0.6-0.8,1.4-1.2,2.4-1.2
			c0.8,0,1.5,0.3,2,0.8c0.4,0.4,0.6,0.9,0.7,1.5c0.1,0.4,0.1,0.9,0.1,1.7V55.8z M423.2,54.9c0-0.7-0.1-1.2-0.3-1.6
			c-0.3-0.5-0.7-0.7-1.4-0.7c-1.1,0-1.7,0.8-1.7,2.3H423.2z"/>
	</g>
	<line class="st6" x1="170.9" y1="141" x2="482" y2="141"/>
	<polygon class="st5" points="491.6,141 482,137.4 482,144.6 	"/>
	<polygon class="st9" points="491.6,141 482,137.4 482,144.6 	"/>
	<g class="st3">
		<path class="st10" d="M281.7,132h-1.4l-1-3.2h-3.8l-1,3.2h-1.2l3.4-10.3h1.6L281.7,132z M279,127.8l-1.6-5l-0.5,1.5
			c-0.1,0.4-0.5,1.6-1.1,3.5H279z"/>
		<path class="st10" d="M288,131.1c-0.7,0.7-1.4,1-2.3,1c-1.1,0-1.9-0.4-2.4-1.1c-0.5-0.7-0.7-1.5-0.7-2.6c0-1.4,0.4-2.4,1.1-3.2
			c0.6-0.6,1.3-0.9,2-0.9c0.7,0,1.4,0.3,2,0.8l-0.6,0.8c-0.5-0.4-1-0.6-1.4-0.6c-1.2,0-1.8,1.1-1.8,3.3c0,1.7,0.6,2.6,1.9,2.6
			c0.6,0,1.2-0.3,1.6-0.8L288,131.1z"/>
		<path class="st10" d="M294.4,131.1c-0.7,0.7-1.4,1-2.3,1c-1.1,0-1.9-0.4-2.4-1.1c-0.5-0.7-0.7-1.5-0.7-2.6c0-1.4,0.4-2.4,1.1-3.2
			c0.6-0.6,1.3-0.9,2-0.9c0.7,0,1.4,0.3,2,0.8l-0.6,0.8c-0.5-0.4-1-0.6-1.4-0.6c-1.2,0-1.8,1.1-1.8,3.3c0,1.7,0.6,2.6,1.9,2.6
			c0.6,0,1.2-0.3,1.6-0.8L294.4,131.1z"/>
		<path class="st10" d="M301.4,128.4h-4.7v0.2c0,0.7,0.1,1.3,0.3,1.6c0.4,0.6,1,0.9,1.9,0.9c0.7,0,1.3-0.2,1.8-0.7l0.4,0.8
			c-0.7,0.6-1.5,0.9-2.5,0.9c-1.1,0-2-0.4-2.5-1.2c-0.5-0.7-0.8-1.6-0.8-2.8c0-1.1,0.3-1.9,0.8-2.7c0.6-0.8,1.4-1.2,2.4-1.2
			c0.8,0,1.5,0.3,2,0.8c0.4,0.4,0.6,0.9,0.7,1.5c0.1,0.4,0.1,0.9,0.1,1.7V128.4z M300.1,127.5c0-0.7-0.1-1.2-0.3-1.6
			c-0.3-0.5-0.7-0.7-1.4-0.7c-1.1,0-1.7,0.8-1.7,2.3H300.1z"/>
		<path class="st10" d="M308.1,129.7c0,0.8-0.3,1.4-0.9,1.8c-0.5,0.4-1.2,0.6-2,0.6c-1,0-1.9-0.2-2.7-0.8l0.4-0.9
			c0.8,0.5,1.6,0.7,2.4,0.7c0.4,0,0.8-0.1,1.1-0.3s0.4-0.5,0.4-1c0-0.6-0.4-1-1.2-1.2l-0.9-0.2c-1.3-0.3-1.9-1-1.9-2
			c0-0.7,0.3-1.3,0.8-1.7c0.5-0.4,1.1-0.6,1.8-0.6c0.8,0,1.6,0.2,2.3,0.6l-0.4,0.9c-0.8-0.4-1.4-0.5-1.9-0.5c-0.4,0-0.7,0.1-1,0.3
			c-0.3,0.2-0.4,0.5-0.4,0.9c0,0.6,0.4,0.9,1.1,1.1l1,0.2C307.5,127.9,308.1,128.6,308.1,129.7z"/>
		<path class="st10" d="M314.8,129.7c0,0.8-0.3,1.4-0.9,1.8c-0.5,0.4-1.2,0.6-2,0.6c-1,0-1.9-0.2-2.7-0.8l0.4-0.9
			c0.8,0.5,1.6,0.7,2.4,0.7c0.4,0,0.8-0.1,1.1-0.3s0.4-0.5,0.4-1c0-0.6-0.4-1-1.2-1.2l-0.9-0.2c-1.3-0.3-1.9-1-1.9-2
			c0-0.7,0.3-1.3,0.8-1.7c0.5-0.4,1.1-0.6,1.8-0.6c0.8,0,1.6,0.2,2.3,0.6l-0.4,0.9c-0.8-0.4-1.4-0.5-1.9-0.5c-0.4,0-0.7,0.1-1,0.3
			c-0.3,0.2-0.4,0.5-0.4,0.9c0,0.6,0.4,0.9,1.1,1.1l1,0.2C314.2,127.9,314.8,128.6,314.8,129.7z"/>
		<path class="st10" d="M327.6,121.7l-0.1,1h-2.8v9.3h-1.2v-9.3h-2.8v-1H327.6z"/>
		<path class="st10" d="M335.3,128.4c0,1.4-0.4,2.4-1.2,3.1c-0.6,0.5-1.2,0.7-2,0.7c-1.1,0-1.9-0.4-2.5-1.2
			c-0.5-0.7-0.8-1.6-0.8-2.8c0-1.1,0.2-2,0.7-2.7c0.6-0.8,1.4-1.2,2.4-1.2c1.1,0,2,0.4,2.5,1.3C335.1,126.3,335.3,127.2,335.3,128.4
			z M334,128.5c0-0.9-0.1-1.6-0.3-2.1c-0.3-0.7-0.9-1.1-1.6-1.1c-0.8,0-1.3,0.3-1.6,0.9c-0.2,0.4-0.3,1-0.3,1.9c0,1,0.1,1.7,0.3,2.1
			c0.3,0.7,0.9,1.1,1.7,1.1C333.4,131.2,334,130.3,334,128.5z"/>
		<path class="st10" d="M338.6,132h-1.2v-8.5c0-0.6,0-1.1-0.1-1.7c0-0.1-0.1-0.3-0.1-0.5l1.2-0.3c0.1,0.2,0.1,0.4,0.1,0.6
			c0.1,0.4,0.1,1,0.1,1.6V132z M343.7,132h-1.6l-3.4-4.2l2.9-3.2h1.5l-2.9,3.2L343.7,132z"/>
		<path class="st10" d="M350.5,128.4h-4.7v0.2c0,0.7,0.1,1.3,0.3,1.6c0.4,0.6,1,0.9,1.9,0.9c0.7,0,1.3-0.2,1.8-0.7l0.5,0.8
			c-0.7,0.6-1.5,0.9-2.5,0.9c-1.1,0-2-0.4-2.5-1.2c-0.5-0.7-0.8-1.6-0.8-2.8c0-1.1,0.3-1.9,0.8-2.7c0.6-0.8,1.4-1.2,2.4-1.2
			c0.8,0,1.5,0.3,2,0.8c0.4,0.4,0.6,0.9,0.7,1.5c0.1,0.4,0.1,0.9,0.1,1.7V128.4z M349.2,127.5c0-0.7-0.1-1.2-0.3-1.6
			c-0.3-0.5-0.7-0.7-1.4-0.7c-1.1,0-1.7,0.8-1.7,2.3H349.2z"/>
		<path class="st10" d="M358,132h-1.2v-5.1c0-0.5-0.1-0.9-0.2-1.1c-0.2-0.3-0.5-0.5-0.9-0.5c-0.3,0-0.7,0.1-1.1,0.3
			c-0.4,0.2-0.7,0.4-0.9,0.7v5.6h-1.1v-5.6c0-0.8-0.1-1.3-0.3-1.8l1.1-0.3c0.2,0.4,0.3,0.8,0.3,1.2c0.8-0.8,1.6-1.2,2.4-1.2
			c0.4,0,0.8,0.1,1.1,0.3c0.3,0.2,0.6,0.5,0.7,0.8c0.1,0.3,0.2,0.6,0.2,0.9V132z"/>
		<path class="st10" d="M372.2,132h-1.5c-0.5-1.1-1.4-2.5-2.6-4c-0.4-0.4-0.7-0.6-1.1-0.7v4.6h-1.2v-10.3h2.4c1.2,0,2.1,0.2,2.6,0.7
			c0.7,0.6,1,1.3,1,2.2c0,0.8-0.2,1.5-0.7,2c-0.5,0.5-1.2,0.8-2,0.8h-0.2c0.3,0.3,0.7,0.6,1,1.2c0.1,0.2,0.4,0.6,0.8,1.2
			C370.9,130.1,371.4,130.8,372.2,132z M370.4,124.5c0-0.3-0.1-0.6-0.3-0.9s-0.4-0.5-0.7-0.6c-0.4-0.1-0.8-0.2-1.3-0.2h-1.2v3.8h1.1
			c0.8,0,1.4-0.1,1.8-0.4C370.2,125.8,370.4,125.2,370.4,124.5z"/>
		<path class="st10" d="M379.6,128.4h-4.7v0.2c0,0.7,0.1,1.3,0.3,1.6c0.4,0.6,1,0.9,1.9,0.9c0.7,0,1.3-0.2,1.8-0.7l0.4,0.8
			c-0.7,0.6-1.5,0.9-2.5,0.9c-1.1,0-2-0.4-2.5-1.2c-0.5-0.7-0.8-1.6-0.8-2.8c0-1.1,0.3-1.9,0.8-2.7c0.6-0.8,1.4-1.2,2.4-1.2
			c0.8,0,1.5,0.3,2,0.8c0.4,0.4,0.6,0.9,0.7,1.5c0.1,0.4,0.1,0.9,0.1,1.7V128.4z M378.3,127.5c0-0.7-0.1-1.2-0.3-1.6
			c-0.3-0.5-0.7-0.7-1.4-0.7c-1.1,0-1.7,0.8-1.7,2.3H378.3z"/>
		<path class="st10" d="M387.6,124.5c-0.2,0.3-0.2,1-0.2,2.1v8.2l-1.1,0.2v-3.9c-0.6,0.7-1.3,1-2.1,1c-0.7,0-1.2-0.2-1.7-0.6
			c-0.8-0.7-1.2-1.7-1.2-3c0-1.4,0.2-2.3,0.7-3c0.6-0.8,1.3-1.2,2.2-1.2c0.8,0,1.5,0.4,2.1,1.1c0-0.4,0.1-0.7,0.2-0.8H387.6z
			 M386.3,129.9v-3.6c-0.2-0.3-0.5-0.6-0.8-0.8c-0.4-0.2-0.7-0.3-1.1-0.3c-1.2,0-1.9,1-1.9,2.9c0,1.9,0.6,2.9,2,2.9
			C385.3,131.1,385.9,130.7,386.3,129.9z"/>
		<path class="st10" d="M396,131.5l-0.8,0.8c-0.5-0.4-0.7-0.8-0.8-1.2c-0.6,0.8-1.4,1.1-2.4,1.1c-1.4,0-2.2-0.7-2.2-2.2v-5.5
			l1.2-0.2v5.4c0,1,0.5,1.5,1.4,1.5c0.4,0,0.8-0.1,1.1-0.4c0.3-0.2,0.6-0.6,0.8-0.9v-5.3l1.2-0.2v5.3c0,0.7,0.1,1.2,0.2,1.4
			C395.8,131.2,395.9,131.3,396,131.5z"/>
		<path class="st10" d="M403.4,128.4h-4.7v0.2c0,0.7,0.1,1.3,0.3,1.6c0.4,0.6,1,0.9,1.9,0.9c0.7,0,1.3-0.2,1.8-0.7l0.4,0.8
			c-0.7,0.6-1.5,0.9-2.5,0.9c-1.1,0-2-0.4-2.5-1.2c-0.5-0.7-0.8-1.6-0.8-2.8c0-1.1,0.3-1.9,0.8-2.7c0.6-0.8,1.4-1.2,2.4-1.2
			c0.8,0,1.5,0.3,2,0.8c0.4,0.4,0.6,0.9,0.7,1.5c0.1,0.4,0.1,0.9,0.1,1.7V128.4z M402.2,127.5c0-0.7-0.1-1.2-0.3-1.6
			c-0.3-0.5-0.7-0.7-1.4-0.7c-1.1,0-1.7,0.8-1.7,2.3H402.2z"/>
		<path class="st10" d="M410.2,129.7c0,0.8-0.3,1.4-0.9,1.8c-0.5,0.4-1.2,0.6-2,0.6c-1,0-1.9-0.2-2.7-0.8l0.4-0.9
			c0.8,0.5,1.6,0.7,2.4,0.7c0.4,0,0.8-0.1,1.1-0.3s0.4-0.5,0.4-1c0-0.6-0.4-1-1.2-1.2l-0.9-0.2c-1.3-0.3-1.9-1-1.9-2
			c0-0.7,0.3-1.3,0.8-1.7c0.5-0.4,1.1-0.6,1.8-0.6c0.8,0,1.6,0.2,2.3,0.6l-0.4,0.9c-0.8-0.4-1.4-0.5-1.9-0.5c-0.4,0-0.7,0.1-1,0.3
			c-0.3,0.2-0.4,0.5-0.4,0.9c0,0.6,0.4,0.9,1.1,1.1l1,0.2C409.5,127.9,410.2,128.6,410.2,129.7z"/>
		<path class="st10" d="M415.3,124.5l-0.4,0.9h-1.6v4.8c0,0.4,0.1,0.7,0.2,0.8c0.1,0.2,0.4,0.3,0.8,0.3c0.3,0,0.6,0,0.8-0.1l0.2,0.8
			c-0.4,0.2-0.8,0.3-1.3,0.3c-1.1,0-1.7-0.6-1.7-1.7v-5.1h-1v-0.9h1v-0.1c0-0.1,0-0.6,0.1-1.6l0-0.2l1.2-0.3
			c-0.1,0.8-0.1,1.5-0.1,2.1H415.3z"/>
	</g>
	<line class="st6" x1="494.9" y1="177" x2="183.8" y2="177"/>
	<polygon class="st5" points="174.2,177 183.8,180.6 183.8,173.4 	"/>
	<polygon class="st9" points="174.2,177 183.8,180.6 183.8,173.4 	"/>
	<g class="st3">
		<path class="st10" d="M281.3,167.7h-1.4l-1-3.2h-3.8l-1,3.2h-1.2l3.4-10.3h1.6L281.3,167.7z M278.6,163.6l-1.6-5l-0.5,1.5
			c-0.1,0.4-0.5,1.6-1.1,3.5H278.6z"/>
		<path class="st10" d="M287.6,166.9c-0.7,0.7-1.4,1-2.3,1c-1.1,0-1.9-0.4-2.4-1.1c-0.5-0.7-0.7-1.5-0.7-2.6c0-1.4,0.4-2.4,1.1-3.2
			c0.6-0.6,1.3-0.9,2-0.9c0.7,0,1.4,0.3,2,0.8l-0.6,0.8c-0.5-0.4-1-0.6-1.4-0.6c-1.2,0-1.8,1.1-1.8,3.3c0,1.7,0.6,2.6,1.9,2.6
			c0.6,0,1.2-0.3,1.6-0.8L287.6,166.9z"/>
		<path class="st10" d="M294,166.9c-0.7,0.7-1.4,1-2.3,1c-1.1,0-1.9-0.4-2.4-1.1c-0.5-0.7-0.7-1.5-0.7-2.6c0-1.4,0.4-2.4,1.1-3.2
			c0.6-0.6,1.3-0.9,2-0.9c0.7,0,1.4,0.3,2,0.8l-0.6,0.8c-0.5-0.4-1-0.6-1.4-0.6c-1.2,0-1.8,1.1-1.8,3.3c0,1.7,0.6,2.6,1.9,2.6
			c0.6,0,1.2-0.3,1.6-0.8L294,166.9z"/>
		<path class="st10" d="M301,164.2h-4.7v0.2c0,0.7,0.1,1.3,0.3,1.6c0.4,0.6,1,0.9,1.9,0.9c0.7,0,1.3-0.2,1.8-0.7l0.4,0.8
			c-0.7,0.6-1.5,0.9-2.5,0.9c-1.1,0-2-0.4-2.5-1.2c-0.5-0.7-0.8-1.6-0.8-2.8c0-1.1,0.3-1.9,0.8-2.7c0.6-0.8,1.4-1.2,2.4-1.2
			c0.8,0,1.5,0.3,2,0.8c0.4,0.4,0.6,0.9,0.7,1.5c0.1,0.4,0.1,0.9,0.1,1.7V164.2z M299.8,163.3c0-0.7-0.1-1.2-0.3-1.6
			c-0.3-0.5-0.7-0.7-1.4-0.7c-1.1,0-1.7,0.8-1.7,2.3H299.8z"/>
		<path class="st10" d="M307.8,165.5c0,0.8-0.3,1.4-0.9,1.8c-0.5,0.4-1.2,0.6-2,0.6c-1,0-1.9-0.2-2.7-0.8l0.4-0.9
			c0.8,0.5,1.6,0.7,2.4,0.7c0.4,0,0.8-0.1,1.1-0.3s0.4-0.5,0.4-1c0-0.6-0.4-1-1.2-1.2l-0.9-0.2c-1.3-0.3-1.9-1-1.9-2
			c0-0.7,0.3-1.3,0.8-1.7c0.5-0.4,1.1-0.6,1.8-0.6c0.8,0,1.6,0.2,2.3,0.6l-0.4,0.9c-0.8-0.4-1.4-0.5-1.9-0.5c-0.4,0-0.7,0.1-1,0.3
			c-0.3,0.2-0.4,0.5-0.4,0.9c0,0.6,0.4,0.9,1.1,1.1l1,0.2C307.1,163.7,307.8,164.4,307.8,165.5z"/>
		<path class="st10" d="M314.5,165.5c0,0.8-0.3,1.4-0.9,1.8c-0.5,0.4-1.2,0.6-2,0.6c-1,0-1.9-0.2-2.7-0.8l0.4-0.9
			c0.8,0.5,1.6,0.7,2.4,0.7c0.4,0,0.8-0.1,1.1-0.3s0.4-0.5,0.4-1c0-0.6-0.4-1-1.2-1.2l-0.9-0.2c-1.3-0.3-1.9-1-1.9-2
			c0-0.7,0.3-1.3,0.8-1.7c0.5-0.4,1.1-0.6,1.8-0.6c0.8,0,1.6,0.2,2.3,0.6l-0.4,0.9c-0.8-0.4-1.4-0.5-1.9-0.5c-0.4,0-0.7,0.1-1,0.3
			c-0.3,0.2-0.4,0.5-0.4,0.9c0,0.6,0.4,0.9,1.1,1.1l1,0.2C313.8,163.7,314.5,164.4,314.5,165.5z"/>
		<path class="st10" d="M327.3,157.4l-0.1,1h-2.8v9.3h-1.2v-9.3h-2.8v-1H327.3z"/>
		<path class="st10" d="M335,164.2c0,1.4-0.4,2.4-1.2,3.1c-0.6,0.5-1.2,0.7-2,0.7c-1.1,0-1.9-0.4-2.5-1.2c-0.5-0.7-0.8-1.6-0.8-2.8
			c0-1.1,0.2-2,0.7-2.7c0.6-0.8,1.4-1.2,2.4-1.2c1.1,0,2,0.4,2.5,1.3C334.7,162.1,335,163,335,164.2z M333.6,164.3
			c0-0.9-0.1-1.6-0.3-2.1c-0.3-0.7-0.9-1.1-1.6-1.1c-0.8,0-1.3,0.3-1.6,0.9c-0.2,0.4-0.3,1-0.3,1.9c0,1,0.1,1.7,0.3,2.1
			c0.3,0.7,0.9,1.1,1.7,1.1C333,167,333.6,166.1,333.6,164.3z"/>
		<path class="st10" d="M338.3,167.7h-1.2v-8.5c0-0.6,0-1.1-0.1-1.7c0-0.1-0.1-0.3-0.1-0.5l1.2-0.3c0.1,0.2,0.1,0.4,0.1,0.6
			c0.1,0.4,0.1,1,0.1,1.6V167.7z M343.3,167.7h-1.6l-3.4-4.2l2.9-3.2h1.5l-2.9,3.2L343.3,167.7z"/>
		<path class="st10" d="M350.1,164.2h-4.7v0.2c0,0.7,0.1,1.3,0.3,1.6c0.4,0.6,1,0.9,1.9,0.9c0.7,0,1.3-0.2,1.8-0.7l0.4,0.8
			c-0.7,0.6-1.5,0.9-2.5,0.9c-1.1,0-2-0.4-2.5-1.2c-0.5-0.7-0.8-1.6-0.8-2.8c0-1.1,0.3-1.9,0.8-2.7c0.6-0.8,1.4-1.2,2.4-1.2
			c0.8,0,1.5,0.3,2,0.8c0.4,0.4,0.6,0.9,0.7,1.5c0.1,0.4,0.1,0.9,0.1,1.7V164.2z M348.9,163.3c0-0.7-0.1-1.2-0.3-1.6
			c-0.3-0.5-0.7-0.7-1.4-0.7c-1.1,0-1.7,0.8-1.7,2.3H348.9z"/>
		<path class="st10" d="M357.7,167.7h-1.2v-5.1c0-0.5-0.1-0.9-0.2-1.1c-0.2-0.3-0.5-0.5-0.9-0.5c-0.3,0-0.7,0.1-1.1,0.3
			c-0.4,0.2-0.7,0.4-0.9,0.7v5.6h-1.1v-5.6c0-0.8-0.1-1.3-0.3-1.8l1.1-0.3c0.2,0.4,0.3,0.8,0.3,1.2c0.8-0.8,1.6-1.2,2.4-1.2
			c0.4,0,0.8,0.1,1.1,0.3c0.3,0.2,0.6,0.5,0.7,0.8c0.1,0.3,0.2,0.6,0.2,0.9V167.7z"/>
		<path class="st10" d="M371.8,167.7h-1.5c-0.5-1.1-1.4-2.5-2.6-4c-0.3-0.4-0.7-0.6-1.1-0.7v4.6h-1.2v-10.3h2.4
			c1.2,0,2.1,0.2,2.6,0.7c0.7,0.6,1,1.3,1,2.2c0,0.8-0.2,1.5-0.7,2c-0.5,0.5-1.2,0.8-2,0.8h-0.1c0.3,0.3,0.7,0.6,1,1.2
			c0.1,0.2,0.4,0.6,0.8,1.2C370.6,165.8,371.1,166.6,371.8,167.7z M370,160.3c0-0.3-0.1-0.6-0.3-0.9s-0.4-0.5-0.7-0.6
			c-0.4-0.1-0.8-0.2-1.3-0.2h-1.2v3.8h1.1c0.8,0,1.4-0.1,1.8-0.4C369.8,161.6,370,161,370,160.3z"/>
		<path class="st10" d="M379.2,164.2h-4.7v0.2c0,0.7,0.1,1.3,0.3,1.6c0.4,0.6,1,0.9,1.9,0.9c0.7,0,1.3-0.2,1.8-0.7l0.5,0.8
			c-0.7,0.6-1.5,0.9-2.5,0.9c-1.1,0-2-0.4-2.5-1.2c-0.5-0.7-0.8-1.6-0.8-2.8c0-1.1,0.3-1.9,0.8-2.7c0.6-0.8,1.4-1.2,2.4-1.2
			c0.8,0,1.5,0.3,2,0.8c0.4,0.4,0.6,0.9,0.7,1.5c0.1,0.4,0.1,0.9,0.1,1.7V164.2z M378,163.3c0-0.7-0.1-1.2-0.3-1.6
			c-0.3-0.5-0.7-0.7-1.4-0.7c-1.1,0-1.7,0.8-1.7,2.3H378z"/>
		<path class="st10" d="M386,165.5c0,0.8-0.3,1.4-0.9,1.8c-0.5,0.4-1.2,0.6-2,0.6c-1,0-1.9-0.2-2.7-0.8l0.5-0.9
			c0.8,0.5,1.6,0.7,2.4,0.7c0.4,0,0.8-0.1,1.1-0.3s0.4-0.5,0.4-1c0-0.6-0.4-1-1.2-1.2l-0.9-0.2c-1.3-0.3-1.9-1-1.9-2
			c0-0.7,0.3-1.3,0.8-1.7c0.5-0.4,1.1-0.6,1.8-0.6c0.8,0,1.6,0.2,2.3,0.6l-0.4,0.9c-0.8-0.4-1.4-0.5-1.9-0.5c-0.4,0-0.7,0.1-1,0.3
			c-0.3,0.2-0.4,0.5-0.4,0.9c0,0.6,0.4,0.9,1.1,1.1l1,0.2C385.3,163.7,386,164.4,386,165.5z"/>
		<path class="st10" d="M394.1,164c0,1.1-0.2,1.9-0.6,2.6c-0.6,0.9-1.3,1.4-2.3,1.4c-0.8,0-1.5-0.3-2.1-0.9v3.6l-1.2,0.2v-8.8
			c0-0.8-0.1-1.4-0.2-1.8l1.2-0.2c0,0.2,0.1,0.6,0.1,0.9v0.2c0.6-0.7,1.4-1.1,2.2-1.1c1,0,1.7,0.4,2.2,1.3
			C393.9,162.1,394.1,162.9,394.1,164z M392.8,164.1c0-0.8-0.1-1.5-0.3-1.9c-0.3-0.7-0.8-1-1.5-1c-0.8,0-1.4,0.3-2,1v3.8
			c0.6,0.6,1.2,1,1.8,1C392.2,166.9,392.8,166,392.8,164.1z"/>
		<path class="st10" d="M402.3,164.2c0,1.4-0.4,2.4-1.2,3.1c-0.6,0.5-1.2,0.7-2,0.7c-1.1,0-1.9-0.4-2.5-1.2
			c-0.5-0.7-0.8-1.6-0.8-2.8c0-1.1,0.2-2,0.7-2.7c0.6-0.8,1.4-1.2,2.4-1.2c1.1,0,2,0.4,2.5,1.3C402.1,162.1,402.3,163,402.3,164.2z
			 M401,164.3c0-0.9-0.1-1.6-0.3-2.1c-0.3-0.7-0.9-1.1-1.7-1.1c-0.8,0-1.3,0.3-1.6,0.9c-0.2,0.4-0.3,1-0.3,1.9c0,1,0.1,1.7,0.3,2.1
			c0.3,0.7,0.9,1.1,1.7,1.1C400.4,167,401,166.1,401,164.3z"/>
		<path class="st10" d="M410,167.7h-1.2v-5.1c0-0.5-0.1-0.9-0.2-1.1c-0.2-0.3-0.5-0.5-0.9-0.5c-0.3,0-0.7,0.1-1.1,0.3
			c-0.4,0.2-0.7,0.4-0.9,0.7v5.6h-1.1v-5.6c0-0.8-0.1-1.3-0.3-1.8l1.1-0.3c0.2,0.4,0.3,0.8,0.3,1.2c0.8-0.8,1.6-1.2,2.4-1.2
			c0.4,0,0.8,0.1,1.1,0.3c0.3,0.2,0.6,0.5,0.7,0.8c0.1,0.3,0.2,0.6,0.2,0.9V167.7z"/>
		<path class="st10" d="M417.3,165.5c0,0.8-0.3,1.4-0.9,1.8c-0.5,0.4-1.2,0.6-2,0.6c-1,0-1.9-0.2-2.7-0.8l0.5-0.9
			c0.8,0.5,1.6,0.7,2.4,0.7c0.4,0,0.8-0.1,1.1-0.3s0.4-0.5,0.4-1c0-0.6-0.4-1-1.2-1.2l-0.9-0.2c-1.3-0.3-1.9-1-1.9-2
			c0-0.7,0.3-1.3,0.8-1.7c0.5-0.4,1.1-0.6,1.8-0.6c0.8,0,1.6,0.2,2.3,0.6l-0.4,0.9c-0.8-0.4-1.4-0.5-1.9-0.5c-0.4,0-0.7,0.1-1,0.3
			c-0.3,0.2-0.4,0.5-0.4,0.9c0,0.6,0.4,0.9,1.1,1.1l1,0.2C416.6,163.7,417.3,164.4,417.3,165.5z"/>
		<path class="st10" d="M424.7,164.2H420v0.2c0,0.7,0.1,1.3,0.3,1.6c0.4,0.6,1,0.9,1.9,0.9c0.7,0,1.3-0.2,1.8-0.7l0.4,0.8
			c-0.7,0.6-1.5,0.9-2.5,0.9c-1.1,0-2-0.4-2.5-1.2c-0.5-0.7-0.8-1.6-0.8-2.8c0-1.1,0.3-1.9,0.8-2.7c0.6-0.8,1.4-1.2,2.4-1.2
			c0.8,0,1.5,0.3,2,0.8c0.4,0.4,0.6,0.9,0.7,1.5c0.1,0.4,0.1,0.9,0.1,1.7V164.2z M423.5,163.3c0-0.7-0.1-1.2-0.3-1.6
			c-0.3-0.5-0.7-0.7-1.4-0.7c-1.1,0-1.7,0.8-1.7,2.3H423.5z"/>
	</g>
	<line class="st6" x1="170.9" y1="249" x2="482" y2="249"/>
	<polygon class="st5" points="491.6,249 482,245.4 482,252.6 	"/>
	<polygon class="st9" points="491.6,249 482,245.4 482,252.6 	"/>
	<g class="st3">
		<path class="st10" d="M280.5,239.7h-1.4l-1-3.2h-3.8l-1,3.2h-1.2l3.4-10.3h1.6L280.5,239.7z M277.8,235.5l-1.6-5l-0.5,1.5
			c-0.1,0.4-0.5,1.6-1.1,3.5H277.8z"/>
		<path class="st10" d="M287.4,239.7h-1.2v-5.1c0-0.5-0.1-0.9-0.2-1.1c-0.2-0.3-0.5-0.5-0.9-0.5c-0.3,0-0.7,0.1-1.1,0.3
			c-0.4,0.2-0.7,0.4-0.9,0.7v5.6h-1.1v-5.6c0-0.8-0.1-1.3-0.3-1.8l1.1-0.3c0.2,0.4,0.3,0.8,0.3,1.2c0.8-0.8,1.6-1.2,2.4-1.2
			c0.4,0,0.8,0.1,1.1,0.3c0.3,0.2,0.6,0.5,0.7,0.8c0.1,0.3,0.2,0.6,0.2,0.9V239.7z"/>
		<path class="st10" d="M293.9,229.2l-0.4,0.8c-0.4-0.2-0.8-0.3-1.1-0.3c-0.7,0-1,0.4-1,1.3v1.2h2.1l-0.4,0.9h-1.7v6.5h-1.2v-6.5
			h-0.7v-0.9h0.7V231c0-0.8,0.3-1.4,0.8-1.8c0.3-0.3,0.8-0.4,1.3-0.4C292.9,228.8,293.5,228.9,293.9,229.2z"/>
		<path class="st10" d="M297.9,232.1l-0.5,1.2c-0.1,0-0.2,0-0.3,0c-0.3,0-0.6,0.1-0.9,0.3c-0.3,0.2-0.5,0.4-0.7,0.6
			c-0.1,0.2-0.1,0.4-0.1,0.8v4.7h-1.2V234c0-0.7-0.1-1.2-0.3-1.6l1.2-0.3c0.2,0.4,0.3,0.7,0.3,1.1v0.1c0.6-0.8,1.3-1.2,2.1-1.2
			C297.6,232,297.7,232,297.9,232.1z"/>
		<path class="st10" d="M304.6,239.1l-0.6,0.8c-0.5-0.2-0.9-0.5-1-1.1c-0.7,0.7-1.4,1-2.2,1c-0.7,0-1.3-0.2-1.7-0.5
			c-0.5-0.4-0.7-0.9-0.7-1.6c0-1,0.4-1.7,1.3-2.1c0.7-0.4,1.6-0.5,2.6-0.5c0.2,0,0.4,0,0.5,0v-0.5c0-0.6-0.1-1-0.2-1.2
			c-0.2-0.3-0.6-0.4-1-0.4c-0.9,0-1.6,0.3-2.4,0.9l-0.6-0.8c1-0.7,2.1-1,3.1-1c1.1,0,1.8,0.4,2.1,1.2c0.1,0.3,0.2,0.7,0.2,1.3v0.4
			l-0.1,2.5c0,0.1,0,0.2,0,0.3c0,0.4,0,0.7,0.1,0.9C304.1,238.8,304.3,239,304.6,239.1z M302.9,235.9c-0.3,0-0.5,0-0.6,0
			c-1.7,0-2.6,0.6-2.6,1.8c0,0.9,0.4,1.4,1.3,1.4c0.8,0,1.4-0.4,1.8-1.2L302.9,235.9z"/>
		<path class="st10" d="M313,232.9c-0.4,0.3-0.8,0.4-1.3,0.4c-0.2,0-0.4,0-0.5-0.1c0.3,0.4,0.4,0.8,0.4,1.3c0,0.7-0.2,1.3-0.7,1.7
			s-1,0.7-1.7,0.7h-0.2l-0.2,0.1c-0.8,0.3-1.2,0.6-1.2,0.8c0,0.2,0.2,0.4,0.6,0.4h1.2c0.8,0,1.4,0.1,1.8,0.4
			c0.6,0.4,0.8,0.9,0.8,1.6c0,1.6-1,2.4-3,2.4c-2.2,0-3.2-0.6-3.2-1.9c0-0.2,0.1-0.5,0.2-0.8l1.2-0.1l-0.1,0.1
			c-0.1,0.2-0.1,0.4-0.1,0.6c0,0.8,0.6,1.2,1.9,1.2c1.2,0,1.8-0.4,1.8-1.3c0-0.5-0.2-0.8-0.6-1c-0.3-0.1-0.7-0.2-1.3-0.2
			c-0.1,0-0.3,0-0.6,0c-0.3,0-0.4,0-0.6,0c-0.9,0-1.4-0.4-1.4-1.1c0-0.5,0.4-1,1.3-1.2l0.1,0c-0.5-0.2-0.9-0.4-1.2-0.8
			s-0.5-0.8-0.5-1.3c0-0.8,0.3-1.4,0.8-1.8c0.5-0.4,1.2-0.7,2-0.7c0.4,0,0.7,0.1,1.1,0.2l0.5,0.2c0.2,0.1,0.4,0.1,0.7,0.1
			c0.4,0,0.7-0.1,1-0.3L313,232.9z M310.3,234.5c0-1-0.5-1.5-1.4-1.5c-0.9,0-1.4,0.5-1.4,1.5c0,1,0.5,1.4,1.4,1.4
			C309.9,236,310.3,235.5,310.3,234.5z"/>
		<path class="st10" d="M319.8,236.1h-4.7v0.2c0,0.7,0.1,1.3,0.3,1.6c0.4,0.6,1,0.9,1.9,0.9c0.7,0,1.3-0.2,1.8-0.7l0.4,0.8
			c-0.7,0.6-1.5,0.9-2.5,0.9c-1.1,0-2-0.4-2.5-1.2c-0.5-0.7-0.8-1.6-0.8-2.8c0-1.1,0.3-1.9,0.8-2.7c0.6-0.8,1.4-1.2,2.4-1.2
			c0.8,0,1.5,0.3,2,0.8c0.4,0.4,0.6,0.9,0.7,1.5c0.1,0.4,0.1,0.9,0.1,1.7V236.1z M318.5,235.2c0-0.7-0.1-1.2-0.3-1.6
			c-0.3-0.5-0.7-0.7-1.4-0.7c-1.1,0-1.7,0.8-1.7,2.3H318.5z"/>
		<path class="st10" d="M336.1,239.7h-1.2v-5.5c0-0.7-0.3-1.1-1-1.1c-0.4,0-0.7,0.1-1.1,0.4c-0.1,0.1-0.4,0.3-0.8,0.6l-0.1,0.1v5.4
			h-1.2v-5.3c0-0.4-0.1-0.7-0.2-0.9c-0.1-0.2-0.4-0.4-0.8-0.4c-0.5,0-1.2,0.3-1.9,1v5.6h-1.1v-5.6c0-0.8-0.1-1.4-0.3-1.8l1.1-0.3
			c0.2,0.4,0.3,0.7,0.3,1.1v0.1c0.7-0.7,1.4-1.1,2.2-1.1c0.9,0,1.4,0.4,1.7,1.2c0.8-0.8,1.6-1.2,2.4-1.2c0.6,0,1,0.2,1.4,0.6
			c0.3,0.4,0.5,0.9,0.5,1.4V239.7z"/>
		<path class="st10" d="M340.1,229.9c0,0.3-0.1,0.5-0.3,0.7c-0.2,0.2-0.4,0.3-0.7,0.3c-0.2,0-0.5-0.1-0.6-0.3
			c-0.2-0.2-0.3-0.4-0.3-0.6c0-0.3,0.1-0.5,0.3-0.7c0.2-0.2,0.4-0.3,0.7-0.3s0.5,0.1,0.7,0.3C340,229.4,340.1,229.6,340.1,229.9z
			 M339.8,239.7h-1.2v-7.4l1.2-0.2V239.7z"/>
		<path class="st10" d="M345.5,232.2l-0.4,0.9h-1.6v4.8c0,0.4,0.1,0.7,0.2,0.8c0.1,0.2,0.4,0.3,0.8,0.3c0.3,0,0.6,0,0.8-0.1l0.2,0.8
			c-0.4,0.2-0.8,0.3-1.3,0.3c-1.1,0-1.7-0.6-1.7-1.7v-5.1h-1v-0.9h1v-0.1c0-0.1,0-0.6,0.1-1.6l0-0.2l1.2-0.3
			c-0.1,0.8-0.1,1.5-0.1,2.1H345.5z"/>
		<path class="st10" d="M359.3,239.7h-1.4l-1-3.2h-3.8l-1,3.2h-1.2l3.4-10.3h1.6L359.3,239.7z M356.7,235.5l-1.6-5l-0.5,1.5
			c-0.1,0.4-0.5,1.6-1.1,3.5H356.7z"/>
		<path class="st10" d="M365.6,238.8c-0.7,0.7-1.4,1-2.3,1c-1.1,0-1.9-0.4-2.4-1.1c-0.5-0.7-0.7-1.5-0.7-2.6c0-1.4,0.4-2.4,1.1-3.2
			c0.6-0.6,1.3-0.9,2-0.9c0.7,0,1.4,0.3,2,0.8l-0.6,0.8c-0.5-0.4-1-0.6-1.4-0.6c-1.2,0-1.8,1.1-1.8,3.3c0,1.7,0.6,2.6,1.9,2.6
			c0.6,0,1.2-0.3,1.6-0.8L365.6,238.8z"/>
		<path class="st10" d="M372.1,238.8c-0.7,0.7-1.4,1-2.3,1c-1.1,0-1.9-0.4-2.4-1.1c-0.5-0.7-0.7-1.5-0.7-2.6c0-1.4,0.4-2.4,1.1-3.2
			c0.6-0.6,1.3-0.9,2-0.9c0.7,0,1.4,0.3,2,0.8l-0.6,0.8c-0.5-0.4-1-0.6-1.4-0.6c-1.2,0-1.8,1.1-1.8,3.3c0,1.7,0.6,2.6,1.9,2.6
			c0.6,0,1.2-0.3,1.6-0.8L372.1,238.8z"/>
		<path class="st10" d="M379,236.1h-4.7v0.2c0,0.7,0.1,1.3,0.3,1.6c0.4,0.6,1,0.9,1.9,0.9c0.7,0,1.3-0.2,1.8-0.7l0.4,0.8
			c-0.7,0.6-1.5,0.9-2.5,0.9c-1.1,0-2-0.4-2.5-1.2c-0.5-0.7-0.8-1.6-0.8-2.8c0-1.1,0.3-1.9,0.8-2.7c0.6-0.8,1.4-1.2,2.4-1.2
			c0.8,0,1.5,0.3,2,0.8c0.4,0.4,0.6,0.9,0.7,1.5c0.1,0.4,0.1,0.9,0.1,1.7V236.1z M377.8,235.2c0-0.7-0.1-1.2-0.3-1.6
			c-0.3-0.5-0.7-0.7-1.4-0.7c-1.1,0-1.7,0.8-1.7,2.3H377.8z"/>
		<path class="st10" d="M385.8,237.4c0,0.8-0.3,1.4-0.9,1.8c-0.5,0.4-1.2,0.6-2,0.6c-1,0-1.9-0.2-2.7-0.8l0.4-0.9
			c0.8,0.5,1.6,0.7,2.4,0.7c0.4,0,0.8-0.1,1.1-0.3s0.4-0.5,0.4-1c0-0.6-0.4-1-1.2-1.2l-0.9-0.2c-1.3-0.3-1.9-1-1.9-2
			c0-0.7,0.3-1.3,0.8-1.7c0.5-0.4,1.1-0.6,1.8-0.6c0.8,0,1.6,0.2,2.3,0.6l-0.4,0.9c-0.8-0.4-1.4-0.5-1.9-0.5c-0.4,0-0.7,0.1-1,0.3
			c-0.3,0.2-0.4,0.5-0.4,0.9c0,0.6,0.4,0.9,1.1,1.1l1,0.2C385.1,235.6,385.8,236.3,385.8,237.4z"/>
		<path class="st10" d="M392.5,237.4c0,0.8-0.3,1.4-0.9,1.8c-0.5,0.4-1.2,0.6-2,0.6c-1,0-1.9-0.2-2.7-0.8l0.5-0.9
			c0.8,0.5,1.6,0.7,2.4,0.7c0.4,0,0.8-0.1,1.1-0.3s0.4-0.5,0.4-1c0-0.6-0.4-1-1.2-1.2l-0.9-0.2c-1.3-0.3-1.9-1-1.9-2
			c0-0.7,0.3-1.3,0.8-1.7c0.5-0.4,1.1-0.6,1.8-0.6c0.8,0,1.6,0.2,2.3,0.6l-0.4,0.9c-0.8-0.4-1.4-0.5-1.9-0.5c-0.4,0-0.7,0.1-1,0.3
			c-0.3,0.2-0.4,0.5-0.4,0.9c0,0.6,0.4,0.9,1.1,1.1l1,0.2C391.8,235.6,392.5,236.3,392.5,237.4z"/>
		<path class="st10" d="M405.3,229.4l-0.1,1h-2.8v9.3h-1.2v-9.3h-2.8v-1H405.3z"/>
		<path class="st10" d="M413,236.1c0,1.4-0.4,2.4-1.2,3.1c-0.5,0.5-1.2,0.7-2,0.7c-1.1,0-1.9-0.4-2.5-1.2c-0.5-0.7-0.8-1.6-0.8-2.8
			c0-1.1,0.2-2,0.7-2.7c0.6-0.8,1.4-1.2,2.4-1.2c1.1,0,2,0.4,2.5,1.3C412.8,234,413,234.9,413,236.1z M411.7,236.2
			c0-0.9-0.1-1.6-0.3-2.1c-0.3-0.7-0.8-1.1-1.6-1.1c-0.8,0-1.3,0.3-1.6,0.9c-0.2,0.4-0.3,1-0.3,1.9c0,1,0.1,1.7,0.3,2.1
			c0.3,0.7,0.9,1.1,1.7,1.1C411.1,238.9,411.7,238,411.7,236.2z"/>
		<path class="st10" d="M416.3,239.7h-1.2v-8.5c0-0.6,0-1.1-0.1-1.7c0-0.1-0.1-0.3-0.1-0.5l1.2-0.3c0.1,0.2,0.1,0.4,0.2,0.6
			c0.1,0.4,0.1,1,0.1,1.6V239.7z M421.3,239.7h-1.6l-3.4-4.2l2.9-3.2h1.5l-2.9,3.2L421.3,239.7z"/>
		<path class="st10" d="M428.2,236.1h-4.7v0.2c0,0.7,0.1,1.3,0.3,1.6c0.4,0.6,1,0.9,1.9,0.9c0.7,0,1.3-0.2,1.8-0.7l0.4,0.8
			c-0.7,0.6-1.5,0.9-2.5,0.9c-1.1,0-2-0.4-2.5-1.2c-0.5-0.7-0.8-1.6-0.8-2.8c0-1.1,0.3-1.9,0.8-2.7c0.6-0.8,1.4-1.2,2.4-1.2
			c0.8,0,1.5,0.3,2,0.8c0.4,0.4,0.6,0.9,0.7,1.5c0.1,0.4,0.1,0.9,0.1,1.7V236.1z M426.9,235.2c0-0.7-0.1-1.2-0.3-1.6
			c-0.3-0.5-0.7-0.7-1.4-0.7c-1.1,0-1.7,0.8-1.7,2.3H426.9z"/>
		<path class="st10" d="M435.7,239.7h-1.2v-5.1c0-0.5-0.1-0.9-0.2-1.1c-0.2-0.3-0.5-0.5-0.9-0.5c-0.3,0-0.7,0.1-1.1,0.3
			c-0.4,0.2-0.7,0.4-0.9,0.7v5.6h-1.1v-5.6c0-0.8-0.1-1.3-0.3-1.8l1.1-0.3c0.2,0.4,0.3,0.8,0.3,1.2c0.8-0.8,1.6-1.2,2.4-1.2
			c0.4,0,0.8,0.1,1.1,0.3c0.3,0.2,0.6,0.5,0.7,0.8c0.1,0.3,0.2,0.6,0.2,0.9V239.7z"/>
	</g>
	<line class="st6" x1="494.9" y1="285" x2="183.8" y2="285"/>
	<polygon class="st5" points="174.2,285 183.8,288.6 183.8,281.4 	"/>
	<polygon class="st9" points="174.2,285 183.8,288.6 183.8,281.4 	"/>
	<g class="st3">
		<path class="st10" d="M280.3,274.8c-0.8,0.5-1.8,0.8-2.9,0.8c-1.5,0-2.6-0.5-3.4-1.6c-0.7-0.9-1-2.2-1-3.7c0-1.9,0.5-3.4,1.6-4.3
			c0.7-0.6,1.6-1,2.7-1c1.1,0,2,0.3,2.8,1l-0.6,0.8c-0.8-0.5-1.5-0.8-2.2-0.8c-1.3,0-2.2,0.6-2.6,1.7c-0.3,0.8-0.4,1.6-0.4,2.6
			c0,1.4,0.2,2.4,0.7,3.1c0.2,0.4,0.6,0.6,1.1,0.8c0.4,0.2,0.9,0.3,1.4,0.3c0.7,0,1.2-0.1,1.6-0.4V271H277l-0.2-1h3.5V274.8z"/>
		<path class="st10" d="M288,271.8h-4.7v0.2c0,0.7,0.1,1.3,0.3,1.6c0.4,0.6,1,0.9,1.9,0.9c0.7,0,1.3-0.2,1.8-0.7l0.4,0.8
			c-0.7,0.6-1.5,0.9-2.5,0.9c-1.1,0-2-0.4-2.5-1.2c-0.5-0.7-0.8-1.6-0.8-2.8c0-1.1,0.3-1.9,0.8-2.7c0.6-0.8,1.4-1.2,2.4-1.2
			c0.8,0,1.5,0.3,2,0.8c0.4,0.4,0.6,0.9,0.7,1.5c0.1,0.4,0.1,0.9,0.1,1.7V271.8z M286.7,270.9c0-0.7-0.1-1.2-0.3-1.6
			c-0.3-0.5-0.7-0.7-1.4-0.7c-1.1,0-1.7,0.8-1.7,2.3H286.7z"/>
		<path class="st10" d="M294.7,273.1c0,0.8-0.3,1.4-0.9,1.8c-0.5,0.4-1.2,0.6-2,0.6c-1,0-1.9-0.2-2.7-0.8l0.4-0.9
			c0.8,0.5,1.6,0.7,2.4,0.7c0.4,0,0.8-0.1,1.1-0.3s0.4-0.5,0.4-1c0-0.6-0.4-1-1.2-1.2l-0.9-0.2c-1.3-0.3-1.9-1-1.9-2
			c0-0.7,0.3-1.3,0.8-1.7c0.5-0.4,1.1-0.6,1.8-0.6c0.8,0,1.6,0.2,2.3,0.6l-0.4,0.9c-0.8-0.4-1.4-0.5-1.9-0.5c-0.4,0-0.7,0.1-1,0.3
			c-0.3,0.2-0.4,0.5-0.4,0.9c0,0.6,0.4,0.9,1.1,1.1l1,0.2C294.1,271.3,294.7,272,294.7,273.1z"/>
		<path class="st10" d="M301.6,274.5c-0.7,0.7-1.4,1-2.3,1c-1.1,0-1.9-0.4-2.4-1.1c-0.5-0.7-0.7-1.5-0.7-2.6c0-1.4,0.4-2.4,1.1-3.2
			c0.6-0.6,1.3-0.9,2-0.9c0.7,0,1.4,0.3,2,0.8l-0.6,0.8c-0.5-0.4-1-0.6-1.4-0.6c-1.2,0-1.8,1.1-1.8,3.3c0,1.7,0.6,2.6,1.9,2.6
			c0.6,0,1.2-0.3,1.6-0.8L301.6,274.5z"/>
		<path class="st10" d="M308.7,275.3h-1.2v-5.1c0-0.5-0.1-0.8-0.2-1c-0.2-0.3-0.5-0.4-0.9-0.4c-0.8,0-1.5,0.4-2.2,1.3v5.3H303v-9.2
			c0-0.5-0.1-1-0.2-1.5l1.2-0.2c0.1,0.5,0.2,1.1,0.2,1.7v1.7c0,0.3,0,0.6,0,1c0.2-0.2,0.5-0.4,0.8-0.6c0.6-0.4,1.2-0.6,1.7-0.6
			c0.5,0,0.9,0.1,1.3,0.4c0.4,0.3,0.6,0.7,0.7,1.1c0,0.2,0,0.4,0,0.7V275.3z"/>
		<path class="st10" d="M317.2,274.9l-0.8,0.8c-0.5-0.4-0.7-0.8-0.8-1.2c-0.6,0.8-1.4,1.1-2.4,1.1c-1.4,0-2.2-0.7-2.2-2.2v-5.5
			l1.2-0.2v5.4c0,1,0.5,1.5,1.4,1.5c0.4,0,0.8-0.1,1.1-0.4c0.3-0.2,0.6-0.6,0.8-0.9v-5.3l1.2-0.2v5.3c0,0.7,0.1,1.2,0.2,1.4
			C317,274.6,317.1,274.7,317.2,274.9z M313.1,266c0,0.2-0.1,0.4-0.2,0.6c-0.1,0.2-0.3,0.2-0.5,0.2s-0.4-0.1-0.6-0.2
			c-0.2-0.2-0.2-0.3-0.2-0.6c0-0.2,0.1-0.4,0.2-0.5c0.1-0.1,0.3-0.2,0.5-0.2c0.2,0,0.4,0.1,0.6,0.2C313,265.6,313.1,265.8,313.1,266
			z M316.2,266c0,0.2-0.1,0.4-0.2,0.6c-0.1,0.2-0.3,0.2-0.5,0.2c-0.2,0-0.4-0.1-0.6-0.2c-0.2-0.2-0.2-0.3-0.2-0.6
			c0-0.2,0.1-0.4,0.2-0.5c0.1-0.1,0.3-0.2,0.6-0.2c0.2,0,0.4,0.1,0.5,0.2C316.1,265.6,316.2,265.8,316.2,266z"/>
		<path class="st10" d="M322.3,267.9l-0.4,0.9h-1.6v4.8c0,0.4,0.1,0.7,0.2,0.8c0.1,0.2,0.4,0.3,0.8,0.3c0.3,0,0.6,0,0.8-0.1l0.2,0.8
			c-0.4,0.2-0.8,0.3-1.3,0.3c-1.1,0-1.7-0.6-1.7-1.7v-5.1h-1v-0.9h1v-0.1c0-0.1,0-0.6,0.1-1.6l0-0.2l1.2-0.3
			c-0.1,0.8-0.1,1.5-0.1,2.1H322.3z"/>
		<path class="st10" d="M328.7,274.4l-0.6,0.9h-5v-0.9l4.1-5.6h-3.8v-0.9h5v1l-3.9,5.6H328.7z"/>
		<path class="st10" d="M333.6,267.9l-0.4,0.9h-1.6v4.8c0,0.4,0.1,0.7,0.2,0.8c0.1,0.2,0.4,0.3,0.8,0.3c0.3,0,0.6,0,0.8-0.1l0.2,0.8
			c-0.4,0.2-0.8,0.3-1.3,0.3c-1.1,0-1.7-0.6-1.7-1.7v-5.1h-1v-0.9h1v-0.1c0-0.1,0-0.6,0.1-1.6l0-0.2l1.2-0.3
			c-0.1,0.8-0.1,1.5-0.1,2.1H333.6z"/>
		<path class="st10" d="M340.7,271.8h-4.7v0.2c0,0.7,0.1,1.3,0.3,1.6c0.4,0.6,1,0.9,1.9,0.9c0.7,0,1.3-0.2,1.8-0.7l0.4,0.8
			c-0.7,0.6-1.5,0.9-2.5,0.9c-1.1,0-2-0.4-2.5-1.2c-0.5-0.7-0.8-1.6-0.8-2.8c0-1.1,0.3-1.9,0.8-2.7c0.6-0.8,1.4-1.2,2.4-1.2
			c0.8,0,1.5,0.3,2,0.8c0.4,0.4,0.6,0.9,0.7,1.5c0.1,0.4,0.1,0.9,0.1,1.7V271.8z M339.5,270.9c0-0.7-0.1-1.2-0.3-1.6
			c-0.3-0.5-0.7-0.7-1.4-0.7c-1.1,0-1.7,0.8-1.7,2.3H339.5z"/>
		<path class="st10" d="M354.4,275.3h-1.5c-0.5-1.1-1.4-2.5-2.6-4c-0.4-0.4-0.7-0.6-1.1-0.7v4.6h-1.2v-10.3h2.4
			c1.2,0,2.1,0.2,2.6,0.7c0.7,0.6,1,1.3,1,2.2c0,0.8-0.2,1.5-0.7,2c-0.5,0.5-1.2,0.8-2,0.8H351c0.3,0.3,0.7,0.6,1,1.2
			c0.1,0.2,0.4,0.6,0.8,1.2C353.1,273.4,353.6,274.2,354.4,275.3z M352.6,267.9c0-0.3-0.1-0.6-0.3-0.9s-0.4-0.5-0.7-0.6
			c-0.4-0.1-0.8-0.2-1.3-0.2h-1.2v3.8h1.1c0.8,0,1.4-0.1,1.8-0.4C352.4,269.2,352.6,268.6,352.6,267.9z"/>
		<path class="st10" d="M361.8,271.8h-4.7v0.2c0,0.7,0.1,1.3,0.3,1.6c0.4,0.6,1,0.9,1.9,0.9c0.7,0,1.3-0.2,1.8-0.7l0.4,0.8
			c-0.7,0.6-1.5,0.9-2.5,0.9c-1.1,0-2-0.4-2.5-1.2c-0.5-0.7-0.8-1.6-0.8-2.8c0-1.1,0.3-1.9,0.8-2.7c0.6-0.8,1.4-1.2,2.4-1.2
			c0.8,0,1.5,0.3,2,0.8c0.4,0.4,0.6,0.9,0.7,1.5c0.1,0.4,0.1,0.9,0.1,1.7V271.8z M360.6,270.9c0-0.7-0.1-1.2-0.3-1.6
			c-0.3-0.5-0.7-0.7-1.4-0.7c-1.1,0-1.7,0.8-1.7,2.3H360.6z"/>
		<path class="st10" d="M368.6,273.1c0,0.8-0.3,1.4-0.9,1.8c-0.5,0.4-1.2,0.6-2,0.6c-1,0-1.9-0.2-2.7-0.8l0.4-0.9
			c0.8,0.5,1.6,0.7,2.4,0.7c0.4,0,0.8-0.1,1.1-0.3s0.4-0.5,0.4-1c0-0.6-0.4-1-1.2-1.2l-0.9-0.2c-1.3-0.3-1.9-1-1.9-2
			c0-0.7,0.3-1.3,0.8-1.7c0.5-0.4,1.1-0.6,1.8-0.6c0.8,0,1.6,0.2,2.3,0.6l-0.4,0.9c-0.8-0.4-1.4-0.5-1.9-0.5c-0.4,0-0.7,0.1-1,0.3
			c-0.3,0.2-0.4,0.5-0.4,0.9c0,0.6,0.4,0.9,1.1,1.1l1,0.2C367.9,271.3,368.6,272,368.6,273.1z"/>
		<path class="st10" d="M375.3,273.1c0,0.8-0.3,1.4-0.9,1.8c-0.5,0.4-1.2,0.6-2,0.6c-1,0-1.9-0.2-2.7-0.8l0.5-0.9
			c0.8,0.5,1.6,0.7,2.4,0.7c0.4,0,0.8-0.1,1.1-0.3s0.4-0.5,0.4-1c0-0.6-0.4-1-1.2-1.2l-0.9-0.2c-1.3-0.3-1.9-1-1.9-2
			c0-0.7,0.3-1.3,0.8-1.7c0.5-0.4,1.1-0.6,1.8-0.6c0.8,0,1.6,0.2,2.3,0.6l-0.4,0.9c-0.8-0.4-1.4-0.5-1.9-0.5c-0.4,0-0.7,0.1-1,0.3
			c-0.3,0.2-0.4,0.5-0.4,0.9c0,0.6,0.4,0.9,1.1,1.1l1,0.2C374.6,271.3,375.3,272,375.3,273.1z"/>
		<path class="st10" d="M383.3,271.8c0,1.4-0.4,2.4-1.2,3.1c-0.6,0.5-1.2,0.7-2,0.7c-1.1,0-1.9-0.4-2.5-1.2
			c-0.5-0.7-0.8-1.6-0.8-2.8c0-1.1,0.2-2,0.7-2.7c0.6-0.8,1.4-1.2,2.4-1.2c1.1,0,2,0.4,2.5,1.3C383,269.7,383.3,270.6,383.3,271.8z
			 M381.9,271.9c0-0.9-0.1-1.6-0.3-2.1c-0.3-0.7-0.9-1.1-1.7-1.1c-0.8,0-1.3,0.3-1.6,0.9c-0.2,0.4-0.3,1-0.3,1.9
			c0,1,0.1,1.7,0.3,2.1c0.3,0.7,0.9,1.1,1.7,1.1C381.3,274.6,381.9,273.7,381.9,271.9z"/>
		<path class="st10" d="M391.5,274.9l-0.8,0.8c-0.5-0.4-0.7-0.8-0.8-1.2c-0.6,0.8-1.4,1.1-2.4,1.1c-1.4,0-2.2-0.7-2.2-2.2v-5.5
			l1.2-0.2v5.4c0,1,0.5,1.5,1.4,1.5c0.4,0,0.8-0.1,1.1-0.4c0.3-0.2,0.6-0.6,0.8-0.9v-5.3l1.2-0.2v5.3c0,0.7,0.1,1.2,0.2,1.4
			C391.3,274.6,391.4,274.7,391.5,274.9z"/>
		<path class="st10" d="M397.2,267.7l-0.5,1.2c-0.1,0-0.2,0-0.3,0c-0.3,0-0.6,0.1-0.9,0.3c-0.3,0.2-0.5,0.4-0.7,0.6
			c-0.1,0.2-0.1,0.4-0.1,0.8v4.7h-1.2v-5.7c0-0.7-0.1-1.2-0.3-1.6l1.2-0.3c0.2,0.4,0.3,0.7,0.3,1.1v0.1c0.6-0.8,1.3-1.2,2.1-1.2
			C396.9,267.7,397,267.7,397.2,267.7z"/>
		<path class="st10" d="M403.2,274.5c-0.7,0.7-1.4,1-2.3,1c-1.1,0-1.9-0.4-2.4-1.1c-0.5-0.7-0.7-1.5-0.7-2.6c0-1.4,0.4-2.4,1.1-3.2
			c0.6-0.6,1.3-0.9,2-0.9c0.7,0,1.4,0.3,2,0.8l-0.6,0.8c-0.5-0.4-1-0.6-1.4-0.6c-1.2,0-1.8,1.1-1.8,3.3c0,1.7,0.6,2.6,1.9,2.6
			c0.6,0,1.2-0.3,1.6-0.8L403.2,274.5z"/>
		<path class="st10" d="M410.2,271.8h-4.7v0.2c0,0.7,0.1,1.3,0.3,1.6c0.4,0.6,1,0.9,1.9,0.9c0.7,0,1.3-0.2,1.8-0.7l0.5,0.8
			c-0.7,0.6-1.5,0.9-2.5,0.9c-1.1,0-2-0.4-2.5-1.2c-0.5-0.7-0.8-1.6-0.8-2.8c0-1.1,0.3-1.9,0.8-2.7c0.6-0.8,1.4-1.2,2.4-1.2
			c0.8,0,1.5,0.3,2,0.8c0.4,0.4,0.6,0.9,0.7,1.5c0.1,0.4,0.1,0.9,0.1,1.7V271.8z M409,270.9c0-0.7-0.1-1.2-0.3-1.6
			c-0.3-0.5-0.7-0.7-1.4-0.7c-1.1,0-1.7,0.8-1.7,2.3H409z"/>
	</g>
	<g class="st3">
		<path class="st11" d="M263.3,23.8h-3.9v-0.9h1.4v-5.2c-0.4,0.2-1.1,0.6-2,1l-0.3-0.6l2.6-1.7h0.9v6.7h1.4V23.8z"/>
		<path class="st11" d="M266.7,22.9c0,0.3-0.1,0.5-0.3,0.7s-0.4,0.3-0.7,0.3c-0.3,0-0.5-0.1-0.7-0.3c-0.2-0.2-0.3-0.4-0.3-0.7
			c0-0.3,0.1-0.5,0.3-0.7c0.2-0.2,0.4-0.3,0.7-0.3c0.3,0,0.5,0.1,0.7,0.3C266.6,22.4,266.7,22.6,266.7,22.9z"/>
	</g>
	<g class="st3">
		<path class="st11" d="M264.8,58.4l-0.2,1h-5.7v-0.9c0.4-0.3,0.7-0.5,1-0.8l1.2-1c0.5-0.4,0.8-0.7,1.1-0.9c0.3-0.3,0.5-0.5,0.6-0.6
			c0.2-0.4,0.3-0.8,0.3-1.1c0-0.9-0.5-1.3-1.6-1.3c-0.7,0-1.4,0.3-2.3,0.9l-0.1,0.1l-0.5-0.6c1.1-0.9,2.1-1.4,3.1-1.4
			c0.7,0,1.4,0.2,1.8,0.5c0.6,0.4,0.8,0.9,0.8,1.6c0,0.7-0.4,1.4-1.1,2.2c-0.4,0.4-1,0.9-2,1.6l-1.4,1c0.5,0,1-0.1,1.5-0.1H264.8z"
			/>
		<path class="st11" d="M268.7,58.5c0,0.3-0.1,0.5-0.3,0.7s-0.4,0.3-0.7,0.3c-0.3,0-0.5-0.1-0.7-0.3c-0.2-0.2-0.3-0.4-0.3-0.7
			c0-0.3,0.1-0.5,0.3-0.7c0.2-0.2,0.4-0.3,0.7-0.3c0.3,0,0.5,0.1,0.7,0.3C268.6,58,268.7,58.2,268.7,58.5z"/>
	</g>
	<g class="st3">
		<path class="st11" d="M264.7,128.3c0,0.7-0.2,1.3-0.7,1.8c-0.5,0.6-1.1,1-1.6,1.2c-0.7,0.3-1.7,0.5-2.8,0.5c-0.3,0-0.5,0-0.7,0
			l-0.3-0.8c0.2,0,0.4,0,0.8,0c0.7,0,1.3-0.1,1.7-0.2c0.6-0.1,1.1-0.4,1.5-0.8c0.3-0.3,0.6-0.7,0.7-1c0.1-0.2,0.1-0.5,0.1-0.7
			c0-0.9-0.4-1.4-1.2-1.7c-0.3-0.1-0.9-0.2-1.8-0.2h-0.1v-0.8h0.1c0.8,0,1.3,0,1.5,0c0.1,0,0.3-0.1,0.5-0.1c0.6-0.2,0.8-0.7,0.8-1.4
			c0-0.5-0.2-0.9-0.5-1.2s-0.8-0.4-1.3-0.4c-0.5,0-1,0.1-1.5,0.3c-0.3,0.2-0.5,0.3-0.8,0.5l-0.1,0.1l-0.5-0.6
			c0.9-0.8,1.9-1.2,3.1-1.2c0.8,0,1.5,0.2,2,0.6c0.6,0.5,0.9,1.1,0.9,1.8c0,0.6-0.2,1-0.5,1.4c-0.3,0.4-0.8,0.7-1.3,0.8l0.1,0
			c0.4,0.1,0.7,0.3,1,0.5C264.4,127,264.7,127.6,264.7,128.3z"/>
		<path class="st11" d="M268.7,128.2c0,0.3-0.1,0.5-0.3,0.7s-0.4,0.3-0.7,0.3c-0.3,0-0.5-0.1-0.7-0.3c-0.2-0.2-0.3-0.4-0.3-0.7
			c0-0.3,0.1-0.5,0.3-0.7c0.2-0.2,0.4-0.3,0.7-0.3c0.3,0,0.5,0.1,0.7,0.3C268.6,127.7,268.7,127.9,268.7,128.2z"/>
	</g>
	<g class="st3">
		<path class="st11" d="M265.1,167.6h-0.8c-0.1,0-0.2,0-0.4,0c0,0.2,0,0.3,0,0.4v2.2l-1.2,0.3v-2.4c0-0.1,0-0.3,0-0.6
			c-0.3,0-0.5,0-0.6,0h-3.9v-0.9l3.5-6.8h1.3l-2.9,5.6c-0.2,0.3-0.4,0.7-0.7,1.2c0.2,0,0.4-0.1,0.6-0.1h2.6v-0.4
			c0-0.3,0-0.8,0.1-1.3l0.1-2.1l0.9-0.3v3c0,0.5,0,0.9,0,1.2c0.2,0,0.3,0,0.5,0h0.7V167.6z"/>
		<path class="st11" d="M268.7,166.9c0,0.3-0.1,0.5-0.3,0.7s-0.4,0.3-0.7,0.3c-0.3,0-0.5-0.1-0.7-0.3c-0.2-0.2-0.3-0.4-0.3-0.7
			c0-0.3,0.1-0.5,0.3-0.7c0.2-0.2,0.4-0.3,0.7-0.3c0.3,0,0.5,0.1,0.7,0.3C268.6,166.4,268.7,166.6,268.7,166.9z"/>
	</g>
	<g class="st3">
		<path class="st11" d="M264.4,238.9c0,1.1-0.5,2-1.4,2.7c-0.8,0.6-1.8,0.9-3,0.9c-0.4,0-0.7,0-1.1-0.1l-0.2-0.9
			c0.3,0.1,0.7,0.2,1.1,0.2c0.9,0,1.6-0.2,2.2-0.7c0.7-0.5,1-1.2,1-2c0-0.7-0.2-1.1-0.6-1.5c-0.4-0.3-0.9-0.5-1.6-0.5
			c-0.8,0-1.4,0.1-1.9,0.3l0.5-5.1h4.4l-0.2,1h-3.2l-0.3,2.9c0.4,0,0.8-0.1,1-0.1c0.9,0,1.7,0.2,2.3,0.8
			C264.1,237.3,264.4,238,264.4,238.9z"/>
		<path class="st11" d="M268.7,238.8c0,0.3-0.1,0.5-0.3,0.7s-0.4,0.3-0.7,0.3c-0.3,0-0.5-0.1-0.7-0.3c-0.2-0.2-0.3-0.4-0.3-0.7
			c0-0.3,0.1-0.5,0.3-0.7c0.2-0.2,0.4-0.3,0.7-0.3c0.3,0,0.5,0.1,0.7,0.3C268.6,238.3,268.7,238.5,268.7,238.8z"/>
	</g>
	<g class="st3">
		<path class="st11" d="M265.1,272.3c0,0.9-0.3,1.7-0.9,2.3c-0.6,0.6-1.4,0.9-2.4,0.9c-1.1,0-2-0.4-2.6-1.3
			c-0.5-0.7-0.8-1.7-0.8-2.8c0-1.6,0.5-2.9,1.6-4.2c1-1.1,2.3-1.9,3.9-2.4l0.3,0.8c-0.7,0.2-1.4,0.5-2,1c-0.7,0.5-1.2,1-1.6,1.6
			c-0.3,0.5-0.5,1.1-0.7,1.8c0.5-0.5,1.3-0.8,2.2-0.8c0.9,0,1.6,0.3,2.1,0.8C264.8,270.8,265.1,271.5,265.1,272.3z M263.8,272.4
			c0-0.6-0.2-1.1-0.5-1.5c-0.3-0.4-0.8-0.6-1.4-0.6c-0.7,0-1.4,0.3-2,0.8c0,0.2,0,0.5,0,0.8c0,0.8,0.1,1.4,0.4,1.9
			c0.3,0.6,0.9,0.9,1.6,0.9c0.6,0,1.1-0.2,1.5-0.7C263.6,273.6,263.8,273,263.8,272.4z"/>
		<path class="st11" d="M268.7,274.5c0,0.3-0.1,0.5-0.3,0.7s-0.4,0.3-0.7,0.3c-0.3,0-0.5-0.1-0.7-0.3c-0.2-0.2-0.3-0.4-0.3-0.7
			c0-0.3,0.1-0.5,0.3-0.7c0.2-0.2,0.4-0.3,0.7-0.3c0.3,0,0.5,0.1,0.7,0.3C268.6,274,268.7,274.2,268.7,274.5z"/>
	</g>
</g>
</svg>
