<?xml version="1.0" encoding="utf-8"?>
<!-- Generator: Adobe Illustrator 21.0.2, SVG Export Plug-In . SVG Version: 6.00 Build 0)  -->
<svg version="1.1" id="Ebene_1" xmlns="http://www.w3.org/2000/svg" xmlns:xlink="http://www.w3.org/1999/xlink" x="0px" y="0px"
	 viewBox="0 0 16 16" style="enable-background:new 0 0 16 16;" xml:space="preserve">
<style type="text/css">
	.st0{fill:#FFFFFF;stroke:#1D2D44;stroke-width:0.2206;}
	.st1{fill:#1D2D44;}
	.st2{fill:none;stroke:#FFFFFF;stroke-width:2.317336e-02;}
	.st3{fill:#FFFFFF;stroke:#1D2D44;stroke-width:6.952009e-02;}
	.st4{fill:none;stroke:#1D2D44;stroke-width:0.2206;}
</style>
<g id="cloud">
	<circle id="circle265" class="st0" cx="4.8" cy="6" r="1.1"/>
	<circle id="circle272" class="st0" cx="2.7" cy="10" r="2.1"/>
	<circle id="circle279" class="st0" cx="5.1" cy="8.5" r="2.2"/>
	<circle id="circle286" class="st0" cx="9.6" cy="7.6" r="2.1"/>
	<circle id="circle293" class="st0" cx="7.3" cy="6" r="2.1"/>
	<circle id="circle300" class="st0" cx="14.1" cy="10.7" r="1.2"/>
	<circle id="circle307" class="st0" cx="11.7" cy="9.8" r="2.2"/>
	<circle id="circle314" class="st0" cx="4.9" cy="10.8" r="1.2"/>
	<g id="oauth" transform="translate(0,35.625)">
		<path class="st1" d="M10.4-26.5c0,1.3-1.1,2.3-2.3,2.3s-2.3-1.1-2.3-2.3c0-1.3,1.1-2.3,2.3-2.3C9.3-28.8,10.4-27.8,10.4-26.5z"/>
		<g id="hashpattern">
			<g>
				<line class="st2" x1="8.2" y1="-23.7" x2="10.9" y2="-26.4"/>
				<line class="st2" x1="7.9" y1="-23.9" x2="10.7" y2="-26.6"/>
				<line class="st2" x1="7.7" y1="-24.1" x2="10.4" y2="-26.8"/>
				<line class="st2" x1="7.5" y1="-24.3" x2="10.2" y2="-27.1"/>
				<line class="st2" x1="7.2" y1="-24.5" x2="10" y2="-27.3"/>
				<line class="st2" x1="7" y1="-24.7" x2="9.8" y2="-27.5"/>
				<line class="st2" x1="6.8" y1="-25" x2="9.5" y2="-27.7"/>
				<line class="st2" x1="6.5" y1="-25.2" x2="9.3" y2="-28"/>
				<line class="st2" x1="6.3" y1="-25.4" x2="9.1" y2="-28.2"/>
				<line class="st2" x1="6" y1="-25.6" x2="8.9" y2="-28.4"/>
				<line class="st2" x1="5.8" y1="-25.8" x2="8.6" y2="-28.6"/>
				<line class="st2" x1="5.6" y1="-26" x2="8.4" y2="-28.9"/>
				<line class="st2" x1="5.3" y1="-26.2" x2="8.2" y2="-29.1"/>
				<line class="st2" x1="5.1" y1="-26.5" x2="8" y2="-29.3"/>
			</g>
			<g>
				<line class="st2" x1="5.1" y1="-26.4" x2="7.9" y2="-23.7"/>
				<line class="st2" x1="5.3" y1="-26.7" x2="8.1" y2="-23.9"/>
				<line class="st2" x1="5.5" y1="-26.9" x2="8.3" y2="-24.1"/>
				<line class="st2" x1="5.8" y1="-27.1" x2="8.5" y2="-24.3"/>
				<line class="st2" x1="6" y1="-27.3" x2="8.8" y2="-24.6"/>
				<line class="st2" x1="6.2" y1="-27.6" x2="9" y2="-24.8"/>
				<line class="st2" x1="6.4" y1="-27.8" x2="9.2" y2="-25"/>
				<line class="st2" x1="6.7" y1="-28" x2="9.5" y2="-25.2"/>
				<line class="st2" x1="6.9" y1="-28.3" x2="9.7" y2="-25.4"/>
				<line class="st2" x1="7.1" y1="-28.5" x2="9.9" y2="-25.7"/>
				<line class="st2" x1="7.3" y1="-28.7" x2="10.2" y2="-25.9"/>
				<line class="st2" x1="7.6" y1="-28.9" x2="10.4" y2="-26.1"/>
				<line class="st2" x1="7.8" y1="-29.2" x2="10.6" y2="-26.3"/>
				<line class="st2" x1="8" y1="-29.4" x2="10.8" y2="-26.6"/>
			</g>
		</g>
		<path class="st1" d="M10-28.5c-0.2-0.2-0.5-0.5-0.9-0.6c-0.4-0.1-0.8-0.3-1.3-0.2C7-29.3,6.4-28.9,6-28.5
			c-0.3,0.3-0.5,0.6-0.7,1.1c-0.2,0.6-0.2,1.3,0,2c0.2,0.5,0.5,1,1,1.3c0.4,0.3,1.1,0.6,1.8,0.5c0.9-0.1,1.5-0.5,2-1
			c0.1-0.1,0.2-0.3,0.3-0.5c0.1-0.1,0.1-0.2,0.1-0.3c0.1-0.3,0.2-0.5,0.2-0.9C10.9-27.3,10.5-28,10-28.5z M9.7-25.7
			C9.7-25.6,9.7-25.6,9.7-25.7c0,0.1-0.1,0.2-0.2,0.3c-0.3,0.4-0.7,0.7-1.4,0.7c-0.5,0-1-0.1-1.3-0.3c-0.3-0.2-0.5-0.4-0.6-0.7
			c0,0-0.1-0.2-0.1-0.2c-0.1-0.4-0.1-0.9,0-1.3c0.1-0.2,0.2-0.5,0.4-0.7c0.2-0.3,0.5-0.4,0.9-0.6c0.2-0.1,0.3-0.1,0.5-0.1
			c0.5,0,1.1,0.2,1.3,0.5c0.3,0.2,0.6,0.7,0.6,1.1C10-26.4,9.9-26,9.7-25.7z"/>
		<path class="st3" d="M8.8-25.2c-0.1,0-0.2-0.1-0.3-0.2l-0.1-0.4H7.7l-0.1,0.4c0,0.1-0.2,0.2-0.3,0.2c0,0-0.1,0-0.1,0
			c-0.2,0-0.2-0.2-0.2-0.4l0.6-1.9c0-0.1,0.2-0.2,0.3-0.2h0.3c0.1,0,0.2,0.1,0.3,0.2l0.6,1.9C9.1-25.5,9.1-25.3,8.8-25.2
			C8.9-25.2,8.8-25.2,8.8-25.2L8.8-25.2z"/>
	</g>
	<path id="path321" class="st4" d="M10.8,9.1c0,1.6-1.2,2.8-2.8,2.8s-2.8-1.2-2.8-2.8S6.4,6.3,8,6.3S10.8,7.6,10.8,9.1z"/>
</g>
</svg>
