<?xml version="1.0" encoding="utf-8"?>
<!-- Generator: Adobe Illustrator 21.0.0, SVG Export Plug-In . SVG Version: 6.00 Build 0)  -->
<svg version="1.1" id="Ebene_1" xmlns="http://www.w3.org/2000/svg" xmlns:xlink="http://www.w3.org/1999/xlink" x="0px" y="0px"
	 viewBox="0 0 538.6 326" style="enable-background:new 0 0 538.6 326;" xml:space="preserve">
<style type="text/css">
	.st0{clip-path:url(#SVGID_2_);fill:#FFFFFF;}
	
		.st1{clip-path:url(#SVGID_2_);fill:none;stroke:#4F4F4C;stroke-width:2;stroke-linecap:round;stroke-linejoin:round;stroke-miterlimit:10;}
	.st2{clip-path:url(#SVGID_2_);fill:#4F4F4C;}
	.st3{clip-path:url(#SVGID_2_);fill:none;stroke:#4F4F4C;stroke-width:2;stroke-miterlimit:10;}
	.st4{clip-path:url(#SVGID_2_);fill:#00819B;}
	
		.st5{clip-path:url(#SVGID_2_);fill:none;stroke:#00819B;stroke-width:2;stroke-linecap:round;stroke-linejoin:round;stroke-miterlimit:10;}
	.st6{clip-path:url(#SVGID_2_);}
	.st7{fill:#FFFFFF;}
	.st8{fill:#4F4F4C;}
</style>
<g>
	<defs>
		<rect id="SVGID_1_" width="538.6" height="326"/>
	</defs>
	<clipPath id="SVGID_2_">
		<use xlink:href="#SVGID_1_"  style="overflow:visible;"/>
	</clipPath>
	<rect class="st0" width="538.6" height="326"/>
	<polyline class="st1" points="418.1,212.3 418.1,163 339.4,163 260.8,163 260.8,126.6 	"/>
	<polygon class="st2" points="260.8,117 257.2,126.6 264.4,126.6 	"/>
	<polygon class="st3" points="260.8,117 257.2,126.6 264.4,126.6 	"/>
	<polyline class="st1" points="120.5,212.3 120.5,163 190.7,163 260.8,163 260.8,126.6 	"/>
	<polygon class="st2" points="260.8,117 257.2,126.6 264.4,126.6 	"/>
	<polygon class="st3" points="260.8,117 257.2,126.6 264.4,126.6 	"/>
	<rect x="148.5" y="14.9" class="st4" width="224.6" height="97.8"/>
	<rect x="148.5" y="14.9" class="st5" width="224.6" height="97.8"/>
	<g class="st6">
		<path class="st7" d="M212.3,85.7h-1.5l-1-3.4h-4.1l-1.1,3.4h-1.3l3.7-11h1.7L212.3,85.7z M209.5,81.2l-1.7-5.3l-0.5,1.6
			c-0.1,0.5-0.5,1.7-1.2,3.8H209.5z"/>
		<path class="st7" d="M220.3,85.2l-0.8,0.8c-0.5-0.4-0.8-0.8-0.9-1.3c-0.6,0.8-1.5,1.2-2.5,1.2c-1.5,0-2.3-0.8-2.3-2.3v-5.9
			l1.2-0.2v5.7c0,1.1,0.5,1.6,1.5,1.6c0.4,0,0.8-0.1,1.2-0.4c0.4-0.3,0.6-0.6,0.8-1v-5.7l1.2-0.2v5.7c0,0.7,0.1,1.2,0.2,1.5
			C220,84.9,220.1,85,220.3,85.2z"/>
		<path class="st7" d="M225.7,77.7l-0.4,1h-1.7v5.1c0,0.4,0.1,0.7,0.2,0.9c0.2,0.2,0.4,0.3,0.8,0.3c0.3,0,0.6-0.1,0.8-0.2l0.2,0.8
			c-0.4,0.2-0.9,0.3-1.4,0.3c-1.2,0-1.8-0.6-1.8-1.8v-5.5h-1v-1h1v-0.1c0-0.1,0-0.7,0.1-1.7l0-0.2l1.3-0.3c-0.1,0.9-0.2,1.6-0.2,2.3
			H225.7z"/>
		<path class="st7" d="M233.4,85.7h-1.2v-5.5c0-0.5-0.1-0.9-0.2-1.1c-0.2-0.3-0.5-0.4-1-0.4c-0.8,0-1.6,0.4-2.3,1.3v5.7h-1.2v-9.8
			c0-0.6-0.1-1.1-0.2-1.6l1.2-0.2c0.1,0.5,0.2,1.1,0.2,1.8v1.9c0,0.3,0,0.7,0,1.1c0.2-0.2,0.5-0.4,0.8-0.6c0.7-0.4,1.3-0.6,1.9-0.6
			c0.5,0,1,0.1,1.4,0.4c0.4,0.3,0.7,0.7,0.7,1.2c0,0.2,0,0.5,0,0.8V85.7z"/>
		<path class="st7" d="M241.9,81.9h-5v0.2c0,0.8,0.1,1.4,0.4,1.8c0.4,0.7,1.1,1,2,1c0.8,0,1.4-0.2,2-0.8l0.5,0.8
			c-0.7,0.7-1.6,1-2.7,1c-1.2,0-2.1-0.4-2.7-1.3c-0.6-0.8-0.8-1.7-0.8-3c0-1.1,0.3-2.1,0.8-2.8c0.6-0.9,1.5-1.3,2.5-1.3
			c0.9,0,1.6,0.3,2.2,0.9c0.4,0.4,0.7,0.9,0.8,1.6c0.1,0.4,0.1,1,0.1,1.8V81.9z M240.6,81c0-0.8-0.1-1.3-0.3-1.7
			c-0.3-0.5-0.8-0.8-1.5-0.8c-1.2,0-1.8,0.8-1.8,2.5H240.6z"/>
		<path class="st7" d="M249.9,85.7h-1.3v-5.4c0-0.5-0.1-0.9-0.2-1.2c-0.2-0.3-0.5-0.5-1-0.5c-0.4,0-0.8,0.1-1.2,0.4
			c-0.4,0.2-0.7,0.5-1,0.8v6h-1.2v-5.9c0-0.8-0.1-1.4-0.3-1.9l1.2-0.3c0.2,0.4,0.3,0.8,0.3,1.2c0.8-0.8,1.7-1.2,2.5-1.2
			c0.4,0,0.8,0.1,1.2,0.3c0.4,0.2,0.6,0.5,0.8,0.9c0.1,0.3,0.2,0.6,0.2,0.9V85.7z"/>
		<path class="st7" d="M256,77.7l-0.4,1h-1.7v5.1c0,0.4,0.1,0.7,0.2,0.9c0.2,0.2,0.4,0.3,0.8,0.3c0.3,0,0.6-0.1,0.8-0.2l0.2,0.8
			c-0.4,0.2-0.9,0.3-1.4,0.3c-1.2,0-1.8-0.6-1.8-1.8v-5.5h-1v-1h1v-0.1c0-0.1,0-0.7,0.1-1.7l0-0.2l1.3-0.3c-0.1,0.9-0.2,1.6-0.2,2.3
			H256z"/>
		<path class="st7" d="M259.4,75.2c0,0.3-0.1,0.5-0.3,0.7c-0.2,0.2-0.4,0.3-0.7,0.3c-0.3,0-0.5-0.1-0.7-0.3
			c-0.2-0.2-0.3-0.4-0.3-0.7c0-0.3,0.1-0.5,0.3-0.7c0.2-0.2,0.4-0.3,0.7-0.3s0.5,0.1,0.7,0.3C259.3,74.7,259.4,75,259.4,75.2z
			 M259.1,85.7h-1.3v-7.9l1.3-0.2V85.7z"/>
		<path class="st7" d="M266.1,74.6l-0.5,0.9c-0.4-0.2-0.8-0.4-1.2-0.4c-0.7,0-1.1,0.5-1.1,1.4v1.3h2.2l-0.4,0.9h-1.8v7H262v-7h-0.8
			v-0.9h0.8v-1.3c0-0.9,0.3-1.5,0.9-2c0.4-0.3,0.8-0.4,1.4-0.4C265,74.1,265.6,74.2,266.1,74.6z"/>
		<path class="st7" d="M268,75.2c0,0.3-0.1,0.5-0.3,0.7c-0.2,0.2-0.4,0.3-0.7,0.3c-0.3,0-0.5-0.1-0.7-0.3c-0.2-0.2-0.3-0.4-0.3-0.7
			c0-0.3,0.1-0.5,0.3-0.7c0.2-0.2,0.4-0.3,0.7-0.3s0.5,0.1,0.7,0.3C267.9,74.7,268,75,268,75.2z M267.6,85.7h-1.3v-7.9l1.3-0.2V85.7
			z"/>
		<path class="st7" d="M275.4,84.7l-0.6,1h-5.3v-1l4.3-6h-4v-1h5.3v1l-4.1,6H275.4z"/>
		<path class="st7" d="M278.8,75.2c0,0.3-0.1,0.5-0.3,0.7c-0.2,0.2-0.4,0.3-0.7,0.3c-0.3,0-0.5-0.1-0.7-0.3
			c-0.2-0.2-0.3-0.4-0.3-0.7c0-0.3,0.1-0.5,0.3-0.7c0.2-0.2,0.4-0.3,0.7-0.3s0.5,0.1,0.7,0.3S278.8,75,278.8,75.2z M278.5,85.7h-1.3
			v-7.9l1.3-0.2V85.7z"/>
		<path class="st7" d="M287,81.9h-5v0.2c0,0.8,0.1,1.4,0.4,1.8c0.4,0.7,1.1,1,2,1c0.8,0,1.4-0.2,2-0.8l0.5,0.8c-0.7,0.7-1.6,1-2.7,1
			c-1.2,0-2.1-0.4-2.7-1.3c-0.6-0.8-0.8-1.7-0.8-3c0-1.1,0.3-2.1,0.8-2.8c0.6-0.9,1.5-1.3,2.5-1.3c0.9,0,1.6,0.3,2.2,0.9
			c0.4,0.4,0.7,0.9,0.8,1.6c0.1,0.4,0.1,1,0.1,1.8V81.9z M285.7,81c0-0.8-0.1-1.3-0.3-1.7c-0.3-0.5-0.8-0.8-1.5-0.8
			c-1.2,0-1.8,0.8-1.8,2.5H285.7z"/>
		<path class="st7" d="M293.1,77.6l-0.5,1.3c-0.1,0-0.3,0-0.4,0c-0.3,0-0.6,0.1-1,0.3c-0.3,0.2-0.5,0.4-0.7,0.7
			c-0.1,0.2-0.1,0.5-0.1,0.9v5h-1.2v-6.1c0-0.7-0.1-1.3-0.3-1.8l1.3-0.3c0.2,0.4,0.3,0.8,0.3,1.2v0.1c0.6-0.9,1.4-1.3,2.2-1.3
			C292.8,77.5,293,77.5,293.1,77.6z"/>
		<path class="st7" d="M300.8,85.2L300,86c-0.5-0.4-0.8-0.8-0.9-1.3c-0.6,0.8-1.5,1.2-2.5,1.2c-1.5,0-2.3-0.8-2.3-2.3v-5.9l1.2-0.2
			v5.7c0,1.1,0.5,1.6,1.5,1.6c0.4,0,0.8-0.1,1.2-0.4c0.4-0.3,0.6-0.6,0.8-1v-5.7l1.2-0.2v5.7c0,0.7,0.1,1.2,0.2,1.5
			C300.5,84.9,300.7,85,300.8,85.2z"/>
		<path class="st7" d="M308.8,85.7h-1.3v-5.4c0-0.5-0.1-0.9-0.2-1.2c-0.2-0.3-0.5-0.5-1-0.5c-0.4,0-0.8,0.1-1.2,0.4
			c-0.4,0.2-0.7,0.5-1,0.8v6h-1.2v-5.9c0-0.8-0.1-1.4-0.3-1.9l1.2-0.3c0.2,0.4,0.3,0.8,0.3,1.2c0.8-0.8,1.7-1.2,2.5-1.2
			c0.4,0,0.8,0.1,1.2,0.3c0.4,0.2,0.6,0.5,0.8,0.9c0.1,0.3,0.2,0.6,0.2,0.9V85.7z"/>
		<path class="st7" d="M318.4,78.4c-0.4,0.3-0.9,0.5-1.3,0.5c-0.2,0-0.4,0-0.5-0.1c0.3,0.4,0.5,0.8,0.5,1.4c0,0.7-0.2,1.3-0.7,1.8
			c-0.5,0.5-1.1,0.7-1.8,0.7h-0.2l-0.2,0.1c-0.8,0.3-1.3,0.6-1.3,0.9c0,0.3,0.2,0.4,0.6,0.4h1.3c0.9,0,1.5,0.1,1.9,0.4
			c0.6,0.4,0.9,1,0.9,1.7c0,1.7-1.1,2.5-3.2,2.5c-2.3,0-3.5-0.7-3.5-2c0-0.3,0.1-0.5,0.2-0.8l1.3-0.1l-0.1,0.1
			c-0.1,0.2-0.2,0.4-0.2,0.6c0,0.9,0.7,1.3,2.1,1.3c1.3,0,1.9-0.5,1.9-1.4c0-0.5-0.2-0.9-0.6-1.1c-0.3-0.1-0.7-0.2-1.4-0.2
			c-0.1,0-0.3,0-0.6,0c-0.3,0-0.5,0-0.6,0c-1,0-1.5-0.4-1.5-1.1c0-0.6,0.4-1,1.3-1.3l0.1,0c-0.5-0.2-1-0.5-1.3-0.9
			c-0.3-0.4-0.5-0.9-0.5-1.4c0-0.8,0.3-1.5,0.9-2c0.5-0.5,1.2-0.7,2.1-0.7c0.4,0,0.8,0.1,1.2,0.2l0.5,0.2c0.2,0.1,0.4,0.1,0.7,0.1
			c0.4,0,0.8-0.1,1.1-0.4L318.4,78.4z M315.5,80.2c0-1-0.5-1.6-1.5-1.6c-1,0-1.5,0.5-1.5,1.6c0,1,0.5,1.5,1.5,1.5
			C315,81.8,315.5,81.2,315.5,80.2z"/>
	</g>
	<g class="st6">
		<path class="st7" d="M244.4,92.7l-2.5,11h-1.7l-1.4-6.1c-0.3-1.2-0.5-2.2-0.6-3.1c-0.1,0.9-0.3,2-0.6,3l-1.3,6.2h-1.7l-2.6-11h1.4
			l1.4,6.4c0.1,0.5,0.3,1.6,0.6,3.3c0.1-0.9,0.4-2,0.6-3.2l1.5-6.6h1.5l1.4,6.4c0.4,1.7,0.6,2.8,0.7,3.4c0.1-0.8,0.3-2,0.6-3.4
			l1.4-6.4H244.4z"/>
		<path class="st7" d="M252,99.9h-5v0.2c0,0.8,0.1,1.4,0.4,1.8c0.4,0.7,1.1,1,2,1c0.8,0,1.4-0.2,2-0.8l0.5,0.8c-0.7,0.7-1.6,1-2.7,1
			c-1.2,0-2.1-0.4-2.7-1.3c-0.6-0.8-0.8-1.7-0.8-3c0-1.1,0.3-2.1,0.8-2.8c0.6-0.9,1.5-1.3,2.5-1.3c0.9,0,1.6,0.3,2.2,0.9
			c0.4,0.4,0.7,0.9,0.8,1.6c0.1,0.4,0.1,1,0.1,1.8V99.9z M250.7,99c0-0.8-0.1-1.3-0.3-1.7c-0.3-0.5-0.8-0.8-1.5-0.8
			c-1.2,0-1.8,0.8-1.8,2.5H250.7z"/>
		<path class="st7" d="M260.7,99.6c0,1.1-0.2,2.1-0.7,2.9c-0.6,0.9-1.4,1.4-2.4,1.4c-0.4,0-0.8-0.1-1.2-0.3c-0.4-0.2-0.7-0.4-1-0.7
			c0,0.3-0.1,0.6-0.2,0.9h-1.2c0.2-0.4,0.2-1,0.2-2v-7.6c0-0.8-0.1-1.5-0.3-1.9l1.3-0.3c0.1,0.6,0.2,1.3,0.2,2v1.8
			c0,0.5,0,0.8,0,0.9c0.7-0.7,1.5-1.1,2.3-1.1c1.1,0,1.9,0.4,2.4,1.3C260.5,97.5,260.7,98.5,260.7,99.6z M259.3,99.5
			c0-1.9-0.7-2.8-2-2.8c-0.8,0-1.5,0.3-2,1v4.1c0.5,0.6,1.1,1,2,1C258.7,102.7,259.3,101.7,259.3,99.5z"/>
		<path class="st7" d="M270.7,98.3c0,1.8-0.4,3.1-1.2,4.1c-0.5,0.6-1,0.9-1.6,1.1c-0.4,0.2-1.1,0.2-1.9,0.2h-2.9V92.8h2.2
			c0.9,0,1.6,0,2,0.1c0.5,0.1,1,0.3,1.5,0.7C270.1,94.5,270.7,96.1,270.7,98.3z M269.2,98.4c0-2.5-0.7-3.9-2.1-4.4
			c-0.3-0.1-0.8-0.2-1.4-0.2h-1.3v8.7h1.2c0.6,0,1,0,1.3-0.1c0.7-0.1,1.2-0.5,1.6-1.1C269,100.7,269.2,99.6,269.2,98.4z"/>
		<path class="st7" d="M280.7,103.7h-1.5l-1-3.4h-4.1l-1.1,3.4h-1.3l3.7-11h1.7L280.7,103.7z M277.9,99.2l-1.7-5.3l-0.5,1.6
			c-0.1,0.5-0.5,1.7-1.2,3.8H277.9z"/>
		<path class="st7" d="M289.8,92.7l-3.8,11h-1.3l-3.7-11h1.4l2.3,7c0.3,1,0.6,1.8,0.6,2.4c0.1-0.5,0.3-1.3,0.7-2.3l2.3-7.2H289.8z"
			/>
	</g>
	<g class="st6">
		<path class="st7" d="M217.6,38.9l-1.1-3.6H212l-1.1,3.6h-2.4l4.5-13.9h2.7l4.4,13.9H217.6z M216,33.3c0-0.1-0.1-0.2-0.2-0.5
			c-0.1-0.3-0.2-0.6-0.3-1.1c-0.1-0.4-0.2-0.9-0.4-1.3c-0.1-0.5-0.3-0.9-0.4-1.4c-0.1-0.4-0.2-0.8-0.3-1.1c-0.1-0.3-0.1-0.5-0.1-0.6
			h0c-0.3,1-0.5,1.8-0.8,2.7c-0.1,0.3-0.2,0.7-0.3,1c-0.1,0.3-0.2,0.7-0.3,1c-0.1,0.3-0.2,0.6-0.2,0.8c-0.1,0.2-0.1,0.4-0.2,0.5H216
			z"/>
		<path class="st7" d="M230.6,33.5c0,0.8-0.1,1.6-0.3,2.2c-0.2,0.6-0.5,1.1-0.9,1.5s-0.7,0.8-1.1,1c-0.4,0.2-0.8,0.4-1.1,0.5
			c-0.4,0.1-0.7,0.2-1,0.2c-0.3,0-0.7,0-1.2,0h-3V28.1h2.4c0.5,0,1.1,0,1.6,0.1s1,0.1,1.4,0.2c0.5,0.1,0.9,0.3,1.3,0.6
			c0.4,0.3,0.8,0.6,1.1,1c0.3,0.4,0.5,0.9,0.7,1.5C230.5,32,230.6,32.7,230.6,33.5z M228.1,33.7c0-0.5,0-1-0.1-1.4
			c-0.1-0.5-0.2-0.9-0.4-1.2c-0.2-0.4-0.5-0.7-0.9-0.9s-0.8-0.3-1.4-0.3h-1.2v7.3h1.4c0.5,0,0.9-0.1,1.2-0.3
			c0.3-0.2,0.6-0.4,0.8-0.8c0.2-0.3,0.3-0.7,0.4-1.1S228.1,34.1,228.1,33.7z"/>
		<path class="st7" d="M243.4,38.9l-0.4-6.3c0-0.2,0-0.4,0-0.7c0-0.3,0-0.5,0-0.8s0-0.4,0-0.6c0-0.2,0-0.3,0-0.3c0,0,0,0.1-0.1,0.3
			c0,0.2-0.1,0.4-0.2,0.6s-0.1,0.5-0.2,0.7c-0.1,0.3-0.1,0.5-0.2,0.6l-1.9,6.3h-1.9l-1.8-6.2c-0.1-0.2-0.1-0.4-0.2-0.6
			c-0.1-0.3-0.1-0.5-0.2-0.8c-0.1-0.3-0.1-0.5-0.2-0.7c0-0.2-0.1-0.3-0.1-0.4c0,0.4,0,0.7,0,0.9s0,0.5,0,0.8c0,0.3,0,0.5,0,0.7
			l-0.4,6.2h-2.2l1.1-10.8h2.9l1.7,5.8c0.1,0.2,0.1,0.4,0.2,0.7c0.1,0.3,0.1,0.5,0.2,0.7s0.1,0.4,0.1,0.6c0,0.2,0.1,0.3,0.1,0.3
			c0,0,0-0.1,0.1-0.3c0-0.2,0.1-0.4,0.1-0.6c0-0.2,0.1-0.5,0.2-0.8c0.1-0.3,0.1-0.5,0.2-0.7l1.7-5.7h2.9l1.1,10.8H243.4z"/>
		<path class="st7" d="M248.8,38.9V28.1h2.3v10.8H248.8z"/>
		<path class="st7" d="M260.7,38.9l-2.6-5c-0.1-0.3-0.3-0.6-0.5-0.9c-0.2-0.3-0.3-0.7-0.5-1c-0.2-0.4-0.3-0.7-0.5-1.1
			c0,0.4,0,0.8,0.1,1.2c0,0.3,0,0.7,0,1.1c0,0.4,0,0.7,0,1l0.1,4.7h-2.2V28.1h2.5l2.7,4.9c0.1,0.2,0.3,0.5,0.4,0.8
			c0.1,0.3,0.3,0.6,0.4,0.8c0.1,0.3,0.2,0.5,0.3,0.7s0.1,0.3,0.2,0.4c0,0,0-0.1,0-0.4c0-0.2-0.1-0.5-0.1-0.8c0-0.3,0-0.6-0.1-1
			c0-0.3,0-0.6,0-0.9l0-4.6h2.1v10.8H260.7z"/>
		<path class="st7" d="M279.4,27H276v11.9h-2.3V27h-3.5V25h9.6L279.4,27z"/>
		<path class="st7" d="M290.8,33.4c0,0.8-0.1,1.6-0.3,2.3c-0.2,0.7-0.5,1.3-0.9,1.8c-0.4,0.5-0.9,0.9-1.6,1.2
			c-0.6,0.3-1.4,0.4-2.3,0.4c-0.8,0-1.6-0.1-2.2-0.4c-0.6-0.3-1.2-0.6-1.6-1.1c-0.4-0.5-0.8-1.1-1-1.8s-0.3-1.4-0.3-2.2
			c0-1.8,0.5-3.1,1.4-4.1c0.9-1,2.2-1.5,3.8-1.5c0.9,0,1.6,0.1,2.2,0.4c0.6,0.3,1.2,0.7,1.6,1.2s0.8,1.1,1,1.8
			C290.7,31.9,290.8,32.6,290.8,33.4z M288.2,33.5c0-0.5,0-0.9-0.1-1.4c-0.1-0.5-0.2-0.9-0.3-1.3c-0.2-0.4-0.4-0.7-0.8-0.9
			s-0.8-0.3-1.4-0.3c-0.6,0-1,0.1-1.3,0.4c-0.3,0.2-0.6,0.5-0.8,0.9c-0.2,0.4-0.3,0.8-0.3,1.2c-0.1,0.5-0.1,0.9-0.1,1.3
			c0,0.5,0,1,0.1,1.5c0.1,0.5,0.2,0.9,0.3,1.3c0.2,0.4,0.4,0.7,0.8,0.9c0.4,0.2,0.8,0.3,1.4,0.3c0.6,0,1-0.1,1.4-0.4
			c0.3-0.2,0.6-0.5,0.8-0.9c0.2-0.4,0.3-0.8,0.3-1.3C288.2,34.4,288.2,34,288.2,33.5z"/>
		<path class="st7" d="M303.4,33.4c0,0.8-0.1,1.6-0.3,2.3c-0.2,0.7-0.5,1.3-0.9,1.8c-0.4,0.5-0.9,0.9-1.6,1.2
			c-0.6,0.3-1.4,0.4-2.3,0.4c-0.8,0-1.6-0.1-2.2-0.4c-0.6-0.3-1.2-0.6-1.6-1.1c-0.4-0.5-0.8-1.1-1-1.8s-0.3-1.4-0.3-2.2
			c0-1.8,0.5-3.1,1.4-4.1c0.9-1,2.2-1.5,3.8-1.5c0.9,0,1.6,0.1,2.2,0.4c0.6,0.3,1.2,0.7,1.6,1.2s0.8,1.1,1,1.8
			C303.3,31.9,303.4,32.6,303.4,33.4z M300.9,33.5c0-0.5,0-0.9-0.1-1.4c-0.1-0.5-0.2-0.9-0.3-1.3c-0.2-0.4-0.4-0.7-0.8-0.9
			s-0.8-0.3-1.4-0.3c-0.6,0-1,0.1-1.3,0.4c-0.3,0.2-0.6,0.5-0.8,0.9c-0.2,0.4-0.3,0.8-0.3,1.2c-0.1,0.5-0.1,0.9-0.1,1.3
			c0,0.5,0,1,0.1,1.5c0.1,0.5,0.2,0.9,0.3,1.3c0.2,0.4,0.4,0.7,0.8,0.9c0.4,0.2,0.8,0.3,1.4,0.3c0.6,0,1-0.1,1.4-0.4
			c0.3-0.2,0.6-0.5,0.8-0.9c0.2-0.4,0.3-0.8,0.3-1.3C300.9,34.4,300.9,34,300.9,33.5z"/>
		<path class="st7" d="M312.7,38.9h-6.2V28.1h2.3v9h4.4L312.7,38.9z"/>
	</g>
	<g class="st6">
		<path class="st7" d="M207.9,47.7c1.2,0,2.1,0.4,2.8,1.2c0.6,0.8,1,1.9,1,3.4c0,1.5-0.3,2.6-1,3.4s-1.6,1.2-2.8,1.2
			c-1.2,0-2.1-0.4-2.8-1.2s-1-1.9-1-3.4c0-1.5,0.3-2.6,1-3.4S206.6,47.7,207.9,47.7z M207.9,48.9c-0.7,0-1.3,0.3-1.7,0.9
			s-0.6,1.4-0.6,2.5c0,1.1,0.2,1.9,0.6,2.5s0.9,0.9,1.7,0.9c0.7,0,1.3-0.3,1.7-0.9s0.6-1.4,0.6-2.5c0-1.1-0.2-2-0.6-2.5
			S208.6,48.9,207.9,48.9z"/>
		<path class="st7" d="M220.9,51.7v5h-1.4v-1.3c-0.3,0.5-0.7,0.9-1.2,1.2c-0.5,0.2-1,0.4-1.7,0.4c-0.9,0-1.6-0.3-2.1-0.8
			s-0.8-1.2-0.8-2c0-1,0.3-1.7,1-2.2c0.7-0.5,1.6-0.8,2.9-0.8h1.9v-0.2c0-0.7-0.2-1.2-0.5-1.5c-0.3-0.3-0.9-0.5-1.7-0.5
			c-0.5,0-1,0.1-1.5,0.2s-1,0.3-1.5,0.6v-1.4c0.5-0.2,1-0.4,1.5-0.5c0.5-0.1,1-0.2,1.4-0.2c0.7,0,1.3,0.1,1.9,0.3
			c0.5,0.2,0.9,0.5,1.2,1c0.2,0.3,0.3,0.6,0.4,1C220.9,50.3,220.9,50.9,220.9,51.7z M218.2,52.3h-0.5c-0.8,0-1.5,0.1-1.9,0.4
			c-0.4,0.3-0.6,0.7-0.6,1.3c0,0.5,0.2,0.9,0.5,1.2c0.3,0.3,0.8,0.4,1.3,0.4c0.8,0,1.4-0.3,1.9-0.8s0.7-1.3,0.7-2.3v-0.3H218.2z"/>
		<path class="st7" d="M223.8,53.4v-5.4h1.4v5.4c0,0.8,0.1,1.4,0.4,1.7c0.3,0.4,0.7,0.6,1.3,0.6c0.7,0,1.2-0.2,1.6-0.7
			s0.5-1.2,0.5-2.1v-4.9h1.4v8.7h-1.4v-1.3c-0.3,0.5-0.6,0.9-1,1.1c-0.4,0.3-1,0.4-1.5,0.4c-0.9,0-1.6-0.3-2-0.9
			S223.8,54.6,223.8,53.4z"/>
		<path class="st7" d="M236.7,45.4v2.5h3.3V49h-3.3v4.8c0,0.6,0.1,1.1,0.4,1.4c0.2,0.3,0.7,0.4,1.3,0.4h1.6v1.1h-1.8
			c-1.1,0-1.8-0.2-2.3-0.6c-0.4-0.4-0.7-1.2-0.7-2.2V49H233v-1.1h2.3v-2.5H236.7z"/>
		<path class="st7" d="M249.8,51.3v5.4h-1.4v-5.4c0-0.8-0.1-1.4-0.4-1.7c-0.3-0.4-0.7-0.6-1.3-0.6c-0.7,0-1.2,0.2-1.6,0.7
			c-0.4,0.5-0.5,1.2-0.5,2.1v4.9h-1.4V44.5h1.4v4.7c0.3-0.5,0.6-0.9,1-1.1s1-0.4,1.6-0.4c0.9,0,1.6,0.3,2,0.9
			C249.6,49.2,249.8,50.1,249.8,51.3z"/>
		<path class="st7" d="M254.1,55.3h5.4v1.3h-7.1v-1.3c1-1,1.8-1.9,2.6-2.7c0.7-0.8,1.2-1.3,1.5-1.7c0.5-0.6,0.9-1.1,1.1-1.5
			c0.2-0.4,0.3-0.8,0.3-1.2c0-0.7-0.2-1.2-0.6-1.5s-0.9-0.6-1.6-0.6c-0.5,0-1,0.1-1.5,0.3c-0.5,0.2-1.1,0.4-1.7,0.8v-1.6
			c0.5-0.3,1.1-0.4,1.6-0.6c0.5-0.1,1-0.2,1.5-0.2c1.1,0,2.1,0.3,2.8,0.9s1,1.4,1,2.4c0,0.5-0.1,1-0.3,1.5c-0.2,0.5-0.6,1.1-1.1,1.7
			c-0.3,0.3-0.7,0.8-1.3,1.4S255.3,54.2,254.1,55.3z"/>
		<path class="st7" d="M268.4,48.2v1.4c-0.4-0.2-0.8-0.4-1.2-0.5c-0.4-0.1-0.8-0.2-1.3-0.2c-0.7,0-1.1,0.1-1.5,0.3s-0.5,0.5-0.5,1
			c0,0.4,0.1,0.7,0.4,0.9c0.2,0.2,0.8,0.4,1.8,0.6l0.6,0.1c0.7,0.1,1.3,0.4,1.6,0.8s0.6,0.9,0.6,1.6c0,0.9-0.3,1.5-0.9,2
			c-0.6,0.5-1.5,0.7-2.6,0.7c-0.4,0-0.9,0-1.4-0.1c-0.5-0.1-1-0.2-1.5-0.4v-1.5c0.5,0.3,1,0.5,1.5,0.6c0.5,0.1,1,0.2,1.4,0.2
			c0.6,0,1.1-0.1,1.5-0.4c0.3-0.3,0.5-0.6,0.5-1.1c0-0.7-0.6-1.1-1.9-1.4l-0.1,0l-0.5-0.1c-0.8-0.2-1.4-0.4-1.8-0.8
			c-0.4-0.4-0.6-0.9-0.6-1.6c0-0.8,0.3-1.5,0.9-1.9c0.6-0.5,1.4-0.7,2.4-0.7c0.5,0,0.9,0,1.4,0.1C267.6,47.9,268,48.1,268.4,48.2z"
			/>
		<path class="st7" d="M278.8,56.2c-0.4,0.2-0.8,0.4-1.2,0.5c-0.4,0.1-0.8,0.2-1.3,0.2c-1.4,0-2.4-0.4-3.2-1.2
			c-0.8-0.8-1.1-1.9-1.1-3.4s0.4-2.6,1.1-3.4c0.8-0.8,1.8-1.2,3.2-1.2c0.4,0,0.8,0.1,1.2,0.2c0.4,0.1,0.8,0.3,1.2,0.5v1.5
			c-0.4-0.3-0.8-0.6-1.1-0.7s-0.8-0.2-1.3-0.2c-0.9,0-1.6,0.3-2.1,0.9s-0.7,1.4-0.7,2.5c0,1.1,0.2,1.9,0.7,2.5
			c0.5,0.6,1.2,0.9,2.1,0.9c0.5,0,0.9-0.1,1.3-0.2c0.4-0.2,0.8-0.4,1.1-0.7V56.2z"/>
		<path class="st7" d="M282.6,48h3.7v7.6h2.9v1.1H282v-1.1h2.9v-6.5h-2.2V48z M284.8,44.6h1.4v1.8h-1.4V44.6z"/>
		<path class="st7" d="M298.5,51.6v0.7h-6.2v0c0,1.2,0.2,2,0.7,2.6c0.5,0.5,1.2,0.8,2.1,0.8c0.5,0,0.9-0.1,1.4-0.2s1-0.4,1.6-0.7
			v1.4c-0.5,0.2-1.1,0.4-1.6,0.5s-1,0.2-1.5,0.2c-1.4,0-2.4-0.4-3.2-1.2s-1.1-1.9-1.1-3.4c0-1.4,0.4-2.5,1.1-3.3s1.8-1.2,3-1.2
			c1.1,0,2,0.4,2.6,1.1C298.1,49.6,298.4,50.5,298.5,51.6z M297.1,51.2c-0.1-0.6-0.3-1.1-0.7-1.6c-0.4-0.4-0.9-0.7-1.6-0.7
			c-0.7,0-1.3,0.2-1.7,0.7c-0.4,0.5-0.7,1-0.7,1.5L297.1,51.2z"/>
		<path class="st7" d="M302.3,49c0.2-0.4,0.5-0.8,0.9-1c0.4-0.2,0.9-0.3,1.4-0.3c1.1,0,1.9,0.4,2.5,1.2c0.6,0.8,0.9,1.9,0.9,3.3
			c0,1.4-0.3,2.6-0.9,3.4c-0.6,0.8-1.4,1.2-2.5,1.2c-0.5,0-1-0.1-1.4-0.3s-0.7-0.6-1-1v1.1h-1.4V44.5h1.4V49z M306.5,52.3
			c0-1.1-0.2-2-0.5-2.5c-0.4-0.6-0.9-0.9-1.6-0.9c-0.7,0-1.2,0.3-1.6,0.9s-0.5,1.4-0.5,2.5c0,1.1,0.2,1.9,0.5,2.5s0.9,0.9,1.6,0.9
			c0.7,0,1.2-0.3,1.6-0.9C306.4,54.3,306.5,53.4,306.5,52.3z"/>
		<path class="st7" d="M313.8,47.7c1.2,0,2.1,0.4,2.8,1.2c0.6,0.8,1,1.9,1,3.4c0,1.5-0.3,2.6-1,3.4s-1.6,1.2-2.8,1.2
			c-1.2,0-2.1-0.4-2.8-1.2s-1-1.9-1-3.4c0-1.5,0.3-2.6,1-3.4S312.6,47.7,313.8,47.7z M313.8,48.9c-0.7,0-1.3,0.3-1.7,0.9
			s-0.6,1.4-0.6,2.5c0,1.1,0.2,1.9,0.6,2.5s0.9,0.9,1.7,0.9c0.7,0,1.3-0.3,1.7-0.9s0.6-1.4,0.6-2.5c0-1.1-0.2-2-0.6-2.5
			S314.6,48.9,313.8,48.9z"/>
	</g>
	<rect x="8.2" y="213.3" class="st4" width="224.6" height="97.8"/>
	<rect x="8.2" y="213.3" class="st5" width="224.6" height="97.8"/>
	<g class="st6">
		<path class="st7" d="M65.9,279.7c0,1.8-0.4,3.1-1.2,4.1c-0.5,0.6-1,0.9-1.6,1.1c-0.4,0.2-1.1,0.2-1.9,0.2h-2.9v-10.9h2.2
			c0.9,0,1.6,0,2,0.1c0.5,0.1,1,0.3,1.5,0.7C65.3,276,65.9,277.5,65.9,279.7z M64.5,279.8c0-2.5-0.7-3.9-2.1-4.4
			c-0.3-0.1-0.8-0.2-1.4-0.2h-1.3v8.7h1.2c0.6,0,1,0,1.3-0.1c0.7-0.1,1.2-0.5,1.6-1.1C64.2,282.1,64.5,281.1,64.5,279.8z"/>
		<path class="st7" d="M74.2,284.5l-0.6,0.9c-0.6-0.2-0.9-0.6-1.1-1.2c-0.7,0.7-1.5,1.1-2.3,1.1c-0.8,0-1.4-0.2-1.8-0.6
			c-0.5-0.4-0.7-1-0.7-1.7c0-1,0.5-1.8,1.4-2.3c0.7-0.4,1.7-0.6,2.8-0.6c0.2,0,0.4,0,0.6,0v-0.6c0-0.6-0.1-1.1-0.3-1.2
			c-0.3-0.3-0.6-0.4-1.1-0.4c-0.9,0-1.8,0.3-2.5,0.9l-0.6-0.9c1.1-0.7,2.2-1.1,3.3-1.1c1.1,0,1.9,0.4,2.2,1.2
			c0.1,0.3,0.2,0.7,0.2,1.4v0.4l-0.1,2.6c0,0.1,0,0.2,0,0.4c0,0.4,0,0.8,0.1,0.9C73.7,284.1,73.9,284.4,74.2,284.5z M72.4,281.1
			c-0.4,0-0.6,0-0.6,0c-1.8,0-2.8,0.6-2.8,1.9c0,1,0.5,1.5,1.4,1.5c0.9,0,1.5-0.4,1.9-1.2L72.4,281.1z"/>
		<path class="st7" d="M79.7,277.1l-0.4,1h-1.7v5.1c0,0.4,0.1,0.7,0.2,0.9c0.2,0.2,0.4,0.3,0.8,0.3c0.3,0,0.6-0.1,0.8-0.2l0.2,0.8
			c-0.4,0.2-0.9,0.3-1.4,0.3c-1.2,0-1.8-0.6-1.8-1.8v-5.5h-1v-1h1V277c0-0.1,0-0.7,0.1-1.7l0-0.2l1.3-0.3c-0.1,0.9-0.2,1.6-0.2,2.3
			H79.7z"/>
		<path class="st7" d="M87.3,281.3h-5v0.2c0,0.8,0.1,1.4,0.4,1.8c0.4,0.7,1.1,1,2,1c0.8,0,1.4-0.2,2-0.8l0.5,0.8
			c-0.7,0.7-1.6,1-2.7,1c-1.2,0-2.1-0.4-2.7-1.3c-0.6-0.8-0.8-1.7-0.8-3c0-1.1,0.3-2.1,0.8-2.8c0.6-0.9,1.5-1.3,2.5-1.3
			c0.9,0,1.6,0.3,2.2,0.9c0.4,0.4,0.7,0.9,0.8,1.6c0.1,0.4,0.1,1,0.1,1.8V281.3z M85.9,280.4c0-0.8-0.1-1.3-0.3-1.7
			c-0.3-0.5-0.8-0.8-1.5-0.8c-1.2,0-1.8,0.8-1.8,2.5H85.9z"/>
		<path class="st7" d="M91,274.7c0,0.3-0.1,0.5-0.3,0.7c-0.2,0.2-0.4,0.3-0.7,0.3c-0.3,0-0.5-0.1-0.7-0.3c-0.2-0.2-0.3-0.4-0.3-0.7
			c0-0.3,0.1-0.5,0.3-0.7c0.2-0.2,0.4-0.3,0.7-0.3s0.5,0.1,0.7,0.3C90.9,274.2,91,274.4,91,274.7z M90.7,285.1h-1.3v-7.9l1.3-0.2
			V285.1z"/>
		<path class="st7" d="M99.2,281.3h-5v0.2c0,0.8,0.1,1.4,0.4,1.8c0.4,0.7,1.1,1,2,1c0.8,0,1.4-0.2,2-0.8l0.5,0.8
			c-0.7,0.7-1.6,1-2.7,1c-1.2,0-2.1-0.4-2.7-1.3c-0.6-0.8-0.8-1.7-0.8-3c0-1.1,0.3-2.1,0.8-2.8c0.6-0.9,1.5-1.3,2.5-1.3
			c0.9,0,1.6,0.3,2.2,0.9c0.4,0.4,0.7,0.9,0.8,1.6c0.1,0.4,0.1,1,0.1,1.8V281.3z M97.9,280.4c0-0.8-0.1-1.3-0.3-1.7
			c-0.3-0.5-0.8-0.8-1.5-0.8c-1.2,0-1.8,0.8-1.8,2.5H97.9z"/>
		<path class="st7" d="M107.3,285.1H106v-5.4c0-0.5-0.1-0.9-0.2-1.2c-0.2-0.3-0.5-0.5-1-0.5c-0.4,0-0.8,0.1-1.2,0.4
			c-0.4,0.2-0.7,0.5-1,0.8v6h-1.2v-5.9c0-0.8-0.1-1.4-0.3-1.9l1.2-0.3c0.2,0.4,0.3,0.8,0.3,1.2c0.8-0.8,1.7-1.2,2.5-1.2
			c0.4,0,0.8,0.1,1.2,0.3c0.4,0.2,0.6,0.5,0.8,0.9c0.1,0.3,0.2,0.6,0.2,0.9V285.1z"/>
		<path class="st7" d="M121.3,285.1H120v-5.5c0-0.5-0.1-0.9-0.2-1.1c-0.2-0.3-0.5-0.4-1-0.4c-0.8,0-1.6,0.4-2.3,1.3v5.7h-1.2v-9.8
			c0-0.6-0.1-1.1-0.2-1.6l1.2-0.2c0.1,0.5,0.2,1.1,0.2,1.8v1.9c0,0.3,0,0.7,0,1.1c0.2-0.2,0.5-0.4,0.8-0.6c0.7-0.4,1.3-0.6,1.9-0.6
			c0.5,0,1,0.1,1.4,0.4c0.4,0.3,0.7,0.7,0.7,1.2c0,0.2,0,0.5,0,0.8V285.1z"/>
		<path class="st7" d="M130.3,281.3c0,1.5-0.4,2.6-1.2,3.3c-0.6,0.5-1.3,0.8-2.2,0.8c-1.2,0-2-0.4-2.6-1.3c-0.5-0.8-0.8-1.7-0.8-2.9
			c0-1.2,0.3-2.1,0.8-2.9c0.6-0.9,1.5-1.3,2.6-1.3c1.2,0,2.1,0.4,2.7,1.3C130.1,279.1,130.3,280.1,130.3,281.3z M128.9,281.4
			c0-1-0.1-1.8-0.3-2.3c-0.3-0.8-0.9-1.2-1.8-1.2c-0.8,0-1.4,0.3-1.7,0.9c-0.2,0.4-0.4,1.1-0.4,2c0,1,0.1,1.8,0.3,2.3
			c0.3,0.8,0.9,1.1,1.8,1.1C128.3,284.3,128.9,283.4,128.9,281.4z"/>
		<path class="st7" d="M137.9,284.2c-0.7,0.7-1.5,1.1-2.4,1.1c-1.1,0-2-0.4-2.6-1.2c-0.5-0.7-0.8-1.6-0.8-2.8c0-1.5,0.4-2.6,1.2-3.4
			c0.6-0.6,1.3-0.9,2.2-0.9c0.8,0,1.5,0.3,2.2,0.9l-0.7,0.9c-0.5-0.4-1-0.7-1.5-0.7c-1.3,0-2,1.2-2,3.5c0,1.8,0.7,2.8,2,2.8
			c0.7,0,1.2-0.3,1.7-0.9L137.9,284.2z"/>
		<path class="st7" d="M145.5,285.1h-1.2v-5.5c0-0.5-0.1-0.9-0.2-1.1c-0.2-0.3-0.5-0.4-1-0.4c-0.8,0-1.6,0.4-2.3,1.3v5.7h-1.2v-9.8
			c0-0.6-0.1-1.1-0.2-1.6l1.2-0.2c0.1,0.5,0.2,1.1,0.2,1.8v1.9c0,0.3,0,0.7,0,1.1c0.2-0.2,0.5-0.4,0.8-0.6c0.7-0.4,1.3-0.6,1.9-0.6
			c0.5,0,1,0.1,1.4,0.4c0.4,0.3,0.7,0.7,0.7,1.2c0,0.2,0,0.5,0,0.8V285.1z"/>
		<path class="st7" d="M150.2,285.1c-0.3,0.1-0.5,0.2-0.8,0.2c-0.9,0-1.3-0.5-1.3-1.5v-7.9c0-1-0.1-1.8-0.2-2.2l1.3-0.3
			c0.1,0.4,0.2,1.2,0.2,2.5v7.6c0,0.3,0,0.5,0,0.5c0.1,0.2,0.2,0.3,0.4,0.3c0,0,0.1,0,0.2,0L150.2,285.1z"/>
		<path class="st7" d="M158,284.5l-0.6,0.9c-0.6-0.2-0.9-0.6-1.1-1.2c-0.7,0.7-1.5,1.1-2.3,1.1c-0.8,0-1.4-0.2-1.8-0.6
			c-0.5-0.4-0.7-1-0.7-1.7c0-1,0.5-1.8,1.4-2.3c0.7-0.4,1.7-0.6,2.8-0.6c0.2,0,0.4,0,0.6,0v-0.6c0-0.6-0.1-1.1-0.3-1.2
			c-0.3-0.3-0.6-0.4-1.1-0.4c-0.9,0-1.8,0.3-2.5,0.9l-0.6-0.9c1.1-0.7,2.2-1.1,3.3-1.1c1.1,0,1.9,0.4,2.2,1.2
			c0.1,0.3,0.2,0.7,0.2,1.4v0.4l-0.1,2.6c0,0.1,0,0.2,0,0.4c0,0.4,0,0.8,0.1,0.9C157.5,284.1,157.7,284.4,158,284.5z M156.2,281.1
			c-0.4,0-0.6,0-0.6,0c-1.8,0-2.8,0.6-2.8,1.9c0,1,0.5,1.5,1.4,1.5c0.9,0,1.5-0.4,1.9-1.2L156.2,281.1z"/>
		<path class="st7" d="M166.5,285.1h-1.3c-0.1-0.2-0.1-0.5-0.2-0.8c-0.2,0.2-0.4,0.4-0.5,0.5c-0.4,0.3-0.9,0.4-1.6,0.4
			c-1.1,0-2-0.4-2.5-1.2c-0.5-0.7-0.7-1.6-0.7-2.8c0-1.7,0.5-2.9,1.6-3.7c0.5-0.3,1-0.5,1.5-0.5c0.9,0,1.6,0.3,2.1,1
			c0-0.5,0-0.9,0-1.2v-3.4l1.3,0.2v8.9c0,0.9,0,1.6,0.1,1.9C166.4,284.7,166.4,284.9,166.5,285.1z M165,283.1v-4.2
			c-0.4-0.6-1-0.8-1.9-0.8c-1.3,0-2,1-2,3.1c0,2,0.6,3,1.9,3C163.9,284.1,164.6,283.8,165,283.1z"/>
		<path class="st7" d="M174.8,281.3h-5v0.2c0,0.8,0.1,1.4,0.4,1.8c0.4,0.7,1.1,1,2,1c0.8,0,1.4-0.2,2-0.8l0.5,0.8
			c-0.7,0.7-1.6,1-2.7,1c-1.2,0-2.1-0.4-2.7-1.3c-0.6-0.8-0.8-1.7-0.8-3c0-1.1,0.3-2.1,0.8-2.8c0.6-0.9,1.5-1.3,2.5-1.3
			c0.9,0,1.6,0.3,2.2,0.9c0.4,0.4,0.7,0.9,0.8,1.6c0.1,0.4,0.1,1,0.1,1.8V281.3z M173.4,280.4c0-0.8-0.1-1.3-0.3-1.7
			c-0.3-0.5-0.8-0.8-1.5-0.8c-1.2,0-1.8,0.8-1.8,2.5H173.4z"/>
		<path class="st7" d="M182.8,285.1h-1.3v-5.4c0-0.5-0.1-0.9-0.2-1.2c-0.2-0.3-0.5-0.5-1-0.5c-0.4,0-0.8,0.1-1.2,0.4
			c-0.4,0.2-0.7,0.5-1,0.8v6H177v-5.9c0-0.8-0.1-1.4-0.3-1.9l1.2-0.3c0.2,0.4,0.3,0.8,0.3,1.2c0.8-0.8,1.7-1.2,2.5-1.2
			c0.4,0,0.8,0.1,1.2,0.3c0.4,0.2,0.6,0.5,0.8,0.9c0.1,0.3,0.2,0.6,0.2,0.9V285.1z"/>
	</g>
	<g class="st6">
		<path class="st7" d="M70,297.7c0,1.8-0.4,3.1-1.2,4.1c-0.5,0.6-1,0.9-1.6,1.1c-0.4,0.2-1.1,0.2-1.9,0.2h-2.9v-10.9h2.2
			c0.9,0,1.6,0,2,0.1c0.5,0.1,1,0.3,1.5,0.7C69.4,294,70,295.5,70,297.7z M68.6,297.8c0-2.5-0.7-3.9-2.1-4.4
			c-0.3-0.1-0.8-0.2-1.4-0.2h-1.3v8.7h1.2c0.6,0,1,0,1.3-0.1c0.7-0.1,1.2-0.5,1.6-1.1C68.4,300.1,68.6,299.1,68.6,297.8z"/>
		<path class="st7" d="M78.3,302.5l-0.6,0.9c-0.6-0.2-0.9-0.6-1.1-1.2c-0.7,0.7-1.5,1.1-2.3,1.1c-0.8,0-1.4-0.2-1.8-0.6
			c-0.5-0.4-0.7-1-0.7-1.7c0-1,0.5-1.8,1.4-2.3c0.7-0.4,1.7-0.6,2.8-0.6c0.2,0,0.4,0,0.6,0v-0.6c0-0.6-0.1-1.1-0.3-1.2
			c-0.3-0.3-0.6-0.4-1.1-0.4c-0.9,0-1.8,0.3-2.5,0.9L72,296c1.1-0.7,2.2-1.1,3.3-1.1c1.1,0,1.9,0.4,2.2,1.2c0.1,0.3,0.2,0.7,0.2,1.4
			v0.4l-0.1,2.6c0,0.1,0,0.2,0,0.4c0,0.4,0,0.8,0.1,0.9C77.8,302.1,78,302.4,78.3,302.5z M76.5,299.1c-0.4,0-0.6,0-0.6,0
			c-1.8,0-2.8,0.6-2.8,1.9c0,1,0.5,1.5,1.4,1.5c0.9,0,1.5-0.4,1.9-1.2L76.5,299.1z"/>
		<path class="st7" d="M83.8,295.1l-0.4,1h-1.7v5.1c0,0.4,0.1,0.7,0.2,0.9c0.2,0.2,0.4,0.3,0.8,0.3c0.3,0,0.6-0.1,0.8-0.2l0.2,0.8
			c-0.4,0.2-0.9,0.3-1.4,0.3c-1.2,0-1.8-0.6-1.8-1.8v-5.5h-1v-1h1V295c0-0.1,0-0.7,0.1-1.7l0-0.2l1.3-0.3c-0.1,0.9-0.2,1.6-0.2,2.3
			H83.8z"/>
		<path class="st7" d="M91.4,299.3h-5v0.2c0,0.8,0.1,1.4,0.4,1.8c0.4,0.7,1.1,1,2,1c0.8,0,1.4-0.2,2-0.8l0.5,0.8
			c-0.7,0.7-1.6,1-2.7,1c-1.2,0-2.1-0.4-2.7-1.3c-0.6-0.8-0.8-1.7-0.8-3c0-1.1,0.3-2.1,0.8-2.8c0.6-0.9,1.5-1.3,2.5-1.3
			c0.9,0,1.6,0.3,2.2,0.9c0.4,0.4,0.7,0.9,0.8,1.6c0.1,0.4,0.1,1,0.1,1.8V299.3z M90,298.4c0-0.8-0.1-1.3-0.3-1.7
			c-0.3-0.5-0.8-0.8-1.5-0.8c-1.2,0-1.8,0.8-1.8,2.5H90z"/>
		<path class="st7" d="M95.1,292.7c0,0.3-0.1,0.5-0.3,0.7c-0.2,0.2-0.4,0.3-0.7,0.3c-0.3,0-0.5-0.1-0.7-0.3
			c-0.2-0.2-0.3-0.4-0.3-0.7c0-0.3,0.1-0.5,0.3-0.7c0.2-0.2,0.4-0.3,0.7-0.3s0.5,0.1,0.7,0.3C95,292.2,95.1,292.4,95.1,292.7z
			 M94.8,303.1h-1.3v-7.9l1.3-0.2V303.1z"/>
		<path class="st7" d="M103.4,299.3h-5v0.2c0,0.8,0.1,1.4,0.4,1.8c0.4,0.7,1.1,1,2,1c0.8,0,1.4-0.2,2-0.8l0.5,0.8
			c-0.7,0.7-1.6,1-2.7,1c-1.2,0-2.1-0.4-2.7-1.3c-0.6-0.8-0.8-1.7-0.8-3c0-1.1,0.3-2.1,0.8-2.8c0.6-0.9,1.5-1.3,2.5-1.3
			c0.9,0,1.6,0.3,2.2,0.9c0.4,0.4,0.7,0.9,0.8,1.6c0.1,0.4,0.1,1,0.1,1.8V299.3z M102,298.4c0-0.8-0.1-1.3-0.3-1.7
			c-0.3-0.5-0.8-0.8-1.5-0.8c-1.2,0-1.8,0.8-1.8,2.5H102z"/>
		<path class="st7" d="M111.4,303.1h-1.3v-5.4c0-0.5-0.1-0.9-0.2-1.2c-0.2-0.3-0.5-0.5-1-0.5c-0.4,0-0.8,0.1-1.2,0.4
			c-0.4,0.2-0.7,0.5-1,0.8v6h-1.2v-5.9c0-0.8-0.1-1.4-0.3-1.9l1.2-0.3c0.2,0.4,0.3,0.8,0.3,1.2c0.8-0.8,1.7-1.2,2.5-1.2
			c0.4,0,0.8,0.1,1.2,0.3c0.4,0.2,0.6,0.5,0.8,0.9c0.1,0.3,0.2,0.6,0.2,0.9V303.1z"/>
		<path class="st7" d="M125.5,295.2l-3,8h-1.2l-2.9-8l1.3-0.3l1.9,5.5c0.2,0.4,0.3,0.9,0.4,1.4h0c0.1-0.4,0.2-0.8,0.4-1.3l1.8-5.3
			L125.5,295.2z"/>
		<path class="st7" d="M133,299.3h-5v0.2c0,0.8,0.1,1.4,0.4,1.8c0.4,0.7,1.1,1,2,1c0.8,0,1.4-0.2,2-0.8l0.5,0.8
			c-0.7,0.7-1.6,1-2.7,1c-1.2,0-2.1-0.4-2.7-1.3c-0.6-0.8-0.8-1.7-0.8-3c0-1.1,0.3-2.1,0.8-2.8c0.6-0.9,1.5-1.3,2.5-1.3
			c0.9,0,1.6,0.3,2.2,0.9c0.4,0.4,0.7,0.9,0.8,1.6c0.1,0.4,0.1,1,0.1,1.8V299.3z M131.6,298.4c0-0.8-0.1-1.3-0.3-1.7
			c-0.3-0.5-0.8-0.8-1.5-0.8c-1.2,0-1.8,0.8-1.8,2.5H131.6z"/>
		<path class="st7" d="M139.1,295l-0.5,1.3c-0.1,0-0.3,0-0.4,0c-0.3,0-0.6,0.1-1,0.3c-0.3,0.2-0.5,0.4-0.7,0.7
			c-0.1,0.2-0.1,0.5-0.1,0.9v5h-1.2V297c0-0.7-0.1-1.3-0.3-1.8l1.3-0.3c0.2,0.4,0.3,0.8,0.3,1.2v0.1c0.6-0.9,1.4-1.3,2.2-1.3
			C138.8,294.9,138.9,295,139.1,295z"/>
		<path class="st7" d="M142.4,303.1c-0.3,0.1-0.5,0.2-0.8,0.2c-0.9,0-1.3-0.5-1.3-1.5v-7.9c0-1-0.1-1.8-0.2-2.2l1.3-0.3
			c0.1,0.4,0.2,1.2,0.2,2.5v7.6c0,0.3,0,0.5,0,0.5c0.1,0.2,0.2,0.3,0.4,0.3c0,0,0.1,0,0.2,0L142.4,303.1z"/>
		<path class="st7" d="M145.9,292.7c0,0.3-0.1,0.5-0.3,0.7c-0.2,0.2-0.4,0.3-0.7,0.3c-0.3,0-0.5-0.1-0.7-0.3
			c-0.2-0.2-0.3-0.4-0.3-0.7c0-0.3,0.1-0.5,0.3-0.7c0.2-0.2,0.4-0.3,0.7-0.3s0.5,0.1,0.7,0.3C145.8,292.2,145.9,292.4,145.9,292.7z
			 M145.5,303.1h-1.3v-7.9l1.3-0.2V303.1z"/>
		<path class="st7" d="M154.1,303.1h-1.3v-5.4c0-0.5-0.1-0.9-0.2-1.2c-0.2-0.3-0.5-0.5-1-0.5c-0.4,0-0.8,0.1-1.2,0.4
			c-0.4,0.2-0.7,0.5-1,0.8v6h-1.2v-5.9c0-0.8-0.1-1.4-0.3-1.9l1.2-0.3c0.2,0.4,0.3,0.8,0.3,1.2c0.8-0.8,1.7-1.2,2.5-1.2
			c0.4,0,0.8,0.1,1.2,0.3c0.4,0.2,0.6,0.5,0.8,0.9c0.1,0.3,0.2,0.6,0.2,0.9V303.1z"/>
		<path class="st7" d="M158,303.1h-1.2V294c0-0.6,0-1.2-0.1-1.8c0-0.1-0.1-0.3-0.1-0.5l1.2-0.3c0.1,0.3,0.1,0.5,0.2,0.6
			c0.1,0.5,0.1,1,0.1,1.7V303.1z M163.4,303.1h-1.7l-3.7-4.5l3-3.4h1.6l-3.1,3.5L163.4,303.1z"/>
		<path class="st7" d="M170.7,299.3h-5v0.2c0,0.8,0.1,1.4,0.4,1.8c0.4,0.7,1.1,1,2,1c0.8,0,1.4-0.2,2-0.8l0.5,0.8
			c-0.7,0.7-1.6,1-2.7,1c-1.2,0-2.1-0.4-2.7-1.3c-0.6-0.8-0.8-1.7-0.8-3c0-1.1,0.3-2.1,0.8-2.8c0.6-0.9,1.5-1.3,2.5-1.3
			c0.9,0,1.6,0.3,2.2,0.9c0.4,0.4,0.7,0.9,0.8,1.6c0.1,0.4,0.1,1,0.1,1.8V299.3z M169.3,298.4c0-0.8-0.1-1.3-0.3-1.7
			c-0.3-0.5-0.8-0.8-1.5-0.8c-1.2,0-1.8,0.8-1.8,2.5H169.3z"/>
		<path class="st7" d="M178.7,303.1h-1.3v-5.4c0-0.5-0.1-0.9-0.2-1.2c-0.2-0.3-0.5-0.5-1-0.5c-0.4,0-0.8,0.1-1.2,0.4
			c-0.4,0.2-0.7,0.5-1,0.8v6h-1.2v-5.9c0-0.8-0.1-1.4-0.3-1.9l1.2-0.3c0.2,0.4,0.3,0.8,0.3,1.2c0.8-0.8,1.7-1.2,2.5-1.2
			c0.4,0,0.8,0.1,1.2,0.3c0.4,0.2,0.6,0.5,0.8,0.9c0.1,0.3,0.2,0.6,0.2,0.9V303.1z"/>
	</g>
	<g class="st6">
		<path class="st7" d="M77.6,237.3l-1.2-2.1c-0.5-0.9-0.9-1.5-1.3-2.1c-0.4-0.5-0.7-1-1.1-1.4c-0.1-0.1-0.3-0.2-0.4-0.3
			c-0.1-0.1-0.3-0.1-0.5-0.1v6h-2.3v-13.8h4.2c0.8,0,1.4,0.1,2,0.3c0.6,0.2,1,0.5,1.4,0.9c0.4,0.4,0.6,0.8,0.8,1.3
			c0.2,0.5,0.3,1,0.3,1.5c0,0.5-0.1,1-0.2,1.4s-0.4,0.9-0.7,1.2c-0.3,0.3-0.7,0.6-1.1,0.8c-0.4,0.2-0.9,0.3-1.4,0.3
			c0.1,0.1,0.3,0.2,0.4,0.4c0.2,0.2,0.4,0.4,0.5,0.7c0.2,0.3,0.4,0.5,0.6,0.8s0.4,0.6,0.6,0.9l2,3.3H77.6z M77.2,227.4
			c0-0.7-0.2-1.2-0.6-1.6c-0.4-0.4-1.1-0.5-2.2-0.5h-1.3v4.4h1.2c0.6,0,1.1,0,1.4-0.1c0.3-0.1,0.6-0.2,0.8-0.4
			c0.2-0.2,0.3-0.4,0.5-0.7C77.1,228.1,77.2,227.8,77.2,227.4z"/>
		<path class="st7" d="M82.7,237.3v-10.8h6.8l-0.3,1.8H85v2.5h3.5v1.8H85v2.9h4.7v1.9H82.7z"/>
		<path class="st7" d="M100.3,229.8c0,0.7-0.2,1.3-0.5,1.8s-0.7,0.9-1.2,1.1c-0.2,0.1-0.4,0.2-0.6,0.3s-0.4,0.2-0.6,0.2
			c-0.2,0-0.4,0.1-0.7,0.1c-0.2,0-0.5,0-0.8,0h-1.5v4h-2.3v-10.8h3.1c0.5,0,1,0,1.3,0c0.3,0,0.6,0.1,0.9,0.1c0.2,0,0.4,0.1,0.6,0.2
			c0.2,0.1,0.3,0.1,0.5,0.2c0.5,0.3,1,0.6,1.3,1.1C100.2,228.7,100.3,229.2,100.3,229.8z M97.9,229.9c0-0.3-0.1-0.6-0.2-0.8
			c-0.1-0.2-0.3-0.4-0.4-0.5c-0.2-0.1-0.4-0.2-0.7-0.3c-0.3-0.1-0.5-0.1-0.8-0.1h-1.3v3.3h1.5c0.6,0,1.1-0.1,1.4-0.3
			C97.7,231,97.9,230.5,97.9,229.9z"/>
		<path class="st7" d="M112.4,231.9c0,0.8-0.1,1.6-0.3,2.3c-0.2,0.7-0.5,1.3-0.9,1.8s-0.9,0.9-1.6,1.2s-1.4,0.4-2.3,0.4
			c-0.8,0-1.6-0.1-2.2-0.4c-0.6-0.3-1.2-0.6-1.6-1.1s-0.8-1.1-1-1.8s-0.3-1.4-0.3-2.2c0-1.8,0.5-3.1,1.4-4.1c0.9-1,2.2-1.5,3.8-1.5
			c0.9,0,1.6,0.1,2.2,0.4c0.6,0.3,1.2,0.7,1.6,1.2c0.4,0.5,0.8,1.1,1,1.8C112.3,230.3,112.4,231.1,112.4,231.9z M109.8,231.9
			c0-0.5,0-0.9-0.1-1.4c-0.1-0.5-0.2-0.9-0.3-1.3c-0.2-0.4-0.4-0.7-0.8-0.9c-0.4-0.2-0.8-0.3-1.4-0.3c-0.6,0-1,0.1-1.3,0.4
			c-0.3,0.2-0.6,0.5-0.8,0.9c-0.2,0.4-0.3,0.8-0.4,1.2c-0.1,0.5-0.1,0.9-0.1,1.3c0,0.5,0,1,0.1,1.5s0.2,0.9,0.4,1.3
			c0.2,0.4,0.4,0.7,0.8,0.9c0.4,0.2,0.8,0.3,1.4,0.3c0.6,0,1-0.1,1.4-0.4c0.3-0.2,0.6-0.5,0.8-0.9c0.2-0.4,0.3-0.8,0.3-1.3
			S109.8,232.4,109.8,231.9z"/>
		<path class="st7" d="M123.3,233.9c0,0.7-0.1,1.2-0.4,1.7s-0.7,0.8-1.1,1.1c-0.5,0.3-1,0.5-1.6,0.6c-0.6,0.1-1.1,0.2-1.7,0.2
			c-0.7,0-1.4-0.1-2-0.2c-0.7-0.2-1.3-0.4-2-0.7l0.8-1.7c0.6,0.3,1.1,0.5,1.6,0.6c0.5,0.1,1.1,0.2,1.7,0.2c0.2,0,0.5,0,0.7-0.1
			c0.3,0,0.5-0.1,0.7-0.2c0.2-0.1,0.4-0.2,0.5-0.4c0.1-0.2,0.2-0.4,0.2-0.7c0-0.3-0.1-0.6-0.4-0.9c-0.3-0.2-0.7-0.4-1.3-0.6
			l-1.4-0.4c-0.8-0.2-1.4-0.5-1.9-1c-0.5-0.5-0.8-1.2-0.8-2c0-0.5,0.1-0.9,0.3-1.3c0.2-0.4,0.5-0.8,0.9-1c0.4-0.3,0.8-0.5,1.3-0.7
			c0.5-0.2,1.1-0.2,1.7-0.2c0.7,0,1.4,0.1,2.2,0.3c0.7,0.2,1.3,0.5,1.8,0.8l-1.1,1.6c-1-0.6-1.9-0.8-2.9-0.8c-0.5,0-1,0.1-1.3,0.3
			c-0.3,0.2-0.5,0.5-0.5,0.9c0,0.3,0.1,0.6,0.3,0.7c0.2,0.2,0.6,0.3,1.1,0.5l1.4,0.4c0.4,0.1,0.8,0.2,1.2,0.4c0.4,0.2,0.7,0.4,1,0.6
			c0.3,0.2,0.5,0.5,0.6,0.9S123.3,233.5,123.3,233.9z"/>
		<path class="st7" d="M126.2,237.3v-10.8h2.3v10.8H126.2z"/>
		<path class="st7" d="M138.8,228.3h-2.9v9h-2.3v-9h-3v-1.8h8.6L138.8,228.3z"/>
		<path class="st7" d="M150.8,231.9c0,0.8-0.1,1.6-0.3,2.3c-0.2,0.7-0.5,1.3-0.9,1.8s-0.9,0.9-1.6,1.2s-1.4,0.4-2.3,0.4
			c-0.8,0-1.6-0.1-2.2-0.4c-0.6-0.3-1.2-0.6-1.6-1.1s-0.8-1.1-1-1.8s-0.3-1.4-0.3-2.2c0-1.8,0.5-3.1,1.4-4.1c0.9-1,2.2-1.5,3.8-1.5
			c0.9,0,1.6,0.1,2.2,0.4c0.6,0.3,1.2,0.7,1.6,1.2c0.4,0.5,0.8,1.1,1,1.8C150.7,230.3,150.8,231.1,150.8,231.9z M148.2,231.9
			c0-0.5,0-0.9-0.1-1.4c-0.1-0.5-0.2-0.9-0.3-1.3c-0.2-0.4-0.4-0.7-0.8-0.9c-0.4-0.2-0.8-0.3-1.4-0.3c-0.6,0-1,0.1-1.3,0.4
			c-0.3,0.2-0.6,0.5-0.8,0.9c-0.2,0.4-0.3,0.8-0.4,1.2c-0.1,0.5-0.1,0.9-0.1,1.3c0,0.5,0,1,0.1,1.5s0.2,0.9,0.4,1.3
			c0.2,0.4,0.4,0.7,0.8,0.9c0.4,0.2,0.8,0.3,1.4,0.3c0.6,0,1-0.1,1.4-0.4c0.3-0.2,0.6-0.5,0.8-0.9c0.2-0.4,0.3-0.8,0.3-1.3
			S148.2,232.4,148.2,231.9z"/>
		<path class="st7" d="M159.7,237.3l-1.1-1.7c-0.3-0.4-0.5-0.8-0.7-1.1c-0.2-0.3-0.3-0.5-0.5-0.7c-0.1-0.2-0.2-0.3-0.3-0.4
			c-0.1-0.1-0.2-0.2-0.3-0.3s-0.2-0.1-0.3-0.2c-0.1,0-0.3-0.1-0.4-0.1v4.5h-2.2v-10.8h3.6c0.7,0,1.3,0.1,1.8,0.2
			c0.5,0.1,0.9,0.3,1.3,0.6c0.7,0.6,1.1,1.4,1.1,2.4c0,0.4-0.1,0.8-0.2,1.2c-0.1,0.4-0.3,0.7-0.5,0.9c-0.2,0.3-0.5,0.5-0.8,0.6
			c-0.3,0.2-0.7,0.3-1.1,0.3c0.1,0.1,0.3,0.3,0.5,0.5c0.2,0.2,0.4,0.5,0.6,0.9c0.3,0.3,0.5,0.7,0.8,1.1l1.5,2.2H159.7z M159.3,229.7
			c0-0.3-0.1-0.6-0.2-0.8s-0.3-0.3-0.5-0.5c-0.2-0.1-0.5-0.2-0.7-0.2c-0.3,0-0.5,0-0.8,0H156v3h1c0.3,0,0.6,0,0.8,0
			c0.3,0,0.5-0.1,0.8-0.2s0.4-0.2,0.5-0.5S159.3,230,159.3,229.7z"/>
		<path class="st7" d="M168.5,232.9v4.4h-2.3v-4.4l-3.8-6.4h2.7l1.7,3.3c0.1,0.1,0.1,0.2,0.2,0.4c0.1,0.2,0.1,0.3,0.2,0.5
			s0.1,0.3,0.2,0.4s0.1,0.2,0.1,0.2c0,0,0-0.1,0.1-0.2c0-0.1,0.1-0.2,0.1-0.4c0.1-0.2,0.1-0.3,0.2-0.5c0.1-0.2,0.1-0.3,0.2-0.5
			l1.7-3.2h2.7L168.5,232.9z"/>
	</g>
	<g class="st6">
		<path class="st7" d="M99.2,248.6v1.4c-0.4-0.2-0.8-0.4-1.2-0.5c-0.4-0.1-0.8-0.2-1.3-0.2c-0.7,0-1.1,0.1-1.5,0.3s-0.5,0.5-0.5,1
			c0,0.4,0.1,0.7,0.4,0.9c0.2,0.2,0.8,0.4,1.8,0.6l0.6,0.1c0.7,0.1,1.3,0.4,1.6,0.8s0.6,0.9,0.6,1.6c0,0.9-0.3,1.5-0.9,2
			c-0.6,0.5-1.5,0.7-2.6,0.7c-0.4,0-0.9,0-1.4-0.1c-0.5-0.1-1-0.2-1.5-0.4v-1.5c0.5,0.3,1,0.5,1.5,0.6c0.5,0.1,1,0.2,1.4,0.2
			c0.6,0,1.1-0.1,1.5-0.4c0.3-0.3,0.5-0.6,0.5-1.1c0-0.7-0.6-1.1-1.9-1.4l-0.1,0l-0.5-0.1c-0.8-0.2-1.4-0.4-1.8-0.8
			c-0.4-0.4-0.6-0.9-0.6-1.6c0-0.8,0.3-1.5,0.9-1.9c0.6-0.5,1.4-0.7,2.4-0.7c0.5,0,0.9,0,1.4,0.1C98.4,248.3,98.8,248.5,99.2,248.6z
			"/>
		<path class="st7" d="M109.5,256.6c-0.4,0.2-0.8,0.4-1.2,0.5c-0.4,0.1-0.8,0.2-1.3,0.2c-1.4,0-2.4-0.4-3.2-1.2
			c-0.8-0.8-1.1-1.9-1.1-3.4s0.4-2.6,1.1-3.4c0.8-0.8,1.8-1.2,3.2-1.2c0.4,0,0.8,0.1,1.2,0.2c0.4,0.1,0.8,0.3,1.2,0.5v1.5
			c-0.4-0.3-0.8-0.6-1.1-0.7s-0.8-0.2-1.3-0.2c-0.9,0-1.6,0.3-2.1,0.9s-0.7,1.4-0.7,2.5c0,1.1,0.2,1.9,0.7,2.5
			c0.5,0.6,1.2,0.9,2.1,0.9c0.5,0,0.9-0.1,1.3-0.2c0.4-0.2,0.8-0.4,1.1-0.7V256.6z"/>
		<path class="st7" d="M113.4,248.4h3.7v7.6h2.9v1.1h-7.1V256h2.9v-6.5h-2.2V248.4z M115.6,245h1.4v1.8h-1.4V245z"/>
		<path class="st7" d="M129.3,252v0.7H123v0c0,1.2,0.2,2,0.7,2.6c0.5,0.5,1.2,0.8,2.1,0.8c0.5,0,0.9-0.1,1.4-0.2s1-0.4,1.6-0.7v1.4
			c-0.5,0.2-1.1,0.4-1.6,0.5s-1,0.2-1.5,0.2c-1.4,0-2.4-0.4-3.2-1.2s-1.1-1.9-1.1-3.4c0-1.4,0.4-2.5,1.1-3.3s1.8-1.2,3-1.2
			c1.1,0,2,0.4,2.6,1.1C128.9,250,129.2,250.9,129.3,252z M127.8,251.6c-0.1-0.6-0.3-1.1-0.7-1.6c-0.4-0.4-0.9-0.7-1.6-0.7
			c-0.7,0-1.3,0.2-1.7,0.7c-0.4,0.5-0.7,1-0.7,1.5L127.8,251.6z"/>
		<path class="st7" d="M133.1,249.4c0.2-0.4,0.5-0.8,0.9-1c0.4-0.2,0.9-0.3,1.4-0.3c1.1,0,1.9,0.4,2.5,1.2c0.6,0.8,0.9,1.9,0.9,3.3
			c0,1.4-0.3,2.6-0.9,3.4c-0.6,0.8-1.4,1.2-2.5,1.2c-0.5,0-1-0.1-1.4-0.3s-0.7-0.6-1-1v1.1h-1.4v-12.2h1.4V249.4z M137.3,252.7
			c0-1.1-0.2-2-0.5-2.5c-0.4-0.6-0.9-0.9-1.6-0.9c-0.7,0-1.2,0.3-1.6,0.9s-0.5,1.4-0.5,2.5c0,1.1,0.2,1.9,0.5,2.5s0.9,0.9,1.6,0.9
			c0.7,0,1.2-0.3,1.6-0.9C137.2,254.7,137.3,253.8,137.3,252.7z"/>
		<path class="st7" d="M144.6,248.1c1.2,0,2.1,0.4,2.8,1.2c0.6,0.8,1,1.9,1,3.4c0,1.5-0.3,2.6-1,3.4s-1.6,1.2-2.8,1.2
			c-1.2,0-2.1-0.4-2.8-1.2s-1-1.9-1-3.4c0-1.5,0.3-2.6,1-3.4S143.4,248.1,144.6,248.1z M144.6,249.3c-0.7,0-1.3,0.3-1.7,0.9
			s-0.6,1.4-0.6,2.5c0,1.1,0.2,1.9,0.6,2.5s0.9,0.9,1.7,0.9c0.7,0,1.3-0.3,1.7-0.9s0.6-1.4,0.6-2.5c0-1.1-0.2-2-0.6-2.5
			S145.3,249.3,144.6,249.3z"/>
	</g>
	<rect x="307.1" y="213.3" class="st4" width="222" height="97.8"/>
	<rect x="307.1" y="213.3" class="st5" width="222" height="97.8"/>
	<g class="st6">
		<path class="st7" d="M346.7,279.8c0,2-0.5,3.5-1.6,4.5c-0.8,0.7-1.7,1.1-2.8,1.1c-1.5,0-2.7-0.6-3.4-1.8c-0.7-1-1-2.3-1-3.9
			c0-1.6,0.3-2.9,1-3.9c0.8-1.2,1.9-1.8,3.4-1.8c1.6,0,2.7,0.6,3.5,1.9C346.4,276.8,346.7,278.1,346.7,279.8z M345.3,280
			c0-1.6-0.2-2.7-0.5-3.5c-0.5-1-1.3-1.5-2.4-1.5c-1.1,0-1.9,0.4-2.4,1.3c-0.4,0.7-0.6,1.7-0.6,3c0,1.7,0.2,3,0.7,3.8
			c0.2,0.4,0.6,0.6,1,0.9c0.4,0.2,0.9,0.3,1.3,0.3C344.3,284.3,345.3,282.9,345.3,280z"/>
		<path class="st7" d="M352.9,277l-0.5,1.3c-0.1,0-0.3,0-0.4,0c-0.3,0-0.6,0.1-1,0.3c-0.3,0.2-0.5,0.4-0.7,0.7
			c-0.1,0.2-0.1,0.5-0.1,0.9v5H349V279c0-0.7-0.1-1.3-0.3-1.8l1.3-0.3c0.2,0.4,0.3,0.8,0.3,1.2v0.1c0.6-0.9,1.4-1.3,2.2-1.3
			C352.6,276.9,352.7,277,352.9,277z"/>
		<path class="st7" d="M360.5,285.1h-1.3c-0.1-0.2-0.1-0.5-0.2-0.8c-0.2,0.2-0.4,0.4-0.5,0.5c-0.4,0.3-1,0.4-1.6,0.4
			c-1.1,0-2-0.4-2.5-1.2c-0.5-0.7-0.7-1.6-0.7-2.8c0-1.7,0.5-2.9,1.6-3.7c0.5-0.3,1-0.5,1.5-0.5c0.9,0,1.6,0.3,2.1,1
			c0-0.5,0-0.9,0-1.2v-3.4l1.3,0.2v8.9c0,0.9,0,1.6,0.1,1.9C360.4,284.7,360.4,284.9,360.5,285.1z M359,283.1v-4.2
			c-0.4-0.6-1-0.8-1.9-0.8c-1.3,0-2,1-2,3.1c0,2,0.6,3,1.9,3C357.9,284.1,358.6,283.8,359,283.1z"/>
		<path class="st7" d="M368.8,285.1h-1.3v-5.4c0-0.5-0.1-0.9-0.2-1.2c-0.2-0.3-0.5-0.5-1-0.5c-0.4,0-0.8,0.1-1.2,0.4
			c-0.4,0.2-0.7,0.5-1,0.8v6H363v-5.9c0-0.8-0.1-1.4-0.3-1.9l1.2-0.3c0.2,0.4,0.3,0.8,0.3,1.2c0.8-0.8,1.7-1.2,2.5-1.2
			c0.4,0,0.8,0.1,1.2,0.3c0.4,0.2,0.6,0.5,0.8,0.9c0.1,0.3,0.2,0.6,0.2,0.9V285.1z"/>
		<path class="st7" d="M377.4,281.3h-5v0.2c0,0.8,0.1,1.4,0.4,1.8c0.4,0.7,1.1,1,2,1c0.8,0,1.4-0.2,2-0.8l0.5,0.8
			c-0.7,0.7-1.6,1-2.7,1c-1.2,0-2.1-0.4-2.7-1.3c-0.6-0.8-0.8-1.7-0.8-3c0-1.1,0.3-2.1,0.8-2.8c0.6-0.9,1.5-1.3,2.5-1.3
			c0.9,0,1.6,0.3,2.2,0.9c0.4,0.4,0.7,0.9,0.8,1.6c0.1,0.4,0.1,1,0.1,1.8V281.3z M376,280.4c0-0.8-0.1-1.3-0.3-1.7
			c-0.3-0.5-0.8-0.8-1.5-0.8c-1.2,0-1.8,0.8-1.8,2.5H376z"/>
		<path class="st7" d="M383.4,277l-0.5,1.3c-0.1,0-0.3,0-0.4,0c-0.3,0-0.6,0.1-1,0.3c-0.3,0.2-0.5,0.4-0.7,0.7
			c-0.1,0.2-0.1,0.5-0.1,0.9v5h-1.2V279c0-0.7-0.1-1.3-0.3-1.8l1.3-0.3c0.2,0.4,0.3,0.8,0.3,1.2v0.1c0.6-0.9,1.4-1.3,2.2-1.3
			C383.1,276.9,383.3,277,383.4,277z"/>
		<path class="st7" d="M394.3,274l-0.5,0.9c-0.4-0.2-0.8-0.4-1.2-0.4c-0.7,0-1.1,0.5-1.1,1.4v1.3h2.2l-0.4,0.9h-1.8v7h-1.3v-7h-0.8
			v-0.9h0.8v-1.3c0-0.9,0.3-1.5,0.9-2c0.4-0.3,0.8-0.4,1.4-0.4C393.2,273.5,393.8,273.7,394.3,274z"/>
		<path class="st7" d="M401.1,284.6l-0.8,0.8c-0.5-0.4-0.8-0.8-0.9-1.3c-0.6,0.8-1.5,1.2-2.5,1.2c-1.5,0-2.3-0.8-2.3-2.3v-5.9
			l1.2-0.2v5.7c0,1.1,0.5,1.6,1.5,1.6c0.4,0,0.8-0.1,1.2-0.4c0.4-0.3,0.6-0.6,0.8-1v-5.7l1.2-0.2v5.7c0,0.7,0.1,1.2,0.2,1.5
			C400.8,284.3,400.9,284.4,401.1,284.6z M396.7,275.2c0,0.2-0.1,0.4-0.2,0.6c-0.2,0.2-0.3,0.2-0.6,0.2c-0.2,0-0.4-0.1-0.6-0.2
			s-0.2-0.4-0.2-0.6c0-0.2,0.1-0.4,0.2-0.6s0.4-0.2,0.6-0.2c0.2,0,0.4,0.1,0.6,0.2C396.6,274.7,396.7,274.9,396.7,275.2z M400,275.2
			c0,0.2-0.1,0.4-0.2,0.6s-0.3,0.2-0.6,0.2c-0.2,0-0.4-0.1-0.6-0.2c-0.2-0.2-0.2-0.4-0.2-0.6c0-0.2,0.1-0.4,0.2-0.6
			c0.2-0.2,0.4-0.2,0.6-0.2c0.2,0,0.4,0.1,0.6,0.2C399.9,274.8,400,274.9,400,275.2z"/>
		<path class="st7" d="M407.1,277l-0.5,1.3c-0.1,0-0.3,0-0.4,0c-0.3,0-0.6,0.1-1,0.3c-0.3,0.2-0.5,0.4-0.7,0.7
			c-0.1,0.2-0.1,0.5-0.1,0.9v5h-1.2V279c0-0.7-0.1-1.3-0.3-1.8l1.3-0.3c0.2,0.4,0.3,0.8,0.3,1.2v0.1c0.6-0.9,1.4-1.3,2.2-1.3
			C406.8,276.9,406.9,277,407.1,277z"/>
		<path class="st7" d="M421,284.5c-0.9,0.6-1.9,0.8-3.1,0.8c-1.6,0-2.8-0.6-3.6-1.7c-0.7-1-1.1-2.3-1.1-4c0-2.1,0.6-3.6,1.7-4.6
			c0.8-0.7,1.7-1,2.9-1c1.2,0,2.2,0.4,3,1.1l-0.6,0.8c-0.8-0.6-1.6-0.8-2.4-0.8c-1.4,0-2.3,0.6-2.7,1.9c-0.3,0.8-0.4,1.7-0.4,2.8
			c0,1.5,0.3,2.6,0.8,3.3c0.3,0.4,0.7,0.7,1.2,0.9c0.5,0.2,1,0.3,1.5,0.3c0.7,0,1.3-0.1,1.7-0.4v-3.4h-2.2l-0.3-1.1h3.7V284.5z"/>
		<path class="st7" d="M427.3,277l-0.5,1.3c-0.1,0-0.3,0-0.4,0c-0.3,0-0.6,0.1-1,0.3c-0.3,0.2-0.5,0.4-0.7,0.7
			c-0.1,0.2-0.1,0.5-0.1,0.9v5h-1.2V279c0-0.7-0.1-1.3-0.3-1.8l1.3-0.3c0.2,0.4,0.3,0.8,0.3,1.2v0.1c0.6-0.9,1.4-1.3,2.2-1.3
			C427,276.9,427.1,277,427.3,277z"/>
		<path class="st7" d="M435,284.6l-0.8,0.8c-0.5-0.4-0.8-0.8-0.9-1.3c-0.6,0.8-1.5,1.2-2.5,1.2c-1.5,0-2.3-0.8-2.3-2.3v-5.9l1.2-0.2
			v5.7c0,1.1,0.5,1.6,1.5,1.6c0.4,0,0.8-0.1,1.2-0.4c0.4-0.3,0.6-0.6,0.8-1v-5.7l1.2-0.2v5.7c0,0.7,0.1,1.2,0.2,1.5
			C434.7,284.3,434.8,284.4,435,284.6z"/>
		<path class="st7" d="M443.6,281.1c0,1.1-0.2,2.1-0.6,2.7c-0.6,1-1.4,1.5-2.5,1.5c-0.9,0-1.6-0.3-2.2-0.9v3.8l-1.2,0.2v-9.4
			c0-0.9-0.1-1.5-0.2-1.9l1.3-0.2c0.1,0.3,0.1,0.6,0.1,1v0.2c0.7-0.8,1.4-1.2,2.4-1.2c1.1,0,1.8,0.4,2.4,1.3
			C443.3,279.1,443.6,280,443.6,281.1z M442.2,281.3c0-0.9-0.1-1.6-0.3-2.1c-0.3-0.7-0.8-1.1-1.6-1.1c-0.8,0-1.5,0.4-2.1,1.1v4
			c0.6,0.7,1.3,1,2,1C441.6,284.3,442.2,283.3,442.2,281.3z"/>
		<path class="st7" d="M452.4,281.1c0,1.1-0.2,2.1-0.6,2.7c-0.6,1-1.4,1.5-2.5,1.5c-0.9,0-1.6-0.3-2.2-0.9v3.8l-1.2,0.2v-9.4
			c0-0.9-0.1-1.5-0.2-1.9l1.3-0.2c0.1,0.3,0.1,0.6,0.1,1v0.2c0.7-0.8,1.4-1.2,2.4-1.2c1.1,0,1.8,0.4,2.4,1.3
			C452.2,279.1,452.4,280,452.4,281.1z M451.1,281.3c0-0.9-0.1-1.6-0.3-2.1c-0.3-0.7-0.8-1.1-1.6-1.1c-0.8,0-1.5,0.4-2.1,1.1v4
			c0.6,0.7,1.3,1,2,1C450.4,284.3,451.1,283.3,451.1,281.3z"/>
		<path class="st7" d="M460.6,281.3h-5v0.2c0,0.8,0.1,1.4,0.4,1.8c0.4,0.7,1.1,1,2,1c0.8,0,1.4-0.2,2-0.8l0.5,0.8
			c-0.7,0.7-1.6,1-2.7,1c-1.2,0-2.1-0.4-2.7-1.3c-0.6-0.8-0.8-1.7-0.8-3c0-1.1,0.3-2.1,0.8-2.8c0.6-0.9,1.5-1.3,2.5-1.3
			c0.9,0,1.6,0.3,2.2,0.9c0.4,0.4,0.7,0.9,0.8,1.6c0.1,0.4,0.1,1,0.1,1.8V281.3z M459.3,280.4c0-0.8-0.1-1.3-0.3-1.7
			c-0.3-0.5-0.8-0.8-1.5-0.8c-1.2,0-1.8,0.8-1.8,2.5H459.3z"/>
		<path class="st7" d="M468.6,285.1h-1.3v-5.4c0-0.5-0.1-0.9-0.2-1.2c-0.2-0.3-0.5-0.5-1-0.5c-0.4,0-0.8,0.1-1.2,0.4
			c-0.4,0.2-0.7,0.5-1,0.8v6h-1.2v-5.9c0-0.8-0.1-1.4-0.3-1.9l1.2-0.3c0.2,0.4,0.3,0.8,0.3,1.2c0.8-0.8,1.7-1.2,2.5-1.2
			c0.4,0,0.8,0.1,1.2,0.3c0.4,0.2,0.6,0.5,0.8,0.9c0.1,0.3,0.2,0.6,0.2,0.9V285.1z"/>
		<path class="st7" d="M482.7,277.2l-3,8h-1.2l-2.9-8l1.3-0.3l1.9,5.5c0.2,0.4,0.3,0.9,0.4,1.4h0c0.1-0.4,0.2-0.8,0.4-1.3l1.8-5.3
			L482.7,277.2z"/>
		<path class="st7" d="M490.8,281.3c0,1.5-0.4,2.6-1.2,3.3c-0.6,0.5-1.3,0.8-2.2,0.8c-1.2,0-2-0.4-2.6-1.3c-0.5-0.8-0.8-1.7-0.8-2.9
			c0-1.2,0.3-2.1,0.8-2.9c0.6-0.9,1.5-1.3,2.6-1.3c1.2,0,2.1,0.4,2.7,1.3C490.6,279.1,490.8,280.1,490.8,281.3z M489.4,281.4
			c0-1-0.1-1.8-0.3-2.3c-0.3-0.8-0.9-1.2-1.8-1.2c-0.8,0-1.4,0.3-1.7,0.9c-0.2,0.4-0.4,1.1-0.4,2c0,1,0.1,1.8,0.3,2.3
			c0.3,0.8,0.9,1.1,1.8,1.1C488.8,284.3,489.4,283.4,489.4,281.4z"/>
		<path class="st7" d="M499,285.1h-1.3v-5.4c0-0.5-0.1-0.9-0.2-1.2c-0.2-0.3-0.5-0.5-1-0.5c-0.4,0-0.8,0.1-1.2,0.4
			c-0.4,0.2-0.7,0.5-1,0.8v6h-1.2v-5.9c0-0.8-0.1-1.4-0.3-1.9l1.2-0.3c0.2,0.4,0.3,0.8,0.3,1.2c0.8-0.8,1.7-1.2,2.5-1.2
			c0.4,0,0.8,0.1,1.2,0.3c0.4,0.2,0.6,0.5,0.8,0.9c0.1,0.3,0.2,0.6,0.2,0.9V285.1z"/>
	</g>
	<g class="st6">
		<path class="st7" d="M349.8,300c0,1.1-0.5,2-1.5,2.6c-0.7,0.4-1.5,0.7-2.5,0.7c-1.3,0-2.5-0.3-3.5-1l0.6-1
			c0.9,0.6,1.9,0.9,2.9,0.9c0.7,0,1.3-0.2,1.7-0.5c0.5-0.4,0.8-0.9,0.8-1.6c0-1-0.7-1.7-2-2l-1.1-0.3c-1-0.3-1.6-0.6-2-1
			c-0.5-0.5-0.7-1.1-0.7-1.8c0-1,0.4-1.8,1.1-2.4c0.7-0.5,1.5-0.8,2.5-0.8c1.2,0,2.3,0.4,3.3,1.1l-0.6,0.9c-1-0.6-1.8-0.9-2.7-0.9
			c-0.6,0-1.1,0.1-1.5,0.4c-0.4,0.3-0.7,0.8-0.7,1.4c0,0.8,0.6,1.4,1.8,1.8l1.3,0.4C348.9,297.5,349.8,298.5,349.8,300z"/>
		<path class="st7" d="M355.4,295.1l-0.4,1h-1.7v5.1c0,0.4,0.1,0.7,0.2,0.9c0.2,0.2,0.4,0.3,0.8,0.3c0.3,0,0.6-0.1,0.8-0.2l0.2,0.8
			c-0.4,0.2-0.9,0.3-1.4,0.3c-1.2,0-1.8-0.6-1.8-1.8v-5.5h-1v-1h1V295c0-0.1,0-0.7,0.1-1.7l0-0.2l1.3-0.3c-0.1,0.9-0.2,1.6-0.2,2.3
			H355.4z"/>
		<path class="st7" d="M363.6,302.6l-0.8,0.8c-0.5-0.4-0.8-0.8-0.9-1.3c-0.6,0.8-1.5,1.2-2.5,1.2c-1.5,0-2.3-0.8-2.3-2.3v-5.9
			l1.2-0.2v5.7c0,1.1,0.5,1.6,1.5,1.6c0.4,0,0.8-0.1,1.2-0.4c0.4-0.3,0.6-0.6,0.8-1v-5.7l1.2-0.2v5.7c0,0.7,0.1,1.2,0.2,1.5
			C363.3,302.3,363.5,302.4,363.6,302.6z"/>
		<path class="st7" d="M372.1,303.1h-1.3c-0.1-0.2-0.1-0.5-0.2-0.8c-0.2,0.2-0.4,0.4-0.5,0.5c-0.4,0.3-1,0.4-1.6,0.4
			c-1.1,0-2-0.4-2.5-1.2c-0.5-0.7-0.7-1.6-0.7-2.8c0-1.7,0.5-2.9,1.6-3.7c0.5-0.3,1-0.5,1.5-0.5c0.9,0,1.6,0.3,2.1,1
			c0-0.5,0-0.9,0-1.2v-3.4l1.3,0.2v8.9c0,0.9,0,1.6,0.1,1.9C372,302.7,372.1,302.9,372.1,303.1z M370.6,301.1v-4.2
			c-0.4-0.6-1-0.8-1.9-0.8c-1.3,0-2,1-2,3.1c0,2,0.6,3,1.9,3C369.6,302.1,370.2,301.8,370.6,301.1z"/>
		<path class="st7" d="M376.2,292.7c0,0.3-0.1,0.5-0.3,0.7c-0.2,0.2-0.4,0.3-0.7,0.3c-0.3,0-0.5-0.1-0.7-0.3
			c-0.2-0.2-0.3-0.4-0.3-0.7c0-0.3,0.1-0.5,0.3-0.7c0.2-0.2,0.4-0.3,0.7-0.3s0.5,0.1,0.7,0.3C376.1,292.2,376.2,292.4,376.2,292.7z
			 M375.8,303.1h-1.3v-7.9l1.3-0.2V303.1z"/>
		<path class="st7" d="M384.4,299.3h-5v0.2c0,0.8,0.1,1.4,0.4,1.8c0.4,0.7,1.1,1,2,1c0.8,0,1.4-0.2,2-0.8l0.5,0.8
			c-0.7,0.7-1.6,1-2.7,1c-1.2,0-2.1-0.4-2.7-1.3c-0.6-0.8-0.8-1.7-0.8-3c0-1.1,0.3-2.1,0.8-2.8c0.6-0.9,1.5-1.3,2.5-1.3
			c0.9,0,1.6,0.3,2.2,0.9c0.4,0.4,0.7,0.9,0.8,1.6c0.1,0.4,0.1,1,0.1,1.8V299.3z M383.1,298.4c0-0.8-0.1-1.3-0.3-1.7
			c-0.3-0.5-0.8-0.8-1.5-0.8c-1.2,0-1.8,0.8-1.8,2.5H383.1z"/>
		<path class="st7" d="M390.5,295l-0.5,1.3c-0.1,0-0.3,0-0.4,0c-0.3,0-0.6,0.1-1,0.3c-0.3,0.2-0.5,0.4-0.7,0.7
			c-0.1,0.2-0.1,0.5-0.1,0.9v5h-1.2V297c0-0.7-0.1-1.3-0.3-1.8l1.3-0.3c0.2,0.4,0.3,0.8,0.3,1.2v0.1c0.6-0.9,1.4-1.3,2.2-1.3
			C390.2,294.9,390.3,295,390.5,295z"/>
		<path class="st7" d="M397.5,299.3h-5v0.2c0,0.8,0.1,1.4,0.4,1.8c0.4,0.7,1.1,1,2,1c0.8,0,1.4-0.2,2-0.8l0.5,0.8
			c-0.7,0.7-1.6,1-2.7,1c-1.2,0-2.1-0.4-2.7-1.3c-0.6-0.8-0.8-1.7-0.8-3c0-1.1,0.3-2.1,0.8-2.8c0.6-0.9,1.5-1.3,2.5-1.3
			c0.9,0,1.6,0.3,2.2,0.9c0.4,0.4,0.7,0.9,0.8,1.6c0.1,0.4,0.1,1,0.1,1.8V299.3z M396.2,298.4c0-0.8-0.1-1.3-0.3-1.7
			c-0.3-0.5-0.8-0.8-1.5-0.8c-1.2,0-1.8,0.8-1.8,2.5H396.2z"/>
		<path class="st7" d="M405.6,303.1h-1.3v-5.4c0-0.5-0.1-0.9-0.2-1.2c-0.2-0.3-0.5-0.5-1-0.5c-0.4,0-0.8,0.1-1.2,0.4
			c-0.4,0.2-0.7,0.5-1,0.8v6h-1.2v-5.9c0-0.8-0.1-1.4-0.3-1.9l1.2-0.3c0.2,0.4,0.3,0.8,0.3,1.2c0.8-0.8,1.7-1.2,2.5-1.2
			c0.4,0,0.8,0.1,1.2,0.3c0.4,0.2,0.6,0.5,0.8,0.9c0.1,0.3,0.2,0.6,0.2,0.9V303.1z"/>
		<path class="st7" d="M414.7,303.1h-1.3c-0.1-0.2-0.1-0.5-0.2-0.8c-0.2,0.2-0.4,0.4-0.5,0.5c-0.4,0.3-0.9,0.4-1.6,0.4
			c-1.1,0-2-0.4-2.5-1.2c-0.5-0.7-0.7-1.6-0.7-2.8c0-1.7,0.5-2.9,1.6-3.7c0.5-0.3,1-0.5,1.5-0.5c0.9,0,1.6,0.3,2.1,1
			c0-0.5,0-0.9,0-1.2v-3.4l1.3,0.2v8.9c0,0.9,0,1.6,0.1,1.9C414.6,302.7,414.6,302.9,414.7,303.1z M413.2,301.1v-4.2
			c-0.4-0.6-1-0.8-1.9-0.8c-1.3,0-2,1-2,3.1c0,2,0.6,3,1.9,3C412.1,302.1,412.8,301.8,413.2,301.1z"/>
		<path class="st7" d="M423,299.3h-5v0.2c0,0.8,0.1,1.4,0.4,1.8c0.4,0.7,1.1,1,2,1c0.8,0,1.4-0.2,2-0.8l0.5,0.8
			c-0.7,0.7-1.6,1-2.7,1c-1.2,0-2.1-0.4-2.7-1.3c-0.6-0.8-0.8-1.7-0.8-3c0-1.1,0.3-2.1,0.8-2.8c0.6-0.9,1.5-1.3,2.5-1.3
			c0.9,0,1.6,0.3,2.2,0.9c0.4,0.4,0.7,0.9,0.8,1.6c0.1,0.4,0.1,1,0.1,1.8V299.3z M421.6,298.4c0-0.8-0.1-1.3-0.3-1.7
			c-0.3-0.5-0.8-0.8-1.5-0.8c-1.2,0-1.8,0.8-1.8,2.5H421.6z"/>
		<path class="st7" d="M431,303.1h-1.3v-5.4c0-0.5-0.1-0.9-0.2-1.2c-0.2-0.3-0.5-0.5-1-0.5c-0.4,0-0.8,0.1-1.2,0.4
			c-0.4,0.2-0.7,0.5-1,0.8v6h-1.2v-5.9c0-0.8-0.1-1.4-0.3-1.9l1.2-0.3c0.2,0.4,0.3,0.8,0.3,1.2c0.8-0.8,1.7-1.2,2.5-1.2
			c0.4,0,0.8,0.1,1.2,0.3c0.4,0.2,0.6,0.5,0.8,0.9c0.1,0.3,0.2,0.6,0.2,0.9V303.1z"/>
		<path class="st7" d="M444.9,299.3h-5v0.2c0,0.8,0.1,1.4,0.4,1.8c0.4,0.7,1.1,1,2,1c0.8,0,1.4-0.2,2-0.8l0.5,0.8
			c-0.7,0.7-1.6,1-2.7,1c-1.2,0-2.1-0.4-2.7-1.3c-0.6-0.8-0.8-1.7-0.8-3c0-1.1,0.3-2.1,0.8-2.8c0.6-0.9,1.5-1.3,2.5-1.3
			c0.9,0,1.6,0.3,2.2,0.9c0.4,0.4,0.7,0.9,0.8,1.6c0.1,0.4,0.1,1,0.1,1.8V299.3z M443.5,298.4c0-0.8-0.1-1.3-0.3-1.7
			c-0.3-0.5-0.8-0.8-1.5-0.8c-1.2,0-1.8,0.8-1.8,2.5H443.5z"/>
		<path class="st7" d="M451,295l-0.5,1.3c-0.1,0-0.3,0-0.4,0c-0.3,0-0.6,0.1-1,0.3c-0.3,0.2-0.5,0.4-0.7,0.7
			c-0.1,0.2-0.1,0.5-0.1,0.9v5h-1.2V297c0-0.7-0.1-1.3-0.3-1.8l1.3-0.3c0.2,0.4,0.3,0.8,0.3,1.2v0.1c0.6-0.9,1.4-1.3,2.2-1.3
			C450.7,294.9,450.8,295,451,295z"/>
		<path class="st7" d="M457.2,300.7c0,0.8-0.3,1.5-0.9,2c-0.5,0.4-1.2,0.7-2.1,0.7c-1.1,0-2.1-0.3-2.9-0.8l0.5-0.9
			c0.8,0.5,1.7,0.8,2.5,0.8c0.5,0,0.9-0.1,1.2-0.4c0.3-0.2,0.5-0.6,0.5-1c0-0.7-0.4-1.1-1.3-1.3l-1-0.2c-1.3-0.3-2-1-2-2.2
			c0-0.8,0.3-1.4,0.9-1.8c0.5-0.4,1.2-0.6,2-0.6c0.9,0,1.7,0.2,2.4,0.6l-0.5,0.9c-0.8-0.4-1.5-0.6-2-0.6c-0.4,0-0.8,0.1-1.1,0.3
			c-0.3,0.2-0.4,0.6-0.4,1c0,0.6,0.4,1,1.2,1.2l1.1,0.2C456.5,298.8,457.2,299.5,457.2,300.7z"/>
		<path class="st7" d="M462.7,295.1l-0.4,1h-1.7v5.1c0,0.4,0.1,0.7,0.2,0.9c0.2,0.2,0.4,0.3,0.8,0.3c0.3,0,0.6-0.1,0.8-0.2l0.2,0.8
			c-0.4,0.2-0.9,0.3-1.4,0.3c-1.2,0-1.8-0.6-1.8-1.8v-5.5h-1v-1h1V295c0-0.1,0-0.7,0.1-1.7l0-0.2l1.3-0.3c-0.1,0.9-0.2,1.6-0.2,2.3
			H462.7z"/>
		<path class="st7" d="M470.3,299.3h-5v0.2c0,0.8,0.1,1.4,0.4,1.8c0.4,0.7,1.1,1,2,1c0.8,0,1.4-0.2,2-0.8l0.5,0.8
			c-0.7,0.7-1.6,1-2.7,1c-1.2,0-2.1-0.4-2.7-1.3c-0.6-0.8-0.8-1.7-0.8-3c0-1.1,0.3-2.1,0.8-2.8c0.6-0.9,1.5-1.3,2.5-1.3
			c0.9,0,1.6,0.3,2.2,0.9c0.4,0.4,0.7,0.9,0.8,1.6c0.1,0.4,0.1,1,0.1,1.8V299.3z M469,298.4c0-0.8-0.1-1.3-0.3-1.7
			c-0.3-0.5-0.8-0.8-1.5-0.8c-1.2,0-1.8,0.8-1.8,2.5H469z"/>
		<path class="st7" d="M474.6,303.1c-0.3,0.1-0.5,0.2-0.8,0.2c-0.9,0-1.3-0.5-1.3-1.5v-7.9c0-1-0.1-1.8-0.2-2.2l1.3-0.3
			c0.1,0.4,0.2,1.2,0.2,2.5v7.6c0,0.3,0,0.5,0,0.5c0.1,0.2,0.2,0.3,0.4,0.3c0,0,0.1,0,0.2,0L474.6,303.1z"/>
		<path class="st7" d="M478.6,303.1c-0.3,0.1-0.5,0.2-0.8,0.2c-0.9,0-1.3-0.5-1.3-1.5v-7.9c0-1-0.1-1.8-0.2-2.2l1.3-0.3
			c0.1,0.4,0.2,1.2,0.2,2.5v7.6c0,0.3,0,0.5,0,0.5c0.1,0.2,0.2,0.3,0.4,0.3c0,0,0.1,0,0.2,0L478.6,303.1z"/>
		<path class="st7" d="M486.3,299.3h-5v0.2c0,0.8,0.1,1.4,0.4,1.8c0.4,0.7,1.1,1,2,1c0.8,0,1.4-0.2,2-0.8l0.5,0.8
			c-0.7,0.7-1.6,1-2.7,1c-1.2,0-2.1-0.4-2.7-1.3c-0.6-0.8-0.8-1.7-0.8-3c0-1.1,0.3-2.1,0.8-2.8c0.6-0.9,1.5-1.3,2.5-1.3
			c0.9,0,1.6,0.3,2.2,0.9c0.4,0.4,0.7,0.9,0.8,1.6c0.1,0.4,0.1,1,0.1,1.8V299.3z M484.9,298.4c0-0.8-0.1-1.3-0.3-1.7
			c-0.3-0.5-0.8-0.8-1.5-0.8c-1.2,0-1.8,0.8-1.8,2.5H484.9z"/>
		<path class="st7" d="M494.3,303.1H493v-5.4c0-0.5-0.1-0.9-0.2-1.2c-0.2-0.3-0.5-0.5-1-0.5c-0.4,0-0.8,0.1-1.2,0.4
			c-0.4,0.2-0.7,0.5-1,0.8v6h-1.2v-5.9c0-0.8-0.1-1.4-0.3-1.9l1.2-0.3c0.2,0.4,0.3,0.8,0.3,1.2c0.8-0.8,1.7-1.2,2.5-1.2
			c0.4,0,0.8,0.1,1.2,0.3c0.4,0.2,0.6,0.5,0.8,0.9c0.1,0.3,0.2,0.6,0.2,0.9V303.1z"/>
	</g>
	<g class="st6">
		<path class="st7" d="M353.7,237.3l-1.1-3.6h-4.5l-1.1,3.6h-2.4l4.5-13.9h2.7l4.4,13.9H353.7z M352,231.7c0-0.1-0.1-0.2-0.2-0.5
			c-0.1-0.3-0.2-0.6-0.3-1.1s-0.2-0.9-0.4-1.3s-0.3-0.9-0.4-1.4c-0.1-0.4-0.2-0.8-0.3-1.1c-0.1-0.3-0.1-0.5-0.1-0.6h0
			c-0.3,1-0.5,1.8-0.8,2.7c-0.1,0.3-0.2,0.7-0.3,1c-0.1,0.3-0.2,0.7-0.3,1c-0.1,0.3-0.2,0.6-0.2,0.8c-0.1,0.2-0.1,0.4-0.2,0.5H352z"
			/>
		<path class="st7" d="M366,236.5c-0.9,0.7-2,1-3.3,1c-0.8,0-1.5-0.1-2.1-0.3s-1.2-0.5-1.6-1c-1.1-1-1.6-2.4-1.6-4.1
			c0-1.3,0.3-2.5,0.9-3.4c0.5-0.7,1.1-1.3,1.9-1.8c0.8-0.4,1.7-0.6,2.6-0.6c0.6,0,1.1,0.1,1.7,0.2c0.6,0.2,1,0.4,1.3,0.6l-1.1,1.5
			c-0.6-0.4-1.3-0.6-1.9-0.6c-0.5,0-0.9,0.1-1.3,0.3c-0.4,0.2-0.7,0.5-1,0.8c-0.4,0.6-0.6,1.5-0.6,2.6c0,0.8,0,1.4,0.1,1.8
			c0.1,0.4,0.3,0.8,0.6,1.2c0.6,0.7,1.3,1,2.3,1c0.4,0,0.7,0,1.1-0.2c0.3-0.1,0.7-0.3,1-0.5L366,236.5z"/>
		<path class="st7" d="M375.1,228.3h-2.9v9h-2.3v-9h-3v-1.8h8.6L375.1,228.3z"/>
		<path class="st7" d="M377.4,237.3v-10.8h2.3v10.8H377.4z"/>
		<path class="st7" d="M387.5,237.4h-2l-4.1-10.9h2.5l2,5.6c0.1,0.2,0.2,0.5,0.2,0.8c0.1,0.3,0.2,0.6,0.2,0.8
			c0.1,0.3,0.2,0.6,0.2,0.9c0.1-0.3,0.1-0.6,0.2-0.9c0.1-0.3,0.1-0.5,0.2-0.8c0.1-0.3,0.2-0.5,0.3-0.8l2.1-5.6h2.3L387.5,237.4z"/>
		<path class="st7" d="M393.3,237.3v-10.8h2.3v10.8H393.3z"/>
		<path class="st7" d="M405.9,228.3h-2.9v9h-2.3v-9h-3v-1.8h8.6L405.9,228.3z"/>
		<path class="st7" d="M412.1,232.9v4.4h-2.3v-4.4l-3.8-6.4h2.7l1.7,3.3c0.1,0.1,0.1,0.2,0.2,0.4s0.1,0.3,0.2,0.5
			c0.1,0.2,0.1,0.3,0.2,0.4c0,0.1,0.1,0.2,0.1,0.2c0,0,0-0.1,0.1-0.2c0-0.1,0.1-0.2,0.1-0.4c0.1-0.2,0.1-0.3,0.2-0.5
			c0.1-0.2,0.1-0.3,0.2-0.5l1.7-3.2h2.7L412.1,232.9z"/>
		<path class="st7" d="M433.6,237.3l-0.6-8.6c0-0.2,0-0.4,0-0.7c0-0.2,0-0.5,0-0.7s0-0.4,0-0.6c0-0.2,0-0.3,0-0.4
			c-0.1,0.2-0.1,0.5-0.2,1c-0.1,0.4-0.2,0.8-0.3,1.3l-2.5,8.8h-2l-2.3-8.4c-0.1-0.2-0.1-0.5-0.2-0.7c-0.1-0.3-0.1-0.5-0.2-0.8
			c-0.1-0.2-0.1-0.5-0.1-0.7c0-0.2-0.1-0.4-0.1-0.5c0,0.1,0,0.3,0,0.5s0,0.4,0,0.7c0,0.2,0,0.5,0,0.8c0,0.3,0,0.5,0,0.7l-0.6,8.4
			H422l1.3-13.8h3.1l2.1,7.8c0.2,0.6,0.3,1.1,0.3,1.5s0.1,0.7,0.2,0.9c0-0.2,0.1-0.5,0.2-1c0.1-0.4,0.2-0.9,0.3-1.4l2.2-7.9h3.1
			l1.2,13.8H433.6z"/>
		<path class="st7" d="M448.7,231.9c0,0.8-0.1,1.6-0.3,2.3c-0.2,0.7-0.5,1.3-0.9,1.8c-0.4,0.5-0.9,0.9-1.6,1.2
			c-0.6,0.3-1.4,0.4-2.3,0.4c-0.8,0-1.6-0.1-2.2-0.4c-0.6-0.3-1.2-0.6-1.6-1.1c-0.4-0.5-0.8-1.1-1-1.8s-0.3-1.4-0.3-2.2
			c0-1.8,0.5-3.1,1.4-4.1c0.9-1,2.2-1.5,3.8-1.5c0.9,0,1.6,0.1,2.2,0.4c0.6,0.3,1.2,0.7,1.6,1.2s0.8,1.1,1,1.8
			C448.6,230.3,448.7,231.1,448.7,231.9z M446.2,231.9c0-0.5,0-0.9-0.1-1.4c-0.1-0.5-0.2-0.9-0.3-1.3c-0.2-0.4-0.4-0.7-0.8-0.9
			s-0.8-0.3-1.4-0.3c-0.6,0-1,0.1-1.3,0.4c-0.3,0.2-0.6,0.5-0.8,0.9c-0.2,0.4-0.3,0.8-0.3,1.2c-0.1,0.5-0.1,0.9-0.1,1.3
			c0,0.5,0,1,0.1,1.5c0.1,0.5,0.2,0.9,0.3,1.3c0.2,0.4,0.4,0.7,0.8,0.9c0.4,0.2,0.8,0.3,1.4,0.3c0.6,0,1-0.1,1.4-0.4
			c0.3-0.2,0.6-0.5,0.8-0.9c0.2-0.4,0.3-0.8,0.3-1.3C446.1,232.8,446.2,232.4,446.2,231.9z"/>
		<path class="st7" d="M460.4,231.9c0,0.8-0.1,1.6-0.3,2.2c-0.2,0.6-0.5,1.1-0.9,1.5s-0.7,0.8-1.1,1c-0.4,0.2-0.8,0.4-1.1,0.5
			c-0.4,0.1-0.7,0.2-1,0.2c-0.3,0-0.7,0-1.2,0h-3v-10.8h2.4c0.5,0,1.1,0,1.6,0.1s1,0.1,1.4,0.2c0.5,0.1,0.9,0.3,1.3,0.6
			c0.4,0.3,0.8,0.6,1.1,1c0.3,0.4,0.5,0.9,0.7,1.5C460.3,230.4,460.4,231.1,460.4,231.9z M458,232.1c0-0.5,0-1-0.1-1.4
			c-0.1-0.5-0.2-0.9-0.4-1.2c-0.2-0.4-0.5-0.7-0.9-0.9c-0.4-0.2-0.8-0.3-1.4-0.3H454v7.3h1.4c0.5,0,0.9-0.1,1.2-0.3s0.6-0.4,0.8-0.8
			c0.2-0.3,0.3-0.7,0.4-1.1S458,232.5,458,232.1z"/>
		<path class="st7" d="M471.9,233.5c0,0.4,0,0.8,0,1.1c0,0.3-0.1,0.5-0.2,0.8c-0.1,0.2-0.2,0.4-0.3,0.6c-0.1,0.2-0.3,0.3-0.4,0.5
			c-0.3,0.3-0.8,0.6-1.3,0.8c-0.5,0.2-1.2,0.3-2,0.3c-1,0-1.8-0.1-2.4-0.4s-1.1-0.7-1.4-1.1c-0.2-0.3-0.3-0.6-0.4-1
			c-0.1-0.3-0.1-0.8-0.1-1.3v-7.1h2.3v6.8c0,0.4,0,0.7,0,0.9c0,0.2,0.1,0.4,0.1,0.6c0.1,0.3,0.4,0.5,0.7,0.7
			c0.3,0.1,0.7,0.2,1.1,0.2c0.7,0,1.3-0.2,1.6-0.6c0.1-0.1,0.1-0.2,0.2-0.3c0.1-0.1,0.1-0.2,0.1-0.3c0-0.1,0.1-0.3,0.1-0.5
			c0-0.2,0-0.4,0-0.7v-6.9h2.3V233.5z"/>
		<path class="st7" d="M481.6,237.3h-6.2v-10.8h2.3v9h4.4L481.6,237.3z"/>
		<path class="st7" d="M483.8,237.3v-10.8h6.8l-0.3,1.8h-4.2v2.5h3.5v1.8h-3.5v2.9h4.7v1.9H483.8z"/>
	</g>
	<g class="st6">
		<path class="st7" d="M330,256.6c-0.4,0.2-0.8,0.4-1.2,0.5c-0.4,0.1-0.8,0.2-1.3,0.2c-1.4,0-2.4-0.4-3.2-1.2
			c-0.8-0.8-1.1-1.9-1.1-3.4s0.4-2.6,1.1-3.4c0.8-0.8,1.8-1.2,3.2-1.2c0.4,0,0.8,0.1,1.2,0.2c0.4,0.1,0.8,0.3,1.2,0.5v1.5
			c-0.4-0.3-0.8-0.6-1.1-0.7s-0.8-0.2-1.3-0.2c-0.9,0-1.6,0.3-2.1,0.9s-0.7,1.4-0.7,2.5c0,1.1,0.2,1.9,0.7,2.5
			c0.5,0.6,1.2,0.9,2.1,0.9c0.5,0,0.9-0.1,1.3-0.2c0.4-0.2,0.8-0.4,1.1-0.7V256.6z"/>
		<path class="st7" d="M336.2,248.1c1.2,0,2.1,0.4,2.8,1.2c0.6,0.8,1,1.9,1,3.4c0,1.5-0.3,2.6-1,3.4s-1.6,1.2-2.8,1.2
			c-1.2,0-2.1-0.4-2.8-1.2s-1-1.9-1-3.4c0-1.5,0.3-2.6,1-3.4S335,248.1,336.2,248.1z M336.2,249.3c-0.7,0-1.3,0.3-1.7,0.9
			s-0.6,1.4-0.6,2.5c0,1.1,0.2,1.9,0.6,2.5s0.9,0.9,1.7,0.9c0.7,0,1.3-0.3,1.7-0.9s0.6-1.4,0.6-2.5c0-1.1-0.2-2-0.6-2.5
			S336.9,249.3,336.2,249.3z"/>
		<path class="st7" d="M346.6,253.9c0,0.6,0.1,1.1,0.4,1.5c0.2,0.3,0.6,0.5,1.1,0.5h1.7v1.2h-1.8c-0.9,0-1.5-0.3-2-0.8
			c-0.5-0.5-0.7-1.3-0.7-2.3V246h-2.3v-1.1h3.7V253.9z"/>
		<path class="st7" d="M356.2,253.9c0,0.6,0.1,1.1,0.4,1.5c0.2,0.3,0.6,0.5,1.1,0.5h1.7v1.2h-1.8c-0.9,0-1.5-0.3-2-0.8
			c-0.5-0.5-0.7-1.3-0.7-2.3V246h-2.3v-1.1h3.7V253.9z"/>
		<path class="st7" d="M368.5,252.1v5h-1.4v-1.3c-0.3,0.5-0.7,0.9-1.2,1.2c-0.5,0.2-1,0.4-1.7,0.4c-0.9,0-1.6-0.3-2.1-0.8
			s-0.8-1.2-0.8-2c0-1,0.3-1.7,1-2.2c0.7-0.5,1.6-0.8,2.9-0.8h1.9v-0.2c0-0.7-0.2-1.2-0.5-1.5c-0.3-0.3-0.9-0.5-1.7-0.5
			c-0.5,0-1,0.1-1.5,0.2s-1,0.3-1.5,0.6v-1.4c0.5-0.2,1-0.4,1.5-0.5c0.5-0.1,1-0.2,1.4-0.2c0.7,0,1.3,0.1,1.9,0.3
			c0.5,0.2,0.9,0.5,1.2,1c0.2,0.3,0.3,0.6,0.4,1C368.5,250.7,368.5,251.3,368.5,252.1z M365.7,252.7h-0.5c-0.8,0-1.5,0.1-1.9,0.4
			c-0.4,0.3-0.6,0.7-0.6,1.3c0,0.5,0.2,0.9,0.5,1.2c0.3,0.3,0.8,0.4,1.3,0.4c0.8,0,1.4-0.3,1.9-0.8s0.7-1.3,0.7-2.3v-0.3H365.7z"/>
		<path class="st7" d="M372.8,249.4c0.2-0.4,0.5-0.8,0.9-1c0.4-0.2,0.9-0.3,1.4-0.3c1.1,0,1.9,0.4,2.5,1.2c0.6,0.8,0.9,1.9,0.9,3.3
			c0,1.4-0.3,2.6-0.9,3.4c-0.6,0.8-1.4,1.2-2.5,1.2c-0.5,0-1-0.1-1.4-0.3s-0.7-0.6-1-1v1.1h-1.4v-12.2h1.4V249.4z M377.1,252.7
			c0-1.1-0.2-2-0.5-2.5c-0.4-0.6-0.9-0.9-1.6-0.9c-0.7,0-1.2,0.3-1.6,0.9s-0.5,1.4-0.5,2.5c0,1.1,0.2,1.9,0.5,2.5s0.9,0.9,1.6,0.9
			c0.7,0,1.2-0.3,1.6-0.9C376.9,254.7,377.1,253.8,377.1,252.7z"/>
		<path class="st7" d="M384.3,248.1c1.2,0,2.1,0.4,2.8,1.2c0.6,0.8,1,1.9,1,3.4c0,1.5-0.3,2.6-1,3.4s-1.6,1.2-2.8,1.2
			c-1.2,0-2.1-0.4-2.8-1.2s-1-1.9-1-3.4c0-1.5,0.3-2.6,1-3.4S383.1,248.1,384.3,248.1z M384.3,249.3c-0.7,0-1.3,0.3-1.7,0.9
			s-0.6,1.4-0.6,2.5c0,1.1,0.2,1.9,0.6,2.5s0.9,0.9,1.7,0.9c0.7,0,1.3-0.3,1.7-0.9s0.6-1.4,0.6-2.5c0-1.1-0.2-2-0.6-2.5
			S385.1,249.3,384.3,249.3z"/>
		<path class="st7" d="M398.2,250.1c-0.3-0.2-0.6-0.4-0.9-0.5c-0.3-0.1-0.7-0.2-1-0.2c-0.9,0-1.6,0.3-2.1,0.8
			c-0.5,0.6-0.7,1.4-0.7,2.4v4.4H392v-8.8h1.4v1.7c0.2-0.6,0.6-1.1,1.1-1.4c0.5-0.3,1.1-0.5,1.8-0.5c0.4,0,0.7,0,1,0.1
			c0.3,0.1,0.6,0.2,0.9,0.4V250.1z"/>
		<path class="st7" d="M407.1,252.1v5h-1.4v-1.3c-0.3,0.5-0.7,0.9-1.2,1.2c-0.5,0.2-1,0.4-1.7,0.4c-0.9,0-1.6-0.3-2.1-0.8
			s-0.8-1.2-0.8-2c0-1,0.3-1.7,1-2.2c0.7-0.5,1.6-0.8,2.9-0.8h1.9v-0.2c0-0.7-0.2-1.2-0.5-1.5c-0.3-0.3-0.9-0.5-1.7-0.5
			c-0.5,0-1,0.1-1.5,0.2s-1,0.3-1.5,0.6v-1.4c0.5-0.2,1-0.4,1.5-0.5c0.5-0.1,1-0.2,1.4-0.2c0.7,0,1.3,0.1,1.9,0.3
			c0.5,0.2,0.9,0.5,1.2,1c0.2,0.3,0.3,0.6,0.4,1C407,250.7,407.1,251.3,407.1,252.1z M404.3,252.7h-0.5c-0.8,0-1.5,0.1-1.9,0.4
			c-0.4,0.3-0.6,0.7-0.6,1.3c0,0.5,0.2,0.9,0.5,1.2c0.3,0.3,0.8,0.4,1.3,0.4c0.8,0,1.4-0.3,1.9-0.8s0.7-1.3,0.7-2.3v-0.3H404.3z"/>
		<path class="st7" d="M413.2,245.8v2.5h3.3v1.1h-3.3v4.8c0,0.6,0.1,1.1,0.4,1.4c0.2,0.3,0.7,0.4,1.3,0.4h1.6v1.1h-1.8
			c-1.1,0-1.8-0.2-2.3-0.6c-0.4-0.4-0.7-1.2-0.7-2.2v-4.8h-2.3v-1.1h2.3v-2.5H413.2z"/>
		<path class="st7" d="M420.5,248.4h3.7v7.6h2.9v1.1h-7.1V256h2.9v-6.5h-2.2V248.4z M422.8,245h1.4v1.8h-1.4V245z"/>
		<path class="st7" d="M428.5,248.3h1.5l2.5,7.3l2.5-7.3h1.5l-3.1,8.8h-1.9L428.5,248.3z"/>
		<path class="st7" d="M446.1,252v0.7h-6.2v0c0,1.2,0.2,2,0.7,2.6c0.5,0.5,1.2,0.8,2.1,0.8c0.5,0,0.9-0.1,1.4-0.2s1-0.4,1.6-0.7v1.4
			c-0.5,0.2-1.1,0.4-1.6,0.5s-1,0.2-1.5,0.2c-1.4,0-2.4-0.4-3.2-1.2s-1.1-1.9-1.1-3.4c0-1.4,0.4-2.5,1.1-3.3s1.8-1.2,3-1.2
			c1.1,0,2,0.4,2.6,1.1C445.7,250,446,250.9,446.1,252z M444.6,251.6c-0.1-0.6-0.3-1.1-0.7-1.6c-0.4-0.4-0.9-0.7-1.6-0.7
			c-0.7,0-1.3,0.2-1.7,0.7c-0.4,0.5-0.7,1-0.7,1.5L444.6,251.6z"/>
		<path class="st7" d="M455.3,244.9v1.2h-1.6c-0.5,0-0.9,0.1-1.1,0.3c-0.2,0.2-0.3,0.6-0.3,1.1v0.8h3v1.1h-3v7.6h-1.4v-7.6h-2.3
			v-1.1h2.3v-0.6c0-1,0.2-1.7,0.7-2.1c0.4-0.5,1.1-0.7,2.1-0.7H455.3z"/>
		<path class="st7" d="M461.4,248.1c1.2,0,2.1,0.4,2.8,1.2c0.6,0.8,1,1.9,1,3.4c0,1.5-0.3,2.6-1,3.4s-1.6,1.2-2.8,1.2
			c-1.2,0-2.1-0.4-2.8-1.2s-1-1.9-1-3.4c0-1.5,0.3-2.6,1-3.4S460.2,248.1,461.4,248.1z M461.4,249.3c-0.7,0-1.3,0.3-1.7,0.9
			s-0.6,1.4-0.6,2.5c0,1.1,0.2,1.9,0.6,2.5s0.9,0.9,1.7,0.9c0.7,0,1.3-0.3,1.7-0.9s0.6-1.4,0.6-2.5c0-1.1-0.2-2-0.6-2.5
			S462.1,249.3,461.4,249.3z"/>
		<path class="st7" d="M471.8,253.9c0,0.6,0.1,1.1,0.4,1.5c0.2,0.3,0.6,0.5,1.1,0.5h1.7v1.2h-1.8c-0.9,0-1.5-0.3-2-0.8
			c-0.5-0.5-0.7-1.3-0.7-2.3V246h-2.3v-1.1h3.7V253.9z"/>
		<path class="st7" d="M482.6,249.4v-4.5h1.4v12.2h-1.4V256c-0.2,0.4-0.6,0.8-1,1s-0.9,0.3-1.4,0.3c-1.1,0-1.9-0.4-2.5-1.2
			c-0.6-0.8-0.9-2-0.9-3.4c0-1.4,0.3-2.5,0.9-3.3s1.4-1.2,2.5-1.2c0.5,0,1,0.1,1.4,0.3C482,248.7,482.3,249,482.6,249.4z
			 M478.3,252.7c0,1.1,0.2,2,0.5,2.5c0.4,0.6,0.9,0.9,1.6,0.9c0.7,0,1.2-0.3,1.6-0.9c0.4-0.6,0.5-1.4,0.5-2.5c0-1.1-0.2-1.9-0.5-2.5
			c-0.4-0.6-0.9-0.9-1.6-0.9c-0.7,0-1.2,0.3-1.6,0.9C478.5,250.8,478.3,251.6,478.3,252.7z"/>
		<path class="st7" d="M494.2,252v0.7H488v0c0,1.2,0.2,2,0.7,2.6c0.5,0.5,1.2,0.8,2.1,0.8c0.5,0,0.9-0.1,1.4-0.2s1-0.4,1.6-0.7v1.4
			c-0.5,0.2-1.1,0.4-1.6,0.5s-1,0.2-1.5,0.2c-1.4,0-2.4-0.4-3.2-1.2s-1.1-1.9-1.1-3.4c0-1.4,0.4-2.5,1.1-3.3s1.8-1.2,3-1.2
			c1.1,0,2,0.4,2.6,1.1C493.9,250,494.2,250.9,494.2,252z M492.8,251.6c-0.1-0.6-0.3-1.1-0.7-1.6c-0.4-0.4-0.9-0.7-1.6-0.7
			c-0.7,0-1.3,0.2-1.7,0.7c-0.4,0.5-0.7,1-0.7,1.5L492.8,251.6z"/>
		<path class="st7" d="M504.1,250.1c-0.3-0.2-0.6-0.4-0.9-0.5c-0.3-0.1-0.7-0.2-1-0.2c-0.9,0-1.6,0.3-2.1,0.8
			c-0.5,0.6-0.7,1.4-0.7,2.4v4.4h-1.4v-8.8h1.4v1.7c0.2-0.6,0.6-1.1,1.1-1.4c0.5-0.3,1.1-0.5,1.8-0.5c0.4,0,0.7,0,1,0.1
			c0.3,0.1,0.6,0.2,0.9,0.4V250.1z"/>
		<path class="st7" d="M512.4,248.6v1.4c-0.4-0.2-0.8-0.4-1.2-0.5c-0.4-0.1-0.8-0.2-1.3-0.2c-0.7,0-1.1,0.1-1.5,0.3s-0.5,0.5-0.5,1
			c0,0.4,0.1,0.7,0.4,0.9c0.2,0.2,0.8,0.4,1.8,0.6l0.6,0.1c0.7,0.1,1.3,0.4,1.6,0.8s0.6,0.9,0.6,1.6c0,0.9-0.3,1.5-0.9,2
			c-0.6,0.5-1.5,0.7-2.6,0.7c-0.4,0-0.9,0-1.4-0.1c-0.5-0.1-1-0.2-1.5-0.4v-1.5c0.5,0.3,1,0.5,1.5,0.6c0.5,0.1,1,0.2,1.4,0.2
			c0.6,0,1.1-0.1,1.5-0.4c0.3-0.3,0.5-0.6,0.5-1.1c0-0.7-0.6-1.1-1.9-1.4l-0.1,0l-0.5-0.1c-0.8-0.2-1.4-0.4-1.8-0.8
			c-0.4-0.4-0.6-0.9-0.6-1.6c0-0.8,0.3-1.5,0.9-1.9c0.6-0.5,1.4-0.7,2.4-0.7c0.5,0,0.9,0,1.4,0.1
			C511.5,248.3,511.9,248.5,512.4,248.6z"/>
	</g>
	<g class="st6">
		<path class="st8" d="M221.7,179.3l-0.6,0.9c-0.6-0.2-0.9-0.6-1.1-1.2c-0.7,0.7-1.5,1.1-2.3,1.1c-0.8,0-1.4-0.2-1.8-0.6
			c-0.5-0.4-0.7-1-0.7-1.7c0-1,0.5-1.8,1.4-2.3c0.7-0.4,1.7-0.6,2.8-0.6c0.2,0,0.4,0,0.6,0v-0.6c0-0.6-0.1-1.1-0.3-1.2
			c-0.3-0.3-0.6-0.4-1.1-0.4c-0.9,0-1.8,0.3-2.5,0.9l-0.6-0.9c1.1-0.7,2.2-1.1,3.3-1.1c1.1,0,1.9,0.4,2.2,1.2
			c0.1,0.3,0.2,0.7,0.2,1.4v0.4l-0.1,2.6c0,0.1,0,0.2,0,0.4c0,0.4,0,0.8,0.1,0.9C221.2,178.9,221.4,179.1,221.7,179.3z M219.8,175.8
			c-0.4,0-0.6,0-0.6,0c-1.8,0-2.8,0.6-2.8,1.9c0,1,0.5,1.5,1.4,1.5c0.9,0,1.5-0.4,1.9-1.2L219.8,175.8z"/>
		<path class="st8" d="M230.3,175.8c0,1.1-0.2,2.1-0.7,2.9c-0.6,0.9-1.4,1.4-2.4,1.4c-0.4,0-0.8-0.1-1.2-0.3c-0.4-0.2-0.7-0.4-1-0.7
			c0,0.3-0.1,0.6-0.2,0.9h-1.2c0.2-0.4,0.2-1,0.2-2v-7.6c0-0.8-0.1-1.5-0.3-1.9l1.3-0.3c0.1,0.6,0.2,1.3,0.2,2v1.8
			c0,0.5,0,0.8,0,0.9c0.7-0.7,1.5-1.1,2.3-1.1c1.1,0,1.9,0.4,2.4,1.3C230.1,173.8,230.3,174.7,230.3,175.8z M228.9,175.7
			c0-1.9-0.7-2.8-2-2.8c-0.8,0-1.5,0.3-2,1v4.1c0.5,0.6,1.1,1,2,1C228.2,179,228.9,177.9,228.9,175.7z"/>
		<path class="st8" d="M238.5,179.9h-1.2v-5.5c0-0.5-0.1-0.9-0.2-1.1c-0.2-0.3-0.5-0.4-1-0.4c-0.8,0-1.6,0.4-2.3,1.3v5.7h-1.2v-9.8
			c0-0.6-0.1-1.1-0.2-1.6l1.2-0.2c0.1,0.5,0.2,1.1,0.2,1.8v1.9c0,0.3,0,0.7,0,1.1c0.2-0.2,0.5-0.4,0.8-0.6c0.7-0.4,1.3-0.6,1.9-0.6
			c0.5,0,1,0.1,1.4,0.4c0.4,0.3,0.7,0.7,0.7,1.2c0,0.2,0,0.5,0,0.8V179.9z"/>
		<path class="st8" d="M247.1,179.3l-0.6,0.9c-0.6-0.2-0.9-0.6-1.1-1.2c-0.7,0.7-1.5,1.1-2.3,1.1c-0.8,0-1.4-0.2-1.8-0.6
			c-0.5-0.4-0.7-1-0.7-1.7c0-1,0.5-1.8,1.4-2.3c0.7-0.4,1.7-0.6,2.8-0.6c0.2,0,0.4,0,0.6,0v-0.6c0-0.6-0.1-1.1-0.3-1.2
			c-0.3-0.3-0.6-0.4-1.1-0.4c-0.9,0-1.8,0.3-2.5,0.9l-0.6-0.9c1.1-0.7,2.2-1.1,3.3-1.1c1.1,0,1.9,0.4,2.2,1.2
			c0.1,0.3,0.2,0.7,0.2,1.4v0.4l-0.1,2.6c0,0.1,0,0.2,0,0.4c0,0.4,0,0.8,0.1,0.9C246.6,178.9,246.8,179.1,247.1,179.3z M242.9,170
			c0,0.2-0.1,0.4-0.2,0.6c-0.2,0.2-0.3,0.2-0.6,0.2c-0.2,0-0.4-0.1-0.6-0.2s-0.2-0.4-0.2-0.6c0-0.2,0.1-0.4,0.2-0.6s0.4-0.2,0.6-0.2
			c0.2,0,0.4,0.1,0.6,0.2C242.8,169.5,242.9,169.7,242.9,170z M245.3,175.8c-0.4,0-0.6,0-0.6,0c-1.8,0-2.8,0.6-2.8,1.9
			c0,1,0.5,1.5,1.4,1.5c0.9,0,1.5-0.4,1.9-1.2L245.3,175.8z M246.2,170c0,0.2-0.1,0.4-0.2,0.6c-0.2,0.2-0.3,0.2-0.6,0.2
			c-0.2,0-0.4-0.1-0.6-0.2c-0.2-0.2-0.2-0.4-0.2-0.6c0-0.2,0.1-0.4,0.2-0.6c0.2-0.2,0.4-0.2,0.6-0.2c0.2,0,0.4,0.1,0.6,0.2
			C246.1,169.5,246.2,169.7,246.2,170z"/>
		<path class="st8" d="M255,179.9h-1.3v-5.4c0-0.5-0.1-0.9-0.2-1.2c-0.2-0.3-0.5-0.5-1-0.5c-0.4,0-0.8,0.1-1.2,0.4
			c-0.4,0.2-0.7,0.5-1,0.8v6h-1.2V174c0-0.8-0.1-1.4-0.3-1.9l1.2-0.3c0.2,0.4,0.3,0.8,0.3,1.2c0.8-0.8,1.7-1.2,2.5-1.2
			c0.4,0,0.8,0.1,1.2,0.3c0.4,0.2,0.6,0.5,0.8,0.9c0.1,0.3,0.2,0.6,0.2,0.9V179.9z"/>
		<path class="st8" d="M264.6,172.6c-0.4,0.3-0.9,0.5-1.3,0.5c-0.2,0-0.4,0-0.5-0.1c0.3,0.4,0.5,0.8,0.5,1.4c0,0.7-0.2,1.3-0.7,1.8
			c-0.5,0.5-1.1,0.7-1.8,0.7h-0.2l-0.2,0.1c-0.8,0.3-1.3,0.6-1.3,0.9c0,0.3,0.2,0.4,0.6,0.4h1.3c0.9,0,1.5,0.1,1.9,0.4
			c0.6,0.4,0.9,1,0.9,1.7c0,1.7-1.1,2.5-3.2,2.5c-2.3,0-3.5-0.7-3.5-2c0-0.3,0.1-0.5,0.2-0.8l1.3-0.1l-0.1,0.1
			c-0.1,0.2-0.2,0.4-0.2,0.6c0,0.9,0.7,1.3,2.1,1.3c1.3,0,1.9-0.5,1.9-1.4c0-0.5-0.2-0.9-0.6-1.1c-0.3-0.1-0.7-0.2-1.4-0.2
			c-0.1,0-0.3,0-0.6,0s-0.5,0-0.6,0c-1,0-1.5-0.4-1.5-1.1c0-0.6,0.4-1,1.3-1.3l0.1,0c-0.5-0.2-1-0.5-1.3-0.9
			c-0.3-0.4-0.5-0.9-0.5-1.4c0-0.8,0.3-1.5,0.9-2c0.5-0.5,1.2-0.7,2.1-0.7c0.4,0,0.8,0.1,1.2,0.2l0.5,0.2c0.2,0.1,0.4,0.1,0.7,0.1
			c0.4,0,0.8-0.1,1.1-0.4L264.6,172.6z M261.8,174.4c0-1-0.5-1.6-1.5-1.6c-1,0-1.5,0.5-1.5,1.6c0,1,0.5,1.5,1.5,1.5
			C261.3,176,261.8,175.5,261.8,174.4z"/>
		<path class="st8" d="M267.6,169.5c0,0.3-0.1,0.5-0.3,0.7c-0.2,0.2-0.4,0.3-0.7,0.3c-0.3,0-0.5-0.1-0.7-0.3
			c-0.2-0.2-0.3-0.4-0.3-0.7c0-0.3,0.1-0.5,0.3-0.7c0.2-0.2,0.4-0.3,0.7-0.3s0.5,0.1,0.7,0.3C267.5,168.9,267.6,169.2,267.6,169.5z
			 M267.3,179.9H266V172l1.3-0.2V179.9z"/>
		<path class="st8" d="M276.9,172.6c-0.4,0.3-0.9,0.5-1.3,0.5c-0.2,0-0.4,0-0.5-0.1c0.3,0.4,0.5,0.8,0.5,1.4c0,0.7-0.2,1.3-0.7,1.8
			c-0.5,0.5-1.1,0.7-1.8,0.7h-0.2l-0.2,0.1c-0.8,0.3-1.3,0.6-1.3,0.9c0,0.3,0.2,0.4,0.6,0.4h1.3c0.9,0,1.5,0.1,1.9,0.4
			c0.6,0.4,0.9,1,0.9,1.7c0,1.7-1.1,2.5-3.2,2.5c-2.3,0-3.5-0.7-3.5-2c0-0.3,0.1-0.5,0.2-0.8l1.3-0.1l-0.1,0.1
			c-0.1,0.2-0.2,0.4-0.2,0.6c0,0.9,0.7,1.3,2.1,1.3c1.3,0,1.9-0.5,1.9-1.4c0-0.5-0.2-0.9-0.6-1.1c-0.3-0.1-0.7-0.2-1.4-0.2
			c-0.1,0-0.3,0-0.6,0c-0.3,0-0.5,0-0.6,0c-1,0-1.5-0.4-1.5-1.1c0-0.6,0.4-1,1.3-1.3l0.1,0c-0.5-0.2-1-0.5-1.3-0.9
			c-0.3-0.4-0.5-0.9-0.5-1.4c0-0.8,0.3-1.5,0.9-2c0.5-0.5,1.2-0.7,2.1-0.7c0.4,0,0.8,0.1,1.2,0.2l0.5,0.2c0.2,0.1,0.4,0.1,0.7,0.1
			c0.4,0,0.8-0.1,1.1-0.4L276.9,172.6z M274,174.4c0-1-0.5-1.6-1.5-1.6c-1,0-1.5,0.5-1.5,1.6c0,1,0.5,1.5,1.5,1.5
			C273.5,176,274,175.5,274,174.4z"/>
		<path class="st8" d="M289.6,171.9l-3,8h-1.2l-2.9-8l1.3-0.3l1.9,5.5c0.2,0.4,0.3,0.9,0.4,1.4h0c0.1-0.4,0.2-0.8,0.4-1.3l1.8-5.3
			L289.6,171.9z"/>
		<path class="st8" d="M297.8,176.1c0,1.5-0.4,2.6-1.2,3.3c-0.6,0.5-1.3,0.8-2.2,0.8c-1.2,0-2-0.4-2.6-1.3c-0.5-0.8-0.8-1.7-0.8-2.9
			c0-1.2,0.3-2.1,0.8-2.9c0.6-0.9,1.5-1.3,2.6-1.3c1.2,0,2.1,0.4,2.7,1.3C297.5,173.8,297.8,174.8,297.8,176.1z M296.4,176.2
			c0-1-0.1-1.8-0.3-2.3c-0.3-0.8-0.9-1.2-1.8-1.2c-0.8,0-1.4,0.3-1.7,0.9c-0.2,0.4-0.4,1.1-0.4,2c0,1,0.1,1.8,0.3,2.3
			c0.3,0.8,0.9,1.1,1.8,1.1C295.7,179.1,296.4,178.1,296.4,176.2z"/>
		<path class="st8" d="M306,179.9h-1.3v-5.4c0-0.5-0.1-0.9-0.2-1.2c-0.2-0.3-0.5-0.5-1-0.5c-0.4,0-0.8,0.1-1.2,0.4
			c-0.4,0.2-0.7,0.5-1,0.8v6h-1.2V174c0-0.8-0.1-1.4-0.3-1.9l1.2-0.3c0.2,0.4,0.3,0.8,0.3,1.2c0.8-0.8,1.7-1.2,2.5-1.2
			c0.4,0,0.8,0.1,1.2,0.3c0.4,0.2,0.6,0.5,0.8,0.9c0.1,0.3,0.2,0.6,0.2,0.9V179.9z"/>
	</g>
</g>
</svg>
