<svg id="Ebene_1" data-name="Ebene 1" xmlns="http://www.w3.org/2000/svg" xmlns:xlink="http://www.w3.org/1999/xlink" viewBox="0 0 720 403"><defs><style>.cls-1,.cls-14,.cls-16,.cls-17,.cls-19,.cls-5,.cls-8,.cls-9{fill:none;}.cls-2{clip-path:url(#clip-path);}.cls-3,.cls-6{fill:#fff;}.cls-11,.cls-4{fill:#4f4f4c;}.cls-5,.cls-9{stroke:#4f4f4c;}.cls-19,.cls-5,.cls-8{stroke-linecap:round;}.cls-14,.cls-16,.cls-17,.cls-19,.cls-5,.cls-8{stroke-linejoin:round;}.cls-19,.cls-5,.cls-8,.cls-9{stroke-width:2px;}.cls-6{font-size:18px;font-family:MetaMedium-Caps, Meta;}.cls-7{fill:#2c9050;}.cls-8{stroke:#2c9050;}.cls-9{stroke-miterlimit:10;}.cls-10,.cls-11{font-size:15px;font-family:MetaNormal, Meta;}.cls-10{fill:#888886;}.cls-12{clip-path:url(#clip-path-2);}.cls-13{clip-path:url(#clip-path-3);}.cls-14,.cls-17{stroke:#7a7878;}.cls-14{stroke-width:1.24px;}.cls-15{fill:#006784;}.cls-16{stroke:#383335;stroke-width:0.92px;}.cls-17{stroke-width:0.54px;}.cls-18{fill:#007993;}.cls-19{stroke:#007993;}.cls-20{clip-path:url(#clip-path-17);}.cls-21{clip-path:url(#clip-path-18);}.cls-22{fill:#29833b;}</style><clipPath id="clip-path"><rect class="cls-1" width="720" height="403"/></clipPath><clipPath id="clip-path-2"><rect class="cls-1" x="27.57" y="351" width="80.43" height="45"/></clipPath><clipPath id="clip-path-3"><rect class="cls-1" x="27.57" y="351.02" width="80.43" height="44.96"/></clipPath><clipPath id="clip-path-17"><rect class="cls-1" x="559" y="351" width="143" height="44"/></clipPath><clipPath id="clip-path-18"><rect class="cls-1" x="559" y="351.2" width="143" height="43.59"/></clipPath></defs><title>Zeichenfläche 1</title><g class="cls-2"><rect class="cls-3" width="720" height="403"/><rect class="cls-4" x="9" y="9" width="135" height="63"/><rect class="cls-5" x="9" y="9" width="135" height="63"/><text class="cls-6" transform="translate(37.14 37.5)">Resource </text><text class="cls-6" transform="translate(49.23 56.5)">Owner</text><rect class="cls-7" x="549" y="117" width="162" height="108"/><rect class="cls-8" x="549" y="117" width="162" height="108"/><text class="cls-6" transform="translate(569.98 168)">Authorization </text><text class="cls-6" transform="translate(601.83 187)">Server</text><line class="cls-5" x1="72" y1="110.63" x2="72" y2="90.53"/><polygon class="cls-4" points="72 80.92 68.4 90.53 75.6 90.53 72 80.92"/><polygon class="cls-9" points="72 80.92 68.4 90.53 75.6 90.53 72 80.92"/><text class="cls-10" transform="translate(51.22 105.47)">2.</text><line class="cls-5" x1="153" y1="135" x2="527.1" y2="135"/><polygon class="cls-4" points="536.7 135 527.1 131.4 527.1 138.6 536.7 135"/><polygon class="cls-9" points="536.7 135 527.1 131.4 527.1 138.6 536.7 135"/><text class="cls-11" transform="translate(199.03 125.04)">Client Identifier &amp; Redirection URI</text><line class="cls-5" x1="153" y1="171" x2="527.1" y2="171"/><polygon class="cls-4" points="536.7 171 527.1 167.4 527.1 174.6 536.7 171"/><polygon class="cls-9" points="536.7 171 527.1 167.4 527.1 174.6 536.7 171"/><text class="cls-11" transform="translate(200.79 161.7)">Authentifizierung durch Benutzer</text></g><g class="cls-12"><g class="cls-13"><ellipse class="cls-14" cx="67.79" cy="374.09" rx="39.59" ry="17.6"/></g></g><g class="cls-12"><g class="cls-12"><polygon class="cls-15" points="43.63 395.52 67.31 351.53 79.14 351.53 59.45 388.17 88.79 388.17 84.84 395.52 43.63 395.52"/></g></g><g class="cls-12"><g class="cls-13"><polygon class="cls-16" points="84.83 395.52 88.78 388.16 59.44 388.16 79.15 351.48 67.31 351.48 43.62 395.52 84.83 395.52"/><path class="cls-3" d="M55.78,374.06l-.51.07a6,6,0,0,0-2.07.43.61.61,0,0,0-.35.54.57.57,0,0,0,.26.48,1.16,1.16,0,0,0,.7.19,2.3,2.3,0,0,0,.9-.18,1.48,1.48,0,0,0,.63-.45,2.62,2.62,0,0,0,.37-.87Zm-2-1.49-2.06-.13a2.55,2.55,0,0,1,1.23-1.25,5.13,5.13,0,0,1,2.33-.45,4.2,4.2,0,0,1,2.23.46,1.34,1.34,0,0,1,.72,1.13,2.84,2.84,0,0,1-.06.57q-.06.3-.44,1.59a6.34,6.34,0,0,0-.31,1.49,2.45,2.45,0,0,0,.17.85h-2a2.43,2.43,0,0,1-.16-.67,3.32,3.32,0,0,1-1.07.6,3.64,3.64,0,0,1-1.21.21,2.56,2.56,0,0,1-1.6-.48,1.51,1.51,0,0,1-.63-1.25,1.61,1.61,0,0,1,.69-1.36,4.9,4.9,0,0,1,2.48-.62,12.49,12.49,0,0,0,2-.23,1.58,1.58,0,0,0,.13-.54.51.51,0,0,0-.27-.43,1.51,1.51,0,0,0-.81-.17,1.89,1.89,0,0,0-.89.18.92.92,0,0,0-.45.5"/><path class="cls-3" d="M60.69,370.88h2L62.34,372a3.15,3.15,0,0,1,2.39-1.29,3.1,3.1,0,0,1,1,.17l-.81,1.32a2.31,2.31,0,0,0-.61-.08,2.26,2.26,0,0,0-1.11.31,2.31,2.31,0,0,0-.88.84,7,7,0,0,0-.63,1.66l-.51,1.87H59.06Z"/><path class="cls-3" d="M66.71,370.88h2l-.21.77a6,6,0,0,1,1.4-.7,4.44,4.44,0,0,1,1.37-.21,2.45,2.45,0,0,1,1.52.42,1.33,1.33,0,0,1,.56,1.11,5.53,5.53,0,0,1-.24,1.19l-.92,3.37H70.07l.93-3.38a5.89,5.89,0,0,0,.21-.9.57.57,0,0,0-.24-.49,1.09,1.09,0,0,0-.66-.18,2.25,2.25,0,0,0-1,.3,2.32,2.32,0,0,0-.89.79,5.44,5.44,0,0,0-.53,1.42l-.67,2.44H65.07Z"/></g></g><g class="cls-12"><g class="cls-12"><polygon class="cls-17" points="40.99 376.84 41.36 375.47 35.87 375.47 37.75 368.67 35.53 368.67 33.27 376.84 40.99 376.84"/></g></g><g class="cls-12"><g class="cls-13"><path class="cls-17" d="M44.93,373.4a1.86,1.86,0,0,1,.7-1.1,2,2,0,0,1,1.17-.37,1.58,1.58,0,0,1,1,.33,1.22,1.22,0,0,1,.39,1s0,.09,0,.16Zm5.23-.07a2.26,2.26,0,0,0-.85-1.88,3.58,3.58,0,0,0-2.28-.67,4.56,4.56,0,0,0-3.47,1.28,3.07,3.07,0,0,0-.89,2.16,2.39,2.39,0,0,0,1,2,4.09,4.09,0,0,0,2.56.76,4.84,4.84,0,0,0,2.07-.43,3.46,3.46,0,0,0,1.48-1.29L47.89,375a1.9,1.9,0,0,1-1.64.82,1.67,1.67,0,0,1-1.09-.36,1.17,1.17,0,0,1-.45-1s0-.08,0-.14H50A3.43,3.43,0,0,0,50.17,373.34Z"/><path class="cls-17" d="M55.73,374.29a2.62,2.62,0,0,1-.37.86,1.49,1.49,0,0,1-.63.45,2.33,2.33,0,0,1-.9.17,1.17,1.17,0,0,1-.7-.19.57.57,0,0,1-.26-.47.6.6,0,0,1,.35-.54,6,6,0,0,1,2.08-.42l.51-.07Zm-1.51-2.19a1.91,1.91,0,0,1,.9-.18,1.53,1.53,0,0,1,.81.17.5.5,0,0,1,.27.43,1.56,1.56,0,0,1-.13.54,12.78,12.78,0,0,1-2,.23,5,5,0,0,0-2.49.61,1.59,1.59,0,0,0-.7,1.35,1.49,1.49,0,0,0,.63,1.24,2.57,2.57,0,0,0,1.6.48,3.69,3.69,0,0,0,1.21-.21,3.34,3.34,0,0,0,1.07-.6,2.44,2.44,0,0,0,.16.67H57.6a2.38,2.38,0,0,1-.18-.84,6.3,6.3,0,0,1,.31-1.48q.38-1.28.44-1.58a2.81,2.81,0,0,0,.06-.57,1.32,1.32,0,0,0-.72-1.12,4.26,4.26,0,0,0-2.23-.46,5.19,5.19,0,0,0-2.33.45,2.54,2.54,0,0,0-1.23,1.24l2.06.13A.91.91,0,0,1,54.22,372.1Z"/><path class="cls-17" d="M59.06,376.84h2.11l.52-1.85a6.88,6.88,0,0,1,.63-1.65,2.34,2.34,0,0,1,.88-.83,2.29,2.29,0,0,1,1.11-.31,2.32,2.32,0,0,1,.61.08l.81-1.31a2.86,2.86,0,0,0-3.37,1.11l.32-1.15h-2Z"/><path class="cls-17" d="M65.08,376.84h2.11l.67-2.43a5.44,5.44,0,0,1,.53-1.41,2.36,2.36,0,0,1,.89-.78,2.27,2.27,0,0,1,1-.3,1.11,1.11,0,0,1,.67.18.56.56,0,0,1,.24.48,5.64,5.64,0,0,1-.21.9l-.93,3.36H72.2l.92-3.35a5.47,5.47,0,0,0,.24-1.18,1.32,1.32,0,0,0-.56-1.11,2.48,2.48,0,0,0-1.52-.42,4.5,4.5,0,0,0-1.37.21,6,6,0,0,0-1.4.7l.21-.77h-2Z"/></g></g><g class="cls-12"><g class="cls-12"><polygon class="cls-17" points="86.33 370.92 84.2 370.92 81.78 374.89 81.52 370.92 79.6 370.92 77.16 374.89 76.61 370.92 74.74 370.92 75.72 376.84 77.68 376.84 80.06 373.07 80.44 376.84 82.43 376.84 86.33 370.92"/></g></g><g class="cls-12"><g class="cls-13"><path class="cls-17" d="M88.51,373.4a1.87,1.87,0,0,1,.7-1.1,2,2,0,0,1,1.17-.37,1.58,1.58,0,0,1,1,.33,1.22,1.22,0,0,1,.39,1s0,.09,0,.16Zm5.24-.07a2.26,2.26,0,0,0-.85-1.88,3.58,3.58,0,0,0-2.28-.67,4.55,4.55,0,0,0-3.47,1.28,3.07,3.07,0,0,0-.89,2.16,2.39,2.39,0,0,0,1,2,4.09,4.09,0,0,0,2.56.76,4.83,4.83,0,0,0,2.07-.43,3.46,3.46,0,0,0,1.48-1.29L91.47,375a1.91,1.91,0,0,1-1.64.82,1.67,1.67,0,0,1-1.09-.36,1.17,1.17,0,0,1-.44-1s0-.08,0-.14h5.3A3.46,3.46,0,0,0,93.75,373.34Z"/><path class="cls-17" d="M98,372.48a1.9,1.9,0,0,1,1.37-.56,1.57,1.57,0,0,1,1,.36,1.22,1.22,0,0,1,.43,1,2.83,2.83,0,0,1-.32,1.28,2.19,2.19,0,0,1-.8.92,1.94,1.94,0,0,1-1,.29,1.58,1.58,0,0,1-1-.37,1.2,1.2,0,0,1-.45-1A2.59,2.59,0,0,1,98,372.48Zm-1.71,4.36.27-1A2.81,2.81,0,0,0,99,377a4,4,0,0,0,1.35-.23,4.19,4.19,0,0,0,1.23-.71,3.38,3.38,0,0,0,.94-1.24,3.72,3.72,0,0,0,.35-1.57,2.25,2.25,0,0,0-.74-1.82,3,3,0,0,0-2-.63,4.06,4.06,0,0,0-1.1.14,4.83,4.83,0,0,0-1.09.48l.76-2.73H96.57l-2.25,8.16Z"/></g></g><g class="cls-2"><rect class="cls-4" x="9" y="117" width="135" height="108"/><rect class="cls-5" x="9" y="117" width="135" height="108"/><text class="cls-6" transform="translate(53.8 168)">User-</text><text class="cls-6" transform="translate(52.24 187)">Agent</text><rect class="cls-18" x="9" y="270" width="135" height="72"/><rect class="cls-19" x="9" y="270" width="135" height="72"/><text class="cls-6" transform="translate(51.1 312.5)">Client</text><text class="cls-10" transform="translate(181.98 124.5)">1.</text><line class="cls-5" x1="531" y1="207" x2="165.9" y2="207"/><polygon class="cls-4" points="156.3 207 165.9 210.6 165.9 203.4 156.3 207"/><polygon class="cls-9" points="156.3 207 165.9 210.6 165.9 203.4 156.3 207"/><text class="cls-11" transform="translate(200.25 197.7)">Authorization Code</text><text class="cls-10" transform="translate(179.99 160.5)">2.</text><polyline class="cls-5" points="153 288 585 289.31 585 246.9"/><polygon class="cls-4" points="585 237.3 581.4 246.9 588.6 246.9 585 237.3"/><polygon class="cls-9" points="585 237.3 581.4 246.9 588.6 246.9 585 237.3"/><text class="cls-11" transform="translate(200.3 279.21)">Authorization Code &amp; Redirection URI</text><polyline class="cls-5" points="638 234 638 324 165.9 324.18"/><polygon class="cls-4" points="156.3 324.19 165.9 327.78 165.9 320.58 156.3 324.19"/><polygon class="cls-9" points="156.3 324.19 165.9 327.78 165.9 320.58 156.3 324.19"/><text class="cls-11" transform="translate(200.63 314.85)">Access Token</text><text class="cls-10" transform="translate(296.29 313.69)">(&amp; optional: Refresh Token)</text><text class="cls-10" transform="translate(179.99 196.5)">3.</text><line class="cls-5" x1="36" y1="263.34" x2="36" y2="243.24"/><polygon class="cls-4" points="36 233.64 32.4 243.24 39.6 243.24 36 233.64"/><polygon class="cls-9" points="36 233.64 32.4 243.24 39.6 243.24 36 233.64"/><text class="cls-10" transform="translate(16.21 258.18)">1.</text><line class="cls-5" x1="117" y1="230.34" x2="117" y2="250.44"/><polygon class="cls-4" points="117 260.04 120.6 250.44 113.4 250.44 117 260.04"/><polygon class="cls-9" points="117 260.04 120.6 250.44 113.4 250.44 117 260.04"/><text class="cls-10" transform="translate(125.76 242.71)">3.</text><text class="cls-10" transform="translate(180.99 278.81)">4.</text><text class="cls-10" transform="translate(179.99 314.81)">5.</text></g><g class="cls-20"><g class="cls-21"><path class="cls-22" d="M580.8,351.2a21.8,21.8,0,1,0,21.8,21.8,21.8,21.8,0,0,0-21.8-21.8m0,41.57A19.77,19.77,0,1,1,600.57,373a19.79,19.79,0,0,1-19.77,19.77"/><path class="cls-22" d="M589.69,357.66c-3.64-2-8.51-.27-10.4,3.25-2.07,3.84-1.5,9.52,1.21,12.17,1.92,1.88,4.58,1.93,7.7.16l1,1.76a10.5,10.5,0,0,1-5.19,1.56,7,7,0,0,1-4.93-2c-3.35-3.27-4.07-9.95-1.58-14.58a9.27,9.27,0,0,1,5.35-4.57,18,18,0,0,0-2.06-.12,17.74,17.74,0,0,0-1.93,35.38v-8.7h2v8.81a17.63,17.63,0,0,0,9.36-2.74l-3.65-4.33.83-.65c.05,0,5.16-4.09,5.7-9.11l2,.22c-.49,4.61-4,8.33-5.67,9.81l2.43,2.88a17.72,17.72,0,0,0-2.22-29.15m2.9,8.85a1.52,1.52,0,1,1-1-1.92,1.52,1.52,0,0,1,1,1.92"/><path class="cls-22" d="M617,382.23a13.82,13.82,0,0,1-6.45-1.87l1.75-3.63c1,.6,3.4,1.9,4.86,1.9.89,0,1.55-.57,1.55-1.12,0-.81-.49-1-2-1.35l-1.93-.4a3.86,3.86,0,0,1-3.48-4.06c0-3.05,2.39-5.07,6.1-5.07a12.26,12.26,0,0,1,5.87,1.53l-1.55,3.11a8,8,0,0,0-3.65-1.1c-.78,0-1.3.35-1.3.84s.35.92,1.55,1.18l1.84.4c2.62.58,3.68,2,3.68,4.35,0,3.22-2.76,5.29-6.91,5.29"/><path class="cls-22" d="M634.13,382.23c-4.15,0-6.73-2.62-6.73-7.65s2.65-7.94,7.11-7.94a6.57,6.57,0,0,1,4.58,1.76l-2.3,3a3.28,3.28,0,0,0-2.1-1.09c-1.18,0-1.81.63-1.81,3.94,0,3,.32,4.26,1.76,4.26a3.64,3.64,0,0,0,2.74-1.33l2.1,2.93a7.29,7.29,0,0,1-5.32,2.1"/><path class="cls-22" d="M645.78,365.92a2.85,2.85,0,0,1-2.85-2.82,2.89,2.89,0,0,1,2.94-2.82,2.8,2.8,0,0,1,2.82,2.82,2.86,2.86,0,0,1-2.91,2.82m-2.47,15.94V367.24l5-.46v15.08Z"/><path class="cls-22" d="M658.24,376a2.39,2.39,0,0,0,2.39,2.7,6.39,6.39,0,0,0,3.91-1.5l1.93,2.88a9.3,9.3,0,0,1-6,2.13c-4.75,0-7.37-2.91-7.37-7.71s2.56-7.89,6.76-7.89c4.75,0,6.7,3,6.7,8V376Zm3.34-3.54c0-1.47-.43-2.36-1.59-2.36s-1.75.66-1.75,2.65h3.34Z"/><path class="cls-22" d="M681.43,381.08a5,5,0,0,1-3.31,1.15,3.77,3.77,0,0,1-2.93-1.29,2.51,2.51,0,0,1-.29.92h-4.29A7.36,7.36,0,0,0,671,379V365.69a15.73,15.73,0,0,0-.37-4.11l5.07-.86a15.66,15.66,0,0,1,.32,2.85v2.27a8,8,0,0,1-.11,1.64,4,4,0,0,1,2.62-.83c3.45,0,5.84,2.45,5.84,7.43,0,3-.92,5.5-2.88,7m-4.17-10.42a1.54,1.54,0,0,0-1.29.72v6.22a1.71,1.71,0,0,0,1.23.49c1.27,0,1.76-1,1.76-3.77,0-2.94-.58-3.66-1.7-3.66"/><path class="cls-22" d="M694.92,382.23c-4.26,0-6.87-2.82-6.87-7.74,0-4.63,2.82-7.86,7.16-7.86,3.65,0,6.79,2.1,6.79,7.42,0,5.87-3.54,8.17-7.08,8.17m.09-12.11c-1,0-1.55.78-1.55,4.46,0,2.88.17,4.14,1.58,4.14,1.18,0,1.55-1.27,1.55-4.81,0-3-.4-3.8-1.59-3.8"/></g></g></svg>