<?xml version="1.0" encoding="utf-8"?>
<!-- Generator: Adobe Illustrator 21.0.2, SVG Export Plug-In . SVG Version: 6.00 Build 0)  -->
<svg version="1.1" id="Ebene_1" xmlns="http://www.w3.org/2000/svg" xmlns:xlink="http://www.w3.org/1999/xlink" x="0px" y="0px"
	 viewBox="0 0 538.6 326" style="enable-background:new 0 0 538.6 326;" xml:space="preserve">
<style type="text/css">
	
		.st0{clip-path:url(#SVGID_2_);fill:none;stroke:#4F4F4C;stroke-width:2;stroke-linecap:round;stroke-linejoin:round;stroke-miterlimit:10;}
	.st1{clip-path:url(#SVGID_2_);fill:#4F4F4C;}
	.st2{clip-path:url(#SVGID_2_);fill:none;stroke:#4F4F4C;stroke-width:2;stroke-miterlimit:10;}
	.st3{clip-path:url(#SVGID_2_);fill:#00819B;}
	
		.st4{clip-path:url(#SVGID_2_);fill:none;stroke:#00819B;stroke-width:2;stroke-linecap:round;stroke-linejoin:round;stroke-miterlimit:10;}
	.st5{clip-path:url(#SVGID_2_);}
	.st6{fill:#FFFFFF;}
	.st7{fill:#4F4F4C;}
	.st8{clip-path:url(#SVGID_4_);}
	.st9{clip-path:url(#SVGID_6_);fill:#FFFFFF;}
	.st10{clip-path:url(#SVGID_6_);fill:none;stroke:#1D2D44;stroke-width:0.7086;}
	.st11{clip-path:url(#SVGID_6_);fill:#1D2D44;}
	.st12{clip-path:url(#SVGID_6_);fill:none;stroke:#FFFFFF;stroke-width:7.374281e-02;}
	.st13{clip-path:url(#SVGID_6_);fill:none;stroke:#1D2D44;stroke-width:0.2244;}
	.st14{clip-path:url(#SVGID_8_);}
	.st15{clip-path:url(#SVGID_8_);fill:#00819B;}
	
		.st16{clip-path:url(#SVGID_8_);fill:none;stroke:#00819B;stroke-width:2;stroke-linecap:round;stroke-linejoin:round;stroke-miterlimit:10;}
	.st17{clip-path:url(#SVGID_10_);}
	.st18{clip-path:url(#SVGID_12_);fill:#1D2D44;}
	.st19{clip-path:url(#SVGID_12_);fill:#FFFFFF;}
	.st20{clip-path:url(#SVGID_12_);fill:none;stroke:#1D2D44;stroke-width:0.3281;}
	.st21{clip-path:url(#SVGID_14_);fill:#00819B;}
	
		.st22{clip-path:url(#SVGID_14_);fill:none;stroke:#00819B;stroke-width:2;stroke-linecap:round;stroke-linejoin:round;stroke-miterlimit:10;}
	.st23{clip-path:url(#SVGID_14_);}
	.st24{clip-path:url(#SVGID_16_);}
	.st25{clip-path:url(#SVGID_18_);fill:#1D2D44;}
	.st26{clip-path:url(#SVGID_18_);fill:#FFFFFF;}
	.st27{clip-path:url(#SVGID_18_);fill:none;stroke:#1D2D44;stroke-width:0.3848;}
</style>
<g>
	<defs>
		<rect id="SVGID_1_" width="538.6" height="326"/>
	</defs>
	<clipPath id="SVGID_2_">
		<use xlink:href="#SVGID_1_"  style="overflow:visible;"/>
	</clipPath>
	<polyline class="st0" points="405.4,212.3 405.4,162.5 337.3,162.5 269.3,162.5 269.3,125.6 	"/>
	<polygon class="st1" points="269.3,116 265.7,125.6 272.9,125.6 	"/>
	<polygon class="st2" points="269.3,116 265.7,125.6 272.9,125.6 	"/>
	<polyline class="st0" points="130.4,212.3 130.4,162.5 199.8,162.5 269.3,162.5 269.3,125.6 	"/>
	<polygon class="st1" points="269.3,116 265.7,125.6 272.9,125.6 	"/>
	<polygon class="st2" points="269.3,116 265.7,125.6 272.9,125.6 	"/>
	<rect x="141.7" y="13.9" class="st3" width="255.1" height="97.8"/>
	<rect x="141.7" y="13.9" class="st4" width="255.1" height="97.8"/>
	<g class="st5">
		<path class="st6" d="M220.8,84.7h-1.5l-1-3.4h-4.1l-1.1,3.4h-1.3l3.7-11h1.7L220.8,84.7z M217.9,80.2l-1.7-5.3l-0.5,1.6
			c-0.1,0.5-0.5,1.7-1.2,3.8H217.9z"/>
		<path class="st6" d="M228.7,84.2l-0.8,0.8c-0.5-0.4-0.8-0.8-0.9-1.3c-0.6,0.8-1.5,1.2-2.5,1.2c-1.5,0-2.3-0.8-2.3-2.3v-5.9
			l1.2-0.2v5.7c0,1.1,0.5,1.6,1.5,1.6c0.4,0,0.8-0.1,1.2-0.4c0.4-0.3,0.6-0.6,0.8-1v-5.7l1.2-0.2v5.7c0,0.7,0.1,1.2,0.2,1.5
			C228.4,83.9,228.6,84,228.7,84.2z"/>
		<path class="st6" d="M234.2,76.7l-0.4,1h-1.7v5.1c0,0.4,0.1,0.7,0.2,0.9c0.2,0.2,0.4,0.3,0.8,0.3c0.3,0,0.6-0.1,0.8-0.2l0.2,0.8
			c-0.4,0.2-0.9,0.3-1.4,0.3c-1.2,0-1.8-0.6-1.8-1.8v-5.5h-1v-1h1v-0.1c0-0.1,0-0.7,0.1-1.7l0-0.2l1.3-0.3c-0.1,0.9-0.2,1.6-0.2,2.3
			H234.2z"/>
		<path class="st6" d="M241.9,84.7h-1.2v-5.5c0-0.5-0.1-0.9-0.2-1.1c-0.2-0.3-0.5-0.4-1-0.4c-0.8,0-1.6,0.4-2.3,1.3v5.7h-1.2v-9.8
			c0-0.6-0.1-1.1-0.2-1.6l1.2-0.2c0.1,0.5,0.2,1.1,0.2,1.8v1.9c0,0.3,0,0.7,0,1.1c0.2-0.2,0.5-0.4,0.8-0.6c0.7-0.4,1.3-0.6,1.9-0.6
			c0.5,0,1,0.1,1.4,0.4c0.4,0.3,0.7,0.7,0.7,1.2c0,0.2,0,0.5,0,0.8V84.7z"/>
		<path class="st6" d="M250.3,80.9h-5v0.2c0,0.8,0.1,1.4,0.4,1.8c0.4,0.7,1.1,1,2,1c0.8,0,1.4-0.2,2-0.8l0.5,0.8
			c-0.7,0.7-1.6,1-2.7,1c-1.2,0-2.1-0.4-2.7-1.3c-0.6-0.8-0.8-1.7-0.8-3c0-1.1,0.3-2.1,0.8-2.8c0.6-0.9,1.5-1.3,2.5-1.3
			c0.9,0,1.6,0.3,2.2,0.9c0.4,0.4,0.7,0.9,0.8,1.6c0.1,0.4,0.1,1,0.1,1.8V80.9z M249,80c0-0.8-0.1-1.3-0.3-1.7
			c-0.3-0.5-0.8-0.8-1.5-0.8c-1.2,0-1.8,0.8-1.8,2.5H249z"/>
		<path class="st6" d="M258.4,84.7h-1.3v-5.4c0-0.5-0.1-0.9-0.2-1.2c-0.2-0.3-0.5-0.5-1-0.5c-0.4,0-0.8,0.1-1.2,0.4
			c-0.4,0.2-0.7,0.5-1,0.8v6h-1.2v-5.9c0-0.8-0.1-1.4-0.3-1.9l1.2-0.3c0.2,0.4,0.3,0.8,0.3,1.2c0.8-0.8,1.7-1.2,2.5-1.2
			c0.4,0,0.8,0.1,1.2,0.3c0.4,0.2,0.6,0.5,0.8,0.9c0.1,0.3,0.2,0.6,0.2,0.9V84.7z"/>
		<path class="st6" d="M264.5,76.7l-0.4,1h-1.7v5.1c0,0.4,0.1,0.7,0.2,0.9c0.2,0.2,0.4,0.3,0.8,0.3c0.3,0,0.6-0.1,0.8-0.2l0.2,0.8
			c-0.4,0.2-0.9,0.3-1.4,0.3c-1.2,0-1.8-0.6-1.8-1.8v-5.5h-1v-1h1v-0.1c0-0.1,0-0.7,0.1-1.7l0-0.2l1.3-0.3c-0.1,0.9-0.2,1.6-0.2,2.3
			H264.5z"/>
		<path class="st6" d="M267.8,74.2c0,0.3-0.1,0.5-0.3,0.7c-0.2,0.2-0.4,0.3-0.7,0.3c-0.3,0-0.5-0.1-0.7-0.3
			c-0.2-0.2-0.3-0.4-0.3-0.7c0-0.3,0.1-0.5,0.3-0.7c0.2-0.2,0.4-0.3,0.7-0.3s0.5,0.1,0.7,0.3C267.7,73.7,267.8,74,267.8,74.2z
			 M267.5,84.7h-1.3v-7.9l1.3-0.2V84.7z"/>
		<path class="st6" d="M274.5,73.6l-0.5,0.9c-0.4-0.2-0.8-0.4-1.2-0.4c-0.7,0-1.1,0.5-1.1,1.4v1.3h2.2l-0.4,0.9h-1.8v7h-1.3v-7h-0.8
			v-0.9h0.8v-1.3c0-0.9,0.3-1.5,0.9-2c0.4-0.3,0.8-0.4,1.4-0.4C273.5,73.1,274,73.2,274.5,73.6z"/>
		<path class="st6" d="M276.4,74.2c0,0.3-0.1,0.5-0.3,0.7c-0.2,0.2-0.4,0.3-0.7,0.3c-0.3,0-0.5-0.1-0.7-0.3
			c-0.2-0.2-0.3-0.4-0.3-0.7c0-0.3,0.1-0.5,0.3-0.7c0.2-0.2,0.4-0.3,0.7-0.3s0.5,0.1,0.7,0.3C276.3,73.7,276.4,74,276.4,74.2z
			 M276.1,84.7h-1.3v-7.9l1.3-0.2V84.7z"/>
		<path class="st6" d="M283.8,83.7l-0.6,1h-5.3v-1l4.3-6h-4v-1h5.3v1l-4.1,6H283.8z"/>
		<path class="st6" d="M287.3,74.2c0,0.3-0.1,0.5-0.3,0.7c-0.2,0.2-0.4,0.3-0.7,0.3c-0.3,0-0.5-0.1-0.7-0.3
			c-0.2-0.2-0.3-0.4-0.3-0.7c0-0.3,0.1-0.5,0.3-0.7c0.2-0.2,0.4-0.3,0.7-0.3s0.5,0.1,0.7,0.3C287.2,73.7,287.3,74,287.3,74.2z
			 M286.9,84.7h-1.3v-7.9l1.3-0.2V84.7z"/>
		<path class="st6" d="M295.5,80.9h-5v0.2c0,0.8,0.1,1.4,0.4,1.8c0.4,0.7,1.1,1,2,1c0.8,0,1.4-0.2,2-0.8l0.5,0.8
			c-0.7,0.7-1.6,1-2.7,1c-1.2,0-2.1-0.4-2.7-1.3c-0.6-0.8-0.8-1.7-0.8-3c0-1.1,0.3-2.1,0.8-2.8c0.6-0.9,1.5-1.3,2.5-1.3
			c0.9,0,1.6,0.3,2.2,0.9c0.4,0.4,0.7,0.9,0.8,1.6c0.1,0.4,0.1,1,0.1,1.8V80.9z M294.2,80c0-0.8-0.1-1.3-0.3-1.7
			c-0.3-0.5-0.8-0.8-1.5-0.8c-1.2,0-1.8,0.8-1.8,2.5H294.2z"/>
		<path class="st6" d="M301.6,76.6l-0.5,1.3c-0.1,0-0.3,0-0.4,0c-0.3,0-0.6,0.1-1,0.3c-0.3,0.2-0.5,0.4-0.7,0.7
			c-0.1,0.2-0.1,0.5-0.1,0.9v5h-1.2v-6.1c0-0.7-0.1-1.3-0.3-1.8l1.3-0.3c0.2,0.4,0.3,0.8,0.3,1.2v0.1c0.6-0.9,1.4-1.3,2.2-1.3
			C301.3,76.5,301.4,76.5,301.6,76.6z"/>
		<path class="st6" d="M309.3,84.2l-0.8,0.8c-0.5-0.4-0.8-0.8-0.9-1.3c-0.6,0.8-1.5,1.2-2.5,1.2c-1.5,0-2.3-0.8-2.3-2.3v-5.9
			l1.2-0.2v5.7c0,1.1,0.5,1.6,1.5,1.6c0.4,0,0.8-0.1,1.2-0.4c0.4-0.3,0.6-0.6,0.8-1v-5.7l1.2-0.2v5.7c0,0.7,0.1,1.2,0.2,1.5
			C309,83.9,309.1,84,309.3,84.2z"/>
		<path class="st6" d="M317.2,84.7H316v-5.4c0-0.5-0.1-0.9-0.2-1.2c-0.2-0.3-0.5-0.5-1-0.5c-0.4,0-0.8,0.1-1.2,0.4
			c-0.4,0.2-0.7,0.5-1,0.8v6h-1.2v-5.9c0-0.8-0.1-1.4-0.3-1.9l1.2-0.3c0.2,0.4,0.3,0.8,0.3,1.2c0.8-0.8,1.7-1.2,2.5-1.2
			c0.4,0,0.8,0.1,1.2,0.3c0.4,0.2,0.6,0.5,0.8,0.9c0.1,0.3,0.2,0.6,0.2,0.9V84.7z"/>
		<path class="st6" d="M326.8,77.4c-0.4,0.3-0.9,0.5-1.3,0.5c-0.2,0-0.4,0-0.5-0.1c0.3,0.4,0.5,0.8,0.5,1.4c0,0.7-0.2,1.3-0.7,1.8
			c-0.5,0.5-1.1,0.7-1.8,0.7h-0.2l-0.2,0.1c-0.8,0.3-1.3,0.6-1.3,0.9c0,0.3,0.2,0.4,0.6,0.4h1.3c0.9,0,1.5,0.1,1.9,0.4
			c0.6,0.4,0.9,1,0.9,1.7c0,1.7-1.1,2.5-3.2,2.5c-2.3,0-3.5-0.7-3.5-2c0-0.3,0.1-0.5,0.2-0.8l1.3-0.1l-0.1,0.1
			c-0.1,0.2-0.2,0.4-0.2,0.6c0,0.9,0.7,1.3,2.1,1.3c1.3,0,1.9-0.5,1.9-1.4c0-0.5-0.2-0.9-0.6-1.1c-0.3-0.1-0.7-0.2-1.4-0.2
			c-0.1,0-0.3,0-0.6,0c-0.3,0-0.5,0-0.6,0c-1,0-1.5-0.4-1.5-1.1c0-0.6,0.4-1,1.3-1.3l0.1,0c-0.5-0.2-1-0.5-1.3-0.9
			c-0.3-0.4-0.5-0.9-0.5-1.4c0-0.8,0.3-1.5,0.9-2c0.5-0.5,1.2-0.7,2.1-0.7c0.4,0,0.8,0.1,1.2,0.2l0.5,0.2c0.2,0.1,0.4,0.1,0.7,0.1
			c0.4,0,0.8-0.1,1.1-0.4L326.8,77.4z M324,79.2c0-1-0.5-1.6-1.5-1.6c-1,0-1.5,0.5-1.5,1.6c0,1,0.5,1.5,1.5,1.5
			C323.5,80.8,324,80.2,324,79.2z"/>
	</g>
	<g class="st5">
		<path class="st6" d="M252.9,91.7l-2.5,11h-1.7l-1.4-6.1c-0.3-1.2-0.5-2.2-0.6-3.1c-0.1,0.9-0.3,2-0.6,3l-1.3,6.2h-1.7l-2.6-11h1.4
			l1.4,6.4c0.1,0.5,0.3,1.6,0.6,3.3c0.1-0.9,0.4-2,0.6-3.2l1.5-6.6h1.5l1.4,6.4c0.4,1.7,0.6,2.8,0.7,3.4c0.1-0.8,0.3-2,0.6-3.4
			l1.4-6.4H252.9z"/>
		<path class="st6" d="M260.5,98.9h-5v0.2c0,0.8,0.1,1.4,0.4,1.8c0.4,0.7,1.1,1,2,1c0.8,0,1.4-0.2,2-0.8l0.5,0.8
			c-0.7,0.7-1.6,1-2.7,1c-1.2,0-2.1-0.4-2.7-1.3c-0.6-0.8-0.8-1.7-0.8-3c0-1.1,0.3-2.1,0.8-2.8c0.6-0.9,1.5-1.3,2.5-1.3
			c0.9,0,1.6,0.3,2.2,0.9c0.4,0.4,0.7,0.9,0.8,1.6c0.1,0.4,0.1,1,0.1,1.8V98.9z M259.1,98c0-0.8-0.1-1.3-0.3-1.7
			c-0.3-0.5-0.8-0.8-1.5-0.8c-1.2,0-1.8,0.8-1.8,2.5H259.1z"/>
		<path class="st6" d="M269.2,98.6c0,1.1-0.2,2.1-0.7,2.9c-0.6,0.9-1.4,1.4-2.4,1.4c-0.4,0-0.8-0.1-1.2-0.3c-0.4-0.2-0.7-0.4-1-0.7
			c0,0.3-0.1,0.6-0.2,0.9h-1.2c0.2-0.4,0.2-1,0.2-2v-7.6c0-0.8-0.1-1.5-0.3-1.9l1.3-0.3c0.1,0.6,0.2,1.3,0.2,2v1.8
			c0,0.5,0,0.8,0,0.9c0.7-0.7,1.5-1.1,2.3-1.1c1.1,0,1.9,0.4,2.4,1.3C269,96.5,269.2,97.5,269.2,98.6z M267.8,98.5
			c0-1.9-0.7-2.8-2-2.8c-0.8,0-1.5,0.3-2,1v4.1c0.5,0.6,1.1,1,2,1C267.1,101.7,267.8,100.7,267.8,98.5z"/>
		<path class="st6" d="M279.1,97.3c0,1.8-0.4,3.1-1.2,4.1c-0.5,0.6-1,0.9-1.6,1.1c-0.4,0.2-1.1,0.2-1.9,0.2h-2.9V91.8h2.2
			c0.9,0,1.6,0,2,0.1c0.5,0.1,1,0.3,1.5,0.7C278.5,93.5,279.1,95.1,279.1,97.3z M277.7,97.4c0-2.5-0.7-3.9-2.1-4.4
			c-0.3-0.1-0.8-0.2-1.4-0.2h-1.3v8.7h1.2c0.6,0,1,0,1.3-0.1c0.7-0.1,1.2-0.5,1.6-1.1C277.5,99.7,277.7,98.6,277.7,97.4z"/>
		<path class="st6" d="M289.2,102.7h-1.5l-1-3.4h-4.1l-1.1,3.4h-1.3l3.7-11h1.7L289.2,102.7z M286.3,98.2l-1.7-5.3l-0.5,1.6
			c-0.1,0.5-0.5,1.7-1.2,3.8H286.3z"/>
		<path class="st6" d="M298.2,91.7l-3.8,11h-1.3l-3.7-11h1.4l2.3,7c0.3,1,0.6,1.8,0.6,2.4c0.1-0.5,0.3-1.3,0.7-2.3l2.3-7.2H298.2z"
			/>
	</g>
	<g class="st5">
		<path class="st6" d="M226.1,37.9l-1.1-3.6h-4.5l-1.1,3.6H217l4.5-13.9h2.7l4.4,13.9H226.1z M224.4,32.3c0-0.1-0.1-0.2-0.2-0.5
			c-0.1-0.3-0.2-0.6-0.3-1.1c-0.1-0.4-0.2-0.9-0.4-1.3c-0.1-0.5-0.3-0.9-0.4-1.4c-0.1-0.4-0.2-0.8-0.3-1.1c-0.1-0.3-0.1-0.5-0.1-0.6
			h0c-0.3,1-0.5,1.8-0.8,2.7c-0.1,0.3-0.2,0.7-0.3,1c-0.1,0.3-0.2,0.7-0.3,1c-0.1,0.3-0.2,0.6-0.2,0.8c-0.1,0.2-0.1,0.4-0.2,0.5
			H224.4z"/>
		<path class="st6" d="M239.1,32.5c0,0.8-0.1,1.6-0.3,2.2c-0.2,0.6-0.5,1.1-0.9,1.5s-0.7,0.8-1.1,1c-0.4,0.2-0.8,0.4-1.1,0.5
			c-0.4,0.1-0.7,0.2-1,0.2c-0.3,0-0.7,0-1.2,0h-3V27.1h2.4c0.5,0,1.1,0,1.6,0.1s1,0.1,1.4,0.2c0.5,0.1,0.9,0.3,1.3,0.6
			c0.4,0.3,0.8,0.6,1.1,1c0.3,0.4,0.5,0.9,0.7,1.5C239,31,239.1,31.7,239.1,32.5z M236.6,32.7c0-0.5,0-1-0.1-1.4
			c-0.1-0.5-0.2-0.9-0.4-1.2c-0.2-0.4-0.5-0.7-0.9-0.9s-0.8-0.3-1.4-0.3h-1.2v7.3h1.4c0.5,0,0.9-0.1,1.2-0.3
			c0.3-0.2,0.6-0.4,0.8-0.8c0.2-0.3,0.3-0.7,0.4-1.1S236.6,33.1,236.6,32.7z"/>
		<path class="st6" d="M251.9,37.9l-0.4-6.3c0-0.2,0-0.4,0-0.7c0-0.3,0-0.5,0-0.8s0-0.4,0-0.6c0-0.2,0-0.3,0-0.3c0,0,0,0.1-0.1,0.3
			c0,0.2-0.1,0.4-0.2,0.6s-0.1,0.5-0.2,0.7c-0.1,0.3-0.1,0.5-0.2,0.6l-1.9,6.3h-1.9l-1.8-6.2c-0.1-0.2-0.1-0.4-0.2-0.6
			c-0.1-0.3-0.1-0.5-0.2-0.8c-0.1-0.3-0.1-0.5-0.2-0.7c0-0.2-0.1-0.3-0.1-0.4c0,0.4,0,0.7,0,0.9s0,0.5,0,0.8c0,0.3,0,0.5,0,0.7
			l-0.4,6.2h-2.2l1.1-10.8h2.9l1.7,5.8c0.1,0.2,0.1,0.4,0.2,0.7c0.1,0.3,0.1,0.5,0.2,0.7s0.1,0.4,0.1,0.6c0,0.2,0.1,0.3,0.1,0.3
			c0,0,0-0.1,0.1-0.3c0-0.2,0.1-0.4,0.1-0.6c0-0.2,0.1-0.5,0.2-0.8c0.1-0.3,0.1-0.5,0.2-0.7l1.7-5.7h2.9l1.1,10.8H251.9z"/>
		<path class="st6" d="M257.3,37.9V27.1h2.3v10.8H257.3z"/>
		<path class="st6" d="M269.2,37.9l-2.6-5c-0.1-0.3-0.3-0.6-0.5-0.9c-0.2-0.3-0.3-0.7-0.5-1c-0.2-0.4-0.3-0.7-0.5-1.1
			c0,0.4,0,0.8,0.1,1.2c0,0.3,0,0.7,0,1.1c0,0.4,0,0.7,0,1l0.1,4.7h-2.2V27.1h2.5l2.7,4.9c0.1,0.2,0.3,0.5,0.4,0.8
			c0.1,0.3,0.3,0.6,0.4,0.8c0.1,0.3,0.2,0.5,0.3,0.7s0.1,0.3,0.2,0.4c0,0,0-0.1,0-0.4c0-0.2-0.1-0.5-0.1-0.8c0-0.3,0-0.6-0.1-1
			c0-0.3,0-0.6,0-0.9l0-4.6h2.1v10.8H269.2z"/>
		<path class="st6" d="M287.9,26h-3.5v11.9h-2.3V26h-3.5V24h9.6L287.9,26z"/>
		<path class="st6" d="M299.2,32.4c0,0.8-0.1,1.6-0.3,2.3c-0.2,0.7-0.5,1.3-0.9,1.8c-0.4,0.5-0.9,0.9-1.6,1.2
			c-0.6,0.3-1.4,0.4-2.3,0.4c-0.8,0-1.6-0.1-2.2-0.4s-1.2-0.6-1.6-1.1c-0.4-0.5-0.8-1.1-1-1.8s-0.3-1.4-0.3-2.2
			c0-1.8,0.5-3.1,1.4-4.1c0.9-1,2.2-1.5,3.8-1.5c0.9,0,1.6,0.1,2.2,0.4c0.6,0.3,1.2,0.7,1.6,1.2c0.4,0.5,0.8,1.1,1,1.8
			C299.1,30.9,299.2,31.6,299.2,32.4z M296.7,32.5c0-0.5,0-0.9-0.1-1.4c-0.1-0.5-0.2-0.9-0.3-1.3s-0.4-0.7-0.8-0.9
			c-0.4-0.2-0.8-0.3-1.4-0.3c-0.6,0-1,0.1-1.3,0.4c-0.3,0.2-0.6,0.5-0.8,0.9c-0.2,0.4-0.3,0.8-0.4,1.2c-0.1,0.5-0.1,0.9-0.1,1.3
			c0,0.5,0,1,0.1,1.5c0.1,0.5,0.2,0.9,0.4,1.3c0.2,0.4,0.4,0.7,0.8,0.9s0.8,0.3,1.4,0.3c0.6,0,1-0.1,1.4-0.4
			c0.3-0.2,0.6-0.5,0.8-0.9c0.2-0.4,0.3-0.8,0.3-1.3C296.7,33.4,296.7,33,296.7,32.5z"/>
		<path class="st6" d="M311.9,32.4c0,0.8-0.1,1.6-0.3,2.3c-0.2,0.7-0.5,1.3-0.9,1.8c-0.4,0.5-0.9,0.9-1.6,1.2
			c-0.6,0.3-1.4,0.4-2.3,0.4c-0.8,0-1.6-0.1-2.2-0.4s-1.2-0.6-1.6-1.1c-0.4-0.5-0.8-1.1-1-1.8s-0.3-1.4-0.3-2.2
			c0-1.8,0.5-3.1,1.4-4.1c0.9-1,2.2-1.5,3.8-1.5c0.9,0,1.6,0.1,2.2,0.4c0.6,0.3,1.2,0.7,1.6,1.2c0.4,0.5,0.8,1.1,1,1.8
			C311.8,30.9,311.9,31.6,311.9,32.4z M309.3,32.5c0-0.5,0-0.9-0.1-1.4c-0.1-0.5-0.2-0.9-0.3-1.3s-0.4-0.7-0.8-0.9
			c-0.4-0.2-0.8-0.3-1.4-0.3c-0.6,0-1,0.1-1.3,0.4c-0.3,0.2-0.6,0.5-0.8,0.9c-0.2,0.4-0.3,0.8-0.4,1.2c-0.1,0.5-0.1,0.9-0.1,1.3
			c0,0.5,0,1,0.1,1.5c0.1,0.5,0.2,0.9,0.4,1.3c0.2,0.4,0.4,0.7,0.8,0.9s0.8,0.3,1.4,0.3c0.6,0,1-0.1,1.4-0.4
			c0.3-0.2,0.6-0.5,0.8-0.9c0.2-0.4,0.3-0.8,0.3-1.3C309.3,33.4,309.3,33,309.3,32.5z"/>
		<path class="st6" d="M321.1,37.9h-6.2V27.1h2.3v9h4.4L321.1,37.9z"/>
	</g>
	<g class="st5">
		<path class="st6" d="M206.7,46.7c1.2,0,2.1,0.4,2.8,1.2c0.6,0.8,1,1.9,1,3.4c0,1.5-0.3,2.6-1,3.4s-1.6,1.2-2.8,1.2
			c-1.2,0-2.1-0.4-2.8-1.2s-1-1.9-1-3.4c0-1.5,0.3-2.6,1-3.4S205.5,46.7,206.7,46.7z M206.7,47.9c-0.7,0-1.3,0.3-1.7,0.9
			s-0.6,1.4-0.6,2.5c0,1.1,0.2,1.9,0.6,2.5s0.9,0.9,1.7,0.9c0.7,0,1.3-0.3,1.7-0.9s0.6-1.4,0.6-2.5c0-1.1-0.2-2-0.6-2.5
			S207.4,47.9,206.7,47.9z"/>
		<path class="st6" d="M219.8,50.7v5h-1.4v-1.3c-0.3,0.5-0.7,0.9-1.2,1.2c-0.5,0.2-1,0.4-1.7,0.4c-0.9,0-1.6-0.3-2.1-0.8
			s-0.8-1.2-0.8-2c0-1,0.3-1.7,1-2.2c0.7-0.5,1.6-0.8,2.9-0.8h1.9v-0.2c0-0.7-0.2-1.2-0.5-1.5c-0.3-0.3-0.9-0.5-1.7-0.5
			c-0.5,0-1,0.1-1.5,0.2s-1,0.3-1.5,0.6v-1.4c0.5-0.2,1-0.4,1.5-0.5c0.5-0.1,1-0.2,1.4-0.2c0.7,0,1.3,0.1,1.9,0.3
			c0.5,0.2,0.9,0.5,1.2,1c0.2,0.3,0.3,0.6,0.4,1C219.7,49.3,219.8,49.9,219.8,50.7z M217,51.3h-0.5c-0.8,0-1.5,0.1-1.9,0.4
			c-0.4,0.3-0.6,0.7-0.6,1.3c0,0.5,0.2,0.9,0.5,1.2c0.3,0.3,0.8,0.4,1.3,0.4c0.8,0,1.4-0.3,1.9-0.8s0.7-1.3,0.7-2.3v-0.3H217z"/>
		<path class="st6" d="M222.7,52.4v-5.4h1.4v5.4c0,0.8,0.1,1.4,0.4,1.7c0.3,0.4,0.7,0.6,1.3,0.6c0.7,0,1.2-0.2,1.6-0.7
			s0.5-1.2,0.5-2.1v-4.9h1.4v8.7h-1.4v-1.3c-0.3,0.5-0.6,0.9-1,1.1c-0.4,0.3-1,0.4-1.5,0.4c-0.9,0-1.6-0.3-2-0.9
			S222.7,53.6,222.7,52.4z"/>
		<path class="st6" d="M235.6,44.4v2.5h3.3V48h-3.3v4.8c0,0.6,0.1,1.1,0.4,1.4c0.2,0.3,0.7,0.4,1.3,0.4h1.6v1.1h-1.8
			c-1.1,0-1.8-0.2-2.3-0.6c-0.4-0.4-0.7-1.2-0.7-2.2V48h-2.3v-1.1h2.3v-2.5H235.6z"/>
		<path class="st6" d="M248.6,50.3v5.4h-1.4v-5.4c0-0.8-0.1-1.4-0.4-1.7c-0.3-0.4-0.7-0.6-1.3-0.6c-0.7,0-1.2,0.2-1.6,0.7
			c-0.4,0.5-0.5,1.2-0.5,2.1v4.9h-1.4V43.5h1.4v4.7c0.3-0.5,0.6-0.9,1-1.1s1-0.4,1.6-0.4c0.9,0,1.6,0.3,2,0.9
			C248.4,48.2,248.6,49.1,248.6,50.3z"/>
		<path class="st6" d="M252.9,54.3h5.4v1.3h-7.1v-1.3c1-1,1.8-1.9,2.6-2.7c0.7-0.8,1.2-1.3,1.5-1.7c0.5-0.6,0.9-1.1,1.1-1.5
			c0.2-0.4,0.3-0.8,0.3-1.2c0-0.7-0.2-1.2-0.6-1.5s-0.9-0.6-1.6-0.6c-0.5,0-1,0.1-1.5,0.3c-0.5,0.2-1.1,0.4-1.7,0.8v-1.6
			c0.5-0.3,1.1-0.4,1.6-0.6c0.5-0.1,1-0.2,1.5-0.2c1.1,0,2.1,0.3,2.8,0.9s1,1.4,1,2.4c0,0.5-0.1,1-0.3,1.5c-0.2,0.5-0.6,1.1-1.1,1.7
			c-0.3,0.3-0.7,0.8-1.3,1.4S254.1,53.2,252.9,54.3z"/>
		<path class="st6" d="M264.5,46.7c1.2,0,2.1,0.4,2.8,1.2c0.6,0.8,1,1.9,1,3.4c0,1.5-0.3,2.6-1,3.4s-1.6,1.2-2.8,1.2
			c-1.2,0-2.1-0.4-2.8-1.2s-1-1.9-1-3.4c0-1.5,0.3-2.6,1-3.4S263.3,46.7,264.5,46.7z M264.5,47.9c-0.7,0-1.3,0.3-1.7,0.9
			s-0.6,1.4-0.6,2.5c0,1.1,0.2,1.9,0.6,2.5s0.9,0.9,1.7,0.9c0.7,0,1.3-0.3,1.7-0.9s0.6-1.4,0.6-2.5c0-1.1-0.2-2-0.6-2.5
			S265.2,47.9,264.5,47.9z"/>
		<path class="st6" d="M269.3,46.9h1.4l1.5,7.1l1.2-4.5h1.2L276,54l1.5-7.1h1.4l-2,8.8h-1.4l-1.4-4.8l-1.4,4.8h-1.4L269.3,46.9z"/>
		<path class="st6" d="M287.1,50.3v5.4h-1.4v-5.4c0-0.8-0.1-1.4-0.4-1.7S284.6,48,284,48c-0.7,0-1.2,0.2-1.6,0.7s-0.5,1.2-0.5,2.1
			v4.9h-1.4v-8.8h1.4v1.3c0.3-0.5,0.6-0.9,1-1.1s1-0.4,1.6-0.4c0.9,0,1.6,0.3,2,0.9S287.1,49.1,287.1,50.3z"/>
		<path class="st6" d="M296.8,55.2c-0.4,0.2-0.8,0.4-1.2,0.5s-0.8,0.2-1.3,0.2c-1.4,0-2.4-0.4-3.2-1.2s-1.1-1.9-1.1-3.4
			s0.4-2.6,1.1-3.4s1.8-1.2,3.2-1.2c0.4,0,0.8,0.1,1.2,0.2s0.8,0.3,1.2,0.5v1.5c-0.4-0.3-0.8-0.6-1.1-0.7s-0.8-0.2-1.3-0.2
			c-0.9,0-1.6,0.3-2.1,0.9s-0.7,1.4-0.7,2.5c0,1.1,0.2,1.9,0.7,2.5s1.2,0.9,2.1,0.9c0.5,0,0.9-0.1,1.3-0.2s0.8-0.4,1.1-0.7V55.2z"/>
		<path class="st6" d="M303.8,52.5c0,0.6,0.1,1.1,0.4,1.5s0.6,0.5,1.1,0.5h1.7v1.2h-1.8c-0.9,0-1.5-0.3-2-0.8s-0.7-1.3-0.7-2.3v-7.9
			h-2.3v-1.1h3.7V52.5z"/>
		<path class="st6" d="M312.6,46.7c1.2,0,2.1,0.4,2.8,1.2s1,1.9,1,3.4c0,1.5-0.3,2.6-1,3.4s-1.6,1.2-2.8,1.2c-1.2,0-2.1-0.4-2.8-1.2
			s-1-1.9-1-3.4c0-1.5,0.3-2.6,1-3.4S311.4,46.7,312.6,46.7z M312.6,47.9c-0.7,0-1.3,0.3-1.7,0.9s-0.6,1.4-0.6,2.5
			c0,1.1,0.2,1.9,0.6,2.5s0.9,0.9,1.7,0.9c0.7,0,1.3-0.3,1.7-0.9s0.6-1.4,0.6-2.5c0-1.1-0.2-2-0.6-2.5S313.4,47.9,312.6,47.9z"/>
		<path class="st6" d="M319,52.4v-5.4h1.4v5.4c0,0.8,0.1,1.4,0.4,1.7s0.7,0.6,1.3,0.6c0.7,0,1.2-0.2,1.6-0.7s0.5-1.2,0.5-2.1v-4.9
			h1.4v8.7h-1.4v-1.3c-0.3,0.5-0.6,0.9-1,1.1s-1,0.4-1.5,0.4c-0.9,0-1.6-0.3-2-0.9S319,53.6,319,52.4z"/>
		<path class="st6" d="M333.8,48v-4.5h1.4v12.2h-1.4v-1.1c-0.2,0.4-0.6,0.8-1,1s-0.9,0.3-1.4,0.3c-1.1,0-1.9-0.4-2.5-1.2
			s-0.9-2-0.9-3.4c0-1.4,0.3-2.5,0.9-3.3s1.4-1.2,2.5-1.2c0.5,0,1,0.1,1.4,0.3S333.6,47.6,333.8,48z M329.6,51.3
			c0,1.1,0.2,2,0.5,2.5s0.9,0.9,1.6,0.9s1.2-0.3,1.6-0.9s0.5-1.4,0.5-2.5c0-1.1-0.2-1.9-0.5-2.5s-0.9-0.9-1.6-0.9s-1.2,0.3-1.6,0.9
			S329.6,50.2,329.6,51.3z"/>
	</g>
	<g class="st5">
		<path class="st7" d="M221.7,179.3l-0.6,0.9c-0.6-0.2-0.9-0.6-1.1-1.2c-0.7,0.7-1.5,1.1-2.3,1.1c-0.8,0-1.4-0.2-1.8-0.6
			c-0.5-0.4-0.7-1-0.7-1.7c0-1,0.5-1.8,1.4-2.3c0.7-0.4,1.7-0.6,2.8-0.6c0.2,0,0.4,0,0.6,0v-0.6c0-0.6-0.1-1.1-0.3-1.2
			c-0.3-0.3-0.6-0.4-1.1-0.4c-0.9,0-1.8,0.3-2.5,0.9l-0.6-0.9c1.1-0.7,2.2-1.1,3.3-1.1c1.1,0,1.9,0.4,2.2,1.2
			c0.1,0.3,0.2,0.7,0.2,1.4v0.4l-0.1,2.6c0,0.1,0,0.2,0,0.4c0,0.4,0,0.8,0.1,0.9C221.2,178.9,221.4,179.1,221.7,179.3z M219.8,175.8
			c-0.4,0-0.6,0-0.6,0c-1.8,0-2.8,0.6-2.8,1.9c0,1,0.5,1.5,1.4,1.5c0.9,0,1.5-0.4,1.9-1.2L219.8,175.8z"/>
		<path class="st7" d="M230.3,175.8c0,1.1-0.2,2.1-0.7,2.9c-0.6,0.9-1.4,1.4-2.4,1.4c-0.4,0-0.8-0.1-1.2-0.3c-0.4-0.2-0.7-0.4-1-0.7
			c0,0.3-0.1,0.6-0.2,0.9h-1.2c0.2-0.4,0.2-1,0.2-2v-7.6c0-0.8-0.1-1.5-0.3-1.9l1.3-0.3c0.1,0.6,0.2,1.3,0.2,2v1.8
			c0,0.5,0,0.8,0,0.9c0.7-0.7,1.5-1.1,2.3-1.1c1.1,0,1.9,0.4,2.4,1.3C230.1,173.8,230.3,174.7,230.3,175.8z M228.9,175.7
			c0-1.9-0.7-2.8-2-2.8c-0.8,0-1.5,0.3-2,1v4.1c0.5,0.6,1.1,1,2,1C228.2,179,228.9,177.9,228.9,175.7z"/>
		<path class="st7" d="M238.5,179.9h-1.2v-5.5c0-0.5-0.1-0.9-0.2-1.1c-0.2-0.3-0.5-0.4-1-0.4c-0.8,0-1.6,0.4-2.3,1.3v5.7h-1.2v-9.8
			c0-0.6-0.1-1.1-0.2-1.6l1.2-0.2c0.1,0.5,0.2,1.1,0.2,1.8v1.9c0,0.3,0,0.7,0,1.1c0.2-0.2,0.5-0.4,0.8-0.6c0.7-0.4,1.3-0.6,1.9-0.6
			c0.5,0,1,0.1,1.4,0.4c0.4,0.3,0.7,0.7,0.7,1.2c0,0.2,0,0.5,0,0.8V179.9z"/>
		<path class="st7" d="M247.1,179.3l-0.6,0.9c-0.6-0.2-0.9-0.6-1.1-1.2c-0.7,0.7-1.5,1.1-2.3,1.1c-0.8,0-1.4-0.2-1.8-0.6
			c-0.5-0.4-0.7-1-0.7-1.7c0-1,0.5-1.8,1.4-2.3c0.7-0.4,1.7-0.6,2.8-0.6c0.2,0,0.4,0,0.6,0v-0.6c0-0.6-0.1-1.1-0.3-1.2
			c-0.3-0.3-0.6-0.4-1.1-0.4c-0.9,0-1.8,0.3-2.5,0.9l-0.6-0.9c1.1-0.7,2.2-1.1,3.3-1.1c1.1,0,1.9,0.4,2.2,1.2
			c0.1,0.3,0.2,0.7,0.2,1.4v0.4l-0.1,2.6c0,0.1,0,0.2,0,0.4c0,0.4,0,0.8,0.1,0.9C246.6,178.9,246.8,179.1,247.1,179.3z M242.9,170
			c0,0.2-0.1,0.4-0.2,0.6c-0.2,0.2-0.3,0.2-0.6,0.2c-0.2,0-0.4-0.1-0.6-0.2s-0.2-0.4-0.2-0.6c0-0.2,0.1-0.4,0.2-0.6s0.4-0.2,0.6-0.2
			c0.2,0,0.4,0.1,0.6,0.2C242.8,169.5,242.9,169.7,242.9,170z M245.3,175.8c-0.4,0-0.6,0-0.6,0c-1.8,0-2.8,0.6-2.8,1.9
			c0,1,0.5,1.5,1.4,1.5c0.9,0,1.5-0.4,1.9-1.2L245.3,175.8z M246.2,170c0,0.2-0.1,0.4-0.2,0.6c-0.2,0.2-0.3,0.2-0.6,0.2
			c-0.2,0-0.4-0.1-0.6-0.2c-0.2-0.2-0.2-0.4-0.2-0.6c0-0.2,0.1-0.4,0.2-0.6c0.2-0.2,0.4-0.2,0.6-0.2c0.2,0,0.4,0.1,0.6,0.2
			C246.1,169.5,246.2,169.7,246.2,170z"/>
		<path class="st7" d="M255,179.9h-1.3v-5.4c0-0.5-0.1-0.9-0.2-1.2c-0.2-0.3-0.5-0.5-1-0.5c-0.4,0-0.8,0.1-1.2,0.4
			c-0.4,0.2-0.7,0.5-1,0.8v6h-1.2V174c0-0.8-0.1-1.4-0.3-1.9l1.2-0.3c0.2,0.4,0.3,0.8,0.3,1.2c0.8-0.8,1.7-1.2,2.5-1.2
			c0.4,0,0.8,0.1,1.2,0.3c0.4,0.2,0.6,0.5,0.8,0.9c0.1,0.3,0.2,0.6,0.2,0.9V179.9z"/>
		<path class="st7" d="M264.6,172.6c-0.4,0.3-0.9,0.5-1.3,0.5c-0.2,0-0.4,0-0.5-0.1c0.3,0.4,0.5,0.8,0.5,1.4c0,0.7-0.2,1.3-0.7,1.8
			c-0.5,0.5-1.1,0.7-1.8,0.7h-0.2l-0.2,0.1c-0.8,0.3-1.3,0.6-1.3,0.9c0,0.3,0.2,0.4,0.6,0.4h1.3c0.9,0,1.5,0.1,1.9,0.4
			c0.6,0.4,0.9,1,0.9,1.7c0,1.7-1.1,2.5-3.2,2.5c-2.3,0-3.5-0.7-3.5-2c0-0.3,0.1-0.5,0.2-0.8l1.3-0.1l-0.1,0.1
			c-0.1,0.2-0.2,0.4-0.2,0.6c0,0.9,0.7,1.3,2.1,1.3c1.3,0,1.9-0.5,1.9-1.4c0-0.5-0.2-0.9-0.6-1.1c-0.3-0.1-0.7-0.2-1.4-0.2
			c-0.1,0-0.3,0-0.6,0s-0.5,0-0.6,0c-1,0-1.5-0.4-1.5-1.1c0-0.6,0.4-1,1.3-1.3l0.1,0c-0.5-0.2-1-0.5-1.3-0.9
			c-0.3-0.4-0.5-0.9-0.5-1.4c0-0.8,0.3-1.5,0.9-2c0.5-0.5,1.2-0.7,2.1-0.7c0.4,0,0.8,0.1,1.2,0.2l0.5,0.2c0.2,0.1,0.4,0.1,0.7,0.1
			c0.4,0,0.8-0.1,1.1-0.4L264.6,172.6z M261.8,174.4c0-1-0.5-1.6-1.5-1.6c-1,0-1.5,0.5-1.5,1.6c0,1,0.5,1.5,1.5,1.5
			C261.3,176,261.8,175.5,261.8,174.4z"/>
		<path class="st7" d="M267.6,169.5c0,0.3-0.1,0.5-0.3,0.7c-0.2,0.2-0.4,0.3-0.7,0.3c-0.3,0-0.5-0.1-0.7-0.3
			c-0.2-0.2-0.3-0.4-0.3-0.7c0-0.3,0.1-0.5,0.3-0.7c0.2-0.2,0.4-0.3,0.7-0.3s0.5,0.1,0.7,0.3C267.5,168.9,267.6,169.2,267.6,169.5z
			 M267.3,179.9H266V172l1.3-0.2V179.9z"/>
		<path class="st7" d="M276.9,172.6c-0.4,0.3-0.9,0.5-1.3,0.5c-0.2,0-0.4,0-0.5-0.1c0.3,0.4,0.5,0.8,0.5,1.4c0,0.7-0.2,1.3-0.7,1.8
			c-0.5,0.5-1.1,0.7-1.8,0.7h-0.2l-0.2,0.1c-0.8,0.3-1.3,0.6-1.3,0.9c0,0.3,0.2,0.4,0.6,0.4h1.3c0.9,0,1.5,0.1,1.9,0.4
			c0.6,0.4,0.9,1,0.9,1.7c0,1.7-1.1,2.5-3.2,2.5c-2.3,0-3.5-0.7-3.5-2c0-0.3,0.1-0.5,0.2-0.8l1.3-0.1l-0.1,0.1
			c-0.1,0.2-0.2,0.4-0.2,0.6c0,0.9,0.7,1.3,2.1,1.3c1.3,0,1.9-0.5,1.9-1.4c0-0.5-0.2-0.9-0.6-1.1c-0.3-0.1-0.7-0.2-1.4-0.2
			c-0.1,0-0.3,0-0.6,0c-0.3,0-0.5,0-0.6,0c-1,0-1.5-0.4-1.5-1.1c0-0.6,0.4-1,1.3-1.3l0.1,0c-0.5-0.2-1-0.5-1.3-0.9
			c-0.3-0.4-0.5-0.9-0.5-1.4c0-0.8,0.3-1.5,0.9-2c0.5-0.5,1.2-0.7,2.1-0.7c0.4,0,0.8,0.1,1.2,0.2l0.5,0.2c0.2,0.1,0.4,0.1,0.7,0.1
			c0.4,0,0.8-0.1,1.1-0.4L276.9,172.6z M274,174.4c0-1-0.5-1.6-1.5-1.6c-1,0-1.5,0.5-1.5,1.6c0,1,0.5,1.5,1.5,1.5
			C273.5,176,274,175.5,274,174.4z"/>
		<path class="st7" d="M289.6,171.9l-3,8h-1.2l-2.9-8l1.3-0.3l1.9,5.5c0.2,0.4,0.3,0.9,0.4,1.4h0c0.1-0.4,0.2-0.8,0.4-1.3l1.8-5.3
			L289.6,171.9z"/>
		<path class="st7" d="M297.8,176.1c0,1.5-0.4,2.6-1.2,3.3c-0.6,0.5-1.3,0.8-2.2,0.8c-1.2,0-2-0.4-2.6-1.3c-0.5-0.8-0.8-1.7-0.8-2.9
			c0-1.2,0.3-2.1,0.8-2.9c0.6-0.9,1.5-1.3,2.6-1.3c1.2,0,2.1,0.4,2.7,1.3C297.5,173.8,297.8,174.8,297.8,176.1z M296.4,176.2
			c0-1-0.1-1.8-0.3-2.3c-0.3-0.8-0.9-1.2-1.8-1.2c-0.8,0-1.4,0.3-1.7,0.9c-0.2,0.4-0.4,1.1-0.4,2c0,1,0.1,1.8,0.3,2.3
			c0.3,0.8,0.9,1.1,1.8,1.1C295.7,179.1,296.4,178.1,296.4,176.2z"/>
		<path class="st7" d="M306,179.9h-1.3v-5.4c0-0.5-0.1-0.9-0.2-1.2c-0.2-0.3-0.5-0.5-1-0.5c-0.4,0-0.8,0.1-1.2,0.4
			c-0.4,0.2-0.7,0.5-1,0.8v6h-1.2V174c0-0.8-0.1-1.4-0.3-1.9l1.2-0.3c0.2,0.4,0.3,0.8,0.3,1.2c0.8-0.8,1.7-1.2,2.5-1.2
			c0.4,0,0.8,0.1,1.2,0.3c0.4,0.2,0.6,0.5,0.8,0.9c0.1,0.3,0.2,0.6,0.2,0.9V179.9z"/>
	</g>
</g>
<g>
	<defs>
		<rect id="SVGID_3_" x="142.2" y="69.6" width="51.3" height="51.3"/>
	</defs>
	<clipPath id="SVGID_4_">
		<use xlink:href="#SVGID_3_"  style="overflow:visible;"/>
	</clipPath>
	<g class="st8">
		<defs>
			<rect id="SVGID_5_" x="142.2" y="69.6" width="51.3" height="51.3"/>
		</defs>
		<clipPath id="SVGID_6_">
			<use xlink:href="#SVGID_5_"  style="overflow:visible;"/>
		</clipPath>
		<path class="st9" d="M157.6,85.3c1.9,0,3.5,1.6,3.5,3.5c0,1.9-1.6,3.5-3.5,3.5c-1.9,0-3.5-1.6-3.5-3.5
			C154.1,86.8,155.7,85.3,157.6,85.3"/>
		<circle class="st10" cx="157.6" cy="88.8" r="3.5"/>
		<path class="st9" d="M150.9,94.9c3.7,0,6.7,3,6.7,6.7c0,3.7-3,6.7-6.7,6.7c-3.7,0-6.7-3-6.7-6.7C144.2,97.9,147.2,94.9,150.9,94.9
			"/>
		<circle class="st10" cx="150.9" cy="101.6" r="6.7"/>
		<path class="st9" d="M158.6,89.8c3.9,0,7.1,3.2,7.1,7.1c0,3.9-3.2,7.1-7.1,7.1s-7.1-3.2-7.1-7.1C151.5,92.9,154.7,89.8,158.6,89.8
			"/>
		<circle class="st10" cx="158.6" cy="96.8" r="7.1"/>
		<path class="st9" d="M173,87.2c3.7,0,6.7,3,6.7,6.7c0,3.7-3,6.7-6.7,6.7c-3.7,0-6.7-3-6.7-6.7C166.3,90.2,169.3,87.2,173,87.2"/>
		<circle class="st10" cx="173" cy="93.9" r="6.7"/>
		<path class="st9" d="M165.6,82.1c3.7,0,6.7,3,6.7,6.7s-3,6.7-6.7,6.7c-3.7,0-6.7-3-6.7-6.7S161.9,82.1,165.6,82.1"/>
		<circle class="st10" cx="165.6" cy="88.8" r="6.7"/>
		<path class="st9" d="M187.4,100c2.1,0,3.8,1.7,3.8,3.8c0,2.1-1.7,3.8-3.8,3.8c-2.1,0-3.8-1.7-3.8-3.8
			C183.6,101.7,185.3,100,187.4,100"/>
		<circle class="st10" cx="187.4" cy="103.9" r="3.8"/>
		<path class="st9" d="M179.8,93.9c3.9,0,7.1,3.2,7.1,7.1c0,3.9-3.2,7.1-7.1,7.1c-3.9,0-7.1-3.2-7.1-7.1
			C172.7,97.1,175.9,93.9,179.8,93.9"/>
		<circle class="st10" cx="179.8" cy="101" r="7.1"/>
		<path class="st9" d="M158,100.3c2.1,0,3.8,1.7,3.8,3.8c0,2.1-1.7,3.8-3.8,3.8s-3.8-1.7-3.8-3.8C154.1,102.1,155.8,100.3,158,100.3
			"/>
		<circle class="st10" cx="158" cy="104.2" r="3.8"/>
		<path class="st11" d="M175.6,98.8c0,4.2-3.5,7.4-7.4,7.4c-3.8,0-7.4-3.5-7.4-7.4c0-4.2,3.5-7.4,7.4-7.4
			C172.1,91.4,175.6,94.6,175.6,98.8"/>
		<line class="st12" x1="168.5" y1="107.8" x2="177.2" y2="99.1"/>
		<line class="st12" x1="167.6" y1="107.1" x2="176.5" y2="98.5"/>
		<line class="st12" x1="166.9" y1="106.5" x2="175.6" y2="97.9"/>
		<line class="st12" x1="166.3" y1="105.9" x2="174.9" y2="96.9"/>
		<line class="st12" x1="165.3" y1="105.2" x2="174.3" y2="96.2"/>
		<line class="st12" x1="164.7" y1="104.6" x2="173.7" y2="95.6"/>
		<line class="st12" x1="164" y1="103.6" x2="172.7" y2="95"/>
		<line class="st12" x1="163.1" y1="103" x2="172.1" y2="94"/>
		<line class="st12" x1="162.4" y1="102.3" x2="171.4" y2="93.4"/>
		<line class="st12" x1="161.5" y1="101.7" x2="170.8" y2="92.7"/>
		<line class="st12" x1="160.8" y1="101.1" x2="169.8" y2="92.1"/>
		<line class="st12" x1="160.2" y1="100.4" x2="169.2" y2="91.1"/>
		<line class="st12" x1="159.2" y1="99.8" x2="168.5" y2="90.5"/>
		<line class="st12" x1="158.6" y1="98.8" x2="167.9" y2="89.8"/>
		<line class="st12" x1="158.6" y1="99.1" x2="167.6" y2="107.8"/>
		<line class="st12" x1="159.2" y1="98.2" x2="168.2" y2="107.1"/>
		<line class="st12" x1="159.9" y1="97.5" x2="168.9" y2="106.5"/>
		<line class="st12" x1="160.8" y1="96.9" x2="169.5" y2="105.9"/>
		<line class="st12" x1="161.5" y1="96.2" x2="170.5" y2="104.9"/>
		<line class="st12" x1="162.1" y1="95.3" x2="171.1" y2="104.3"/>
		<line class="st12" x1="162.8" y1="94.6" x2="171.7" y2="103.6"/>
		<line class="st12" x1="163.7" y1="94" x2="172.7" y2="103"/>
		<line class="st12" x1="164.4" y1="93" x2="173.3" y2="102.3"/>
		<line class="st12" x1="165" y1="92.4" x2="174" y2="101.4"/>
		<line class="st12" x1="165.6" y1="91.8" x2="174.9" y2="100.7"/>
		<line class="st12" x1="166.6" y1="91.1" x2="175.6" y2="100.1"/>
		<line class="st12" x1="167.2" y1="90.2" x2="176.2" y2="99.5"/>
		<line class="st12" x1="167.9" y1="89.5" x2="176.9" y2="98.5"/>
		<path class="st11" d="M174.3,92.4c-0.6-0.6-1.6-1.6-2.9-1.9c-1.3-0.3-2.6-1-4.2-0.6c-2.6,0-4.5,1.3-5.8,2.6c-1,1-1.6,1.9-2.2,3.5
			c-0.6,1.9-0.6,4.2,0,6.4c0.6,1.6,1.6,3.2,3.2,4.2c1.3,1,3.5,1.9,5.8,1.6c2.9-0.3,4.8-1.6,6.4-3.2c0.3-0.3,0.6-1,1-1.6
			c0.3-0.3,0.3-0.6,0.3-1c0.3-1,0.6-1.6,0.6-2.9C177.2,96.2,175.9,94,174.3,92.4 M173.3,101.4C173.3,101.7,173.3,101.7,173.3,101.4
			c0,0.3-0.3,0.6-0.6,1c-1,1.3-2.2,2.2-4.5,2.2c-1.6,0-3.2-0.3-4.2-1c-1-0.6-1.6-1.3-1.9-2.2l-0.3-0.6c-0.3-1.3-0.3-2.9,0-4.2
			c0.3-0.6,0.6-1.6,1.3-2.2c0.6-1,1.6-1.3,2.9-1.9c0.6-0.3,1-0.3,1.6-0.3c1.6,0,3.5,0.6,4.2,1.6c1,0.6,1.9,2.2,1.9,3.5
			C174.3,99.1,174,100.4,173.3,101.4"/>
		<path class="st9" d="M170.5,103c-0.3,0-0.6-0.3-1-0.6l-0.3-1.3h-2.2l-0.3,1.3c0,0.3-0.6,0.6-1,0.6h-0.3c-0.6,0-0.6-0.6-0.6-1.3
			l1.9-6.1c0-0.3,0.6-0.6,1-0.6h1c0.3,0,0.6,0.3,1,0.6l1.9,6.1C171.4,102,171.4,102.7,170.5,103C170.8,103,170.5,103,170.5,103"/>
		<path class="st13" d="M170.5,103c-0.3,0-0.6-0.3-1-0.6l-0.3-1.3h-2.2l-0.3,1.3c0,0.3-0.6,0.6-1,0.6h-0.3c-0.6,0-0.6-0.6-0.6-1.3
			l1.9-6.1c0-0.3,0.6-0.6,1-0.6h1c0.3,0,0.6,0.3,1,0.6l1.9,6.1C171.4,102,171.4,102.7,170.5,103C170.8,103,170.5,103,170.5,103z"/>
		<path class="st10" d="M176.9,98.7c0,5.1-3.8,9-9,9s-9-3.8-9-9c0-5.1,3.8-9,9-9S176.9,93.9,176.9,98.7z"/>
	</g>
</g>
<g>
	<defs>
		<rect id="SVGID_7_" width="538.6" height="326"/>
	</defs>
	<clipPath id="SVGID_8_">
		<use xlink:href="#SVGID_7_"  style="overflow:visible;"/>
	</clipPath>
	<g class="st14">
		<path class="st7" d="M128.9,226.5c0,0.3-0.1,0.6-0.3,0.8s-0.5,0.3-0.8,0.3c-0.3,0-0.6-0.1-0.8-0.3c-0.2-0.2-0.3-0.5-0.3-0.8
			c0-0.3,0.1-0.5,0.3-0.8c0.2-0.2,0.5-0.3,0.8-0.3c0.3,0,0.6,0.1,0.8,0.3S128.9,226.2,128.9,226.5z M132.5,226.5
			c0,0.3-0.1,0.6-0.3,0.8s-0.5,0.3-0.8,0.3c-0.3,0-0.6-0.1-0.8-0.3c-0.2-0.2-0.3-0.5-0.3-0.8c0-0.3,0.1-0.5,0.3-0.8
			c0.2-0.2,0.5-0.3,0.8-0.3c0.3,0,0.6,0.1,0.8,0.3S132.5,226.2,132.5,226.5z M136.2,226.5c0,0.3-0.1,0.6-0.3,0.8
			c-0.2,0.2-0.5,0.3-0.8,0.3c-0.3,0-0.6-0.1-0.8-0.3c-0.2-0.2-0.3-0.5-0.3-0.8c0-0.3,0.1-0.5,0.3-0.8c0.2-0.2,0.5-0.3,0.8-0.3
			c0.3,0,0.6,0.1,0.8,0.3S136.2,226.2,136.2,226.5z"/>
	</g>
	<g class="st14">
		<path class="st7" d="M403.8,226.5c0,0.3-0.1,0.6-0.3,0.8c-0.2,0.2-0.5,0.3-0.8,0.3c-0.3,0-0.6-0.1-0.8-0.3
			c-0.2-0.2-0.3-0.5-0.3-0.8c0-0.3,0.1-0.5,0.3-0.8c0.2-0.2,0.5-0.3,0.8-0.3c0.3,0,0.6,0.1,0.8,0.3
			C403.7,226,403.8,226.2,403.8,226.5z M407.5,226.5c0,0.3-0.1,0.6-0.3,0.8s-0.5,0.3-0.8,0.3c-0.3,0-0.6-0.1-0.8-0.3
			c-0.2-0.2-0.3-0.5-0.3-0.8c0-0.3,0.1-0.5,0.3-0.8c0.2-0.2,0.5-0.3,0.8-0.3c0.3,0,0.6,0.1,0.8,0.3S407.5,226.2,407.5,226.5z
			 M411.2,226.5c0,0.3-0.1,0.6-0.3,0.8s-0.5,0.3-0.8,0.3c-0.3,0-0.6-0.1-0.8-0.3c-0.2-0.2-0.3-0.5-0.3-0.8c0-0.3,0.1-0.5,0.3-0.8
			c0.2-0.2,0.5-0.3,0.8-0.3c0.3,0,0.6,0.1,0.8,0.3S411.2,226.2,411.2,226.5z"/>
	</g>
	<rect x="2.8" y="213.3" class="st15" width="255.1" height="97.8"/>
	<rect x="2.8" y="213.3" class="st16" width="255.1" height="97.8"/>
	<g class="st14">
		<path class="st6" d="M75.8,279.7c0,1.8-0.4,3.1-1.2,4.1c-0.5,0.6-1,0.9-1.6,1.1c-0.4,0.2-1.1,0.2-1.9,0.2h-2.9v-10.9h2.2
			c0.9,0,1.6,0,2,0.1c0.5,0.1,1,0.3,1.5,0.7C75.2,276,75.8,277.5,75.8,279.7z M74.4,279.8c0-2.5-0.7-3.9-2.1-4.4
			c-0.3-0.1-0.8-0.2-1.4-0.2h-1.3v8.7h1.2c0.6,0,1,0,1.3-0.1c0.7-0.1,1.2-0.5,1.6-1.1C74.1,282.1,74.4,281.1,74.4,279.8z"/>
		<path class="st6" d="M84.1,284.5l-0.6,0.9c-0.6-0.2-0.9-0.6-1.1-1.2c-0.7,0.7-1.5,1.1-2.3,1.1c-0.8,0-1.4-0.2-1.8-0.6
			c-0.5-0.4-0.7-1-0.7-1.7c0-1,0.5-1.8,1.4-2.3c0.7-0.4,1.7-0.6,2.8-0.6c0.2,0,0.4,0,0.6,0v-0.6c0-0.6-0.1-1.1-0.3-1.2
			c-0.3-0.3-0.6-0.4-1.1-0.4c-0.9,0-1.8,0.3-2.5,0.9l-0.6-0.9c1.1-0.7,2.2-1.1,3.3-1.1c1.1,0,1.9,0.4,2.2,1.2
			c0.1,0.3,0.2,0.7,0.2,1.4v0.4l-0.1,2.6c0,0.1,0,0.2,0,0.4c0,0.4,0,0.8,0.1,0.9C83.6,284.1,83.8,284.4,84.1,284.5z M82.3,281.1
			c-0.4,0-0.6,0-0.6,0c-1.8,0-2.8,0.6-2.8,1.9c0,1,0.5,1.5,1.4,1.5c0.9,0,1.5-0.4,1.9-1.2L82.3,281.1z"/>
		<path class="st6" d="M89.5,277.1l-0.4,1h-1.7v5.1c0,0.4,0.1,0.7,0.2,0.9c0.2,0.2,0.4,0.3,0.8,0.3c0.3,0,0.6-0.1,0.8-0.2l0.2,0.8
			c-0.4,0.2-0.9,0.3-1.4,0.3c-1.2,0-1.8-0.6-1.8-1.8v-5.5h-1v-1h1V277c0-0.1,0-0.7,0.1-1.7l0-0.2l1.3-0.3c-0.1,0.9-0.2,1.6-0.2,2.3
			H89.5z"/>
		<path class="st6" d="M97.1,281.3h-5v0.2c0,0.8,0.1,1.4,0.4,1.8c0.4,0.7,1.1,1,2,1c0.8,0,1.4-0.2,2-0.8l0.5,0.8
			c-0.7,0.7-1.6,1-2.7,1c-1.2,0-2.1-0.4-2.7-1.3c-0.6-0.8-0.8-1.7-0.8-3c0-1.1,0.3-2.1,0.8-2.8c0.6-0.9,1.5-1.3,2.5-1.3
			c0.9,0,1.6,0.3,2.2,0.9c0.4,0.4,0.7,0.9,0.8,1.6c0.1,0.4,0.1,1,0.1,1.8V281.3z M95.8,280.4c0-0.8-0.1-1.3-0.3-1.7
			c-0.3-0.5-0.8-0.8-1.5-0.8c-1.2,0-1.8,0.8-1.8,2.5H95.8z"/>
		<path class="st6" d="M100.9,274.7c0,0.3-0.1,0.5-0.3,0.7c-0.2,0.2-0.4,0.3-0.7,0.3c-0.3,0-0.5-0.1-0.7-0.3
			c-0.2-0.2-0.3-0.4-0.3-0.7c0-0.3,0.1-0.5,0.3-0.7c0.2-0.2,0.4-0.3,0.7-0.3s0.5,0.1,0.7,0.3C100.8,274.2,100.9,274.4,100.9,274.7z
			 M100.6,285.1h-1.3v-7.9l1.3-0.2V285.1z"/>
		<path class="st6" d="M109.1,281.3h-5v0.2c0,0.8,0.1,1.4,0.4,1.8c0.4,0.7,1.1,1,2,1c0.8,0,1.4-0.2,2-0.8l0.5,0.8
			c-0.7,0.7-1.6,1-2.7,1c-1.2,0-2.1-0.4-2.7-1.3c-0.6-0.8-0.8-1.7-0.8-3c0-1.1,0.3-2.1,0.8-2.8c0.6-0.9,1.5-1.3,2.5-1.3
			c0.9,0,1.6,0.3,2.2,0.9c0.4,0.4,0.7,0.9,0.8,1.6c0.1,0.4,0.1,1,0.1,1.8V281.3z M107.8,280.4c0-0.8-0.1-1.3-0.3-1.7
			c-0.3-0.5-0.8-0.8-1.5-0.8c-1.2,0-1.8,0.8-1.8,2.5H107.8z"/>
		<path class="st6" d="M117.2,285.1h-1.3v-5.4c0-0.5-0.1-0.9-0.2-1.2c-0.2-0.3-0.5-0.5-1-0.5c-0.4,0-0.8,0.1-1.2,0.4
			c-0.4,0.2-0.7,0.5-1,0.8v6h-1.2v-5.9c0-0.8-0.1-1.4-0.3-1.9l1.2-0.3c0.2,0.4,0.3,0.8,0.3,1.2c0.8-0.8,1.7-1.2,2.5-1.2
			c0.4,0,0.8,0.1,1.2,0.3c0.4,0.2,0.6,0.5,0.8,0.9c0.1,0.3,0.2,0.6,0.2,0.9V285.1z"/>
		<path class="st6" d="M131.1,285.1h-1.2v-5.5c0-0.5-0.1-0.9-0.2-1.1c-0.2-0.3-0.5-0.4-1-0.4c-0.8,0-1.6,0.4-2.3,1.3v5.7h-1.2v-9.8
			c0-0.6-0.1-1.1-0.2-1.6l1.2-0.2c0.1,0.5,0.2,1.1,0.2,1.8v1.9c0,0.3,0,0.7,0,1.1c0.2-0.2,0.5-0.4,0.8-0.6c0.7-0.4,1.3-0.6,1.9-0.6
			c0.5,0,1,0.1,1.4,0.4c0.4,0.3,0.7,0.7,0.7,1.2c0,0.2,0,0.5,0,0.8V285.1z"/>
		<path class="st6" d="M140.2,281.3c0,1.5-0.4,2.6-1.2,3.3c-0.6,0.5-1.3,0.8-2.2,0.8c-1.2,0-2-0.4-2.6-1.3c-0.5-0.8-0.8-1.7-0.8-2.9
			c0-1.2,0.3-2.1,0.8-2.9c0.6-0.9,1.5-1.3,2.6-1.3c1.2,0,2.1,0.4,2.7,1.3C139.9,279.1,140.2,280.1,140.2,281.3z M138.8,281.4
			c0-1-0.1-1.8-0.3-2.3c-0.3-0.8-0.9-1.2-1.8-1.2c-0.8,0-1.4,0.3-1.7,0.9c-0.2,0.4-0.4,1.1-0.4,2c0,1,0.1,1.8,0.3,2.3
			c0.3,0.8,0.9,1.1,1.8,1.1C138.1,284.3,138.8,283.4,138.8,281.4z"/>
		<path class="st6" d="M147.8,284.2c-0.7,0.7-1.5,1.1-2.4,1.1c-1.1,0-2-0.4-2.6-1.2c-0.5-0.7-0.8-1.6-0.8-2.8c0-1.5,0.4-2.6,1.2-3.4
			c0.6-0.6,1.3-0.9,2.2-0.9c0.8,0,1.5,0.3,2.2,0.9l-0.7,0.9c-0.5-0.4-1-0.7-1.5-0.7c-1.3,0-2,1.2-2,3.5c0,1.8,0.7,2.8,2,2.8
			c0.7,0,1.2-0.3,1.7-0.9L147.8,284.2z"/>
		<path class="st6" d="M155.3,285.1h-1.2v-5.5c0-0.5-0.1-0.9-0.2-1.1c-0.2-0.3-0.5-0.4-1-0.4c-0.8,0-1.6,0.4-2.3,1.3v5.7h-1.2v-9.8
			c0-0.6-0.1-1.1-0.2-1.6l1.2-0.2c0.1,0.5,0.2,1.1,0.2,1.8v1.9c0,0.3,0,0.7,0,1.1c0.2-0.2,0.5-0.4,0.8-0.6c0.7-0.4,1.3-0.6,1.9-0.6
			c0.5,0,1,0.1,1.4,0.4c0.4,0.3,0.7,0.7,0.7,1.2c0,0.2,0,0.5,0,0.8V285.1z"/>
		<path class="st6" d="M160.1,285.1c-0.3,0.1-0.5,0.2-0.8,0.2c-0.9,0-1.3-0.5-1.3-1.5v-7.9c0-1-0.1-1.8-0.2-2.2l1.3-0.3
			c0.1,0.4,0.2,1.2,0.2,2.5v7.6c0,0.3,0,0.5,0,0.5c0.1,0.2,0.2,0.3,0.4,0.3c0,0,0.1,0,0.2,0L160.1,285.1z"/>
		<path class="st6" d="M167.9,284.5l-0.6,0.9c-0.6-0.2-0.9-0.6-1.1-1.2c-0.7,0.7-1.5,1.1-2.3,1.1c-0.8,0-1.4-0.2-1.8-0.6
			c-0.5-0.4-0.7-1-0.7-1.7c0-1,0.5-1.8,1.4-2.3c0.7-0.4,1.7-0.6,2.8-0.6c0.2,0,0.4,0,0.6,0v-0.6c0-0.6-0.1-1.1-0.3-1.2
			c-0.3-0.3-0.6-0.4-1.1-0.4c-0.9,0-1.8,0.3-2.5,0.9l-0.6-0.9c1.1-0.7,2.2-1.1,3.3-1.1c1.1,0,1.9,0.4,2.2,1.2
			c0.1,0.3,0.2,0.7,0.2,1.4v0.4l-0.1,2.6c0,0.1,0,0.2,0,0.4c0,0.4,0,0.8,0.1,0.9C167.4,284.1,167.6,284.4,167.9,284.5z M166.1,281.1
			c-0.4,0-0.6,0-0.6,0c-1.8,0-2.8,0.6-2.8,1.9c0,1,0.5,1.5,1.4,1.5c0.9,0,1.5-0.4,1.9-1.2L166.1,281.1z"/>
		<path class="st6" d="M176.4,285.1h-1.3c-0.1-0.2-0.1-0.5-0.2-0.8c-0.2,0.2-0.4,0.4-0.5,0.5c-0.4,0.3-0.9,0.4-1.6,0.4
			c-1.1,0-2-0.4-2.5-1.2c-0.5-0.7-0.7-1.6-0.7-2.8c0-1.7,0.5-2.9,1.6-3.7c0.5-0.3,1-0.5,1.5-0.5c0.9,0,1.6,0.3,2.1,1
			c0-0.5,0-0.9,0-1.2v-3.4l1.3,0.2v8.9c0,0.9,0,1.6,0.1,1.9C176.2,284.7,176.3,284.9,176.4,285.1z M174.9,283.1v-4.2
			c-0.4-0.6-1-0.8-1.9-0.8c-1.3,0-2,1-2,3.1c0,2,0.6,3,1.9,3C173.8,284.1,174.5,283.8,174.9,283.1z"/>
		<path class="st6" d="M184.6,281.3h-5v0.2c0,0.8,0.1,1.4,0.4,1.8c0.4,0.7,1.1,1,2,1c0.8,0,1.4-0.2,2-0.8l0.5,0.8
			c-0.7,0.7-1.6,1-2.7,1c-1.2,0-2.1-0.4-2.7-1.3c-0.6-0.8-0.8-1.7-0.8-3c0-1.1,0.3-2.1,0.8-2.8c0.6-0.9,1.5-1.3,2.5-1.3
			c0.9,0,1.6,0.3,2.2,0.9c0.4,0.4,0.7,0.9,0.8,1.6c0.1,0.4,0.1,1,0.1,1.8V281.3z M183.3,280.4c0-0.8-0.1-1.3-0.3-1.7
			c-0.3-0.5-0.8-0.8-1.5-0.8c-1.2,0-1.8,0.8-1.8,2.5H183.3z"/>
		<path class="st6" d="M192.7,285.1h-1.3v-5.4c0-0.5-0.1-0.9-0.2-1.2c-0.2-0.3-0.5-0.5-1-0.5c-0.4,0-0.8,0.1-1.2,0.4
			c-0.4,0.2-0.7,0.5-1,0.8v6h-1.2v-5.9c0-0.8-0.1-1.4-0.3-1.9l1.2-0.3c0.2,0.4,0.3,0.8,0.3,1.2c0.8-0.8,1.7-1.2,2.5-1.2
			c0.4,0,0.8,0.1,1.2,0.3c0.4,0.2,0.6,0.5,0.8,0.9c0.1,0.3,0.2,0.6,0.2,0.9V285.1z"/>
	</g>
	<g class="st14">
		<path class="st6" d="M79.9,297.7c0,1.8-0.4,3.1-1.2,4.1c-0.5,0.6-1,0.9-1.6,1.1c-0.4,0.2-1.1,0.2-1.9,0.2h-2.9v-10.9h2.2
			c0.9,0,1.6,0,2,0.1c0.5,0.1,1,0.3,1.5,0.7C79.3,294,79.9,295.5,79.9,297.7z M78.5,297.8c0-2.5-0.7-3.9-2.1-4.4
			c-0.3-0.1-0.8-0.2-1.4-0.2h-1.3v8.7h1.2c0.6,0,1,0,1.3-0.1c0.7-0.1,1.2-0.5,1.6-1.1C78.2,300.1,78.5,299.1,78.5,297.8z"/>
		<path class="st6" d="M88.2,302.5l-0.6,0.9c-0.6-0.2-0.9-0.6-1.1-1.2c-0.7,0.7-1.5,1.1-2.3,1.1c-0.8,0-1.4-0.2-1.8-0.6
			c-0.5-0.4-0.7-1-0.7-1.7c0-1,0.5-1.8,1.4-2.3c0.7-0.4,1.7-0.6,2.8-0.6c0.2,0,0.4,0,0.6,0v-0.6c0-0.6-0.1-1.1-0.3-1.2
			c-0.3-0.3-0.6-0.4-1.1-0.4c-0.9,0-1.8,0.3-2.5,0.9l-0.6-0.9c1.1-0.7,2.2-1.1,3.3-1.1c1.1,0,1.9,0.4,2.2,1.2
			c0.1,0.3,0.2,0.7,0.2,1.4v0.4l-0.1,2.6c0,0.1,0,0.2,0,0.4c0,0.4,0,0.8,0.1,0.9C87.7,302.1,87.9,302.4,88.2,302.5z M86.4,299.1
			c-0.4,0-0.6,0-0.6,0c-1.8,0-2.8,0.6-2.8,1.9c0,1,0.5,1.5,1.4,1.5c0.9,0,1.5-0.4,1.9-1.2L86.4,299.1z"/>
		<path class="st6" d="M93.6,295.1l-0.4,1h-1.7v5.1c0,0.4,0.1,0.7,0.2,0.9c0.2,0.2,0.4,0.3,0.8,0.3c0.3,0,0.6-0.1,0.8-0.2l0.2,0.8
			c-0.4,0.2-0.9,0.3-1.4,0.3c-1.2,0-1.8-0.6-1.8-1.8v-5.5h-1v-1h1V295c0-0.1,0-0.7,0.1-1.7l0-0.2l1.3-0.3c-0.1,0.9-0.2,1.6-0.2,2.3
			H93.6z"/>
		<path class="st6" d="M101.2,299.3h-5v0.2c0,0.8,0.1,1.4,0.4,1.8c0.4,0.7,1.1,1,2,1c0.8,0,1.4-0.2,2-0.8l0.5,0.8
			c-0.7,0.7-1.6,1-2.7,1c-1.2,0-2.1-0.4-2.7-1.3c-0.6-0.8-0.8-1.7-0.8-3c0-1.1,0.3-2.1,0.8-2.8c0.6-0.9,1.5-1.3,2.5-1.3
			c0.9,0,1.6,0.3,2.2,0.9c0.4,0.4,0.7,0.9,0.8,1.6c0.1,0.4,0.1,1,0.1,1.8V299.3z M99.9,298.4c0-0.8-0.1-1.3-0.3-1.7
			c-0.3-0.5-0.8-0.8-1.5-0.8c-1.2,0-1.8,0.8-1.8,2.5H99.9z"/>
		<path class="st6" d="M105,292.7c0,0.3-0.1,0.5-0.3,0.7c-0.2,0.2-0.4,0.3-0.7,0.3c-0.3,0-0.5-0.1-0.7-0.3c-0.2-0.2-0.3-0.4-0.3-0.7
			c0-0.3,0.1-0.5,0.3-0.7c0.2-0.2,0.4-0.3,0.7-0.3s0.5,0.1,0.7,0.3C104.9,292.2,105,292.4,105,292.7z M104.7,303.1h-1.3v-7.9
			l1.3-0.2V303.1z"/>
		<path class="st6" d="M113.2,299.3h-5v0.2c0,0.8,0.1,1.4,0.4,1.8c0.4,0.7,1.1,1,2,1c0.8,0,1.4-0.2,2-0.8l0.5,0.8
			c-0.7,0.7-1.6,1-2.7,1c-1.2,0-2.1-0.4-2.7-1.3c-0.6-0.8-0.8-1.7-0.8-3c0-1.1,0.3-2.1,0.8-2.8c0.6-0.9,1.5-1.3,2.5-1.3
			c0.9,0,1.6,0.3,2.2,0.9c0.4,0.4,0.7,0.9,0.8,1.6c0.1,0.4,0.1,1,0.1,1.8V299.3z M111.9,298.4c0-0.8-0.1-1.3-0.3-1.7
			c-0.3-0.5-0.8-0.8-1.5-0.8c-1.2,0-1.8,0.8-1.8,2.5H111.9z"/>
		<path class="st6" d="M121.3,303.1H120v-5.4c0-0.5-0.1-0.9-0.2-1.2c-0.2-0.3-0.5-0.5-1-0.5c-0.4,0-0.8,0.1-1.2,0.4
			c-0.4,0.2-0.7,0.5-1,0.8v6h-1.2v-5.9c0-0.8-0.1-1.4-0.3-1.9l1.2-0.3c0.2,0.4,0.3,0.8,0.3,1.2c0.8-0.8,1.7-1.2,2.5-1.2
			c0.4,0,0.8,0.1,1.2,0.3c0.4,0.2,0.6,0.5,0.8,0.9c0.1,0.3,0.2,0.6,0.2,0.9V303.1z"/>
		<path class="st6" d="M135.3,295.2l-3,8h-1.2l-2.9-8l1.3-0.3l1.9,5.5c0.2,0.4,0.3,0.9,0.4,1.4h0c0.1-0.4,0.2-0.8,0.4-1.3l1.8-5.3
			L135.3,295.2z"/>
		<path class="st6" d="M142.8,299.3h-5v0.2c0,0.8,0.1,1.4,0.4,1.8c0.4,0.7,1.1,1,2,1c0.8,0,1.4-0.2,2-0.8l0.5,0.8
			c-0.7,0.7-1.6,1-2.7,1c-1.2,0-2.1-0.4-2.7-1.3c-0.6-0.8-0.8-1.7-0.8-3c0-1.1,0.3-2.1,0.8-2.8c0.6-0.9,1.5-1.3,2.5-1.3
			c0.9,0,1.6,0.3,2.2,0.9c0.4,0.4,0.7,0.9,0.8,1.6c0.1,0.4,0.1,1,0.1,1.8V299.3z M141.5,298.4c0-0.8-0.1-1.3-0.3-1.7
			c-0.3-0.5-0.8-0.8-1.5-0.8c-1.2,0-1.8,0.8-1.8,2.5H141.5z"/>
		<path class="st6" d="M148.9,295l-0.5,1.3c-0.1,0-0.3,0-0.4,0c-0.3,0-0.6,0.1-1,0.3c-0.3,0.2-0.5,0.4-0.7,0.7
			c-0.1,0.2-0.1,0.5-0.1,0.9v5H145V297c0-0.7-0.1-1.3-0.3-1.8l1.3-0.3c0.2,0.4,0.3,0.8,0.3,1.2v0.1c0.6-0.9,1.4-1.3,2.2-1.3
			C148.6,294.9,148.8,295,148.9,295z"/>
		<path class="st6" d="M152.3,303.1c-0.3,0.1-0.5,0.2-0.8,0.2c-0.9,0-1.3-0.5-1.3-1.5v-7.9c0-1-0.1-1.8-0.2-2.2l1.3-0.3
			c0.1,0.4,0.2,1.2,0.2,2.5v7.6c0,0.3,0,0.5,0,0.5c0.1,0.2,0.2,0.3,0.4,0.3c0,0,0.1,0,0.2,0L152.3,303.1z"/>
		<path class="st6" d="M155.7,292.7c0,0.3-0.1,0.5-0.3,0.7c-0.2,0.2-0.4,0.3-0.7,0.3c-0.3,0-0.5-0.1-0.7-0.3
			c-0.2-0.2-0.3-0.4-0.3-0.7c0-0.3,0.1-0.5,0.3-0.7c0.2-0.2,0.4-0.3,0.7-0.3s0.5,0.1,0.7,0.3C155.6,292.2,155.7,292.4,155.7,292.7z
			 M155.4,303.1h-1.3v-7.9l1.3-0.2V303.1z"/>
		<path class="st6" d="M164,303.1h-1.3v-5.4c0-0.5-0.1-0.9-0.2-1.2c-0.2-0.3-0.5-0.5-1-0.5c-0.4,0-0.8,0.1-1.2,0.4
			c-0.4,0.2-0.7,0.5-1,0.8v6h-1.2v-5.9c0-0.8-0.1-1.4-0.3-1.9l1.2-0.3c0.2,0.4,0.3,0.8,0.3,1.2c0.8-0.8,1.7-1.2,2.5-1.2
			c0.4,0,0.8,0.1,1.2,0.3c0.4,0.2,0.6,0.5,0.8,0.9c0.1,0.3,0.2,0.6,0.2,0.9V303.1z"/>
		<path class="st6" d="M167.9,303.1h-1.2V294c0-0.6,0-1.2-0.1-1.8c0-0.1-0.1-0.3-0.1-0.5l1.2-0.3c0.1,0.3,0.1,0.5,0.2,0.6
			c0.1,0.5,0.1,1,0.1,1.7V303.1z M173.2,303.1h-1.7l-3.7-4.5l3-3.4h1.6l-3.1,3.5L173.2,303.1z"/>
		<path class="st6" d="M180.5,299.3h-5v0.2c0,0.8,0.1,1.4,0.4,1.8c0.4,0.7,1.1,1,2,1c0.8,0,1.4-0.2,2-0.8l0.5,0.8
			c-0.7,0.7-1.6,1-2.7,1c-1.2,0-2.1-0.4-2.7-1.3c-0.6-0.8-0.8-1.7-0.8-3c0-1.1,0.3-2.1,0.8-2.8c0.6-0.9,1.5-1.3,2.5-1.3
			c0.9,0,1.6,0.3,2.2,0.9c0.4,0.4,0.7,0.9,0.8,1.6c0.1,0.4,0.1,1,0.1,1.8V299.3z M179.2,298.4c0-0.8-0.1-1.3-0.3-1.7
			c-0.3-0.5-0.8-0.8-1.5-0.8c-1.2,0-1.8,0.8-1.8,2.5H179.2z"/>
		<path class="st6" d="M188.6,303.1h-1.3v-5.4c0-0.5-0.1-0.9-0.2-1.2c-0.2-0.3-0.5-0.5-1-0.5c-0.4,0-0.8,0.1-1.2,0.4
			c-0.4,0.2-0.7,0.5-1,0.8v6h-1.2v-5.9c0-0.8-0.1-1.4-0.3-1.9l1.2-0.3c0.2,0.4,0.3,0.8,0.3,1.2c0.8-0.8,1.7-1.2,2.5-1.2
			c0.4,0,0.8,0.1,1.2,0.3c0.4,0.2,0.6,0.5,0.8,0.9c0.1,0.3,0.2,0.6,0.2,0.9V303.1z"/>
	</g>
	<g class="st14">
		<path class="st6" d="M87.5,237.3l-1.2-2.1c-0.5-0.9-0.9-1.5-1.3-2.1c-0.4-0.5-0.7-1-1.1-1.4c-0.1-0.1-0.3-0.2-0.4-0.3
			c-0.1-0.1-0.3-0.1-0.5-0.1v6h-2.3v-13.8H85c0.8,0,1.4,0.1,2,0.3c0.6,0.2,1,0.5,1.4,0.9c0.4,0.4,0.6,0.8,0.8,1.3
			c0.2,0.5,0.3,1,0.3,1.5c0,0.5-0.1,1-0.2,1.4s-0.4,0.9-0.7,1.2c-0.3,0.3-0.7,0.6-1.1,0.8c-0.4,0.2-0.9,0.3-1.4,0.3
			c0.1,0.1,0.3,0.2,0.4,0.4c0.2,0.2,0.4,0.4,0.5,0.7c0.2,0.3,0.4,0.5,0.6,0.8s0.4,0.6,0.6,0.9l2,3.3H87.5z M87.1,227.4
			c0-0.7-0.2-1.2-0.6-1.6c-0.4-0.4-1.1-0.5-2.2-0.5H83v4.4h1.2c0.6,0,1.1,0,1.4-0.1c0.3-0.1,0.6-0.2,0.8-0.4
			c0.2-0.2,0.3-0.4,0.5-0.7C87,228.1,87.1,227.8,87.1,227.4z"/>
		<path class="st6" d="M92.6,237.3v-10.8h6.8l-0.3,1.8h-4.2v2.5h3.5v1.8h-3.5v2.9h4.7v1.9H92.6z"/>
		<path class="st6" d="M110.2,229.8c0,0.7-0.2,1.3-0.5,1.8s-0.7,0.9-1.2,1.1c-0.2,0.1-0.4,0.2-0.6,0.3s-0.4,0.2-0.6,0.2
			c-0.2,0-0.4,0.1-0.7,0.1c-0.2,0-0.5,0-0.8,0h-1.5v4h-2.3v-10.8h3.1c0.5,0,1,0,1.3,0c0.3,0,0.6,0.1,0.9,0.1c0.2,0,0.4,0.1,0.6,0.2
			c0.2,0.1,0.3,0.1,0.5,0.2c0.5,0.3,1,0.6,1.3,1.1C110.1,228.7,110.2,229.2,110.2,229.8z M107.7,229.9c0-0.3-0.1-0.6-0.2-0.8
			c-0.1-0.2-0.3-0.4-0.4-0.5c-0.2-0.1-0.4-0.2-0.7-0.3c-0.3-0.1-0.5-0.1-0.8-0.1h-1.3v3.3h1.5c0.6,0,1.1-0.1,1.4-0.3
			C107.6,231,107.7,230.5,107.7,229.9z"/>
		<path class="st6" d="M122.3,231.9c0,0.8-0.1,1.6-0.3,2.3c-0.2,0.7-0.5,1.3-0.9,1.8s-0.9,0.9-1.6,1.2s-1.4,0.4-2.3,0.4
			c-0.8,0-1.6-0.1-2.2-0.4c-0.6-0.3-1.2-0.6-1.6-1.1s-0.8-1.1-1-1.8s-0.3-1.4-0.3-2.2c0-1.8,0.5-3.1,1.4-4.1c0.9-1,2.2-1.5,3.8-1.5
			c0.9,0,1.6,0.1,2.2,0.4c0.6,0.3,1.2,0.7,1.6,1.2c0.4,0.5,0.8,1.1,1,1.8C122.2,230.3,122.3,231.1,122.3,231.9z M119.7,231.9
			c0-0.5,0-0.9-0.1-1.4c-0.1-0.5-0.2-0.9-0.3-1.3c-0.2-0.4-0.4-0.7-0.8-0.9c-0.4-0.2-0.8-0.3-1.4-0.3c-0.6,0-1,0.1-1.3,0.4
			c-0.3,0.2-0.6,0.5-0.8,0.9c-0.2,0.4-0.3,0.8-0.4,1.2c-0.1,0.5-0.1,0.9-0.1,1.3c0,0.5,0,1,0.1,1.5s0.2,0.9,0.4,1.3
			c0.2,0.4,0.4,0.7,0.8,0.9c0.4,0.2,0.8,0.3,1.4,0.3c0.6,0,1-0.1,1.4-0.4c0.3-0.2,0.6-0.5,0.8-0.9c0.2-0.4,0.3-0.8,0.3-1.3
			S119.7,232.4,119.7,231.9z"/>
		<path class="st6" d="M133.2,233.9c0,0.7-0.1,1.2-0.4,1.7s-0.7,0.8-1.1,1.1c-0.5,0.3-1,0.5-1.6,0.6c-0.6,0.1-1.1,0.2-1.7,0.2
			c-0.7,0-1.4-0.1-2-0.2c-0.7-0.2-1.3-0.4-2-0.7l0.8-1.7c0.6,0.3,1.1,0.5,1.6,0.6c0.5,0.1,1.1,0.2,1.7,0.2c0.2,0,0.5,0,0.7-0.1
			c0.3,0,0.5-0.1,0.7-0.2c0.2-0.1,0.4-0.2,0.5-0.4c0.1-0.2,0.2-0.4,0.2-0.7c0-0.3-0.1-0.6-0.4-0.9c-0.3-0.2-0.7-0.4-1.3-0.6
			l-1.4-0.4c-0.8-0.2-1.4-0.5-1.9-1c-0.5-0.5-0.8-1.2-0.8-2c0-0.5,0.1-0.9,0.3-1.3c0.2-0.4,0.5-0.8,0.9-1c0.4-0.3,0.8-0.5,1.3-0.7
			c0.5-0.2,1.1-0.2,1.7-0.2c0.7,0,1.4,0.1,2.2,0.3c0.7,0.2,1.3,0.5,1.8,0.8l-1.1,1.6c-1-0.6-1.9-0.8-2.9-0.8c-0.5,0-1,0.1-1.3,0.3
			c-0.3,0.2-0.5,0.5-0.5,0.9c0,0.3,0.1,0.6,0.3,0.7c0.2,0.2,0.6,0.3,1.1,0.5l1.4,0.4c0.4,0.1,0.8,0.2,1.2,0.4c0.4,0.2,0.7,0.4,1,0.6
			c0.3,0.2,0.5,0.5,0.6,0.9S133.2,233.5,133.2,233.9z"/>
		<path class="st6" d="M136.1,237.3v-10.8h2.3v10.8H136.1z"/>
		<path class="st6" d="M148.7,228.3h-2.9v9h-2.3v-9h-3v-1.8h8.6L148.7,228.3z"/>
		<path class="st6" d="M160.7,231.9c0,0.8-0.1,1.6-0.3,2.3c-0.2,0.7-0.5,1.3-0.9,1.8s-0.9,0.9-1.6,1.2s-1.4,0.4-2.3,0.4
			c-0.8,0-1.6-0.1-2.2-0.4c-0.6-0.3-1.2-0.6-1.6-1.1s-0.8-1.1-1-1.8s-0.3-1.4-0.3-2.2c0-1.8,0.5-3.1,1.4-4.1c0.9-1,2.2-1.5,3.8-1.5
			c0.9,0,1.6,0.1,2.2,0.4c0.6,0.3,1.2,0.7,1.6,1.2c0.4,0.5,0.8,1.1,1,1.8C160.5,230.3,160.7,231.1,160.7,231.9z M158.1,231.9
			c0-0.5,0-0.9-0.1-1.4c-0.1-0.5-0.2-0.9-0.3-1.3c-0.2-0.4-0.4-0.7-0.8-0.9c-0.4-0.2-0.8-0.3-1.4-0.3c-0.6,0-1,0.1-1.3,0.4
			c-0.3,0.2-0.6,0.5-0.8,0.9c-0.2,0.4-0.3,0.8-0.4,1.2c-0.1,0.5-0.1,0.9-0.1,1.3c0,0.5,0,1,0.1,1.5s0.2,0.9,0.4,1.3
			c0.2,0.4,0.4,0.7,0.8,0.9c0.4,0.2,0.8,0.3,1.4,0.3c0.6,0,1-0.1,1.4-0.4c0.3-0.2,0.6-0.5,0.8-0.9c0.2-0.4,0.3-0.8,0.3-1.3
			S158.1,232.4,158.1,231.9z"/>
		<path class="st6" d="M169.5,237.3l-1.1-1.7c-0.3-0.4-0.5-0.8-0.7-1.1c-0.2-0.3-0.3-0.5-0.5-0.7c-0.1-0.2-0.2-0.3-0.3-0.4
			c-0.1-0.1-0.2-0.2-0.3-0.3s-0.2-0.1-0.3-0.2c-0.1,0-0.3-0.1-0.4-0.1v4.5h-2.2v-10.8h3.6c0.7,0,1.3,0.1,1.8,0.2
			c0.5,0.1,0.9,0.3,1.3,0.6c0.7,0.6,1.1,1.4,1.1,2.4c0,0.4-0.1,0.8-0.2,1.2c-0.1,0.4-0.3,0.7-0.5,0.9c-0.2,0.3-0.5,0.5-0.8,0.6
			c-0.3,0.2-0.7,0.3-1.1,0.3c0.1,0.1,0.3,0.3,0.5,0.5c0.2,0.2,0.4,0.5,0.6,0.9c0.3,0.3,0.5,0.7,0.8,1.1l1.5,2.2H169.5z M169.2,229.7
			c0-0.3-0.1-0.6-0.2-0.8s-0.3-0.3-0.5-0.5c-0.2-0.1-0.5-0.2-0.7-0.2c-0.3,0-0.5,0-0.8,0h-1.1v3h1c0.3,0,0.6,0,0.8,0
			c0.3,0,0.5-0.1,0.8-0.2s0.4-0.2,0.5-0.5S169.2,230,169.2,229.7z"/>
		<path class="st6" d="M178.3,232.9v4.4H176v-4.4l-3.8-6.4h2.7l1.7,3.3c0.1,0.1,0.1,0.2,0.2,0.4c0.1,0.2,0.1,0.3,0.2,0.5
			s0.1,0.3,0.2,0.4s0.1,0.2,0.1,0.2c0,0,0-0.1,0.1-0.2c0-0.1,0.1-0.2,0.1-0.4c0.1-0.2,0.1-0.3,0.2-0.5c0.1-0.2,0.1-0.3,0.2-0.5
			l1.7-3.2h2.7L178.3,232.9z"/>
	</g>
	<g class="st14">
		<path class="st6" d="M96.7,247.7c1.2,0,2.1,0.4,2.8,1.2c0.6,0.8,1,1.9,1,3.4c0,1.5-0.3,2.6-1,3.4s-1.6,1.2-2.8,1.2
			c-1.2,0-2.1-0.4-2.8-1.2s-1-1.9-1-3.4c0-1.5,0.3-2.6,1-3.4S95.5,247.7,96.7,247.7z M96.7,248.9c-0.7,0-1.3,0.3-1.7,0.9
			s-0.6,1.4-0.6,2.5c0,1.1,0.2,1.9,0.6,2.5s0.9,0.9,1.7,0.9c0.7,0,1.3-0.3,1.7-0.9s0.6-1.4,0.6-2.5c0-1.1-0.2-2-0.6-2.5
			S97.4,248.9,96.7,248.9z"/>
		<path class="st6" d="M101.5,247.9h1.4l1.5,7.1l1.2-4.5h1.2l1.3,4.5l1.5-7.1h1.4l-2,8.8h-1.4l-1.4-4.8l-1.4,4.8h-1.4L101.5,247.9z"
			/>
		<path class="st6" d="M119.3,251.3v5.4h-1.4v-5.4c0-0.8-0.1-1.4-0.4-1.7c-0.3-0.4-0.7-0.6-1.3-0.6c-0.7,0-1.2,0.2-1.6,0.7
			c-0.4,0.5-0.5,1.2-0.5,2.1v4.9h-1.4v-8.8h1.4v1.3c0.3-0.5,0.6-0.9,1-1.1s1-0.4,1.6-0.4c0.9,0,1.6,0.3,2,0.9
			C119.1,249.2,119.3,250.1,119.3,251.3z"/>
		<path class="st6" d="M129,256.2c-0.4,0.2-0.8,0.4-1.2,0.5c-0.4,0.1-0.8,0.2-1.3,0.2c-1.4,0-2.4-0.4-3.2-1.2
			c-0.8-0.8-1.1-1.9-1.1-3.4s0.4-2.6,1.1-3.4c0.8-0.8,1.8-1.2,3.2-1.2c0.4,0,0.8,0.1,1.2,0.2c0.4,0.1,0.8,0.3,1.2,0.5v1.5
			c-0.4-0.3-0.8-0.6-1.1-0.7s-0.8-0.2-1.3-0.2c-0.9,0-1.6,0.3-2.1,0.9s-0.7,1.4-0.7,2.5c0,1.1,0.2,1.9,0.7,2.5
			c0.5,0.6,1.2,0.9,2.1,0.9c0.5,0,0.9-0.1,1.3-0.2c0.4-0.2,0.8-0.4,1.1-0.7V256.2z"/>
		<path class="st6" d="M136,253.5c0,0.6,0.1,1.1,0.4,1.5c0.2,0.3,0.6,0.5,1.1,0.5h1.7v1.2h-1.8c-0.9,0-1.5-0.3-2-0.8
			c-0.5-0.5-0.7-1.3-0.7-2.3v-7.9h-2.3v-1.1h3.7V253.5z"/>
		<path class="st6" d="M144.8,247.7c1.2,0,2.1,0.4,2.8,1.2c0.6,0.8,1,1.9,1,3.4c0,1.5-0.3,2.6-1,3.4s-1.6,1.2-2.8,1.2
			c-1.2,0-2.1-0.4-2.8-1.2s-1-1.9-1-3.4c0-1.5,0.3-2.6,1-3.4S143.6,247.7,144.8,247.7z M144.8,248.9c-0.7,0-1.3,0.3-1.7,0.9
			s-0.6,1.4-0.6,2.5c0,1.1,0.2,1.9,0.6,2.5s0.9,0.9,1.7,0.9c0.7,0,1.3-0.3,1.7-0.9s0.6-1.4,0.6-2.5c0-1.1-0.2-2-0.6-2.5
			S145.6,248.9,144.8,248.9z"/>
		<path class="st6" d="M151.2,253.4V248h1.4v5.4c0,0.8,0.1,1.4,0.4,1.7c0.3,0.4,0.7,0.6,1.3,0.6c0.7,0,1.2-0.2,1.6-0.7
			s0.5-1.2,0.5-2.1V248h1.4v8.7h-1.4v-1.3c-0.3,0.5-0.6,0.9-1,1.1c-0.4,0.3-1,0.4-1.5,0.4c-0.9,0-1.6-0.3-2-0.9
			S151.2,254.6,151.2,253.4z"/>
		<path class="st6" d="M166,249.1v-4.5h1.4v12.2H166v-1.1c-0.2,0.4-0.6,0.8-1,1s-0.9,0.3-1.4,0.3c-1.1,0-1.9-0.4-2.5-1.2
			c-0.6-0.8-0.9-2-0.9-3.4c0-1.4,0.3-2.5,0.9-3.3s1.4-1.2,2.5-1.2c0.5,0,1,0.1,1.4,0.3C165.5,248.3,165.8,248.6,166,249.1z
			 M161.8,252.3c0,1.1,0.2,2,0.5,2.5c0.4,0.6,0.9,0.9,1.6,0.9c0.7,0,1.2-0.3,1.6-0.9c0.4-0.6,0.5-1.4,0.5-2.5c0-1.1-0.2-1.9-0.5-2.5
			c-0.4-0.6-0.9-0.9-1.6-0.9c-0.7,0-1.2,0.3-1.6,0.9C161.9,250.4,161.8,251.2,161.8,252.3z"/>
	</g>
</g>
<g>
	<defs>
		<rect id="SVGID_9_" x="5.2" y="279.8" width="29" height="29"/>
	</defs>
	<clipPath id="SVGID_10_">
		<use xlink:href="#SVGID_9_"  style="overflow:visible;"/>
	</clipPath>
	<g class="st17">
		<defs>
			<rect id="SVGID_11_" x="5.2" y="279.8" width="29" height="29"/>
		</defs>
		<clipPath id="SVGID_12_">
			<use xlink:href="#SVGID_11_"  style="overflow:visible;"/>
		</clipPath>
		<path class="st18" d="M33.3,308.8H6.1c-0.5,0-0.9-0.4-0.9-0.9v-27.2c0-0.5,0.4-0.9,0.9-0.9h27c0.7,0,1.1,0.4,1.1,0.9v27
			C34.2,308.4,33.8,308.8,33.3,308.8"/>
		<path class="st19" d="M14.9,289.7c0.9,0,1.6,0.7,1.6,1.6c0,0.9-0.7,1.6-1.6,1.6c-0.9,0-1.6-0.7-1.6-1.6
			C13.3,290.5,14,289.7,14.9,289.7"/>
		<circle class="st20" cx="14.9" cy="291.4" r="1.6"/>
		<path class="st19" d="M11.9,294.1c1.7,0,3.1,1.4,3.1,3.1s-1.4,3.1-3.1,3.1c-1.7,0-3.1-1.4-3.1-3.1S10.2,294.1,11.9,294.1"/>
		<circle class="st20" cx="11.9" cy="297.2" r="3.1"/>
		<path class="st19" d="M15.3,291.7c1.8,0,3.3,1.5,3.3,3.3c0,1.8-1.5,3.3-3.3,3.3c-1.8,0-3.3-1.5-3.3-3.3
			C12,293.2,13.5,291.7,15.3,291.7"/>
		<circle class="st20" cx="15.3" cy="295" r="3.3"/>
		<path class="st19" d="M22,290.7c1.7,0,3.1,1.4,3.1,3.1s-1.4,3.1-3.1,3.1c-1.7,0-3.1-1.4-3.1-3.1S20.3,290.7,22,290.7"/>
		<circle class="st20" cx="22" cy="293.7" r="3.1"/>
		<path class="st19" d="M18.6,288.3c1.7,0,3.1,1.4,3.1,3.1c0,1.7-1.4,3.1-3.1,3.1c-1.7,0-3.1-1.4-3.1-3.1
			C15.5,289.7,16.9,288.3,18.6,288.3"/>
		<circle class="st20" cx="18.6" cy="291.4" r="3.1"/>
		<path class="st19" d="M28.7,296.5c1,0,1.8,0.8,1.8,1.8c0,1-0.8,1.8-1.8,1.8c-1,0-1.8-0.8-1.8-1.8
			C26.9,297.3,27.7,296.5,28.7,296.5"/>
		<circle class="st20" cx="28.7" cy="298.3" r="1.8"/>
		<path class="st19" d="M25.1,293.7c1.8,0,3.3,1.5,3.3,3.3c0,1.8-1.5,3.3-3.3,3.3c-1.8,0-3.3-1.5-3.3-3.3
			C21.8,295.2,23.3,293.7,25.1,293.7"/>
		<circle class="st20" cx="25.1" cy="297" r="3.3"/>
		<path class="st19" d="M15.1,296.6c1,0,1.8,0.8,1.8,1.8c0,1-0.8,1.8-1.8,1.8s-1.8-0.8-1.8-1.8C13.3,297.4,14.1,296.6,15.1,296.6"/>
		<circle class="st20" cx="15.1" cy="298.4" r="1.8"/>
		<path class="st19" d="M23.8,295.9c0,2.4-1.8,4.2-4.2,4.2s-4.2-1.8-4.2-4.2c0-2.4,1.8-4.2,4.2-4.2S23.8,293.7,23.8,295.9"/>
		<path class="st20" d="M23.8,295.9c0,2.4-1.8,4.2-4.2,4.2s-4.2-1.8-4.2-4.2c0-2.4,1.8-4.2,4.2-4.2S23.8,293.7,23.8,295.9z"/>
	</g>
</g>
<g>
	<defs>
		<rect id="SVGID_13_" width="538.6" height="326"/>
	</defs>
	<clipPath id="SVGID_14_">
		<use xlink:href="#SVGID_13_"  style="overflow:visible;"/>
	</clipPath>
	<rect x="279.3" y="213.3" class="st21" width="252.1" height="97.8"/>
	<rect x="279.3" y="213.3" class="st22" width="252.1" height="97.8"/>
	<g class="st23">
		<path class="st6" d="M334.1,279.8c0,2-0.5,3.5-1.6,4.5c-0.8,0.7-1.7,1.1-2.8,1.1c-1.5,0-2.7-0.6-3.4-1.8c-0.7-1-1-2.3-1-3.9
			c0-1.6,0.3-2.9,1-3.9c0.8-1.2,1.9-1.8,3.4-1.8c1.6,0,2.7,0.6,3.5,1.9C333.8,276.8,334.1,278.1,334.1,279.8z M332.6,280
			c0-1.6-0.2-2.7-0.5-3.5c-0.5-1-1.3-1.5-2.4-1.5c-1.1,0-1.9,0.4-2.4,1.3c-0.4,0.7-0.6,1.7-0.6,3c0,1.7,0.2,3,0.7,3.8
			c0.2,0.4,0.6,0.6,1,0.9c0.4,0.2,0.9,0.3,1.3,0.3C331.7,284.3,332.6,282.9,332.6,280z"/>
		<path class="st6" d="M340.3,277l-0.5,1.3c-0.1,0-0.3,0-0.4,0c-0.3,0-0.6,0.1-1,0.3c-0.3,0.2-0.5,0.4-0.7,0.7
			c-0.1,0.2-0.1,0.5-0.1,0.9v5h-1.2V279c0-0.7-0.1-1.3-0.3-1.8l1.3-0.3c0.2,0.4,0.3,0.8,0.3,1.2v0.1c0.6-0.9,1.4-1.3,2.2-1.3
			C340,276.9,340.1,277,340.3,277z"/>
		<path class="st6" d="M347.9,285.1h-1.3c-0.1-0.2-0.1-0.5-0.2-0.8c-0.2,0.2-0.4,0.4-0.5,0.5c-0.4,0.3-1,0.4-1.6,0.4
			c-1.1,0-2-0.4-2.5-1.2c-0.5-0.7-0.7-1.6-0.7-2.8c0-1.7,0.5-2.9,1.6-3.7c0.5-0.3,1-0.5,1.5-0.5c0.9,0,1.6,0.3,2.1,1
			c0-0.5,0-0.9,0-1.2v-3.4l1.3,0.2v8.9c0,0.9,0,1.6,0.1,1.9C347.8,284.7,347.8,284.9,347.9,285.1z M346.4,283.1v-4.2
			c-0.4-0.6-1-0.8-1.9-0.8c-1.3,0-2,1-2,3.1c0,2,0.6,3,1.9,3C345.3,284.1,346,283.8,346.4,283.1z"/>
		<path class="st6" d="M356.2,285.1h-1.3v-5.4c0-0.5-0.1-0.9-0.2-1.2c-0.2-0.3-0.5-0.5-1-0.5c-0.4,0-0.8,0.1-1.2,0.4
			c-0.4,0.2-0.7,0.5-1,0.8v6h-1.2v-5.9c0-0.8-0.1-1.4-0.3-1.9l1.2-0.3c0.2,0.4,0.3,0.8,0.3,1.2c0.8-0.8,1.7-1.2,2.5-1.2
			c0.4,0,0.8,0.1,1.2,0.3c0.4,0.2,0.6,0.5,0.8,0.9c0.1,0.3,0.2,0.6,0.2,0.9V285.1z"/>
		<path class="st6" d="M364.7,281.3h-5v0.2c0,0.8,0.1,1.4,0.4,1.8c0.4,0.7,1.1,1,2,1c0.8,0,1.4-0.2,2-0.8l0.5,0.8
			c-0.7,0.7-1.6,1-2.7,1c-1.2,0-2.1-0.4-2.7-1.3c-0.6-0.8-0.8-1.7-0.8-3c0-1.1,0.3-2.1,0.8-2.8c0.6-0.9,1.5-1.3,2.5-1.3
			c0.9,0,1.6,0.3,2.2,0.9c0.4,0.4,0.7,0.9,0.8,1.6c0.1,0.4,0.1,1,0.1,1.8V281.3z M363.4,280.4c0-0.8-0.1-1.3-0.3-1.7
			c-0.3-0.5-0.8-0.8-1.5-0.8c-1.2,0-1.8,0.8-1.8,2.5H363.4z"/>
		<path class="st6" d="M370.8,277l-0.5,1.3c-0.1,0-0.3,0-0.4,0c-0.3,0-0.6,0.1-1,0.3c-0.3,0.2-0.5,0.4-0.7,0.7
			c-0.1,0.2-0.1,0.5-0.1,0.9v5h-1.2V279c0-0.7-0.1-1.3-0.3-1.8l1.3-0.3c0.2,0.4,0.3,0.8,0.3,1.2v0.1c0.6-0.9,1.4-1.3,2.2-1.3
			C370.5,276.9,370.7,277,370.8,277z"/>
		<path class="st6" d="M381.6,274l-0.5,0.9c-0.4-0.2-0.8-0.4-1.2-0.4c-0.7,0-1.1,0.5-1.1,1.4v1.3h2.2l-0.4,0.9h-1.8v7h-1.3v-7h-0.8
			v-0.9h0.8v-1.3c0-0.9,0.3-1.5,0.9-2c0.4-0.3,0.8-0.4,1.4-0.4C380.6,273.5,381.2,273.7,381.6,274z"/>
		<path class="st6" d="M388.4,284.6l-0.8,0.8c-0.5-0.4-0.8-0.8-0.9-1.3c-0.6,0.8-1.5,1.2-2.5,1.2c-1.5,0-2.3-0.8-2.3-2.3v-5.9
			l1.2-0.2v5.7c0,1.1,0.5,1.6,1.5,1.6c0.4,0,0.8-0.1,1.2-0.4c0.4-0.3,0.6-0.6,0.8-1v-5.7l1.2-0.2v5.7c0,0.7,0.1,1.2,0.2,1.5
			C388.2,284.3,388.3,284.4,388.4,284.6z M384.1,275.2c0,0.2-0.1,0.4-0.2,0.6c-0.2,0.2-0.3,0.2-0.6,0.2c-0.2,0-0.4-0.1-0.6-0.2
			s-0.2-0.4-0.2-0.6c0-0.2,0.1-0.4,0.2-0.6s0.4-0.2,0.6-0.2c0.2,0,0.4,0.1,0.6,0.2C384,274.7,384.1,274.9,384.1,275.2z M387.4,275.2
			c0,0.2-0.1,0.4-0.2,0.6c-0.2,0.2-0.3,0.2-0.6,0.2c-0.2,0-0.4-0.1-0.6-0.2c-0.2-0.2-0.2-0.4-0.2-0.6c0-0.2,0.1-0.4,0.2-0.6
			c0.2-0.2,0.4-0.2,0.6-0.2c0.2,0,0.4,0.1,0.6,0.2C387.3,274.8,387.4,274.9,387.4,275.2z"/>
		<path class="st6" d="M394.5,277l-0.5,1.3c-0.1,0-0.3,0-0.4,0c-0.3,0-0.6,0.1-1,0.3c-0.3,0.2-0.5,0.4-0.7,0.7
			c-0.1,0.2-0.1,0.5-0.1,0.9v5h-1.2V279c0-0.7-0.1-1.3-0.3-1.8l1.3-0.3c0.2,0.4,0.3,0.8,0.3,1.2v0.1c0.6-0.9,1.4-1.3,2.2-1.3
			C394.2,276.9,394.3,277,394.5,277z"/>
		<path class="st6" d="M408.3,284.5c-0.9,0.6-1.9,0.8-3.1,0.8c-1.6,0-2.8-0.6-3.6-1.7c-0.7-1-1.1-2.3-1.1-4c0-2.1,0.6-3.6,1.7-4.6
			c0.8-0.7,1.7-1,2.9-1c1.2,0,2.2,0.4,3,1.1l-0.6,0.8c-0.8-0.6-1.6-0.8-2.4-0.8c-1.4,0-2.3,0.6-2.7,1.9c-0.3,0.8-0.4,1.7-0.4,2.8
			c0,1.5,0.3,2.6,0.8,3.3c0.3,0.4,0.7,0.7,1.2,0.9c0.5,0.2,1,0.3,1.5,0.3c0.7,0,1.3-0.1,1.7-0.4v-3.4h-2.2l-0.3-1.1h3.7V284.5z"/>
		<path class="st6" d="M414.6,277l-0.5,1.3c-0.1,0-0.3,0-0.4,0c-0.3,0-0.6,0.1-1,0.3c-0.3,0.2-0.5,0.4-0.7,0.7
			c-0.1,0.2-0.1,0.5-0.1,0.9v5h-1.2V279c0-0.7-0.1-1.3-0.3-1.8l1.3-0.3c0.2,0.4,0.3,0.8,0.3,1.2v0.1c0.6-0.9,1.4-1.3,2.2-1.3
			C414.3,276.9,414.5,277,414.6,277z"/>
		<path class="st6" d="M422.3,284.6l-0.8,0.8c-0.5-0.4-0.8-0.8-0.9-1.3c-0.6,0.8-1.5,1.2-2.5,1.2c-1.5,0-2.3-0.8-2.3-2.3v-5.9
			l1.2-0.2v5.7c0,1.1,0.5,1.6,1.5,1.6c0.4,0,0.8-0.1,1.2-0.4c0.4-0.3,0.6-0.6,0.8-1v-5.7l1.2-0.2v5.7c0,0.7,0.1,1.2,0.2,1.5
			C422.1,284.3,422.2,284.4,422.3,284.6z"/>
		<path class="st6" d="M430.9,281.1c0,1.1-0.2,2.1-0.6,2.7c-0.6,1-1.4,1.5-2.5,1.5c-0.9,0-1.6-0.3-2.2-0.9v3.8l-1.2,0.2v-9.4
			c0-0.9-0.1-1.5-0.2-1.9l1.3-0.2c0.1,0.3,0.1,0.6,0.1,1v0.2c0.7-0.8,1.4-1.2,2.4-1.2c1.1,0,1.8,0.4,2.4,1.3
			C430.7,279.1,430.9,280,430.9,281.1z M429.6,281.3c0-0.9-0.1-1.6-0.3-2.1c-0.3-0.7-0.8-1.1-1.6-1.1c-0.8,0-1.5,0.4-2.1,1.1v4
			c0.6,0.7,1.3,1,2,1C428.9,284.3,429.6,283.3,429.6,281.3z"/>
		<path class="st6" d="M439.8,281.1c0,1.1-0.2,2.1-0.6,2.7c-0.6,1-1.4,1.5-2.5,1.5c-0.9,0-1.6-0.3-2.2-0.9v3.8l-1.2,0.2v-9.4
			c0-0.9-0.1-1.5-0.2-1.9l1.3-0.2c0.1,0.3,0.1,0.6,0.1,1v0.2c0.7-0.8,1.4-1.2,2.4-1.2c1.1,0,1.8,0.4,2.4,1.3
			C439.6,279.1,439.8,280,439.8,281.1z M438.5,281.3c0-0.9-0.1-1.6-0.3-2.1c-0.3-0.7-0.8-1.1-1.6-1.1c-0.8,0-1.5,0.4-2.1,1.1v4
			c0.6,0.7,1.3,1,2,1C437.8,284.3,438.5,283.3,438.5,281.3z"/>
		<path class="st6" d="M448,281.3h-5v0.2c0,0.8,0.1,1.4,0.4,1.8c0.4,0.7,1.1,1,2,1c0.8,0,1.4-0.2,2-0.8l0.5,0.8
			c-0.7,0.7-1.6,1-2.7,1c-1.2,0-2.1-0.4-2.7-1.3c-0.6-0.8-0.8-1.7-0.8-3c0-1.1,0.3-2.1,0.8-2.8c0.6-0.9,1.5-1.3,2.5-1.3
			c0.9,0,1.6,0.3,2.2,0.9c0.4,0.4,0.7,0.9,0.8,1.6c0.1,0.4,0.1,1,0.1,1.8V281.3z M446.7,280.4c0-0.8-0.1-1.3-0.3-1.7
			c-0.3-0.5-0.8-0.8-1.5-0.8c-1.2,0-1.8,0.8-1.8,2.5H446.7z"/>
		<path class="st6" d="M456,285.1h-1.3v-5.4c0-0.5-0.1-0.9-0.2-1.2c-0.2-0.3-0.5-0.5-1-0.5c-0.4,0-0.8,0.1-1.2,0.4
			c-0.4,0.2-0.7,0.5-1,0.8v6h-1.2v-5.9c0-0.8-0.1-1.4-0.3-1.9l1.2-0.3c0.2,0.4,0.3,0.8,0.3,1.2c0.8-0.8,1.7-1.2,2.5-1.2
			c0.4,0,0.8,0.1,1.2,0.3c0.4,0.2,0.6,0.5,0.8,0.9c0.1,0.3,0.2,0.6,0.2,0.9V285.1z"/>
		<path class="st6" d="M470.1,277.2l-3,8h-1.2l-2.9-8l1.3-0.3l1.9,5.5c0.2,0.4,0.3,0.9,0.4,1.4h0c0.1-0.4,0.2-0.8,0.4-1.3l1.8-5.3
			L470.1,277.2z"/>
		<path class="st6" d="M478.2,281.3c0,1.5-0.4,2.6-1.2,3.3c-0.6,0.5-1.3,0.8-2.2,0.8c-1.2,0-2-0.4-2.6-1.3c-0.5-0.8-0.8-1.7-0.8-2.9
			c0-1.2,0.3-2.1,0.8-2.9c0.6-0.9,1.5-1.3,2.6-1.3c1.2,0,2.1,0.4,2.7,1.3C478,279.1,478.2,280.1,478.2,281.3z M476.8,281.4
			c0-1-0.1-1.8-0.3-2.3c-0.3-0.8-0.9-1.2-1.8-1.2c-0.8,0-1.4,0.3-1.7,0.9c-0.2,0.4-0.4,1.1-0.4,2c0,1,0.1,1.8,0.3,2.3
			c0.3,0.8,0.9,1.1,1.8,1.1C476.1,284.3,476.8,283.4,476.8,281.4z"/>
		<path class="st6" d="M486.4,285.1h-1.3v-5.4c0-0.5-0.1-0.9-0.2-1.2c-0.2-0.3-0.5-0.5-1-0.5c-0.4,0-0.8,0.1-1.2,0.4
			c-0.4,0.2-0.7,0.5-1,0.8v6h-1.2v-5.9c0-0.8-0.1-1.4-0.3-1.9l1.2-0.3c0.2,0.4,0.3,0.8,0.3,1.2c0.8-0.8,1.7-1.2,2.5-1.2
			c0.4,0,0.8,0.1,1.2,0.3c0.4,0.2,0.6,0.5,0.8,0.9c0.1,0.3,0.2,0.6,0.2,0.9V285.1z"/>
	</g>
	<g class="st23">
		<path class="st6" d="M337.2,300c0,1.1-0.5,2-1.5,2.6c-0.7,0.4-1.5,0.7-2.5,0.7c-1.3,0-2.5-0.3-3.5-1l0.6-1
			c0.9,0.6,1.9,0.9,2.9,0.9c0.7,0,1.3-0.2,1.7-0.5c0.5-0.4,0.8-0.9,0.8-1.6c0-1-0.7-1.7-2-2l-1.1-0.3c-1-0.3-1.6-0.6-2-1
			c-0.5-0.5-0.7-1.1-0.7-1.8c0-1,0.4-1.8,1.1-2.4c0.7-0.5,1.5-0.8,2.5-0.8c1.2,0,2.3,0.4,3.3,1.1l-0.6,0.9c-0.9-0.6-1.8-0.9-2.7-0.9
			c-0.6,0-1.1,0.1-1.5,0.4c-0.4,0.3-0.7,0.8-0.7,1.4c0,0.8,0.6,1.4,1.8,1.8l1.3,0.4C336.3,297.5,337.2,298.5,337.2,300z"/>
		<path class="st6" d="M342.7,295.1l-0.4,1h-1.7v5.1c0,0.4,0.1,0.7,0.2,0.9c0.2,0.2,0.4,0.3,0.8,0.3c0.3,0,0.6-0.1,0.8-0.2l0.2,0.8
			c-0.4,0.2-0.9,0.3-1.4,0.3c-1.2,0-1.8-0.6-1.8-1.8v-5.5h-1v-1h1V295c0-0.1,0-0.7,0.1-1.7l0-0.2l1.3-0.3c-0.1,0.9-0.2,1.6-0.2,2.3
			H342.7z"/>
		<path class="st6" d="M351,302.6l-0.8,0.8c-0.5-0.4-0.8-0.8-0.9-1.3c-0.6,0.8-1.5,1.2-2.5,1.2c-1.5,0-2.3-0.8-2.3-2.3v-5.9l1.2-0.2
			v5.7c0,1.1,0.5,1.6,1.5,1.6c0.4,0,0.8-0.1,1.2-0.4c0.4-0.3,0.6-0.6,0.8-1v-5.7l1.2-0.2v5.7c0,0.7,0.1,1.2,0.2,1.5
			C350.7,302.3,350.8,302.4,351,302.6z"/>
		<path class="st6" d="M359.5,303.1h-1.3c-0.1-0.2-0.1-0.5-0.2-0.8c-0.2,0.2-0.4,0.4-0.5,0.5c-0.4,0.3-0.9,0.4-1.6,0.4
			c-1.1,0-2-0.4-2.5-1.2c-0.5-0.7-0.7-1.6-0.7-2.8c0-1.7,0.5-2.9,1.6-3.7c0.5-0.3,1-0.5,1.5-0.5c0.9,0,1.6,0.3,2.1,1
			c0-0.5,0-0.9,0-1.2v-3.4l1.3,0.2v8.9c0,0.9,0,1.6,0.1,1.9C359.4,302.7,359.4,302.9,359.5,303.1z M358,301.1v-4.2
			c-0.4-0.6-1-0.8-1.9-0.8c-1.3,0-2,1-2,3.1c0,2,0.6,3,1.9,3C356.9,302.1,357.6,301.8,358,301.1z"/>
		<path class="st6" d="M363.5,292.7c0,0.3-0.1,0.5-0.3,0.7c-0.2,0.2-0.4,0.3-0.7,0.3c-0.3,0-0.5-0.1-0.7-0.3
			c-0.2-0.2-0.3-0.4-0.3-0.7c0-0.3,0.1-0.5,0.3-0.7c0.2-0.2,0.4-0.3,0.7-0.3s0.5,0.1,0.7,0.3C363.4,292.2,363.5,292.4,363.5,292.7z
			 M363.2,303.1h-1.3v-7.9l1.3-0.2V303.1z"/>
		<path class="st6" d="M371.8,299.3h-5v0.2c0,0.8,0.1,1.4,0.4,1.8c0.4,0.7,1.1,1,2,1c0.8,0,1.4-0.2,2-0.8l0.5,0.8
			c-0.7,0.7-1.6,1-2.7,1c-1.2,0-2.1-0.4-2.7-1.3c-0.6-0.8-0.8-1.7-0.8-3c0-1.1,0.3-2.1,0.8-2.8c0.6-0.9,1.5-1.3,2.5-1.3
			c0.9,0,1.6,0.3,2.2,0.9c0.4,0.4,0.7,0.9,0.8,1.6c0.1,0.4,0.1,1,0.1,1.8V299.3z M370.4,298.4c0-0.8-0.1-1.3-0.3-1.7
			c-0.3-0.5-0.8-0.8-1.5-0.8c-1.2,0-1.8,0.8-1.8,2.5H370.4z"/>
		<path class="st6" d="M377.9,295l-0.5,1.3c-0.1,0-0.3,0-0.4,0c-0.3,0-0.6,0.1-1,0.3c-0.3,0.2-0.5,0.4-0.7,0.7
			c-0.1,0.2-0.1,0.5-0.1,0.9v5H374V297c0-0.7-0.1-1.3-0.3-1.8l1.3-0.3c0.2,0.4,0.3,0.8,0.3,1.2v0.1c0.6-0.9,1.4-1.3,2.2-1.3
			C377.6,294.9,377.7,295,377.9,295z"/>
		<path class="st6" d="M384.9,299.3h-5v0.2c0,0.8,0.1,1.4,0.4,1.8c0.4,0.7,1.1,1,2,1c0.8,0,1.4-0.2,2-0.8l0.5,0.8
			c-0.7,0.7-1.6,1-2.7,1c-1.2,0-2.1-0.4-2.7-1.3c-0.6-0.8-0.8-1.7-0.8-3c0-1.1,0.3-2.1,0.8-2.8c0.6-0.9,1.5-1.3,2.5-1.3
			c0.9,0,1.6,0.3,2.2,0.9c0.4,0.4,0.7,0.9,0.8,1.6c0.1,0.4,0.1,1,0.1,1.8V299.3z M383.6,298.4c0-0.8-0.1-1.3-0.3-1.7
			c-0.3-0.5-0.8-0.8-1.5-0.8c-1.2,0-1.8,0.8-1.8,2.5H383.6z"/>
		<path class="st6" d="M393,303.1h-1.3v-5.4c0-0.5-0.1-0.9-0.2-1.2c-0.2-0.3-0.5-0.5-1-0.5c-0.4,0-0.8,0.1-1.2,0.4
			c-0.4,0.2-0.7,0.5-1,0.8v6h-1.2v-5.9c0-0.8-0.1-1.4-0.3-1.9l1.2-0.3c0.2,0.4,0.3,0.8,0.3,1.2c0.8-0.8,1.7-1.2,2.5-1.2
			c0.4,0,0.8,0.1,1.2,0.3c0.4,0.2,0.6,0.5,0.8,0.9c0.1,0.3,0.2,0.6,0.2,0.9V303.1z"/>
		<path class="st6" d="M402.1,303.1h-1.3c-0.1-0.2-0.1-0.5-0.2-0.8c-0.2,0.2-0.4,0.4-0.5,0.5c-0.4,0.3-0.9,0.4-1.6,0.4
			c-1.1,0-2-0.4-2.5-1.2c-0.5-0.7-0.7-1.6-0.7-2.8c0-1.7,0.5-2.9,1.6-3.7c0.5-0.3,1-0.5,1.5-0.5c0.9,0,1.6,0.3,2.1,1
			c0-0.5,0-0.9,0-1.2v-3.4l1.3,0.2v8.9c0,0.9,0,1.6,0.1,1.9C402,302.7,402,302.9,402.1,303.1z M400.6,301.1v-4.2
			c-0.4-0.6-1-0.8-1.9-0.8c-1.3,0-2,1-2,3.1c0,2,0.6,3,1.9,3C399.5,302.1,400.2,301.8,400.6,301.1z"/>
		<path class="st6" d="M410.3,299.3h-5v0.2c0,0.8,0.1,1.4,0.4,1.8c0.4,0.7,1.1,1,2,1c0.8,0,1.4-0.2,2-0.8l0.5,0.8
			c-0.7,0.7-1.6,1-2.7,1c-1.2,0-2.1-0.4-2.7-1.3c-0.6-0.8-0.8-1.7-0.8-3c0-1.1,0.3-2.1,0.8-2.8c0.6-0.9,1.5-1.3,2.5-1.3
			c0.9,0,1.6,0.3,2.2,0.9c0.4,0.4,0.7,0.9,0.8,1.6c0.1,0.4,0.1,1,0.1,1.8V299.3z M409,298.4c0-0.8-0.1-1.3-0.3-1.7
			c-0.3-0.5-0.8-0.8-1.5-0.8c-1.2,0-1.8,0.8-1.8,2.5H409z"/>
		<path class="st6" d="M418.4,303.1h-1.3v-5.4c0-0.5-0.1-0.9-0.2-1.2c-0.2-0.3-0.5-0.5-1-0.5c-0.4,0-0.8,0.1-1.2,0.4
			c-0.4,0.2-0.7,0.5-1,0.8v6h-1.2v-5.9c0-0.8-0.1-1.4-0.3-1.9l1.2-0.3c0.2,0.4,0.3,0.8,0.3,1.2c0.8-0.8,1.7-1.2,2.5-1.2
			c0.4,0,0.8,0.1,1.2,0.3c0.4,0.2,0.6,0.5,0.8,0.9c0.1,0.3,0.2,0.6,0.2,0.9V303.1z"/>
		<path class="st6" d="M432.2,299.3h-5v0.2c0,0.8,0.1,1.4,0.4,1.8c0.4,0.7,1.1,1,2,1c0.8,0,1.4-0.2,2-0.8l0.5,0.8
			c-0.7,0.7-1.6,1-2.7,1c-1.2,0-2.1-0.4-2.7-1.3c-0.6-0.8-0.8-1.7-0.8-3c0-1.1,0.3-2.1,0.8-2.8c0.6-0.9,1.5-1.3,2.5-1.3
			c0.9,0,1.6,0.3,2.2,0.9c0.4,0.4,0.7,0.9,0.8,1.6c0.1,0.4,0.1,1,0.1,1.8V299.3z M430.9,298.4c0-0.8-0.1-1.3-0.3-1.7
			c-0.3-0.5-0.8-0.8-1.5-0.8c-1.2,0-1.8,0.8-1.8,2.5H430.9z"/>
		<path class="st6" d="M438.3,295l-0.5,1.3c-0.1,0-0.3,0-0.4,0c-0.3,0-0.6,0.1-1,0.3c-0.3,0.2-0.5,0.4-0.7,0.7
			c-0.1,0.2-0.1,0.5-0.1,0.9v5h-1.2V297c0-0.7-0.1-1.3-0.3-1.8l1.3-0.3c0.2,0.4,0.3,0.8,0.3,1.2v0.1c0.6-0.9,1.4-1.3,2.2-1.3
			C438,294.9,438.2,295,438.3,295z"/>
		<path class="st6" d="M444.6,300.7c0,0.8-0.3,1.5-0.9,2c-0.5,0.4-1.2,0.7-2.1,0.7c-1.1,0-2.1-0.3-2.9-0.8l0.5-0.9
			c0.8,0.5,1.7,0.8,2.5,0.8c0.5,0,0.9-0.1,1.2-0.4c0.3-0.2,0.5-0.6,0.5-1c0-0.7-0.4-1.1-1.3-1.3l-1-0.2c-1.3-0.3-2-1-2-2.2
			c0-0.8,0.3-1.4,0.9-1.8c0.5-0.4,1.2-0.6,2-0.6c0.9,0,1.7,0.2,2.4,0.6l-0.5,0.9c-0.8-0.4-1.5-0.6-2-0.6c-0.4,0-0.8,0.1-1.1,0.3
			c-0.3,0.2-0.4,0.6-0.4,1c0,0.6,0.4,1,1.2,1.2l1.1,0.2C443.9,298.8,444.6,299.5,444.6,300.7z"/>
		<path class="st6" d="M450.1,295.1l-0.4,1H448v5.1c0,0.4,0.1,0.7,0.2,0.9c0.2,0.2,0.4,0.3,0.8,0.3c0.3,0,0.6-0.1,0.8-0.2l0.2,0.8
			c-0.4,0.2-0.9,0.3-1.4,0.3c-1.2,0-1.8-0.6-1.8-1.8v-5.5h-1v-1h1V295c0-0.1,0-0.7,0.1-1.7l0-0.2l1.3-0.3c-0.1,0.9-0.2,1.6-0.2,2.3
			H450.1z"/>
		<path class="st6" d="M457.7,299.3h-5v0.2c0,0.8,0.1,1.4,0.4,1.8c0.4,0.7,1.1,1,2,1c0.8,0,1.4-0.2,2-0.8l0.5,0.8
			c-0.7,0.7-1.6,1-2.7,1c-1.2,0-2.1-0.4-2.7-1.3c-0.6-0.8-0.8-1.7-0.8-3c0-1.1,0.3-2.1,0.8-2.8c0.6-0.9,1.5-1.3,2.5-1.3
			c0.9,0,1.6,0.3,2.2,0.9c0.4,0.4,0.7,0.9,0.8,1.6c0.1,0.4,0.1,1,0.1,1.8V299.3z M456.3,298.4c0-0.8-0.1-1.3-0.3-1.7
			c-0.3-0.5-0.8-0.8-1.5-0.8c-1.2,0-1.8,0.8-1.8,2.5H456.3z"/>
		<path class="st6" d="M462,303.1c-0.3,0.1-0.5,0.2-0.8,0.2c-0.9,0-1.3-0.5-1.3-1.5v-7.9c0-1-0.1-1.8-0.2-2.2l1.3-0.3
			c0.1,0.4,0.2,1.2,0.2,2.5v7.6c0,0.3,0,0.5,0,0.5c0.1,0.2,0.2,0.3,0.4,0.3c0,0,0.1,0,0.2,0L462,303.1z"/>
		<path class="st6" d="M465.9,303.1c-0.3,0.1-0.5,0.2-0.8,0.2c-0.9,0-1.3-0.5-1.3-1.5v-7.9c0-1-0.1-1.8-0.2-2.2l1.3-0.3
			c0.1,0.4,0.2,1.2,0.2,2.5v7.6c0,0.3,0,0.5,0,0.5c0.1,0.2,0.2,0.3,0.4,0.3c0,0,0.1,0,0.2,0L465.9,303.1z"/>
		<path class="st6" d="M473.6,299.3h-5v0.2c0,0.8,0.1,1.4,0.4,1.8c0.4,0.7,1.1,1,2,1c0.8,0,1.4-0.2,2-0.8l0.5,0.8
			c-0.7,0.7-1.6,1-2.7,1c-1.2,0-2.1-0.4-2.7-1.3c-0.6-0.8-0.8-1.7-0.8-3c0-1.1,0.3-2.1,0.8-2.8c0.6-0.9,1.5-1.3,2.5-1.3
			c0.9,0,1.6,0.3,2.2,0.9c0.4,0.4,0.7,0.9,0.8,1.6c0.1,0.4,0.1,1,0.1,1.8V299.3z M472.3,298.4c0-0.8-0.1-1.3-0.3-1.7
			c-0.3-0.5-0.8-0.8-1.5-0.8c-1.2,0-1.8,0.8-1.8,2.5H472.3z"/>
		<path class="st6" d="M481.7,303.1h-1.3v-5.4c0-0.5-0.1-0.9-0.2-1.2c-0.2-0.3-0.5-0.5-1-0.5c-0.4,0-0.8,0.1-1.2,0.4
			c-0.4,0.2-0.7,0.5-1,0.8v6h-1.2v-5.9c0-0.8-0.1-1.4-0.3-1.9l1.2-0.3c0.2,0.4,0.3,0.8,0.3,1.2c0.8-0.8,1.7-1.2,2.5-1.2
			c0.4,0,0.8,0.1,1.2,0.3c0.4,0.2,0.6,0.5,0.8,0.9c0.1,0.3,0.2,0.6,0.2,0.9V303.1z"/>
	</g>
	<g class="st23">
		<path class="st6" d="M341,237.3l-1.1-3.6h-4.5l-1.1,3.6h-2.4l4.5-13.9h2.7l4.4,13.9H341z M339.3,231.7c0-0.1-0.1-0.2-0.2-0.5
			c-0.1-0.3-0.2-0.6-0.3-1.1s-0.2-0.9-0.4-1.3s-0.3-0.9-0.4-1.4c-0.1-0.4-0.2-0.8-0.3-1.1c-0.1-0.3-0.1-0.5-0.1-0.6h0
			c-0.3,1-0.5,1.8-0.8,2.7c-0.1,0.3-0.2,0.7-0.3,1c-0.1,0.3-0.2,0.7-0.3,1c-0.1,0.3-0.2,0.6-0.2,0.8c-0.1,0.2-0.1,0.4-0.2,0.5H339.3
			z"/>
		<path class="st6" d="M353.3,236.5c-0.9,0.7-2,1-3.3,1c-0.8,0-1.5-0.1-2.1-0.3s-1.2-0.5-1.6-1c-1.1-1-1.6-2.4-1.6-4.1
			c0-1.3,0.3-2.5,0.9-3.4c0.5-0.7,1.1-1.3,1.9-1.8c0.8-0.4,1.7-0.6,2.6-0.6c0.6,0,1.1,0.1,1.7,0.2c0.6,0.2,1,0.4,1.3,0.6l-1.1,1.5
			c-0.6-0.4-1.3-0.6-1.9-0.6c-0.5,0-0.9,0.1-1.3,0.3c-0.4,0.2-0.7,0.5-1,0.8c-0.4,0.6-0.6,1.5-0.6,2.6c0,0.8,0,1.4,0.1,1.8
			c0.1,0.4,0.3,0.8,0.6,1.2c0.6,0.7,1.3,1,2.3,1c0.4,0,0.7,0,1.1-0.2c0.3-0.1,0.7-0.3,1-0.5L353.3,236.5z"/>
		<path class="st6" d="M362.4,228.3h-2.9v9h-2.3v-9h-3v-1.8h8.6L362.4,228.3z"/>
		<path class="st6" d="M364.7,237.3v-10.8h2.3v10.8H364.7z"/>
		<path class="st6" d="M374.8,237.4h-2l-4.1-10.9h2.5l2,5.6c0.1,0.2,0.2,0.5,0.2,0.8c0.1,0.3,0.2,0.6,0.2,0.8
			c0.1,0.3,0.2,0.6,0.2,0.9c0.1-0.3,0.1-0.6,0.2-0.9c0.1-0.3,0.1-0.5,0.2-0.8c0.1-0.3,0.2-0.5,0.3-0.8l2.1-5.6h2.3L374.8,237.4z"/>
		<path class="st6" d="M380.6,237.3v-10.8h2.3v10.8H380.6z"/>
		<path class="st6" d="M393.2,228.3h-2.9v9H388v-9h-3v-1.8h8.6L393.2,228.3z"/>
		<path class="st6" d="M399.4,232.9v4.4H397v-4.4l-3.8-6.4h2.7l1.7,3.3c0.1,0.1,0.1,0.2,0.2,0.4s0.1,0.3,0.2,0.5
			c0.1,0.2,0.1,0.3,0.2,0.4c0,0.1,0.1,0.2,0.1,0.2c0,0,0-0.1,0.1-0.2c0-0.1,0.1-0.2,0.1-0.4c0.1-0.2,0.1-0.3,0.2-0.5
			c0.1-0.2,0.1-0.3,0.2-0.5l1.7-3.2h2.7L399.4,232.9z"/>
		<path class="st6" d="M420.9,237.3l-0.6-8.6c0-0.2,0-0.4,0-0.7c0-0.2,0-0.5,0-0.7s0-0.4,0-0.6c0-0.2,0-0.3,0-0.4
			c-0.1,0.2-0.1,0.5-0.2,1c-0.1,0.4-0.2,0.8-0.3,1.3l-2.5,8.8h-2l-2.3-8.4c-0.1-0.2-0.1-0.5-0.2-0.7c-0.1-0.3-0.1-0.5-0.2-0.8
			c-0.1-0.2-0.1-0.5-0.1-0.7c0-0.2-0.1-0.4-0.1-0.5c0,0.1,0,0.3,0,0.5s0,0.4,0,0.7c0,0.2,0,0.5,0,0.8c0,0.3,0,0.5,0,0.7l-0.6,8.4
			h-2.3l1.3-13.8h3.1l2.1,7.8c0.2,0.6,0.3,1.1,0.3,1.5s0.1,0.7,0.2,0.9c0-0.2,0.1-0.5,0.2-1c0.1-0.4,0.2-0.9,0.3-1.4l2.2-7.9h3.1
			l1.2,13.8H420.9z"/>
		<path class="st6" d="M436,231.9c0,0.8-0.1,1.6-0.3,2.3c-0.2,0.7-0.5,1.3-0.9,1.8c-0.4,0.5-0.9,0.9-1.6,1.2
			c-0.6,0.3-1.4,0.4-2.3,0.4c-0.8,0-1.6-0.1-2.2-0.4c-0.6-0.3-1.2-0.6-1.6-1.1c-0.4-0.5-0.8-1.1-1-1.8s-0.3-1.4-0.3-2.2
			c0-1.8,0.5-3.1,1.4-4.1c0.9-1,2.2-1.5,3.8-1.5c0.9,0,1.6,0.1,2.2,0.4c0.6,0.3,1.2,0.7,1.6,1.2s0.8,1.1,1,1.8
			C435.9,230.3,436,231.1,436,231.9z M433.5,231.9c0-0.5,0-0.9-0.1-1.4c-0.1-0.5-0.2-0.9-0.3-1.3c-0.2-0.4-0.4-0.7-0.8-0.9
			s-0.8-0.3-1.4-0.3c-0.6,0-1,0.1-1.3,0.4c-0.3,0.2-0.6,0.5-0.8,0.9c-0.2,0.4-0.3,0.8-0.3,1.2c-0.1,0.5-0.1,0.9-0.1,1.3
			c0,0.5,0,1,0.1,1.5c0.1,0.5,0.2,0.9,0.3,1.3c0.2,0.4,0.4,0.7,0.8,0.9c0.4,0.2,0.8,0.3,1.4,0.3c0.6,0,1-0.1,1.4-0.4
			c0.3-0.2,0.6-0.5,0.8-0.9c0.2-0.4,0.3-0.8,0.3-1.3C433.4,232.8,433.5,232.4,433.5,231.9z"/>
		<path class="st6" d="M447.7,231.9c0,0.8-0.1,1.6-0.3,2.2c-0.2,0.6-0.5,1.1-0.9,1.5s-0.7,0.8-1.1,1c-0.4,0.2-0.8,0.4-1.1,0.5
			c-0.4,0.1-0.7,0.2-1,0.2c-0.3,0-0.7,0-1.2,0h-3v-10.8h2.4c0.5,0,1.1,0,1.6,0.1s1,0.1,1.4,0.2c0.5,0.1,0.9,0.3,1.3,0.6
			c0.4,0.3,0.8,0.6,1.1,1c0.3,0.4,0.5,0.9,0.7,1.5C447.6,230.4,447.7,231.1,447.7,231.9z M445.3,232.1c0-0.5,0-1-0.1-1.4
			c-0.1-0.5-0.2-0.9-0.4-1.2c-0.2-0.4-0.5-0.7-0.9-0.9c-0.4-0.2-0.8-0.3-1.4-0.3h-1.2v7.3h1.4c0.5,0,0.9-0.1,1.2-0.3
			s0.6-0.4,0.8-0.8c0.2-0.3,0.3-0.7,0.4-1.1S445.3,232.5,445.3,232.1z"/>
		<path class="st6" d="M459.2,233.5c0,0.4,0,0.8,0,1.1c0,0.3-0.1,0.5-0.2,0.8c-0.1,0.2-0.2,0.4-0.3,0.6c-0.1,0.2-0.3,0.3-0.4,0.5
			c-0.3,0.3-0.8,0.6-1.3,0.8c-0.5,0.2-1.2,0.3-2,0.3c-1,0-1.8-0.1-2.4-0.4s-1.1-0.7-1.4-1.1c-0.2-0.3-0.3-0.6-0.4-1
			c-0.1-0.3-0.1-0.8-0.1-1.3v-7.1h2.3v6.8c0,0.4,0,0.7,0,0.9c0,0.2,0.1,0.4,0.1,0.6c0.1,0.3,0.4,0.5,0.7,0.7
			c0.3,0.1,0.7,0.2,1.1,0.2c0.7,0,1.3-0.2,1.6-0.6c0.1-0.1,0.1-0.2,0.2-0.3c0.1-0.1,0.1-0.2,0.1-0.3c0-0.1,0.1-0.3,0.1-0.5
			c0-0.2,0-0.4,0-0.7v-6.9h2.3V233.5z"/>
		<path class="st6" d="M468.9,237.3h-6.2v-10.8h2.3v9h4.4L468.9,237.3z"/>
		<path class="st6" d="M471.1,237.3v-10.8h6.8l-0.3,1.8h-4.2v2.5h3.5v1.8h-3.5v2.9h4.7v1.9H471.1z"/>
	</g>
	<g class="st23">
		<path class="st6" d="M317.3,256.6c-0.4,0.2-0.8,0.4-1.2,0.5c-0.4,0.1-0.8,0.2-1.3,0.2c-1.4,0-2.4-0.4-3.2-1.2
			c-0.8-0.8-1.1-1.9-1.1-3.4s0.4-2.6,1.1-3.4c0.8-0.8,1.8-1.2,3.2-1.2c0.4,0,0.8,0.1,1.2,0.2c0.4,0.1,0.8,0.3,1.2,0.5v1.5
			c-0.4-0.3-0.8-0.6-1.1-0.7s-0.8-0.2-1.3-0.2c-0.9,0-1.6,0.3-2.1,0.9s-0.7,1.4-0.7,2.5c0,1.1,0.2,1.9,0.7,2.5
			c0.5,0.6,1.2,0.9,2.1,0.9c0.5,0,0.9-0.1,1.3-0.2c0.4-0.2,0.8-0.4,1.1-0.7V256.6z"/>
		<path class="st6" d="M323.5,248.1c1.2,0,2.1,0.4,2.8,1.2c0.6,0.8,1,1.9,1,3.4c0,1.5-0.3,2.6-1,3.4s-1.6,1.2-2.8,1.2
			c-1.2,0-2.1-0.4-2.8-1.2s-1-1.9-1-3.4c0-1.5,0.3-2.6,1-3.4S322.3,248.1,323.5,248.1z M323.5,249.3c-0.7,0-1.3,0.3-1.7,0.9
			s-0.6,1.4-0.6,2.5c0,1.1,0.2,1.9,0.6,2.5s0.9,0.9,1.7,0.9c0.7,0,1.3-0.3,1.7-0.9s0.6-1.4,0.6-2.5c0-1.1-0.2-2-0.6-2.5
			S324.2,249.3,323.5,249.3z"/>
		<path class="st6" d="M333.9,253.9c0,0.6,0.1,1.1,0.4,1.5c0.2,0.3,0.6,0.5,1.1,0.5h1.7v1.2h-1.8c-0.9,0-1.5-0.3-2-0.8
			c-0.5-0.5-0.7-1.3-0.7-2.3V246h-2.3v-1.1h3.7V253.9z"/>
		<path class="st6" d="M343.5,253.9c0,0.6,0.1,1.1,0.4,1.5c0.2,0.3,0.6,0.5,1.1,0.5h1.7v1.2h-1.8c-0.9,0-1.5-0.3-2-0.8
			c-0.5-0.5-0.7-1.3-0.7-2.3V246h-2.3v-1.1h3.7V253.9z"/>
		<path class="st6" d="M355.8,252.1v5h-1.4v-1.3c-0.3,0.5-0.7,0.9-1.2,1.2c-0.5,0.2-1,0.4-1.7,0.4c-0.9,0-1.6-0.3-2.1-0.8
			s-0.8-1.2-0.8-2c0-1,0.3-1.7,1-2.2c0.7-0.5,1.6-0.8,2.9-0.8h1.9v-0.2c0-0.7-0.2-1.2-0.5-1.5c-0.3-0.3-0.9-0.5-1.7-0.5
			c-0.5,0-1,0.1-1.5,0.2s-1,0.3-1.5,0.6v-1.4c0.5-0.2,1-0.4,1.5-0.5c0.5-0.1,1-0.2,1.4-0.2c0.7,0,1.3,0.1,1.9,0.3
			c0.5,0.2,0.9,0.5,1.2,1c0.2,0.3,0.3,0.6,0.4,1C355.8,250.7,355.8,251.3,355.8,252.1z M353,252.7h-0.5c-0.8,0-1.5,0.1-1.9,0.4
			c-0.4,0.3-0.6,0.7-0.6,1.3c0,0.5,0.2,0.9,0.5,1.2c0.3,0.3,0.8,0.4,1.3,0.4c0.8,0,1.4-0.3,1.9-0.8s0.7-1.3,0.7-2.3v-0.3H353z"/>
		<path class="st6" d="M360.1,249.4c0.2-0.4,0.5-0.8,0.9-1c0.4-0.2,0.9-0.3,1.4-0.3c1.1,0,1.9,0.4,2.5,1.2c0.6,0.8,0.9,1.9,0.9,3.3
			c0,1.4-0.3,2.6-0.9,3.4c-0.6,0.8-1.4,1.2-2.5,1.2c-0.5,0-1-0.1-1.4-0.3s-0.7-0.6-1-1v1.1h-1.4v-12.2h1.4V249.4z M364.4,252.7
			c0-1.1-0.2-2-0.5-2.5c-0.4-0.6-0.9-0.9-1.6-0.9c-0.7,0-1.2,0.3-1.6,0.9s-0.5,1.4-0.5,2.5c0,1.1,0.2,1.9,0.5,2.5s0.9,0.9,1.6,0.9
			c0.7,0,1.2-0.3,1.6-0.9C364.2,254.7,364.4,253.8,364.4,252.7z"/>
		<path class="st6" d="M371.6,248.1c1.2,0,2.1,0.4,2.8,1.2c0.6,0.8,1,1.9,1,3.4c0,1.5-0.3,2.6-1,3.4s-1.6,1.2-2.8,1.2
			c-1.2,0-2.1-0.4-2.8-1.2s-1-1.9-1-3.4c0-1.5,0.3-2.6,1-3.4S370.4,248.1,371.6,248.1z M371.6,249.3c-0.7,0-1.3,0.3-1.7,0.9
			s-0.6,1.4-0.6,2.5c0,1.1,0.2,1.9,0.6,2.5s0.9,0.9,1.7,0.9c0.7,0,1.3-0.3,1.7-0.9s0.6-1.4,0.6-2.5c0-1.1-0.2-2-0.6-2.5
			S372.4,249.3,371.6,249.3z"/>
		<path class="st6" d="M385.5,250.1c-0.3-0.2-0.6-0.4-0.9-0.5c-0.3-0.1-0.7-0.2-1-0.2c-0.9,0-1.6,0.3-2.1,0.8
			c-0.5,0.6-0.7,1.4-0.7,2.4v4.4h-1.4v-8.8h1.4v1.7c0.2-0.6,0.6-1.1,1.1-1.4c0.5-0.3,1.1-0.5,1.8-0.5c0.4,0,0.7,0,1,0.1
			c0.3,0.1,0.6,0.2,0.9,0.4V250.1z"/>
		<path class="st6" d="M394.4,252.1v5h-1.4v-1.3c-0.3,0.5-0.7,0.9-1.2,1.2c-0.5,0.2-1,0.4-1.7,0.4c-0.9,0-1.6-0.3-2.1-0.8
			s-0.8-1.2-0.8-2c0-1,0.3-1.7,1-2.2c0.7-0.5,1.6-0.8,2.9-0.8h1.9v-0.2c0-0.7-0.2-1.2-0.5-1.5c-0.3-0.3-0.9-0.5-1.7-0.5
			c-0.5,0-1,0.1-1.5,0.2s-1,0.3-1.5,0.6v-1.4c0.5-0.2,1-0.4,1.5-0.5c0.5-0.1,1-0.2,1.4-0.2c0.7,0,1.3,0.1,1.9,0.3
			c0.5,0.2,0.9,0.5,1.2,1c0.2,0.3,0.3,0.6,0.4,1C394.3,250.7,394.4,251.3,394.4,252.1z M391.6,252.7h-0.5c-0.8,0-1.5,0.1-1.9,0.4
			c-0.4,0.3-0.6,0.7-0.6,1.3c0,0.5,0.2,0.9,0.5,1.2c0.3,0.3,0.8,0.4,1.3,0.4c0.8,0,1.4-0.3,1.9-0.8s0.7-1.3,0.7-2.3v-0.3H391.6z"/>
		<path class="st6" d="M400.5,245.8v2.5h3.3v1.1h-3.3v4.8c0,0.6,0.1,1.1,0.4,1.4c0.2,0.3,0.7,0.4,1.3,0.4h1.6v1.1H402
			c-1.1,0-1.8-0.2-2.3-0.6c-0.4-0.4-0.7-1.2-0.7-2.2v-4.8h-2.3v-1.1h2.3v-2.5H400.5z"/>
		<path class="st6" d="M407.8,248.4h3.7v7.6h2.9v1.1h-7.1V256h2.9v-6.5h-2.2V248.4z M410.1,245h1.4v1.8h-1.4V245z"/>
		<path class="st6" d="M415.8,248.3h1.5l2.5,7.3l2.5-7.3h1.5l-3.1,8.8h-1.9L415.8,248.3z"/>
		<path class="st6" d="M433.4,252v0.7h-6.2v0c0,1.2,0.2,2,0.7,2.6c0.5,0.5,1.2,0.8,2.1,0.8c0.5,0,0.9-0.1,1.4-0.2s1-0.4,1.6-0.7v1.4
			c-0.5,0.2-1.1,0.4-1.6,0.5s-1,0.2-1.5,0.2c-1.4,0-2.4-0.4-3.2-1.2s-1.1-1.9-1.1-3.4c0-1.4,0.4-2.5,1.1-3.3s1.8-1.2,3-1.2
			c1.1,0,2,0.4,2.6,1.1C433,250,433.3,250.9,433.4,252z M431.9,251.6c-0.1-0.6-0.3-1.1-0.7-1.6c-0.4-0.4-0.9-0.7-1.6-0.7
			c-0.7,0-1.3,0.2-1.7,0.7c-0.4,0.5-0.7,1-0.7,1.5L431.9,251.6z"/>
		<path class="st6" d="M442.6,244.9v1.2h-1.6c-0.5,0-0.9,0.1-1.1,0.3c-0.2,0.2-0.3,0.6-0.3,1.1v0.8h3v1.1h-3v7.6h-1.4v-7.6h-2.3
			v-1.1h2.3v-0.6c0-1,0.2-1.7,0.7-2.1c0.4-0.5,1.1-0.7,2.1-0.7H442.6z"/>
		<path class="st6" d="M448.7,248.1c1.2,0,2.1,0.4,2.8,1.2c0.6,0.8,1,1.9,1,3.4c0,1.5-0.3,2.6-1,3.4s-1.6,1.2-2.8,1.2
			c-1.2,0-2.1-0.4-2.8-1.2s-1-1.9-1-3.4c0-1.5,0.3-2.6,1-3.4S447.5,248.1,448.7,248.1z M448.7,249.3c-0.7,0-1.3,0.3-1.7,0.9
			s-0.6,1.4-0.6,2.5c0,1.1,0.2,1.9,0.6,2.5s0.9,0.9,1.7,0.9c0.7,0,1.3-0.3,1.7-0.9s0.6-1.4,0.6-2.5c0-1.1-0.2-2-0.6-2.5
			S449.4,249.3,448.7,249.3z"/>
		<path class="st6" d="M459.1,253.9c0,0.6,0.1,1.1,0.4,1.5c0.2,0.3,0.6,0.5,1.1,0.5h1.7v1.2h-1.8c-0.9,0-1.5-0.3-2-0.8
			c-0.5-0.5-0.7-1.3-0.7-2.3V246h-2.3v-1.1h3.7V253.9z"/>
		<path class="st6" d="M469.9,249.4v-4.5h1.4v12.2h-1.4V256c-0.2,0.4-0.6,0.8-1,1s-0.9,0.3-1.4,0.3c-1.1,0-1.9-0.4-2.5-1.2
			c-0.6-0.8-0.9-2-0.9-3.4c0-1.4,0.3-2.5,0.9-3.3s1.4-1.2,2.5-1.2c0.5,0,1,0.1,1.4,0.3C469.3,248.7,469.6,249,469.9,249.4z
			 M465.6,252.7c0,1.1,0.2,2,0.5,2.5c0.4,0.6,0.9,0.9,1.6,0.9c0.7,0,1.2-0.3,1.6-0.9c0.4-0.6,0.5-1.4,0.5-2.5c0-1.1-0.2-1.9-0.5-2.5
			c-0.4-0.6-0.9-0.9-1.6-0.9c-0.7,0-1.2,0.3-1.6,0.9C465.8,250.8,465.6,251.6,465.6,252.7z"/>
		<path class="st6" d="M481.5,252v0.7h-6.2v0c0,1.2,0.2,2,0.7,2.6c0.5,0.5,1.2,0.8,2.1,0.8c0.5,0,0.9-0.1,1.4-0.2s1-0.4,1.6-0.7v1.4
			c-0.5,0.2-1.1,0.4-1.6,0.5s-1,0.2-1.5,0.2c-1.4,0-2.4-0.4-3.2-1.2s-1.1-1.9-1.1-3.4c0-1.4,0.4-2.5,1.1-3.3s1.8-1.2,3-1.2
			c1.1,0,2,0.4,2.6,1.1C481.1,250,481.5,250.9,481.5,252z M480.1,251.6c-0.1-0.6-0.3-1.1-0.7-1.6c-0.4-0.4-0.9-0.7-1.6-0.7
			c-0.7,0-1.3,0.2-1.7,0.7c-0.4,0.5-0.7,1-0.7,1.5L480.1,251.6z"/>
		<path class="st6" d="M491.4,250.1c-0.3-0.2-0.6-0.4-0.9-0.5c-0.3-0.1-0.7-0.2-1-0.2c-0.9,0-1.6,0.3-2.1,0.8
			c-0.5,0.6-0.7,1.4-0.7,2.4v4.4h-1.4v-8.8h1.4v1.7c0.2-0.6,0.6-1.1,1.1-1.4c0.5-0.3,1.1-0.5,1.8-0.5c0.4,0,0.7,0,1,0.1
			c0.3,0.1,0.6,0.2,0.9,0.4V250.1z"/>
		<path class="st6" d="M499.7,248.6v1.4c-0.4-0.2-0.8-0.4-1.2-0.5c-0.4-0.1-0.8-0.2-1.3-0.2c-0.7,0-1.1,0.1-1.5,0.3s-0.5,0.5-0.5,1
			c0,0.4,0.1,0.7,0.4,0.9c0.2,0.2,0.8,0.4,1.8,0.6l0.6,0.1c0.7,0.1,1.3,0.4,1.6,0.8s0.6,0.9,0.6,1.6c0,0.9-0.3,1.5-0.9,2
			c-0.6,0.5-1.5,0.7-2.6,0.7c-0.4,0-0.9,0-1.4-0.1c-0.5-0.1-1-0.2-1.5-0.4v-1.5c0.5,0.3,1,0.5,1.5,0.6c0.5,0.1,1,0.2,1.4,0.2
			c0.6,0,1.1-0.1,1.5-0.4c0.3-0.3,0.5-0.6,0.5-1.1c0-0.7-0.6-1.1-1.9-1.4l-0.1,0l-0.5-0.1c-0.8-0.2-1.4-0.4-1.8-0.8
			c-0.4-0.4-0.6-0.9-0.6-1.6c0-0.8,0.3-1.5,0.9-1.9c0.6-0.5,1.4-0.7,2.4-0.7c0.5,0,0.9,0,1.4,0.1
			C498.8,248.3,499.2,248.5,499.7,248.6z"/>
	</g>
</g>
<g>
	<defs>
		<rect id="SVGID_15_" x="282" y="276.8" width="34" height="34"/>
	</defs>
	<clipPath id="SVGID_16_">
		<use xlink:href="#SVGID_15_"  style="overflow:visible;"/>
	</clipPath>
	<g class="st24">
		<defs>
			<rect id="SVGID_17_" x="282" y="276.8" width="34" height="34"/>
		</defs>
		<clipPath id="SVGID_18_">
			<use xlink:href="#SVGID_17_"  style="overflow:visible;"/>
		</clipPath>
		<path class="st25" d="M299.1,284.9c-1.1,0-2.1-1.1-2.1-2.1v-1.1c0-1.1-1.1-2.1-2.1-2.1h-10.6c-1.1,0-2.1,1.1-2.1,2.1v24.4
			c0,1.1,1.1,2.1,2.1,2.1h29.8c1.1,0,2.1-1.1,2.1-2.1V287c0-1.1-1.1-2.1-2.1-2.1H299.1z"/>
		<path class="st25" d="M308.3,307.1h-20.5c-0.4,0-0.7-0.3-0.7-0.7V286c0-0.4,0.3-0.7,0.7-0.7h20.4c0.5,0,0.8,0.3,0.8,0.7v20.3
			C309,306.8,308.7,307.1,308.3,307.1"/>
		<path class="st26" d="M294.5,292.8c0.7,0,1.2,0.5,1.2,1.2c0,0.7-0.6,1.2-1.2,1.2s-1.2-0.5-1.2-1.2
			C293.3,293.4,293.8,292.8,294.5,292.8"/>
		<ellipse class="st27" cx="294.5" cy="294" rx="1.2" ry="1.2"/>
		<path class="st26" d="M292.2,296.1c1.3,0,2.3,1,2.3,2.3c0,1.3-1,2.3-2.3,2.3c-1.3,0-2.3-1-2.3-2.3
			C289.8,297.1,290.9,296.1,292.2,296.1"/>
		<ellipse class="st27" cx="292.2" cy="298.4" rx="2.3" ry="2.3"/>
		<path class="st26" d="M294.8,294.3c1.4,0,2.5,1.1,2.5,2.4c0,1.4-1.1,2.4-2.5,2.4c-1.4,0-2.5-1.1-2.5-2.4
			C292.3,295.4,293.4,294.3,294.8,294.3"/>
		<ellipse class="st27" cx="294.8" cy="296.8" rx="2.5" ry="2.4"/>
		<path class="st26" d="M299.8,293.5c1.3,0,2.3,1,2.3,2.3c0,1.3-1,2.3-2.3,2.3c-1.3,0-2.3-1-2.3-2.3
			C297.5,294.5,298.5,293.5,299.8,293.5"/>
		<ellipse class="st27" cx="299.8" cy="295.8" rx="2.3" ry="2.3"/>
		<path class="st26" d="M297.2,291.7c1.3,0,2.3,1,2.3,2.3c0,1.3-1,2.3-2.3,2.3c-1.3,0-2.3-1-2.3-2.3
			C294.9,292.8,295.9,291.7,297.2,291.7"/>
		<ellipse class="st27" cx="297.2" cy="294" rx="2.3" ry="2.3"/>
		<path class="st26" d="M304.9,297.9c0.8,0,1.4,0.6,1.4,1.4c0,0.8-0.6,1.4-1.4,1.4c-0.8,0-1.4-0.6-1.4-1.4
			C303.5,298.5,304.1,297.9,304.9,297.9"/>
		<ellipse class="st27" cx="304.9" cy="299.2" rx="1.4" ry="1.4"/>
		<path class="st26" d="M302.2,295.8c1.4,0,2.5,1.1,2.5,2.4c0,1.4-1.1,2.5-2.5,2.5c-1.4,0-2.5-1.1-2.5-2.5
			C299.7,296.9,300.8,295.8,302.2,295.8"/>
		<ellipse class="st27" cx="302.2" cy="298.3" rx="2.5" ry="2.4"/>
		<path class="st26" d="M294.6,298c0.8,0,1.4,0.6,1.4,1.4c0,0.8-0.6,1.4-1.4,1.4c-0.8,0-1.4-0.6-1.4-1.4
			C293.3,298.6,293.9,298,294.6,298"/>
		<ellipse class="st27" cx="294.6" cy="299.4" rx="1.4" ry="1.4"/>
		<path class="st26" d="M301.2,297.4c0,1.8-1.4,3.1-3.1,3.1c-1.8,0-3.2-1.4-3.2-3.1c0-1.8,1.4-3.1,3.2-3.1
			C299.8,294.3,301.2,295.8,301.2,297.4"/>
		<path class="st27" d="M301.2,297.4c0,1.8-1.4,3.1-3.1,3.1c-1.8,0-3.2-1.4-3.2-3.1c0-1.8,1.4-3.1,3.2-3.1
			C299.8,294.3,301.2,295.8,301.2,297.4z"/>
	</g>
</g>
</svg>
