<?xml version="1.0" encoding="utf-8"?>
<!-- Generator: Adobe Illustrator 21.0.2, SVG Export Plug-In . SVG Version: 6.00 Build 0)  -->
<svg version="1.1" id="Ebene_1" xmlns="http://www.w3.org/2000/svg" xmlns:xlink="http://www.w3.org/1999/xlink" x="0px" y="0px"
	 viewBox="0 0 1120 593" style="enable-background:new 0 0 1120 593;" xml:space="preserve">
<style type="text/css">
	.st0{clip-path:url(#SVGID_2_);fill:none;stroke:#000000;stroke-miterlimit:10;stroke-dasharray:12,6;}
	.st1{clip-path:url(#SVGID_4_);fill:#FA8C10;}
	.st2{clip-path:url(#SVGID_6_);fill:none;stroke:#000000;stroke-width:2;stroke-linecap:square;stroke-miterlimit:10;}
	.st3{clip-path:url(#SVGID_8_);fill:#FFFFFF;}
	.st4{clip-path:url(#SVGID_10_);fill:none;stroke:#000000;stroke-miterlimit:10;stroke-dasharray:12,6;}
	.st5{clip-path:url(#SVGID_12_);fill:#20334D;}
	.st6{clip-path:url(#SVGID_14_);fill:none;stroke:#000000;stroke-width:2;stroke-linecap:square;stroke-miterlimit:10;}
	.st7{clip-path:url(#SVGID_16_);fill:#FFFFFF;}
	.st8{clip-path:url(#SVGID_18_);fill:none;stroke:#000000;stroke-miterlimit:10;stroke-dasharray:12,6;}
	.st9{clip-path:url(#SVGID_20_);fill:#FFFFCC;}
	.st10{clip-path:url(#SVGID_22_);fill:none;stroke:#000000;stroke-width:2;stroke-linecap:square;stroke-miterlimit:10;}
	.st11{clip-path:url(#SVGID_24_);fill:none;stroke:#000000;stroke-width:2;stroke-linecap:square;stroke-miterlimit:10;}
	.st12{clip-path:url(#SVGID_26_);fill:none;stroke:#000000;stroke-width:2;stroke-linecap:square;stroke-miterlimit:10;}
	.st13{clip-path:url(#SVGID_28_);fill:none;stroke:#000000;stroke-width:2;stroke-linecap:square;stroke-miterlimit:10;}
	.st14{clip-path:url(#SVGID_30_);fill:none;stroke:#000000;stroke-width:2;stroke-linecap:square;stroke-miterlimit:10;}
	.st15{clip-path:url(#SVGID_32_);}
	.st16{clip-path:url(#SVGID_34_);fill:#FFFFFF;}
	.st17{clip-path:url(#SVGID_36_);fill:none;stroke:#000000;stroke-linecap:square;stroke-miterlimit:10;}
	.st18{clip-path:url(#SVGID_38_);fill:#FFFFFF;}
	.st19{clip-path:url(#SVGID_40_);fill:none;stroke:#000000;stroke-linecap:square;stroke-miterlimit:10;}
	.st20{clip-path:url(#SVGID_42_);}
	.st21{clip-path:url(#SVGID_44_);fill:none;stroke:#000000;stroke-linecap:square;stroke-miterlimit:10;}
	.st22{clip-path:url(#SVGID_46_);}
	.st23{clip-path:url(#SVGID_48_);fill:none;stroke:#000000;stroke-linecap:square;stroke-miterlimit:10;}
	.st24{clip-path:url(#SVGID_50_);fill:none;stroke:#000000;stroke-miterlimit:10;stroke-dasharray:10,5;}
	.st25{clip-path:url(#SVGID_52_);fill:none;stroke:#000000;stroke-linecap:square;stroke-miterlimit:10;}
	.st26{clip-path:url(#SVGID_54_);fill:none;stroke:#000000;stroke-linecap:square;stroke-miterlimit:10;}
	.st27{clip-path:url(#SVGID_56_);}
	.st28{clip-path:url(#SVGID_58_);fill:none;stroke:#000000;stroke-miterlimit:10;stroke-dasharray:10,5;}
	.st29{clip-path:url(#SVGID_60_);fill:none;stroke:#000000;stroke-linecap:square;stroke-miterlimit:10;}
	.st30{clip-path:url(#SVGID_62_);fill:none;stroke:#000000;stroke-linecap:square;stroke-miterlimit:10;}
	.st31{clip-path:url(#SVGID_64_);fill:#FFFFFF;}
	.st32{clip-path:url(#SVGID_66_);fill:none;stroke:#000000;stroke-linecap:square;stroke-miterlimit:10;}
	.st33{clip-path:url(#SVGID_68_);fill:#FFFFFF;}
	.st34{clip-path:url(#SVGID_70_);fill:none;stroke:#000000;stroke-linecap:square;stroke-miterlimit:10;}
	.st35{clip-path:url(#SVGID_72_);}
	.st36{clip-path:url(#SVGID_74_);fill:none;stroke:#000000;stroke-linecap:square;stroke-miterlimit:10;}
	.st37{clip-path:url(#SVGID_76_);}
	.st38{clip-path:url(#SVGID_78_);fill:none;stroke:#000000;stroke-linecap:square;stroke-miterlimit:10;}
	.st39{clip-path:url(#SVGID_80_);}
	.st40{clip-path:url(#SVGID_82_);fill:none;stroke:#000000;stroke-miterlimit:10;stroke-dasharray:10,5;}
	.st41{clip-path:url(#SVGID_84_);fill:none;stroke:#000000;stroke-linecap:square;stroke-miterlimit:10;}
	.st42{clip-path:url(#SVGID_86_);fill:none;stroke:#000000;stroke-linecap:square;stroke-miterlimit:10;}
	.st43{clip-path:url(#SVGID_88_);fill:#FFFFFF;}
	.st44{clip-path:url(#SVGID_90_);fill:none;stroke:#000000;stroke-linecap:square;stroke-miterlimit:10;}
	.st45{clip-path:url(#SVGID_92_);}
	.st46{clip-path:url(#SVGID_94_);fill:none;stroke:#000000;stroke-linecap:square;stroke-miterlimit:10;}
	.st47{clip-path:url(#SVGID_96_);}
	.st48{clip-path:url(#SVGID_98_);fill:none;stroke:#000000;stroke-linecap:square;stroke-miterlimit:10;}
	.st49{clip-path:url(#SVGID_100_);fill:none;stroke:#000000;stroke-miterlimit:10;stroke-dasharray:10,5;}
	.st50{clip-path:url(#SVGID_102_);fill:none;stroke:#000000;stroke-linecap:square;stroke-miterlimit:10;}
	.st51{clip-path:url(#SVGID_104_);fill:none;stroke:#000000;stroke-linecap:square;stroke-miterlimit:10;}
	.st52{clip-path:url(#SVGID_106_);fill:#FFFFFF;}
	.st53{clip-path:url(#SVGID_108_);fill:none;stroke:#000000;stroke-linecap:square;stroke-miterlimit:10;}
	.st54{clip-path:url(#SVGID_110_);}
	.st55{clip-path:url(#SVGID_112_);fill:none;stroke:#000000;stroke-linecap:square;stroke-miterlimit:10;}
	.st56{clip-path:url(#SVGID_114_);}
	.st57{clip-path:url(#SVGID_116_);fill:none;stroke:#000000;stroke-linecap:square;stroke-miterlimit:10;}
	.st58{clip-path:url(#SVGID_118_);fill:none;stroke:#000000;stroke-miterlimit:10;stroke-dasharray:10,5;}
	.st59{clip-path:url(#SVGID_120_);fill:none;stroke:#000000;stroke-linecap:square;stroke-miterlimit:10;}
	.st60{clip-path:url(#SVGID_122_);fill:none;stroke:#000000;stroke-linecap:square;stroke-miterlimit:10;}
	.st61{clip-path:url(#SVGID_124_);fill:#FFFFFF;}
	.st62{clip-path:url(#SVGID_126_);fill:none;stroke:#000000;stroke-linecap:square;stroke-miterlimit:10;}
	.st63{clip-path:url(#SVGID_128_);fill:#FFFFFF;}
	.st64{clip-path:url(#SVGID_130_);fill:none;stroke:#000000;stroke-linecap:square;stroke-miterlimit:10;}
	.st65{clip-path:url(#SVGID_132_);}
	.st66{clip-path:url(#SVGID_134_);fill:none;stroke:#000000;stroke-linecap:square;stroke-miterlimit:10;}
	.st67{clip-path:url(#SVGID_136_);}
	.st68{clip-path:url(#SVGID_138_);fill:none;stroke:#000000;stroke-linecap:square;stroke-miterlimit:10;}
</style>
<g id="Moodle">
	<g transform="matrix(1.3333,0,0,1.3333,-40.6667,-26.6667)">
		<g>
			<defs>
				<rect id="SVGID_1_" x="-109.5" y="-54.1" width="1120" height="593"/>
			</defs>
			<clipPath id="SVGID_2_">
				<use xlink:href="#SVGID_1_"  style="overflow:visible;"/>
			</clipPath>
			<line class="st0" x1="112" y1="60" x2="112" y2="455"/>
		</g>
	</g>
	<g transform="matrix(1.3333,0,0,1.3333,-40.6667,-26.6667)">
		<g>
			<defs>
				<rect id="SVGID_3_" x="-109.5" y="-54.1" width="1120" height="593"/>
			</defs>
			<clipPath id="SVGID_4_">
				<use xlink:href="#SVGID_3_"  style="overflow:visible;"/>
			</clipPath>
			<rect x="40.5" y="30" class="st1" width="143" height="30"/>
		</g>
		<g>
			<defs>
				<rect id="SVGID_5_" x="-109.5" y="-54.1" width="1120" height="593"/>
			</defs>
			<clipPath id="SVGID_6_">
				<use xlink:href="#SVGID_5_"  style="overflow:visible;"/>
			</clipPath>
			<rect x="40.5" y="30" class="st2" width="143" height="30"/>
		</g>
	</g>
	<g transform="matrix(1.3333,0,0,1.3333,-40.6667,-26.6667) translate(91,34)">
		<g>
			<defs>
				<rect id="SVGID_7_" x="-200.5" y="-88.1" width="1120" height="593"/>
			</defs>
			<clipPath id="SVGID_8_">
				<use xlink:href="#SVGID_7_"  style="overflow:visible;"/>
			</clipPath>
			<path class="st3" d="M1.1,11.6V2.9h1.7l2.4,6.7l2.5-6.7h1.5v8.7H8.1V4.5L5.7,11H4.5L2.2,4.5v7.1H1.1z M14,11.7
				c-0.9,0-1.6-0.3-2.2-0.9C11.3,10.2,11,9.4,11,8.4c0-1,0.3-1.8,0.8-2.4c0.5-0.6,1.3-0.9,2.2-0.9c0.9,0,1.7,0.3,2.2,0.9
				c0.5,0.6,0.8,1.4,0.8,2.4c0,1-0.3,1.9-0.8,2.4C15.7,11.5,14.9,11.7,14,11.7z M14,10.9c1.2,0,1.8-0.8,1.8-2.5
				C15.8,6.8,15.2,6,14,6c-1.2,0-1.8,0.8-1.8,2.5C12.2,10.1,12.8,10.9,14,10.9z M21.4,11.7c-0.9,0-1.6-0.3-2.2-0.9
				c-0.5-0.6-0.8-1.4-0.8-2.4c0-1,0.3-1.8,0.8-2.4c0.5-0.6,1.3-0.9,2.2-0.9c0.9,0,1.7,0.3,2.2,0.9c0.5,0.6,0.8,1.4,0.8,2.4
				c0,1-0.3,1.9-0.8,2.4C23.1,11.5,22.3,11.7,21.4,11.7z M21.4,10.9c1.2,0,1.8-0.8,1.8-2.5c0-1.6-0.6-2.4-1.8-2.4
				c-1.2,0-1.8,0.8-1.8,2.5C19.6,10.1,20.2,10.9,21.4,10.9z M30.3,11.6v-1.2c-0.5,0.9-1.2,1.3-2.1,1.3c-0.8,0-1.4-0.3-1.8-0.8
				c-0.4-0.6-0.7-1.3-0.7-2.3c0-1.1,0.2-1.9,0.7-2.6c0.5-0.6,1.2-1,2-1c0.8,0,1.4,0.3,1.9,0.9V2.3h1.2v9.3H30.3z M30.3,6.8
				C29.7,6.2,29.2,6,28.6,6C27.5,6,27,6.8,27,8.5c0,1.5,0.5,2.2,1.5,2.2c0.6,0,1.3-0.3,1.9-1V6.8z M33.8,11.6V2.3h1.2v9.3H33.8z
				 M41.9,11.4c-0.8,0.2-1.4,0.4-2,0.4c-0.9,0-1.7-0.3-2.3-0.9c-0.6-0.6-0.9-1.4-0.9-2.4c0-1,0.3-1.8,0.8-2.4c0.5-0.6,1.2-0.9,2-0.9
				c0.8,0,1.4,0.3,1.8,0.8c0.4,0.5,0.6,1.3,0.6,2.3l0,0.4h-4c0.2,1.5,0.9,2.3,2.2,2.3c0.5,0,1.1-0.1,1.8-0.4V11.4z M38,7.7h2.8
				c0-1.2-0.4-1.8-1.3-1.8C38.6,6,38.1,6.6,38,7.7z"/>
		</g>
	</g>
</g>
<g id="owncloud">
	<g transform="scale(1.3333,1.3333) translate(-30.5,-20)">
		<g>
			<defs>
				<rect id="SVGID_9_" x="-109.5" y="-54.1" width="1120" height="593"/>
			</defs>
			<clipPath id="SVGID_10_">
				<use xlink:href="#SVGID_9_"  style="overflow:visible;"/>
			</clipPath>
			<line class="st4" x1="459" y1="60" x2="459" y2="455"/>
		</g>
	</g>
	<g transform="scale(1.3333,1.3333) translate(-30.5,-20)">
		<g>
			<defs>
				<rect id="SVGID_11_" x="-109.5" y="-54.1" width="1120" height="593"/>
			</defs>
			<clipPath id="SVGID_12_">
				<use xlink:href="#SVGID_11_"  style="overflow:visible;"/>
			</clipPath>
			<rect x="404" y="30" class="st5" width="110" height="30"/>
		</g>
		<g>
			<defs>
				<rect id="SVGID_13_" x="-109.5" y="-54.1" width="1120" height="593"/>
			</defs>
			<clipPath id="SVGID_14_">
				<use xlink:href="#SVGID_13_"  style="overflow:visible;"/>
			</clipPath>
			<rect x="404" y="30" class="st6" width="110" height="30"/>
		</g>
	</g>
	<g transform="scale(1.3333,1.3333) translate(400.5,14)">
		<g>
			<defs>
				<rect id="SVGID_15_" x="-540.5" y="-88.1" width="1120" height="593"/>
			</defs>
			<clipPath id="SVGID_16_">
				<use xlink:href="#SVGID_15_"  style="overflow:visible;"/>
			</clipPath>
			<path class="st7" d="M3.6,11.7c-0.9,0-1.6-0.3-2.2-0.9c-0.5-0.6-0.8-1.4-0.8-2.4c0-1,0.3-1.8,0.8-2.4C2,5.4,2.8,5.1,3.7,5.1
				c0.9,0,1.7,0.3,2.2,0.9c0.5,0.6,0.8,1.4,0.8,2.4c0,1-0.3,1.9-0.8,2.4C5.4,11.5,4.6,11.7,3.6,11.7z M3.7,10.9
				c1.2,0,1.8-0.8,1.8-2.5C5.5,6.8,4.9,6,3.7,6C2.5,6,1.9,6.8,1.9,8.4C1.9,10.1,2.5,10.9,3.7,10.9z M9.3,11.6L7.4,5.2h1.1l1.4,4.9
				l1.5-4.9h1.2l1.3,4.9l1.6-4.9h1l-2.1,6.4h-1.2L12,6.7l-1.5,4.9H9.3z M17.8,11.6V5.2h1.2v1.2c0.6-0.9,1.4-1.3,2.2-1.3
				c0.6,0,1,0.2,1.3,0.5C22.8,6,23,6.4,23,7v4.6h-1.2V7.4c0-0.5-0.1-0.8-0.2-1c-0.1-0.2-0.4-0.3-0.7-0.3c-0.7,0-1.4,0.5-2,1.4v4.1
				H17.8z M28.9,11.8c-1.3,0-2.4-0.4-3.1-1.2c-0.7-0.8-1.1-1.9-1.1-3.4c0-1.4,0.4-2.6,1.1-3.4s1.8-1.2,3.2-1.2
				c0.8,0,1.7,0.1,2.7,0.4v1.2c-1.2-0.4-2.1-0.6-2.7-0.6c-0.9,0-1.7,0.3-2.2,1C26.2,5.2,26,6.1,26,7.3c0,1.1,0.3,2,0.8,2.6
				c0.6,0.6,1.3,1,2.3,1c0.8,0,1.7-0.3,2.6-0.8v1.1C30.8,11.6,29.9,11.8,28.9,11.8z M33.5,11.6V2.3h1.2v9.3H33.5z M39.5,11.7
				c-0.9,0-1.6-0.3-2.2-0.9c-0.5-0.6-0.8-1.4-0.8-2.4c0-1,0.3-1.8,0.8-2.4c0.5-0.6,1.3-0.9,2.2-0.9c0.9,0,1.7,0.3,2.2,0.9
				c0.5,0.6,0.8,1.4,0.8,2.4c0,1-0.3,1.9-0.8,2.4C41.2,11.5,40.4,11.7,39.5,11.7z M39.5,10.9c1.2,0,1.8-0.8,1.8-2.5
				c0-1.6-0.6-2.4-1.8-2.4c-1.2,0-1.8,0.8-1.8,2.5C37.7,10.1,38.3,10.9,39.5,10.9z M48.3,11.6v-1.2c-0.6,0.9-1.4,1.3-2.2,1.3
				c-0.6,0-1-0.2-1.3-0.5s-0.5-0.8-0.5-1.4V5.2h1.2v4.2c0,0.5,0.1,0.8,0.2,1c0.1,0.2,0.4,0.3,0.7,0.3c0.7,0,1.4-0.5,2-1.4V5.2h1.2
				v6.4H48.3z M55.9,11.6v-1.2c-0.5,0.9-1.2,1.3-2.1,1.3c-0.8,0-1.4-0.3-1.8-0.8c-0.4-0.6-0.7-1.3-0.7-2.3c0-1.1,0.2-1.9,0.7-2.6
				c0.5-0.6,1.2-1,2-1c0.8,0,1.4,0.3,1.9,0.9V2.3h1.2v9.3H55.9z M55.9,6.8C55.3,6.2,54.7,6,54.2,6c-1.1,0-1.7,0.8-1.7,2.5
				c0,1.5,0.5,2.2,1.5,2.2c0.6,0,1.3-0.3,1.9-1V6.8z"/>
		</g>
	</g>
</g>
<g id="resource-owner" transform="matrix(1.3333,0,0,1.3333,-40.6667,-26.6667)">
	<g>
		<defs>
			<rect id="SVGID_17_" x="-109.5" y="-54.1" width="1120" height="593"/>
		</defs>
		<clipPath id="SVGID_18_">
			<use xlink:href="#SVGID_17_"  style="overflow:visible;"/>
		</clipPath>
		<line class="st8" x1="797.5" y1="69.1" x2="797.5" y2="455"/>
	</g>
	<g>
		<defs>
			<rect id="SVGID_19_" x="-109.5" y="-54.1" width="1120" height="593"/>
		</defs>
		<clipPath id="SVGID_20_">
			<use xlink:href="#SVGID_19_"  style="overflow:visible;"/>
		</clipPath>
		<circle class="st9" cx="797" cy="34" r="4"/>
	</g>
	<g>
		<defs>
			<rect id="SVGID_21_" x="-109.5" y="-54.1" width="1120" height="593"/>
		</defs>
		<clipPath id="SVGID_22_">
			<use xlink:href="#SVGID_21_"  style="overflow:visible;"/>
		</clipPath>
		<circle class="st10" cx="797" cy="34" r="4"/>
	</g>
	<g>
		<defs>
			<rect id="SVGID_23_" x="-109.5" y="-54.1" width="1120" height="593"/>
		</defs>
		<clipPath id="SVGID_24_">
			<use xlink:href="#SVGID_23_"  style="overflow:visible;"/>
		</clipPath>
		<line class="st11" x1="797.5" y1="38" x2="797.5" y2="46"/>
	</g>
	<g>
		<defs>
			<rect id="SVGID_25_" x="-109.5" y="-54.1" width="1120" height="593"/>
		</defs>
		<clipPath id="SVGID_26_">
			<use xlink:href="#SVGID_25_"  style="overflow:visible;"/>
		</clipPath>
		<line class="st12" x1="790.5" y1="41.2" x2="804.5" y2="41.2"/>
	</g>
	<g>
		<defs>
			<rect id="SVGID_27_" x="-109.5" y="-54.1" width="1120" height="593"/>
		</defs>
		<clipPath id="SVGID_28_">
			<use xlink:href="#SVGID_27_"  style="overflow:visible;"/>
		</clipPath>
		<line class="st13" x1="797.5" y1="46" x2="790.5" y2="55"/>
	</g>
	<g>
		<defs>
			<rect id="SVGID_29_" x="-109.5" y="-54.1" width="1120" height="593"/>
		</defs>
		<clipPath id="SVGID_30_">
			<use xlink:href="#SVGID_29_"  style="overflow:visible;"/>
		</clipPath>
		<line class="st14" x1="797.5" y1="46" x2="804.5" y2="55"/>
	</g>
	<g>
		<defs>
			<rect id="SVGID_31_" x="-109.5" y="-54.1" width="1120" height="593"/>
		</defs>
		<clipPath id="SVGID_32_">
			<use xlink:href="#SVGID_31_"  style="overflow:visible;"/>
		</clipPath>
		<path class="st15" d="M749.6,66.6v-1.2h1.2v1.2H749.6z M749.6,61.4v-1.2h1.2v1.2H749.6z M757,66.6v-8.7h2.6c0.8,0,1.5,0.2,1.9,0.6
			c0.4,0.4,0.7,0.9,0.7,1.6c0,1.2-0.6,2-1.8,2.5l2.9,4.1h-1.5l-2.5-3.7h-1.1v3.7H757z M758.2,62h0.4c1.5,0,2.3-0.6,2.3-1.8
			c0-0.9-0.6-1.3-1.9-1.3h-0.8V62z M769.3,66.4c-0.8,0.2-1.4,0.4-2,0.4c-0.9,0-1.7-0.3-2.3-0.9c-0.6-0.6-0.9-1.4-0.9-2.4
			c0-1,0.3-1.8,0.8-2.4c0.5-0.6,1.2-0.9,2-0.9c0.8,0,1.4,0.3,1.8,0.8s0.6,1.3,0.6,2.3l0,0.4h-4c0.2,1.5,0.9,2.3,2.2,2.3
			c0.5,0,1.1-0.1,1.8-0.4V66.4z M765.4,62.7h2.8c0-1.2-0.4-1.8-1.3-1.8C766,61,765.5,61.6,765.4,62.7z M773,66.7
			c-0.5,0-1.2-0.1-1.9-0.4v-1.1c0.8,0.4,1.4,0.6,2,0.6c0.3,0,0.6-0.1,0.8-0.3c0.2-0.2,0.3-0.4,0.3-0.7c0-0.4-0.3-0.7-0.9-1l-0.7-0.3
			c-1-0.4-1.5-1-1.5-1.8c0-0.6,0.2-1,0.6-1.3c0.4-0.3,0.9-0.5,1.6-0.5c0.4,0,0.8,0,1.3,0.1l0.2,0v1c-0.6-0.2-1.2-0.3-1.5-0.3
			c-0.7,0-1.1,0.3-1.1,0.8c0,0.3,0.3,0.6,0.8,0.9l0.6,0.2c0.6,0.3,1.1,0.5,1.3,0.8c0.3,0.3,0.4,0.7,0.4,1.1c0,0.6-0.2,1-0.7,1.4
			C774.3,66.6,773.7,66.7,773,66.7z M779.9,66.7c-0.9,0-1.6-0.3-2.2-0.9c-0.5-0.6-0.8-1.4-0.8-2.4c0-1,0.3-1.8,0.8-2.4
			c0.5-0.6,1.3-0.9,2.2-0.9s1.7,0.3,2.2,0.9c0.5,0.6,0.8,1.4,0.8,2.4c0,1-0.3,1.9-0.8,2.4C781.6,66.5,780.9,66.7,779.9,66.7z
			 M779.9,65.9c1.2,0,1.8-0.8,1.8-2.5c0-1.6-0.6-2.4-1.8-2.4c-1.2,0-1.8,0.8-1.8,2.5C778.2,65.1,778.8,65.9,779.9,65.9z M788.8,66.6
			v-1.2c-0.6,0.9-1.4,1.3-2.2,1.3c-0.6,0-1-0.2-1.3-0.5c-0.3-0.3-0.5-0.8-0.5-1.4v-4.6h1.2v4.2c0,0.5,0.1,0.8,0.2,1
			c0.1,0.2,0.4,0.3,0.7,0.3c0.7,0,1.4-0.5,2-1.4v-4.1h1.2v6.4H788.8z M792.3,66.6v-6.4h1.2v1.2c0.5-0.9,1.1-1.3,2-1.3
			c0.1,0,0.2,0,0.4,0v1.1c-0.2-0.1-0.4-0.1-0.5-0.1c-0.7,0-1.3,0.4-1.8,1.3v4.2H792.3z M799.6,66.7c-0.9,0-1.6-0.3-2.1-1
			c-0.6-0.6-0.8-1.4-0.8-2.4c0-1,0.3-1.8,0.8-2.4c0.6-0.6,1.3-0.9,2.3-0.9c0.5,0,1.1,0.1,1.7,0.2v1c-0.7-0.2-1.2-0.3-1.6-0.3
			c-0.6,0-1.1,0.2-1.4,0.7c-0.4,0.4-0.5,1-0.5,1.8c0,0.7,0.2,1.3,0.6,1.7c0.4,0.4,0.8,0.7,1.4,0.7c0.5,0,1.1-0.1,1.6-0.4v1
			C800.8,66.6,800.2,66.7,799.6,66.7z M808,66.4c-0.8,0.2-1.4,0.4-2,0.4c-0.9,0-1.7-0.3-2.3-0.9c-0.6-0.6-0.9-1.4-0.9-2.4
			c0-1,0.3-1.8,0.8-2.4c0.5-0.6,1.2-0.9,2-0.9c0.8,0,1.4,0.3,1.8,0.8c0.4,0.5,0.6,1.3,0.6,2.3l0,0.4h-4c0.2,1.5,0.9,2.3,2.2,2.3
			c0.5,0,1.1-0.1,1.8-0.4V66.4z M804,62.7h2.8c0-1.2-0.4-1.8-1.3-1.8C804.6,61,804.1,61.6,804,62.7z M817.2,66.8
			c-1.2,0-2.2-0.4-2.9-1.3s-1.1-1.9-1.1-3.3c0-1.4,0.4-2.5,1.1-3.3c0.7-0.8,1.7-1.2,3-1.2c1.2,0,2.2,0.4,2.9,1.2s1.1,1.9,1.1,3.3
			c0,1.4-0.4,2.5-1.1,3.3S818.5,66.8,817.2,66.8z M817.3,65.9c0.9,0,1.6-0.3,2.1-1s0.7-1.5,0.7-2.7c0-1.1-0.2-2-0.7-2.6
			c-0.5-0.6-1.2-1-2-1c-0.9,0-1.5,0.3-2,1c-0.5,0.6-0.7,1.5-0.7,2.7c0,1.1,0.2,2,0.7,2.7C815.8,65.6,816.4,65.9,817.3,65.9z
			 M823.9,66.6l-1.8-6.4h1.1l1.4,4.9l1.5-4.9h1.2l1.3,4.9l1.6-4.9h1l-2.1,6.4h-1.2l-1.3-4.9l-1.5,4.9H823.9z M832.4,66.6v-6.4h1.2
			v1.2c0.6-0.9,1.4-1.3,2.2-1.3c0.6,0,1,0.2,1.3,0.5c0.3,0.3,0.5,0.8,0.5,1.4v4.6h-1.2v-4.2c0-0.5-0.1-0.8-0.2-1
			c-0.1-0.2-0.4-0.3-0.7-0.3c-0.7,0-1.4,0.5-2,1.4v4.1H832.4z M844.5,66.4c-0.8,0.2-1.4,0.4-2,0.4c-0.9,0-1.7-0.3-2.3-0.9
			c-0.6-0.6-0.9-1.4-0.9-2.4c0-1,0.3-1.8,0.8-2.4c0.5-0.6,1.2-0.9,2-0.9c0.8,0,1.4,0.3,1.8,0.8c0.4,0.5,0.6,1.3,0.6,2.3l0,0.4h-4
			c0.2,1.5,0.9,2.3,2.2,2.3c0.5,0,1.1-0.1,1.8-0.4V66.4z M840.5,62.7h2.8c0-1.2-0.4-1.8-1.3-1.8C841.1,61,840.6,61.6,840.5,62.7z
			 M846.5,66.6v-6.4h1.2v1.2c0.5-0.9,1.1-1.3,2-1.3c0.1,0,0.2,0,0.4,0v1.1c-0.2-0.1-0.4-0.1-0.5-0.1c-0.7,0-1.3,0.4-1.8,1.3v4.2
			H846.5z"/>
	</g>
</g>
<g id="_x30_7-zugriff">
	<g transform="matrix(1.3333,0,0,1.3333,-40.6667,-26.6667)">
		<g>
			<defs>
				<rect id="SVGID_33_" x="-109.5" y="-54.1" width="1120" height="593"/>
			</defs>
			<clipPath id="SVGID_34_">
				<use xlink:href="#SVGID_33_"  style="overflow:visible;"/>
			</clipPath>
			<rect x="107" y="380" class="st16" width="10" height="57"/>
		</g>
		<g>
			<defs>
				<rect id="SVGID_35_" x="-109.5" y="-54.1" width="1120" height="593"/>
			</defs>
			<clipPath id="SVGID_36_">
				<use xlink:href="#SVGID_35_"  style="overflow:visible;"/>
			</clipPath>
			<rect x="107" y="380" class="st17" width="10" height="57"/>
		</g>
		<g>
			<defs>
				<rect id="SVGID_37_" x="-109.5" y="-54.1" width="1120" height="593"/>
			</defs>
			<clipPath id="SVGID_38_">
				<use xlink:href="#SVGID_37_"  style="overflow:visible;"/>
			</clipPath>
			<rect x="454" y="380" class="st18" width="10" height="37"/>
		</g>
		<g>
			<defs>
				<rect id="SVGID_39_" x="-109.5" y="-54.1" width="1120" height="593"/>
			</defs>
			<clipPath id="SVGID_40_">
				<use xlink:href="#SVGID_39_"  style="overflow:visible;"/>
			</clipPath>
			<rect x="454" y="380" class="st19" width="10" height="37"/>
		</g>
	</g>
	<g transform="matrix(1.3333,0,0,1.3333,-40.6667,-26.6667) translate(180.5,373.9336)">
		<g>
			<defs>
				<rect id="SVGID_41_" x="-290" y="-428.1" width="1120" height="593"/>
			</defs>
			<clipPath id="SVGID_42_">
				<use xlink:href="#SVGID_41_"  style="overflow:visible;"/>
			</clipPath>
			<path class="st20" d="M0.6,0v-1l4.7-6.8H0.8v-0.9h5.8v0.9L2-1h4.7v1H0.6z M12.4,0v-1.2c-0.6,0.9-1.4,1.3-2.2,1.3
				c-0.6,0-1-0.2-1.3-0.5C8.5-0.7,8.3-1.2,8.3-1.8v-4.6h1.2v4.2c0,0.5,0.1,0.8,0.2,1c0.1,0.2,0.4,0.3,0.7,0.3c0.7,0,1.4-0.5,2-1.4
				v-4.1h1.2V0H12.4z M15.9,2.1l0.1-1c0.7,0.3,1.3,0.5,2,0.5c1.3,0,2-0.7,2-2.1v-1c-0.4,0.9-1.1,1.3-2.1,1.3c-0.8,0-1.4-0.3-1.8-0.8
				c-0.4-0.6-0.7-1.3-0.7-2.2c0-1,0.3-1.8,0.8-2.4c0.5-0.6,1.2-0.9,2-0.9c0.7,0,1.3,0.3,1.8,0.9v-0.7h1.2v4.6c0,1-0.1,1.7-0.2,2.2
				c-0.1,0.5-0.3,0.9-0.6,1.2c-0.5,0.5-1.3,0.8-2.3,0.8C17.3,2.5,16.6,2.3,15.9,2.1z M19.9-2.2v-2.6c-0.5-0.5-1.1-0.8-1.7-0.8
				c-0.5,0-0.9,0.2-1.2,0.6c-0.3,0.4-0.5,1-0.5,1.8c0,1.4,0.5,2.1,1.5,2.1C18.7-1.2,19.3-1.5,19.9-2.2z M23.3,0v-6.4h1.2v1.2
				c0.5-0.9,1.1-1.3,2-1.3c0.1,0,0.2,0,0.4,0v1.1c-0.2-0.1-0.4-0.1-0.5-0.1c-0.7,0-1.3,0.4-1.8,1.3V0H23.3z M28.2,0v-6.4h1.2V0H28.2
				z M28.2-7.5v-1.2h1.2v1.2H28.2z M33.1-5.5V0h-1.2v-5.5H31v-0.9h0.9v-0.8c0-1.5,0.7-2.3,2.1-2.3c0.4,0,0.8,0.1,1.3,0.2v0.9
				c-0.5-0.2-0.9-0.2-1.2-0.2c-0.4,0-0.6,0.1-0.8,0.3c-0.1,0.2-0.2,0.5-0.2,1v0.9h1.6v0.9H33.1z M37.5-5.5V0h-1.2v-5.5h-0.9v-0.9
				h0.9v-0.8c0-1.5,0.7-2.3,2.1-2.3c0.4,0,0.8,0.1,1.3,0.2v0.9c-0.5-0.2-0.9-0.2-1.2-0.2c-0.4,0-0.6,0.1-0.8,0.3
				c-0.1,0.2-0.2,0.5-0.2,1v0.9h1.6v0.9H37.5z M47.6-0.8c-0.7,0.6-1.4,1-2,1c-0.5,0-1-0.2-1.3-0.5c-0.3-0.3-0.5-0.7-0.5-1.3
				c0-0.7,0.3-1.2,0.9-1.6c0.6-0.4,1.4-0.6,2.5-0.6h0.3v-0.8c0-0.7-0.4-1.1-1.1-1.1c-0.6,0-1.3,0.2-2,0.6v-1
				c0.8-0.3,1.5-0.5,2.2-0.5c0.7,0,1.2,0.2,1.6,0.5c0.3,0.3,0.5,0.8,0.5,1.5v2.9c0,0.7,0.2,1,0.6,1c0.1,0,0.1,0,0.2,0L49.5,0
				c-0.3,0.1-0.6,0.2-0.9,0.2C48.1,0.1,47.8-0.2,47.6-0.8z M47.4-1.4v-1.6l-0.4,0c-0.6,0-1.1,0.1-1.5,0.4c-0.4,0.2-0.6,0.6-0.6,0.9
				c0,0.3,0.1,0.5,0.3,0.7c0.2,0.2,0.4,0.3,0.7,0.3C46.4-0.8,46.9-1,47.4-1.4z M54.9,0v-1.2c-0.6,0.9-1.4,1.3-2.2,1.3
				c-0.6,0-1-0.2-1.3-0.5s-0.5-0.8-0.5-1.4v-4.6H52v4.2c0,0.5,0.1,0.8,0.2,1C52.4-1,52.6-0.8,53-0.8c0.7,0,1.4-0.5,2-1.4v-4.1h1.2V0
				H54.9z M59.8-5.5V0h-1.2v-5.5h-0.9v-0.9h0.9v-0.8c0-1.5,0.7-2.3,2.1-2.3c0.4,0,0.8,0.1,1.3,0.2v0.9c-0.5-0.2-0.9-0.2-1.2-0.2
				c-0.4,0-0.6,0.1-0.8,0.3c-0.1,0.2-0.2,0.5-0.2,1v0.9h1.6v0.9H59.8z M67.7,0l-2.2-8.7h1.2l1.8,6.8l1.6-6.8h1.2l1.5,6.8l1.9-6.8h1
				L73.3,0h-1.2l-1.5-6.7L68.9,0H67.7z M81.6-0.2c-0.8,0.2-1.4,0.4-2,0.4c-0.9,0-1.7-0.3-2.3-0.9c-0.6-0.6-0.9-1.4-0.9-2.4
				c0-1,0.3-1.8,0.8-2.4c0.5-0.6,1.2-0.9,2-0.9c0.8,0,1.4,0.3,1.8,0.8c0.4,0.5,0.6,1.3,0.6,2.3l0,0.4h-4c0.2,1.5,0.9,2.3,2.2,2.3
				c0.5,0,1.1-0.1,1.8-0.4V-0.2z M77.6-3.9h2.8c0-1.2-0.4-1.8-1.3-1.8C78.2-5.6,77.7-5.1,77.6-3.9z M83.6,0.1v-9.3h1.2v4.1
				c0.5-0.9,1.2-1.3,2.1-1.3c0.8,0,1.4,0.3,1.8,0.8c0.4,0.6,0.7,1.3,0.7,2.3c0,1.1-0.2,1.9-0.7,2.6c-0.5,0.6-1.2,1-2,1
				c-0.8,0-1.4-0.3-1.9-0.9l-0.1,0.8H83.6z M84.7-1.5c0.6,0.5,1.2,0.8,1.7,0.8c1.1,0,1.7-0.8,1.7-2.5c0-1.5-0.5-2.2-1.5-2.2
				c-0.6,0-1.3,0.3-1.9,1V-1.5z M91.1,0v-8.7H94c0.9,0,1.6,0.1,2.1,0.3c0.5,0.2,1,0.5,1.4,1c0.6,0.7,0.9,1.7,0.9,2.9
				c0,1.4-0.4,2.6-1.1,3.4C96.4-0.4,95.4,0,94,0H91.1z M92.3-0.9h1.6c1.1,0,1.9-0.3,2.4-0.9C96.8-2.5,97-3.3,97-4.4
				c0-1-0.2-1.8-0.7-2.4c-0.3-0.4-0.7-0.6-1.1-0.7c-0.4-0.1-1-0.2-1.9-0.2h-1V-0.9z M104.5-3.3L103-7.1l-1.5,3.7H104.5z M105.8,0
				l-0.9-2.4h-3.7l-1,2.4h-1.1l3.4-8.7h1.2l3.4,8.7H105.8z M110.7,0l-3.3-8.7h1.2l2.7,7.1l2.6-7.1h1.1L111.9,0H110.7z M125.1,0
				l-0.4-0.5c-0.6,0.5-1.4,0.7-2.2,0.7c-0.9,0-1.7-0.3-2.2-0.8c-0.6-0.5-0.9-1.2-0.9-2c0-1.3,0.7-2.2,2.1-2.7
				c-0.4-0.7-0.6-1.3-0.6-1.8c0-0.5,0.2-0.9,0.6-1.3c0.4-0.4,0.9-0.5,1.5-0.5c0.6,0,1,0.2,1.4,0.5c0.4,0.3,0.5,0.7,0.5,1.3
				c0,0.9-0.6,1.6-1.9,2.3c0.6,1,1.3,2,2,2.9c0.4-0.5,0.5-1.2,0.5-2.2l0-0.4h1.1c0,1.3-0.4,2.4-1.1,3.3c0.4,0.4,0.8,0.9,1.2,1.3
				H125.1z M124.2-1.2c-0.8-1-1.6-2.2-2.3-3.4c-0.9,0.4-1.4,0.9-1.4,1.8c0,0.6,0.2,1.1,0.6,1.6c0.4,0.4,0.9,0.6,1.5,0.6
				C123.2-0.7,123.7-0.8,124.2-1.2z M122.6-5.6c0.8-0.4,1.2-0.9,1.2-1.5c0-0.6-0.3-0.9-0.9-0.9c-0.6,0-0.9,0.3-0.9,0.9
				C122-6.7,122.2-6.2,122.6-5.6z M135.7,0.2c-1.2,0-2.2-0.4-2.9-1.3c-0.7-0.8-1.1-1.9-1.1-3.3c0-1.4,0.4-2.5,1.1-3.3
				c0.7-0.8,1.7-1.2,3-1.2c1.2,0,2.2,0.4,2.9,1.2c0.7,0.8,1.1,1.9,1.1,3.3c0,1.4-0.4,2.5-1.1,3.3C137.9-0.2,136.9,0.2,135.7,0.2z
				 M135.7-0.7c0.9,0,1.6-0.3,2.1-1c0.5-0.6,0.7-1.5,0.7-2.7c0-1.1-0.2-2-0.7-2.6s-1.2-1-2-1c-0.9,0-1.5,0.3-2,1
				c-0.5,0.6-0.7,1.5-0.7,2.7c0,1.1,0.2,2,0.7,2.7C134.2-1,134.8-0.7,135.7-0.7z M145.2,0.2c-1.3,0-2.4-0.4-3.1-1.2
				c-0.7-0.8-1.1-1.9-1.1-3.4c0-1.4,0.4-2.6,1.1-3.4c0.7-0.8,1.8-1.2,3.2-1.2c0.8,0,1.7,0.1,2.7,0.4v1.2c-1.2-0.4-2.1-0.6-2.7-0.6
				c-0.9,0-1.7,0.3-2.2,1c-0.5,0.6-0.8,1.5-0.8,2.7c0,1.1,0.3,2,0.8,2.6c0.6,0.6,1.3,1,2.3,1c0.8,0,1.7-0.3,2.6-0.8v1.1
				C147.1,0,146.2,0.2,145.2,0.2z M151.5,0.2c-0.6,0-1.3-0.1-2.2-0.4v-1.2c1,0.5,1.8,0.7,2.4,0.7c0.5,0,0.9-0.1,1.2-0.4
				c0.3-0.3,0.4-0.6,0.4-1c0-0.3-0.1-0.6-0.3-0.9c-0.2-0.2-0.5-0.5-1.1-0.8l-0.6-0.3c-0.7-0.4-1.3-0.8-1.6-1.2
				c-0.3-0.4-0.5-0.8-0.5-1.3c0-0.7,0.2-1.2,0.7-1.6c0.5-0.4,1.1-0.6,1.9-0.6c0.7,0,1.4,0.1,2.1,0.3v1.1c-0.9-0.4-1.6-0.5-2-0.5
				c-0.4,0-0.8,0.1-1.1,0.3c-0.3,0.2-0.4,0.5-0.4,0.9c0,0.3,0.1,0.5,0.3,0.8c0.2,0.2,0.6,0.5,1.1,0.8l0.6,0.4
				c0.8,0.4,1.3,0.8,1.6,1.2c0.3,0.4,0.4,0.8,0.4,1.4c0,0.8-0.3,1.4-0.8,1.8C153.1,0,152.4,0.2,151.5,0.2z M161.7,0.2
				c-0.6,0-1.3-0.1-2.2-0.4v-1.2c1,0.5,1.8,0.7,2.4,0.7c0.5,0,0.9-0.1,1.2-0.4c0.3-0.3,0.4-0.6,0.4-1c0-0.3-0.1-0.6-0.3-0.9
				c-0.2-0.2-0.5-0.5-1.1-0.8l-0.6-0.3c-0.7-0.4-1.3-0.8-1.6-1.2c-0.3-0.4-0.5-0.8-0.5-1.3c0-0.7,0.2-1.2,0.7-1.6
				c0.5-0.4,1.1-0.6,1.9-0.6c0.7,0,1.4,0.1,2.1,0.3v1.1c-0.9-0.4-1.6-0.5-2-0.5c-0.4,0-0.8,0.1-1.1,0.3c-0.3,0.2-0.4,0.5-0.4,0.9
				c0,0.3,0.1,0.5,0.3,0.8c0.2,0.2,0.6,0.5,1.1,0.8l0.6,0.4c0.8,0.4,1.3,0.8,1.6,1.2c0.3,0.4,0.4,0.8,0.4,1.4c0,0.8-0.3,1.4-0.8,1.8
				C163.4,0,162.7,0.2,161.7,0.2z M166.5,0v-9.3h1.2v4.1c0.6-0.9,1.4-1.3,2.2-1.3c0.6,0,1,0.2,1.3,0.5c0.3,0.3,0.5,0.8,0.5,1.4V0
				h-1.2v-4.2c0-0.5-0.1-0.8-0.2-1c-0.1-0.2-0.4-0.3-0.7-0.3c-0.7,0-1.4,0.5-2,1.4V0H166.5z M177.3-0.8c-0.7,0.6-1.4,1-2,1
				c-0.5,0-1-0.2-1.3-0.5c-0.3-0.3-0.5-0.7-0.5-1.3c0-0.7,0.3-1.2,0.9-1.6c0.6-0.4,1.4-0.6,2.5-0.6h0.3v-0.8c0-0.7-0.4-1.1-1.1-1.1
				c-0.6,0-1.3,0.2-2,0.6v-1c0.8-0.3,1.5-0.5,2.2-0.5c0.7,0,1.2,0.2,1.6,0.5c0.3,0.3,0.5,0.8,0.5,1.5v2.9c0,0.7,0.2,1,0.6,1
				c0.1,0,0.1,0,0.2,0l0.1,0.6c-0.3,0.1-0.6,0.2-0.9,0.2C177.8,0.1,177.4-0.2,177.3-0.8z M177.1-1.4v-1.6l-0.4,0
				c-0.6,0-1.1,0.1-1.5,0.4c-0.4,0.2-0.6,0.6-0.6,0.9c0,0.3,0.1,0.5,0.3,0.7c0.2,0.2,0.4,0.3,0.7,0.3C176.1-0.8,176.6-1,177.1-1.4z
				 M180.6,0v-6.4h1.2v1.2c0.5-0.9,1.1-1.3,2-1.3c0.1,0,0.2,0,0.4,0v1.1c-0.2-0.1-0.4-0.1-0.5-0.1c-0.7,0-1.3,0.4-1.8,1.3V0H180.6z
				 M190.2-0.2c-0.8,0.2-1.4,0.4-2,0.4c-0.9,0-1.7-0.3-2.3-0.9S185-2.2,185-3.2c0-1,0.3-1.8,0.8-2.4c0.5-0.6,1.2-0.9,2-0.9
				c0.8,0,1.4,0.3,1.8,0.8c0.4,0.5,0.6,1.3,0.6,2.3l0,0.4h-4c0.2,1.5,0.9,2.3,2.2,2.3c0.5,0,1.1-0.1,1.8-0.4V-0.2z M186.3-3.9h2.8
				c0-1.2-0.4-1.8-1.3-1.8C186.9-5.6,186.4-5.1,186.3-3.9z M200.4-3.3l-1.5-3.7l-1.5,3.7H200.4z M201.7,0l-0.9-2.4h-3.7l-1,2.4H195
				l3.4-8.7h1.2L203,0H201.7z M204.3,0v-8.7h2.4c1,0,1.8,0.2,2.3,0.5c0.5,0.4,0.7,0.9,0.7,1.7c0,0.9-0.3,1.6-0.9,2.2
				c-0.6,0.5-1.5,0.8-2.6,0.8h-0.5V0H204.3z M205.5-4.4h0.5c0.7,0,1.3-0.2,1.7-0.5c0.4-0.3,0.6-0.8,0.6-1.4c0-0.5-0.2-0.9-0.5-1.1
				c-0.3-0.2-0.8-0.3-1.6-0.3h-0.8V-4.4z M210.9,0v-8.7h1.2V0H210.9z"/>
		</g>
	</g>
	<g transform="matrix(1.3333,0,0,1.3333,-40.6667,-26.6667)">
		<g>
			<defs>
				<rect id="SVGID_43_" x="-109.5" y="-54.1" width="1120" height="593"/>
			</defs>
			<clipPath id="SVGID_44_">
				<use xlink:href="#SVGID_43_"  style="overflow:visible;"/>
			</clipPath>
			<line class="st21" x1="116.9" y1="380" x2="442.8" y2="380"/>
		</g>
		<g>
			<defs>
				<rect id="SVGID_45_" x="-109.5" y="-54.1" width="1120" height="593"/>
			</defs>
			<clipPath id="SVGID_46_">
				<use xlink:href="#SVGID_45_"  style="overflow:visible;"/>
			</clipPath>
			<polygon class="st22" points="454,380 443,374 443,387 			"/>
		</g>
		<g>
			<defs>
				<rect id="SVGID_47_" x="-109.5" y="-54.1" width="1120" height="593"/>
			</defs>
			<clipPath id="SVGID_48_">
				<use xlink:href="#SVGID_47_"  style="overflow:visible;"/>
			</clipPath>
			<polygon class="st23" points="454,380 443,374 443,387 			"/>
		</g>
		<g>
			<defs>
				<rect id="SVGID_49_" x="-109.5" y="-54.1" width="1120" height="593"/>
			</defs>
			<clipPath id="SVGID_50_">
				<use xlink:href="#SVGID_49_"  style="overflow:visible;"/>
			</clipPath>
			<line class="st24" x1="454.1" y1="417" x2="117" y2="417"/>
		</g>
		<g>
			<defs>
				<rect id="SVGID_51_" x="-109.5" y="-54.1" width="1120" height="593"/>
			</defs>
			<clipPath id="SVGID_52_">
				<use xlink:href="#SVGID_51_"  style="overflow:visible;"/>
			</clipPath>
			<line class="st25" x1="117" y1="417" x2="127.4" y2="411"/>
		</g>
		<g>
			<defs>
				<rect id="SVGID_53_" x="-109.5" y="-54.1" width="1120" height="593"/>
			</defs>
			<clipPath id="SVGID_54_">
				<use xlink:href="#SVGID_53_"  style="overflow:visible;"/>
			</clipPath>
			<line class="st26" x1="117" y1="417" x2="127.4" y2="423"/>
		</g>
	</g>
</g>
<g id="_x30_6-access-token">
	<g transform="matrix(1.3333,0,0,1.3333,-40.6667,-26.6667) translate(241.05,322.9336)">
		<g>
			<defs>
				<rect id="SVGID_55_" x="-350.5" y="-377.1" width="1120" height="593"/>
			</defs>
			<clipPath id="SVGID_56_">
				<use xlink:href="#SVGID_55_"  style="overflow:visible;"/>
			</clipPath>
			<path class="st27" d="M5.5-3.3L4-7.1L2.6-3.3H5.5z M6.8,0L5.9-2.4H2.2L1.2,0H0.1l3.4-8.7h1.2L8.1,0H6.8z M11.9,0.1
				c-0.9,0-1.6-0.3-2.1-1C9.2-1.4,8.9-2.2,8.9-3.2c0-1,0.3-1.8,0.8-2.4s1.3-0.9,2.3-0.9c0.5,0,1.1,0.1,1.7,0.2v1
				c-0.7-0.2-1.2-0.3-1.6-0.3c-0.6,0-1.1,0.2-1.4,0.7c-0.4,0.4-0.5,1-0.5,1.8c0,0.7,0.2,1.3,0.6,1.7c0.4,0.4,0.8,0.7,1.4,0.7
				c0.5,0,1.1-0.1,1.6-0.4v1C13.1,0,12.5,0.1,11.9,0.1z M18.1,0.1c-0.9,0-1.6-0.3-2.1-1c-0.6-0.6-0.8-1.4-0.8-2.4
				c0-1,0.3-1.8,0.8-2.4c0.6-0.6,1.3-0.9,2.3-0.9c0.5,0,1.1,0.1,1.7,0.2v1c-0.7-0.2-1.2-0.3-1.6-0.3c-0.6,0-1.1,0.2-1.4,0.7
				c-0.4,0.4-0.5,1-0.5,1.8c0,0.7,0.2,1.3,0.6,1.7c0.4,0.4,0.8,0.7,1.4,0.7c0.5,0,1.1-0.1,1.6-0.4v1C19.3,0,18.6,0.1,18.1,0.1z
				 M26.4-0.2c-0.8,0.2-1.4,0.4-2,0.4c-0.9,0-1.7-0.3-2.3-0.9c-0.6-0.6-0.9-1.4-0.9-2.4c0-1,0.3-1.8,0.8-2.4c0.5-0.6,1.2-0.9,2-0.9
				c0.8,0,1.4,0.3,1.8,0.8c0.4,0.5,0.6,1.3,0.6,2.3l0,0.4h-4c0.2,1.5,0.9,2.3,2.2,2.3c0.5,0,1.1-0.1,1.8-0.4V-0.2z M22.5-3.9h2.8
				c0-1.2-0.4-1.8-1.3-1.8C23-5.6,22.6-5.1,22.5-3.9z M30.1,0.1c-0.5,0-1.2-0.1-1.9-0.4v-1.1c0.8,0.4,1.4,0.6,2,0.6
				c0.3,0,0.6-0.1,0.8-0.3c0.2-0.2,0.3-0.4,0.3-0.7c0-0.4-0.3-0.7-0.9-1l-0.7-0.3c-1-0.4-1.5-1-1.5-1.8c0-0.6,0.2-1,0.6-1.3
				c0.4-0.3,0.9-0.5,1.6-0.5c0.4,0,0.8,0,1.3,0.1l0.2,0v1c-0.6-0.2-1.2-0.3-1.5-0.3c-0.7,0-1.1,0.3-1.1,0.8c0,0.3,0.3,0.6,0.8,0.9
				l0.6,0.2c0.6,0.3,1.1,0.5,1.3,0.8s0.4,0.7,0.4,1.1c0,0.6-0.2,1-0.7,1.4C31.4,0,30.8,0.1,30.1,0.1z M36.2,0.1
				c-0.5,0-1.2-0.1-1.9-0.4v-1.1c0.8,0.4,1.4,0.6,2,0.6c0.3,0,0.6-0.1,0.8-0.3c0.2-0.2,0.3-0.4,0.3-0.7c0-0.4-0.3-0.7-0.9-1
				l-0.7-0.3c-1-0.4-1.5-1-1.5-1.8c0-0.6,0.2-1,0.6-1.3c0.4-0.3,0.9-0.5,1.6-0.5c0.4,0,0.8,0,1.3,0.1l0.2,0v1
				c-0.6-0.2-1.2-0.3-1.5-0.3c-0.7,0-1.1,0.3-1.1,0.8c0,0.3,0.3,0.6,0.8,0.9l0.6,0.2c0.6,0.3,1.1,0.5,1.3,0.8
				c0.3,0.3,0.4,0.7,0.4,1.1c0,0.6-0.2,1-0.7,1.4C37.5,0,36.9,0.1,36.2,0.1z M46.5,0v-7.8h-3.1v-0.9h7.4v0.9h-3.1V0H46.5z M54.5,0.1
				c-0.9,0-1.6-0.3-2.2-0.9c-0.5-0.6-0.8-1.4-0.8-2.4c0-1,0.3-1.8,0.8-2.4c0.5-0.6,1.3-0.9,2.2-0.9s1.7,0.3,2.2,0.9
				c0.5,0.6,0.8,1.4,0.8,2.4c0,1-0.3,1.9-0.8,2.4C56.2-0.2,55.5,0.1,54.5,0.1z M54.5-0.7c1.2,0,1.8-0.8,1.8-2.5
				c0-1.6-0.6-2.4-1.8-2.4c-1.2,0-1.8,0.8-1.8,2.5C52.8-1.5,53.4-0.7,54.5-0.7z M59.4,0v-9.3h1.2v6l2.7-3.1h1.2l-2.6,3L65,0h-1.5
				l-3-3.3V0H59.4z M71.1-0.2c-0.8,0.2-1.4,0.4-2,0.4c-0.9,0-1.7-0.3-2.3-0.9c-0.6-0.6-0.9-1.4-0.9-2.4c0-1,0.3-1.8,0.8-2.4
				c0.5-0.6,1.2-0.9,2-0.9c0.8,0,1.4,0.3,1.8,0.8c0.4,0.5,0.6,1.3,0.6,2.3l0,0.4h-4c0.2,1.5,0.9,2.3,2.2,2.3c0.5,0,1.1-0.1,1.8-0.4
				V-0.2z M67.1-3.9h2.8c0-1.2-0.4-1.8-1.3-1.8C67.7-5.6,67.2-5.1,67.1-3.9z M73.1,0v-6.4h1.2v1.2c0.6-0.9,1.4-1.3,2.2-1.3
				c0.6,0,1,0.2,1.3,0.5s0.5,0.8,0.5,1.4V0h-1.2v-4.2c0-0.5-0.1-0.8-0.2-1c-0.1-0.2-0.4-0.3-0.7-0.3c-0.7,0-1.4,0.5-2,1.4V0H73.1z"
				/>
		</g>
	</g>
	<g transform="matrix(1.3333,0,0,1.3333,-40.6667,-26.6667)">
		<g>
			<defs>
				<rect id="SVGID_57_" x="-109.5" y="-54.1" width="1120" height="593"/>
			</defs>
			<clipPath id="SVGID_58_">
				<use xlink:href="#SVGID_57_"  style="overflow:visible;"/>
			</clipPath>
			<line class="st28" x1="454.1" y1="329" x2="117" y2="329"/>
		</g>
		<g>
			<defs>
				<rect id="SVGID_59_" x="-109.5" y="-54.1" width="1120" height="593"/>
			</defs>
			<clipPath id="SVGID_60_">
				<use xlink:href="#SVGID_59_"  style="overflow:visible;"/>
			</clipPath>
			<line class="st29" x1="117" y1="329" x2="127.4" y2="323"/>
		</g>
		<g>
			<defs>
				<rect id="SVGID_61_" x="-109.5" y="-54.1" width="1120" height="593"/>
			</defs>
			<clipPath id="SVGID_62_">
				<use xlink:href="#SVGID_61_"  style="overflow:visible;"/>
			</clipPath>
			<line class="st30" x1="117" y1="329" x2="127.4" y2="335"/>
		</g>
	</g>
</g>
<g id="_x30_5-access-token-request">
	<g transform="matrix(1.3333,0,0,1.3333,-40.6667,-26.6667)">
		<g>
			<defs>
				<rect id="SVGID_63_" x="-109.5" y="-54.1" width="1120" height="593"/>
			</defs>
			<clipPath id="SVGID_64_">
				<use xlink:href="#SVGID_63_"  style="overflow:visible;"/>
			</clipPath>
			<rect x="107" y="286" class="st31" width="10" height="63"/>
		</g>
		<g>
			<defs>
				<rect id="SVGID_65_" x="-109.5" y="-54.1" width="1120" height="593"/>
			</defs>
			<clipPath id="SVGID_66_">
				<use xlink:href="#SVGID_65_"  style="overflow:visible;"/>
			</clipPath>
			<rect x="107" y="286" class="st32" width="10" height="63"/>
		</g>
		<g>
			<defs>
				<rect id="SVGID_67_" x="-109.5" y="-54.1" width="1120" height="593"/>
			</defs>
			<clipPath id="SVGID_68_">
				<use xlink:href="#SVGID_67_"  style="overflow:visible;"/>
			</clipPath>
			<rect x="454" y="286" class="st33" width="10" height="43"/>
		</g>
		<g>
			<defs>
				<rect id="SVGID_69_" x="-109.5" y="-54.1" width="1120" height="593"/>
			</defs>
			<clipPath id="SVGID_70_">
				<use xlink:href="#SVGID_69_"  style="overflow:visible;"/>
			</clipPath>
			<rect x="454" y="286" class="st34" width="10" height="43"/>
		</g>
	</g>
	<g transform="matrix(1.3333,0,0,1.3333,-40.6667,-26.6667) translate(149.5,279.9336)">
		<g>
			<defs>
				<rect id="SVGID_71_" x="-259" y="-334.1" width="1120" height="593"/>
			</defs>
			<clipPath id="SVGID_72_">
				<use xlink:href="#SVGID_71_"  style="overflow:visible;"/>
			</clipPath>
			<path class="st35" d="M1.1,0v-8.7h2.4c1,0,1.8,0.2,2.3,0.5c0.5,0.4,0.7,0.9,0.7,1.7c0,0.9-0.3,1.6-0.9,2.2C4.9-3.7,4-3.4,2.9-3.4
				H2.3V0H1.1z M2.3-4.4h0.5c0.7,0,1.3-0.2,1.7-0.5c0.4-0.3,0.6-0.8,0.6-1.4c0-0.5-0.2-0.9-0.5-1.1C4.3-7.6,3.8-7.8,3.1-7.8H2.3
				V-4.4z M11.2,0.2C10,0.2,9.1-0.2,8.3-1C7.6-1.9,7.2-3,7.2-4.3c0-1.4,0.4-2.5,1.1-3.3c0.7-0.8,1.7-1.2,3-1.2
				c1.2,0,2.2,0.4,2.9,1.2c0.7,0.8,1.1,1.9,1.1,3.3C15.4-3,15-1.8,14.2-1C13.5-0.2,12.5,0.2,11.2,0.2z M11.3-0.7
				c0.9,0,1.6-0.3,2.1-1C13.8-2.3,14-3.2,14-4.4c0-1.1-0.2-2-0.7-2.6c-0.5-0.6-1.2-1-2-1c-0.9,0-1.5,0.3-2,1
				C8.8-6.4,8.5-5.5,8.5-4.3c0,1.1,0.2,2,0.7,2.7C9.7-1,10.4-0.7,11.3-0.7z M18.8,0.2c-0.6,0-1.3-0.1-2.2-0.4v-1.2
				c1,0.5,1.8,0.7,2.4,0.7c0.5,0,0.9-0.1,1.2-0.4c0.3-0.3,0.4-0.6,0.4-1c0-0.3-0.1-0.6-0.3-0.9c-0.2-0.2-0.5-0.5-1.1-0.8l-0.6-0.3
				c-0.7-0.4-1.3-0.8-1.6-1.2c-0.3-0.4-0.5-0.8-0.5-1.3c0-0.7,0.2-1.2,0.7-1.6c0.5-0.4,1.1-0.6,1.9-0.6c0.7,0,1.4,0.1,2.1,0.3v1.1
				c-0.9-0.4-1.6-0.5-2-0.5c-0.4,0-0.8,0.1-1.1,0.3c-0.3,0.2-0.4,0.5-0.4,0.9c0,0.3,0.1,0.5,0.3,0.8c0.2,0.2,0.6,0.5,1.1,0.8
				l0.6,0.4c0.8,0.4,1.3,0.8,1.6,1.2c0.3,0.4,0.4,0.8,0.4,1.4c0,0.8-0.3,1.4-0.8,1.8C20.4,0,19.7,0.2,18.8,0.2z M25.6,0v-7.8h-3.1
				v-0.9h7.4v0.9h-3.1V0H25.6z M34.9,1.7l3.1-10.4H39L35.8,1.7H34.9z M41.2,0v-6.4h1.2V0H41.2z M41.2-7.5v-1.2h1.2v1.2H41.2z
				 M44.7,0v-6.4h1.2v1.2c0.6-0.9,1.4-1.3,2.2-1.3c0.6,0,1,0.2,1.3,0.5c0.3,0.3,0.5,0.8,0.5,1.4V0h-1.2v-4.2c0-0.5-0.1-0.8-0.2-1
				c-0.1-0.2-0.4-0.3-0.7-0.3c-0.7,0-1.4,0.5-2,1.4V0H44.7z M56.2,0v-1.2c-0.5,0.9-1.2,1.3-2.1,1.3c-0.8,0-1.4-0.3-1.8-0.8
				C51.9-1.3,51.7-2,51.7-3c0-1.1,0.2-1.9,0.7-2.6c0.5-0.6,1.2-1,2-1c0.8,0,1.4,0.3,1.9,0.9v-3.6h1.2V0H56.2z M56.2-4.8
				c-0.6-0.5-1.2-0.8-1.7-0.8c-1.1,0-1.7,0.8-1.7,2.5c0,1.5,0.5,2.2,1.5,2.2c0.6,0,1.3-0.3,1.9-1V-4.8z M64.4-0.2
				c-0.8,0.2-1.4,0.4-2,0.4c-0.9,0-1.7-0.3-2.3-0.9s-0.9-1.4-0.9-2.4c0-1,0.3-1.8,0.8-2.4c0.5-0.6,1.2-0.9,2-0.9
				c0.8,0,1.4,0.3,1.8,0.8c0.4,0.5,0.6,1.3,0.6,2.3l0,0.4h-4c0.2,1.5,0.9,2.3,2.2,2.3c0.5,0,1.1-0.1,1.8-0.4V-0.2z M60.4-3.9h2.8
				c0-1.2-0.4-1.8-1.3-1.8C61-5.6,60.5-5.1,60.4-3.9z M65.8,0l2.4-3.3l-2.3-3.1h1.4l1.9,2.4l1.7-2.4h1.1l-2.2,3.2L72.1,0h-1.4
				l-1.9-2.5L66.9,0H65.8z M73.8,0v-1.4h1.4V0H73.8z M77.6,2.3v-8.7h1.2v1.2c0.5-0.9,1.2-1.3,2.1-1.3c0.8,0,1.4,0.3,1.8,0.8
				s0.7,1.3,0.7,2.3c0,1.1-0.2,1.9-0.7,2.6c-0.5,0.6-1.2,1-2,1c-0.8,0-1.4-0.3-1.9-0.9v3H77.6z M78.7-1.5c0.6,0.5,1.2,0.8,1.7,0.8
				c1.1,0,1.7-0.8,1.7-2.5c0-1.5-0.5-2.2-1.5-2.2c-0.6,0-1.3,0.3-1.9,1V-1.5z M85.1,0v-9.3h1.2v4.1c0.6-0.9,1.4-1.3,2.2-1.3
				c0.6,0,1,0.2,1.3,0.5c0.3,0.3,0.5,0.8,0.5,1.4V0h-1.2v-4.2c0-0.5-0.1-0.8-0.2-1c-0.1-0.2-0.4-0.3-0.7-0.3c-0.7,0-1.4,0.5-2,1.4V0
				H85.1z M92.6,2.3v-8.7h1.2v1.2c0.5-0.9,1.2-1.3,2.1-1.3c0.8,0,1.4,0.3,1.8,0.8s0.7,1.3,0.7,2.3c0,1.1-0.2,1.9-0.7,2.6
				c-0.5,0.6-1.2,1-2,1c-0.8,0-1.4-0.3-1.9-0.9v3H92.6z M93.7-1.5c0.6,0.5,1.2,0.8,1.7,0.8c1.1,0,1.7-0.8,1.7-2.5
				c0-1.5-0.5-2.2-1.5-2.2c-0.6,0-1.3,0.3-1.9,1V-1.5z M100.1,1.7l3.1-10.4h0.9L101,1.7H100.1z M109.7-0.8c-0.7,0.6-1.4,1-2,1
				c-0.5,0-1-0.2-1.3-0.5c-0.3-0.3-0.5-0.7-0.5-1.3c0-0.7,0.3-1.2,0.9-1.6c0.6-0.4,1.4-0.6,2.5-0.6h0.3v-0.8c0-0.7-0.4-1.1-1.1-1.1
				c-0.6,0-1.3,0.2-2,0.6v-1c0.8-0.3,1.5-0.5,2.2-0.5c0.7,0,1.2,0.2,1.6,0.5c0.3,0.3,0.5,0.8,0.5,1.5v2.9c0,0.7,0.2,1,0.6,1
				c0.1,0,0.1,0,0.2,0l0.1,0.6c-0.3,0.1-0.6,0.2-0.9,0.2C110.2,0.1,109.8-0.2,109.7-0.8z M109.5-1.4v-1.6l-0.4,0
				c-0.6,0-1.1,0.1-1.5,0.4S107-2.2,107-1.8c0,0.3,0.1,0.5,0.3,0.7c0.2,0.2,0.4,0.3,0.7,0.3C108.5-0.8,109-1,109.5-1.4z M113,2.3
				v-8.7h1.2v1.2c0.5-0.9,1.2-1.3,2.1-1.3c0.8,0,1.4,0.3,1.8,0.8c0.4,0.6,0.7,1.3,0.7,2.3c0,1.1-0.2,1.9-0.7,2.6c-0.5,0.6-1.2,1-2,1
				c-0.8,0-1.4-0.3-1.9-0.9v3H113z M114.2-1.5c0.6,0.5,1.2,0.8,1.7,0.8c1.1,0,1.7-0.8,1.7-2.5c0-1.5-0.5-2.2-1.5-2.2
				c-0.6,0-1.3,0.3-1.9,1V-1.5z M120.6,2.3v-8.7h1.2v1.2c0.5-0.9,1.2-1.3,2.1-1.3c0.8,0,1.4,0.3,1.8,0.8s0.7,1.3,0.7,2.3
				c0,1.1-0.2,1.9-0.7,2.6c-0.5,0.6-1.2,1-2,1c-0.8,0-1.4-0.3-1.9-0.9v3H120.6z M121.7-1.5c0.6,0.5,1.2,0.8,1.7,0.8
				c1.1,0,1.7-0.8,1.7-2.5c0-1.5-0.5-2.2-1.5-2.2c-0.6,0-1.3,0.3-1.9,1V-1.5z M129.8,0.1c-0.5,0-1.2-0.1-1.9-0.4v-1.1
				c0.8,0.4,1.4,0.6,2,0.6c0.3,0,0.6-0.1,0.8-0.3c0.2-0.2,0.3-0.4,0.3-0.7c0-0.4-0.3-0.7-0.9-1l-0.7-0.3c-1-0.4-1.5-1-1.5-1.8
				c0-0.6,0.2-1,0.6-1.3c0.4-0.3,0.9-0.5,1.6-0.5c0.4,0,0.8,0,1.3,0.1l0.2,0v1c-0.6-0.2-1.2-0.3-1.5-0.3c-0.7,0-1.1,0.3-1.1,0.8
				c0,0.3,0.3,0.6,0.8,0.9l0.6,0.2c0.6,0.3,1.1,0.5,1.3,0.8c0.3,0.3,0.4,0.7,0.4,1.1c0,0.6-0.2,1-0.7,1.4
				C131.1,0,130.5,0.1,129.8,0.1z M134.2,1.7l3.1-10.4h0.9l-3.1,10.4H134.2z M143,0.1c-0.9,0-1.6-0.3-2.2-0.9
				c-0.5-0.6-0.8-1.4-0.8-2.4c0-1,0.3-1.8,0.8-2.4c0.5-0.6,1.3-0.9,2.2-0.9s1.7,0.3,2.2,0.9c0.5,0.6,0.8,1.4,0.8,2.4
				c0,1-0.3,1.9-0.8,2.4C144.7-0.2,144,0.1,143,0.1z M143.1-0.7c1.2,0,1.8-0.8,1.8-2.5c0-1.6-0.6-2.4-1.8-2.4
				c-1.2,0-1.8,0.8-1.8,2.5C141.3-1.5,141.9-0.7,143.1-0.7z M151.2-0.8c-0.7,0.6-1.4,1-2,1c-0.5,0-1-0.2-1.3-0.5
				c-0.3-0.3-0.5-0.7-0.5-1.3c0-0.7,0.3-1.2,0.9-1.6c0.6-0.4,1.4-0.6,2.5-0.6h0.3v-0.8c0-0.7-0.4-1.1-1.1-1.1c-0.6,0-1.3,0.2-2,0.6
				v-1c0.8-0.3,1.5-0.5,2.2-0.5c0.7,0,1.2,0.2,1.6,0.5c0.3,0.3,0.5,0.8,0.5,1.5v2.9c0,0.7,0.2,1,0.6,1c0.1,0,0.1,0,0.2,0l0.1,0.6
				c-0.3,0.1-0.6,0.2-0.9,0.2C151.7,0.1,151.3-0.2,151.2-0.8z M151-1.4v-1.6l-0.4,0c-0.6,0-1.1,0.1-1.5,0.4
				c-0.4,0.2-0.6,0.6-0.6,0.9c0,0.3,0.1,0.5,0.3,0.7s0.4,0.3,0.7,0.3C150-0.8,150.5-1,151-1.4z M158.5,0v-1.2
				c-0.6,0.9-1.4,1.3-2.2,1.3c-0.6,0-1-0.2-1.3-0.5c-0.3-0.3-0.5-0.8-0.5-1.4v-4.6h1.2v4.2c0,0.5,0.1,0.8,0.2,1
				c0.1,0.2,0.4,0.3,0.7,0.3c0.7,0,1.4-0.5,2-1.4v-4.1h1.2V0H158.5z M163.9,0.1c-0.6,0-1-0.2-1.4-0.5S162-1.2,162-1.8v-3.7h-0.8
				v-0.9h0.8v-1.2l1.2-0.1v1.3h1.7v0.9h-1.7V-2c0,0.8,0.4,1.2,1.1,1.2c0.2,0,0.3,0,0.6-0.1V0C164.5,0.1,164.2,0.1,163.9,0.1z
				 M166.5,0v-9.3h1.2v4.1c0.6-0.9,1.4-1.3,2.2-1.3c0.6,0,1,0.2,1.3,0.5c0.3,0.3,0.5,0.8,0.5,1.4V0h-1.2v-4.2c0-0.5-0.1-0.8-0.2-1
				c-0.1-0.2-0.4-0.3-0.7-0.3c-0.7,0-1.4,0.5-2,1.4V0H166.5z M173.8,0v-1c0.3-0.8,1-1.6,2-2.6l0.7-0.6c0.9-0.8,1.3-1.5,1.3-2.3
				c0-0.5-0.1-0.9-0.4-1.1C177-7.9,176.6-8,176.1-8c-0.6,0-1.3,0.2-2.1,0.7v-1c0.8-0.4,1.5-0.5,2.3-0.5c0.8,0,1.5,0.2,2,0.7
				c0.5,0.4,0.7,1,0.7,1.7c0,0.5-0.1,1-0.4,1.4c-0.2,0.4-0.7,0.9-1.4,1.5l-0.4,0.4c-0.9,0.8-1.5,1.5-1.6,2.2h3.8v1H173.8z
				 M181.5,1.7l3.1-10.4h0.9l-3.1,10.4H181.5z M191.1-0.8c-0.7,0.6-1.4,1-2,1c-0.5,0-1-0.2-1.3-0.5c-0.3-0.3-0.5-0.7-0.5-1.3
				c0-0.7,0.3-1.2,0.9-1.6c0.6-0.4,1.4-0.6,2.5-0.6h0.3v-0.8c0-0.7-0.4-1.1-1.1-1.1c-0.6,0-1.3,0.2-2,0.6v-1
				c0.8-0.3,1.5-0.5,2.2-0.5c0.7,0,1.2,0.2,1.6,0.5c0.3,0.3,0.5,0.8,0.5,1.5v2.9c0,0.7,0.2,1,0.6,1c0.1,0,0.1,0,0.2,0L193,0
				c-0.3,0.1-0.6,0.2-0.9,0.2C191.6,0.1,191.2-0.2,191.1-0.8z M190.9-1.4v-1.6l-0.4,0c-0.6,0-1.1,0.1-1.5,0.4s-0.6,0.6-0.6,0.9
				c0,0.3,0.1,0.5,0.3,0.7c0.2,0.2,0.4,0.3,0.7,0.3C189.9-0.8,190.4-1,190.9-1.4z M194.4,2.3v-8.7h1.2v1.2c0.5-0.9,1.2-1.3,2.1-1.3
				c0.8,0,1.4,0.3,1.8,0.8c0.4,0.6,0.7,1.3,0.7,2.3c0,1.1-0.2,1.9-0.7,2.6c-0.5,0.6-1.2,1-2,1c-0.8,0-1.4-0.3-1.9-0.9v3H194.4z
				 M195.6-1.5c0.6,0.5,1.2,0.8,1.7,0.8c1.1,0,1.7-0.8,1.7-2.5c0-1.5-0.5-2.2-1.5-2.2c-0.6,0-1.3,0.3-1.9,1V-1.5z M202,0v-6.4h1.2V0
				H202z M202-7.5v-1.2h1.2v1.2H202z M205.4,1.7l3.1-10.4h0.9l-3.1,10.4H205.4z M213.1,0l-2.4-6.4h1.2l1.9,5l2-5h1.1L214.2,0H213.1z
				 M218.6,0v-0.9h1.7v-6.8l-1.7,0.4v-0.9l2.9-0.7v8h1.7V0H218.6z M225.5,1.7l3.1-10.4h0.9l-3.1,10.4H225.5z M233.8,0.1
				c-0.6,0-1-0.2-1.4-0.5c-0.3-0.3-0.5-0.8-0.5-1.4v-3.7h-0.8v-0.9h0.8v-1.2l1.2-0.1v1.3h1.7v0.9H233V-2c0,0.8,0.4,1.2,1.1,1.2
				c0.2,0,0.3,0,0.6-0.1V0C234.3,0.1,234,0.1,233.8,0.1z M238.8,0.1c-0.9,0-1.6-0.3-2.2-0.9c-0.5-0.6-0.8-1.4-0.8-2.4
				c0-1,0.3-1.8,0.8-2.4c0.5-0.6,1.3-0.9,2.2-0.9s1.7,0.3,2.2,0.9c0.5,0.6,0.8,1.4,0.8,2.4c0,1-0.3,1.9-0.8,2.4
				C240.5-0.2,239.8,0.1,238.8,0.1z M238.8-0.7c1.2,0,1.8-0.8,1.8-2.5c0-1.6-0.6-2.4-1.8-2.4c-1.2,0-1.8,0.8-1.8,2.5
				C237.1-1.5,237.7-0.7,238.8-0.7z M243.7,0v-9.3h1.2v6l2.7-3.1h1.2l-2.6,3l3.1,3.4h-1.5l-3-3.3V0H243.7z M255.4-0.2
				c-0.8,0.2-1.4,0.4-2,0.4c-0.9,0-1.7-0.3-2.3-0.9s-0.9-1.4-0.9-2.4c0-1,0.3-1.8,0.8-2.4c0.5-0.6,1.2-0.9,2-0.9
				c0.8,0,1.4,0.3,1.8,0.8c0.4,0.5,0.6,1.3,0.6,2.3l0,0.4h-4c0.2,1.5,0.9,2.3,2.2,2.3c0.5,0,1.1-0.1,1.8-0.4V-0.2z M251.4-3.9h2.8
				c0-1.2-0.4-1.8-1.3-1.8C252-5.6,251.5-5.1,251.4-3.9z M257.4,0v-6.4h1.2v1.2c0.6-0.9,1.4-1.3,2.2-1.3c0.6,0,1,0.2,1.3,0.5
				c0.3,0.3,0.5,0.8,0.5,1.4V0h-1.2v-4.2c0-0.5-0.1-0.8-0.2-1c-0.1-0.2-0.4-0.3-0.7-0.3c-0.7,0-1.4,0.5-2,1.4V0H257.4z"/>
		</g>
	</g>
	<g transform="matrix(1.3333,0,0,1.3333,-40.6667,-26.6667)">
		<g>
			<defs>
				<rect id="SVGID_73_" x="-109.5" y="-54.1" width="1120" height="593"/>
			</defs>
			<clipPath id="SVGID_74_">
				<use xlink:href="#SVGID_73_"  style="overflow:visible;"/>
			</clipPath>
			<line class="st36" x1="116.9" y1="286" x2="442.8" y2="286"/>
		</g>
		<g>
			<defs>
				<rect id="SVGID_75_" x="-109.5" y="-54.1" width="1120" height="593"/>
			</defs>
			<clipPath id="SVGID_76_">
				<use xlink:href="#SVGID_75_"  style="overflow:visible;"/>
			</clipPath>
			<polygon class="st37" points="454,286 443,280 443,293 			"/>
		</g>
		<g>
			<defs>
				<rect id="SVGID_77_" x="-109.5" y="-54.1" width="1120" height="593"/>
			</defs>
			<clipPath id="SVGID_78_">
				<use xlink:href="#SVGID_77_"  style="overflow:visible;"/>
			</clipPath>
			<polygon class="st38" points="454,286 443,280 443,293 			"/>
		</g>
	</g>
</g>
<g id="_x30_4-authorization-code">
	<g transform="matrix(1.3333,0,0,1.3333,-40.6667,-26.6667) translate(230.55,229.9336)">
		<g>
			<defs>
				<rect id="SVGID_79_" x="-340" y="-284.1" width="1120" height="593"/>
			</defs>
			<clipPath id="SVGID_80_">
				<use xlink:href="#SVGID_79_"  style="overflow:visible;"/>
			</clipPath>
			<path class="st39" d="M5.5-3.3L4-7.1L2.6-3.3H5.5z M6.8,0L5.9-2.4H2.2L1.2,0H0.1l3.4-8.7h1.2L8.1,0H6.8z M13.4,0v-1.2
				c-0.6,0.9-1.4,1.3-2.2,1.3c-0.6,0-1-0.2-1.3-0.5C9.5-0.7,9.4-1.2,9.4-1.8v-4.6h1.2v4.2c0,0.5,0.1,0.8,0.2,1
				c0.1,0.2,0.4,0.3,0.7,0.3c0.7,0,1.4-0.5,2-1.4v-4.1h1.2V0H13.4z M18.8,0.1c-0.6,0-1-0.2-1.4-0.5c-0.3-0.3-0.5-0.8-0.5-1.4v-3.7
				h-0.8v-0.9h0.8v-1.2l1.2-0.1v1.3h1.7v0.9h-1.7V-2c0,0.8,0.4,1.2,1.1,1.2c0.2,0,0.3,0,0.6-0.1V0C19.4,0.1,19.1,0.1,18.8,0.1z
				 M21.4,0v-9.3h1.2v4.1c0.6-0.9,1.4-1.3,2.2-1.3c0.6,0,1,0.2,1.3,0.5c0.3,0.3,0.5,0.8,0.5,1.4V0h-1.2v-4.2c0-0.5-0.1-0.8-0.2-1
				c-0.1-0.2-0.4-0.3-0.7-0.3c-0.7,0-1.4,0.5-2,1.4V0H21.4z M31.3,0.1c-0.9,0-1.6-0.3-2.2-0.9c-0.5-0.6-0.8-1.4-0.8-2.4
				c0-1,0.3-1.8,0.8-2.4c0.5-0.6,1.3-0.9,2.2-0.9c0.9,0,1.7,0.3,2.2,0.9c0.5,0.6,0.8,1.4,0.8,2.4c0,1-0.3,1.9-0.8,2.4
				C33-0.2,32.3,0.1,31.3,0.1z M31.3-0.7c1.2,0,1.8-0.8,1.8-2.5c0-1.6-0.6-2.4-1.8-2.4c-1.2,0-1.8,0.8-1.8,2.5
				C29.5-1.5,30.1-0.7,31.3-0.7z M36.2,0v-6.4h1.2v1.2c0.5-0.9,1.1-1.3,2-1.3c0.1,0,0.2,0,0.4,0v1.1c-0.2-0.1-0.4-0.1-0.5-0.1
				c-0.7,0-1.3,0.4-1.8,1.3V0H36.2z M41.1,0v-6.4h1.2V0H41.1z M41.1-7.5v-1.2h1.2v1.2H41.1z M44.1,0v-0.9l3.9-4.6h-3.8v-0.9h5.2v0.9
				l-3.9,4.6h4V0H44.1z M54.7-0.8c-0.7,0.6-1.4,1-2,1c-0.5,0-1-0.2-1.3-0.5c-0.3-0.3-0.5-0.7-0.5-1.3c0-0.7,0.3-1.2,0.9-1.6
				c0.6-0.4,1.4-0.6,2.5-0.6h0.3v-0.8c0-0.7-0.4-1.1-1.1-1.1c-0.6,0-1.3,0.2-2,0.6v-1c0.8-0.3,1.5-0.5,2.2-0.5
				c0.7,0,1.2,0.2,1.6,0.5c0.3,0.3,0.5,0.8,0.5,1.5v2.9c0,0.7,0.2,1,0.6,1c0.1,0,0.1,0,0.2,0L56.6,0c-0.3,0.1-0.6,0.2-0.9,0.2
				C55.2,0.1,54.9-0.2,54.7-0.8z M54.6-1.4v-1.6l-0.4,0c-0.6,0-1.1,0.1-1.5,0.4C52.2-2.5,52-2.2,52-1.8c0,0.3,0.1,0.5,0.3,0.7
				c0.2,0.2,0.4,0.3,0.7,0.3C53.5-0.8,54-1,54.6-1.4z M60,0.1c-0.6,0-1-0.2-1.4-0.5s-0.5-0.8-0.5-1.4v-3.7h-0.8v-0.9h0.8v-1.2
				l1.2-0.1v1.3h1.7v0.9h-1.7V-2c0,0.8,0.4,1.2,1.1,1.2c0.2,0,0.3,0,0.6-0.1V0C60.6,0.1,60.2,0.1,60,0.1z M62.6,0v-6.4h1.2V0H62.6z
				 M62.6-7.5v-1.2h1.2v1.2H62.6z M68.5,0.1c-0.9,0-1.6-0.3-2.2-0.9c-0.5-0.6-0.8-1.4-0.8-2.4c0-1,0.3-1.8,0.8-2.4
				c0.5-0.6,1.3-0.9,2.2-0.9c0.9,0,1.7,0.3,2.2,0.9c0.5,0.6,0.8,1.4,0.8,2.4c0,1-0.3,1.9-0.8,2.4C70.2-0.2,69.5,0.1,68.5,0.1z
				 M68.5-0.7c1.2,0,1.8-0.8,1.8-2.5c0-1.6-0.6-2.4-1.8-2.4c-1.2,0-1.8,0.8-1.8,2.5C66.8-1.5,67.3-0.7,68.5-0.7z M73.4,0v-6.4h1.2
				v1.2c0.6-0.9,1.4-1.3,2.2-1.3c0.6,0,1,0.2,1.3,0.5c0.3,0.3,0.5,0.8,0.5,1.4V0h-1.2v-4.2c0-0.5-0.1-0.8-0.2-1
				c-0.1-0.2-0.4-0.3-0.7-0.3c-0.7,0-1.4,0.5-2,1.4V0H73.4z M88.3,0.2c-1.3,0-2.4-0.4-3.1-1.2c-0.7-0.8-1.1-1.9-1.1-3.4
				c0-1.4,0.4-2.6,1.1-3.4C86-8.5,87-8.9,88.4-8.9c0.8,0,1.7,0.1,2.7,0.4v1.2C89.9-7.8,89-8,88.4-8c-0.9,0-1.7,0.3-2.2,1
				c-0.5,0.6-0.8,1.5-0.8,2.7c0,1.1,0.3,2,0.8,2.6c0.6,0.6,1.3,1,2.3,1c0.8,0,1.7-0.3,2.6-0.8v1.1C90.3,0,89.3,0.2,88.3,0.2z
				 M95.4,0.1c-0.9,0-1.6-0.3-2.2-0.9c-0.5-0.6-0.8-1.4-0.8-2.4c0-1,0.3-1.8,0.8-2.4c0.5-0.6,1.3-0.9,2.2-0.9s1.7,0.3,2.2,0.9
				c0.5,0.6,0.8,1.4,0.8,2.4c0,1-0.3,1.9-0.8,2.4C97.1-0.2,96.4,0.1,95.4,0.1z M95.5-0.7c1.2,0,1.8-0.8,1.8-2.5
				c0-1.6-0.6-2.4-1.8-2.4c-1.2,0-1.8,0.8-1.8,2.5C93.7-1.5,94.3-0.7,95.5-0.7z M104.4,0v-1.2c-0.5,0.9-1.2,1.3-2.1,1.3
				c-0.8,0-1.4-0.3-1.8-0.8C100-1.2,99.8-2,99.8-3c0-1.1,0.2-1.9,0.7-2.6c0.5-0.6,1.2-1,2-1c0.8,0,1.4,0.3,1.9,0.9v-3.6h1.2V0H104.4
				z M104.4-4.8c-0.6-0.5-1.2-0.8-1.7-0.8c-1.1,0-1.7,0.8-1.7,2.5c0,1.5,0.5,2.2,1.5,2.2c0.6,0,1.3-0.3,1.9-1V-4.8z M112.5-0.2
				c-0.8,0.2-1.4,0.4-2,0.4c-0.9,0-1.7-0.3-2.3-0.9c-0.6-0.6-0.9-1.4-0.9-2.4c0-1,0.3-1.8,0.8-2.4s1.2-0.9,2-0.9
				c0.8,0,1.4,0.3,1.8,0.8c0.4,0.5,0.6,1.3,0.6,2.3l0,0.4h-4c0.2,1.5,0.9,2.3,2.2,2.3c0.5,0,1.1-0.1,1.8-0.4V-0.2z M108.6-3.9h2.8
				c0-1.2-0.4-1.8-1.3-1.8C109.2-5.6,108.7-5.1,108.6-3.9z"/>
		</g>
	</g>
	<g transform="matrix(1.3333,0,0,1.3333,-40.6667,-26.6667)">
		<g>
			<defs>
				<rect id="SVGID_81_" x="-109.5" y="-54.1" width="1120" height="593"/>
			</defs>
			<clipPath id="SVGID_82_">
				<use xlink:href="#SVGID_81_"  style="overflow:visible;"/>
			</clipPath>
			<line class="st40" x1="454.1" y1="234" x2="117" y2="234"/>
		</g>
		<g>
			<defs>
				<rect id="SVGID_83_" x="-109.5" y="-54.1" width="1120" height="593"/>
			</defs>
			<clipPath id="SVGID_84_">
				<use xlink:href="#SVGID_83_"  style="overflow:visible;"/>
			</clipPath>
			<line class="st41" x1="117" y1="234" x2="127.4" y2="228"/>
		</g>
		<g>
			<defs>
				<rect id="SVGID_85_" x="-109.5" y="-54.1" width="1120" height="593"/>
			</defs>
			<clipPath id="SVGID_86_">
				<use xlink:href="#SVGID_85_"  style="overflow:visible;"/>
			</clipPath>
			<line class="st42" x1="117" y1="234" x2="127.4" y2="240"/>
		</g>
	</g>
</g>
<g id="_x30_3-autorisierung">
	<g transform="matrix(1.3333,0,0,1.3333,-40.6667,-26.6667)">
		<g>
			<defs>
				<rect id="SVGID_87_" x="-109.5" y="-54.1" width="1120" height="593"/>
			</defs>
			<clipPath id="SVGID_88_">
				<use xlink:href="#SVGID_87_"  style="overflow:visible;"/>
			</clipPath>
			<rect x="792.5" y="175" class="st43" width="10" height="39"/>
		</g>
		<g>
			<defs>
				<rect id="SVGID_89_" x="-109.5" y="-54.1" width="1120" height="593"/>
			</defs>
			<clipPath id="SVGID_90_">
				<use xlink:href="#SVGID_89_"  style="overflow:visible;"/>
			</clipPath>
			<rect x="792.5" y="175" class="st44" width="10" height="39"/>
		</g>
	</g>
	<g transform="matrix(1.3333,0,0,1.3333,-40.6667,-26.6667) translate(558.8,168.9336)">
		<g>
			<defs>
				<rect id="SVGID_91_" x="-668.3" y="-223.1" width="1120" height="593"/>
			</defs>
			<clipPath id="SVGID_92_">
				<use xlink:href="#SVGID_91_"  style="overflow:visible;"/>
			</clipPath>
			<path class="st45" d="M5.5-3.3L4-7.1L2.6-3.3H5.5z M6.8,0L5.9-2.4H2.2L1.2,0H0.1l3.4-8.7h1.2L8.1,0H6.8z M13.4,0v-1.2
				c-0.6,0.9-1.4,1.3-2.2,1.3c-0.6,0-1-0.2-1.3-0.5C9.5-0.7,9.4-1.2,9.4-1.8v-4.6h1.2v4.2c0,0.5,0.1,0.8,0.2,1
				c0.1,0.2,0.4,0.3,0.7,0.3c0.7,0,1.4-0.5,2-1.4v-4.1h1.2V0H13.4z M18.8,0.1c-0.6,0-1-0.2-1.4-0.5c-0.3-0.3-0.5-0.8-0.5-1.4v-3.7
				h-0.8v-0.9h0.8v-1.2l1.2-0.1v1.3h1.7v0.9h-1.7V-2c0,0.8,0.4,1.2,1.1,1.2c0.2,0,0.3,0,0.6-0.1V0C19.4,0.1,19.1,0.1,18.8,0.1z
				 M23.9,0.1c-0.9,0-1.6-0.3-2.2-0.9c-0.5-0.6-0.8-1.4-0.8-2.4c0-1,0.3-1.8,0.8-2.4c0.5-0.6,1.3-0.9,2.2-0.9c0.9,0,1.7,0.3,2.2,0.9
				c0.5,0.6,0.8,1.4,0.8,2.4c0,1-0.3,1.9-0.8,2.4C25.6-0.2,24.8,0.1,23.9,0.1z M23.9-0.7c1.2,0,1.8-0.8,1.8-2.5
				c0-1.6-0.6-2.4-1.8-2.4c-1.2,0-1.8,0.8-1.8,2.5C22.1-1.5,22.7-0.7,23.9-0.7z M28.7,0v-6.4h1.2v1.2c0.5-0.9,1.1-1.3,2-1.3
				c0.1,0,0.2,0,0.4,0v1.1c-0.2-0.1-0.4-0.1-0.5-0.1c-0.7,0-1.3,0.4-1.8,1.3V0H28.7z M33.7,0v-6.4h1.2V0H33.7z M33.7-7.5v-1.2h1.2
				v1.2H33.7z M38.8,0.1c-0.5,0-1.2-0.1-1.9-0.4v-1.1c0.8,0.4,1.4,0.6,2,0.6c0.3,0,0.6-0.1,0.8-0.3C39.9-1.2,40-1.4,40-1.7
				c0-0.4-0.3-0.7-0.9-1l-0.7-0.3c-1-0.4-1.5-1-1.5-1.8c0-0.6,0.2-1,0.6-1.3c0.4-0.3,0.9-0.5,1.6-0.5c0.4,0,0.8,0,1.3,0.1l0.2,0v1
				c-0.6-0.2-1.2-0.3-1.5-0.3c-0.7,0-1.1,0.3-1.1,0.8c0,0.3,0.3,0.6,0.8,0.9l0.6,0.2c0.6,0.3,1.1,0.5,1.3,0.8
				c0.3,0.3,0.4,0.7,0.4,1.1c0,0.6-0.2,1-0.7,1.4C40.1,0,39.5,0.1,38.8,0.1z M43.2,0v-6.4h1.2V0H43.2z M43.2-7.5v-1.2h1.2v1.2H43.2z
				 M51.4-0.2c-0.8,0.2-1.4,0.4-2,0.4c-0.9,0-1.7-0.3-2.3-0.9c-0.6-0.6-0.9-1.4-0.9-2.4c0-1,0.3-1.8,0.8-2.4s1.2-0.9,2-0.9
				c0.8,0,1.4,0.3,1.8,0.8c0.4,0.5,0.6,1.3,0.6,2.3l0,0.4h-4c0.2,1.5,0.9,2.3,2.2,2.3c0.5,0,1.1-0.1,1.8-0.4V-0.2z M47.4-3.9h2.8
				c0-1.2-0.4-1.8-1.3-1.8C48-5.6,47.5-5.1,47.4-3.9z M53.4,0v-6.4h1.2v1.2c0.5-0.9,1.1-1.3,2-1.3c0.1,0,0.2,0,0.4,0v1.1
				c-0.2-0.1-0.4-0.1-0.5-0.1c-0.7,0-1.3,0.4-1.8,1.3V0H53.4z M62.3,0v-1.2c-0.6,0.9-1.4,1.3-2.2,1.3c-0.6,0-1-0.2-1.3-0.5
				c-0.3-0.3-0.5-0.8-0.5-1.4v-4.6h1.2v4.2c0,0.5,0.1,0.8,0.2,1C59.7-1,60-0.8,60.3-0.8c0.7,0,1.4-0.5,2-1.4v-4.1h1.2V0H62.3z
				 M65.7,0v-6.4h1.2v1.2c0.6-0.9,1.4-1.3,2.2-1.3c0.6,0,1,0.2,1.3,0.5C70.8-5.6,71-5.2,71-4.6V0h-1.2v-4.2c0-0.5-0.1-0.8-0.2-1
				c-0.1-0.2-0.4-0.3-0.7-0.3c-0.7,0-1.4,0.5-2,1.4V0H65.7z M73.2,2.1l0.1-1c0.7,0.3,1.3,0.5,2,0.5c1.3,0,2-0.7,2-2.1v-1
				c-0.4,0.9-1.1,1.3-2.1,1.3c-0.8,0-1.4-0.3-1.8-0.8c-0.4-0.6-0.7-1.3-0.7-2.2c0-1,0.3-1.8,0.8-2.4c0.5-0.6,1.2-0.9,2-0.9
				c0.7,0,1.3,0.3,1.8,0.9v-0.7h1.2v4.6c0,1-0.1,1.7-0.2,2.2C78.2,1,78,1.3,77.7,1.7c-0.5,0.5-1.3,0.8-2.3,0.8
				C74.6,2.5,73.9,2.3,73.2,2.1z M77.3-2.2v-2.6c-0.5-0.5-1.1-0.8-1.7-0.8c-0.5,0-0.9,0.2-1.2,0.6c-0.3,0.4-0.5,1-0.5,1.8
				c0,1.4,0.5,2.1,1.5,2.1C76.1-1.2,76.7-1.5,77.3-2.2z M89.1-0.2c-0.8,0.2-1.4,0.4-2,0.4c-0.9,0-1.7-0.3-2.3-0.9S84-2.2,84-3.2
				c0-1,0.3-1.8,0.8-2.4c0.5-0.6,1.2-0.9,2-0.9c0.8,0,1.4,0.3,1.8,0.8c0.4,0.5,0.6,1.3,0.6,2.3l0,0.4h-4c0.2,1.5,0.9,2.3,2.2,2.3
				c0.5,0,1.1-0.1,1.8-0.4V-0.2z M85.2-3.9H88c0-1.2-0.4-1.8-1.3-1.8C85.8-5.6,85.3-5.1,85.2-3.9z M91.2,0v-6.4h1.2v1.2
				c0.5-0.9,1.1-1.3,2-1.3c0.1,0,0.2,0,0.4,0v1.1c-0.2-0.1-0.4-0.1-0.5-0.1c-0.7,0-1.3,0.4-1.8,1.3V0H91.2z M97.4-5.5V0h-1.2v-5.5
				h-0.9v-0.9h0.9v-0.8c0-1.5,0.7-2.3,2.1-2.3c0.4,0,0.8,0.1,1.3,0.2v0.9c-0.5-0.2-0.9-0.2-1.2-0.2c-0.4,0-0.6,0.1-0.8,0.3
				c-0.1,0.2-0.2,0.5-0.2,1v0.9H99v0.9H97.4z M100.5,0v-6.4h1.2v1.2c0.5-0.9,1.1-1.3,2-1.3c0.1,0,0.2,0,0.4,0v1.1
				c-0.2-0.1-0.4-0.1-0.5-0.1c-0.7,0-1.3,0.4-1.8,1.3V0H100.5z M108.7-0.8c-0.7,0.6-1.4,1-2,1c-0.5,0-1-0.2-1.3-0.5
				c-0.3-0.3-0.5-0.7-0.5-1.3c0-0.7,0.3-1.2,0.9-1.6c0.6-0.4,1.4-0.6,2.5-0.6h0.3v-0.8c0-0.7-0.4-1.1-1.1-1.1c-0.6,0-1.3,0.2-2,0.6
				v-1c0.8-0.3,1.5-0.5,2.2-0.5c0.7,0,1.2,0.2,1.6,0.5c0.3,0.3,0.5,0.8,0.5,1.5v2.9c0,0.7,0.2,1,0.6,1c0.1,0,0.1,0,0.2,0l0.1,0.6
				c-0.3,0.1-0.6,0.2-0.9,0.2C109.2,0.1,108.8-0.2,108.7-0.8z M108.5-1.4v-1.6l-0.4,0c-0.6,0-1.1,0.1-1.5,0.4
				c-0.4,0.2-0.6,0.6-0.6,0.9c0,0.3,0.1,0.5,0.3,0.7c0.2,0.2,0.4,0.3,0.7,0.3C107.5-0.8,108-1,108.5-1.4z M112,2.1l0.1-1
				c0.7,0.3,1.3,0.5,2,0.5c1.3,0,2-0.7,2-2.1v-1c-0.4,0.9-1.1,1.3-2.1,1.3c-0.8,0-1.4-0.3-1.8-0.8c-0.4-0.6-0.7-1.3-0.7-2.2
				c0-1,0.3-1.8,0.8-2.4c0.5-0.6,1.2-0.9,2-0.9c0.7,0,1.3,0.3,1.8,0.9v-0.7h1.2v4.6c0,1-0.1,1.7-0.2,2.2c-0.1,0.5-0.3,0.9-0.6,1.2
				c-0.5,0.5-1.3,0.8-2.3,0.8C113.4,2.5,112.7,2.3,112,2.1z M116.1-2.2v-2.6c-0.5-0.5-1.1-0.8-1.7-0.8c-0.5,0-0.9,0.2-1.2,0.6
				c-0.3,0.4-0.5,1-0.5,1.8c0,1.4,0.5,2.1,1.5,2.1C114.9-1.2,115.5-1.5,116.1-2.2z M124.2-0.2c-0.8,0.2-1.4,0.4-2,0.4
				c-0.9,0-1.7-0.3-2.3-0.9c-0.6-0.6-0.9-1.4-0.9-2.4c0-1,0.3-1.8,0.8-2.4c0.5-0.6,1.2-0.9,2-0.9c0.8,0,1.4,0.3,1.8,0.8
				c0.4,0.5,0.6,1.3,0.6,2.3l0,0.4h-4c0.2,1.5,0.9,2.3,2.2,2.3c0.5,0,1.1-0.1,1.8-0.4V-0.2z M120.2-3.9h2.8c0-1.2-0.4-1.8-1.3-1.8
				C120.8-5.6,120.3-5.1,120.2-3.9z M126.2,0v-6.4h1.2v1.2c0.6-0.9,1.4-1.3,2.2-1.3c0.6,0,1,0.2,1.3,0.5c0.3,0.3,0.5,0.8,0.5,1.4V0
				h-1.2v-4.2c0-0.5-0.1-0.8-0.2-1c-0.1-0.2-0.4-0.3-0.7-0.3c-0.7,0-1.4,0.5-2,1.4V0H126.2z"/>
		</g>
	</g>
	<g transform="matrix(1.3333,0,0,1.3333,-40.6667,-26.6667)">
		<g>
			<defs>
				<rect id="SVGID_93_" x="-109.5" y="-54.1" width="1120" height="593"/>
			</defs>
			<clipPath id="SVGID_94_">
				<use xlink:href="#SVGID_93_"  style="overflow:visible;"/>
			</clipPath>
			<line class="st46" x1="464" y1="175" x2="781.3" y2="175"/>
		</g>
		<g>
			<defs>
				<rect id="SVGID_95_" x="-109.5" y="-54.1" width="1120" height="593"/>
			</defs>
			<clipPath id="SVGID_96_">
				<use xlink:href="#SVGID_95_"  style="overflow:visible;"/>
			</clipPath>
			<polygon class="st47" points="793,175 781,169 781,182 			"/>
		</g>
		<g>
			<defs>
				<rect id="SVGID_97_" x="-109.5" y="-54.1" width="1120" height="593"/>
			</defs>
			<clipPath id="SVGID_98_">
				<use xlink:href="#SVGID_97_"  style="overflow:visible;"/>
			</clipPath>
			<polygon class="st48" points="793,175 781,169 781,182 			"/>
		</g>
		<g>
			<defs>
				<rect id="SVGID_99_" x="-109.5" y="-54.1" width="1120" height="593"/>
			</defs>
			<clipPath id="SVGID_100_">
				<use xlink:href="#SVGID_99_"  style="overflow:visible;"/>
			</clipPath>
			<line class="st49" x1="792.6" y1="214" x2="464" y2="214"/>
		</g>
		<g>
			<defs>
				<rect id="SVGID_101_" x="-109.5" y="-54.1" width="1120" height="593"/>
			</defs>
			<clipPath id="SVGID_102_">
				<use xlink:href="#SVGID_101_"  style="overflow:visible;"/>
			</clipPath>
			<line class="st50" x1="464" y1="214" x2="474.4" y2="208"/>
		</g>
		<g>
			<defs>
				<rect id="SVGID_103_" x="-109.5" y="-54.1" width="1120" height="593"/>
			</defs>
			<clipPath id="SVGID_104_">
				<use xlink:href="#SVGID_103_"  style="overflow:visible;"/>
			</clipPath>
			<line class="st51" x1="464" y1="214" x2="474.4" y2="220"/>
		</g>
	</g>
</g>
<g id="_x30_2-authentifizierung">
	<g transform="matrix(1.3333,0,0,1.3333,-40.6667,-26.6667)">
		<g>
			<defs>
				<rect id="SVGID_105_" x="-109.5" y="-54.1" width="1120" height="593"/>
			</defs>
			<clipPath id="SVGID_106_">
				<use xlink:href="#SVGID_105_"  style="overflow:visible;"/>
			</clipPath>
			<rect x="792.5" y="97" class="st52" width="10" height="36"/>
		</g>
		<g>
			<defs>
				<rect id="SVGID_107_" x="-109.5" y="-54.1" width="1120" height="593"/>
			</defs>
			<clipPath id="SVGID_108_">
				<use xlink:href="#SVGID_107_"  style="overflow:visible;"/>
			</clipPath>
			<rect x="792.5" y="97" class="st53" width="10" height="36"/>
		</g>
	</g>
	<g transform="matrix(1.3333,0,0,1.3333,-40.6667,-26.6667) translate(549.25,91.9336)">
		<g>
			<defs>
				<rect id="SVGID_109_" x="-658.7" y="-146.1" width="1120" height="593"/>
			</defs>
			<clipPath id="SVGID_110_">
				<use xlink:href="#SVGID_109_"  style="overflow:visible;"/>
			</clipPath>
			<path class="st54" d="M5.5-3.3L4-7.1L2.6-3.3H5.5z M6.8,0L5.9-2.4H2.2L1.2,0H0.1l3.4-8.7h1.2L8.1,0H6.8z M13.4,0v-1.2
				c-0.6,0.9-1.4,1.3-2.2,1.3c-0.6,0-1-0.2-1.3-0.5C9.5-0.7,9.4-1.2,9.4-1.8v-4.6h1.2v4.2c0,0.5,0.1,0.8,0.2,1
				c0.1,0.2,0.4,0.3,0.7,0.3c0.7,0,1.4-0.5,2-1.4v-4.1h1.2V0H13.4z M18.8,0.1c-0.6,0-1-0.2-1.4-0.5c-0.3-0.3-0.5-0.8-0.5-1.4v-3.7
				h-0.8v-0.9h0.8v-1.2l1.2-0.1v1.3h1.7v0.9h-1.7V-2c0,0.8,0.4,1.2,1.1,1.2c0.2,0,0.3,0,0.6-0.1V0C19.4,0.1,19.1,0.1,18.8,0.1z
				 M21.4,0v-9.3h1.2v4.1c0.6-0.9,1.4-1.3,2.2-1.3c0.6,0,1,0.2,1.3,0.5c0.3,0.3,0.5,0.8,0.5,1.4V0h-1.2v-4.2c0-0.5-0.1-0.8-0.2-1
				c-0.1-0.2-0.4-0.3-0.7-0.3c-0.7,0-1.4,0.5-2,1.4V0H21.4z M33.5-0.2c-0.8,0.2-1.4,0.4-2,0.4c-0.9,0-1.7-0.3-2.3-0.9
				s-0.9-1.4-0.9-2.4c0-1,0.3-1.8,0.8-2.4c0.5-0.6,1.2-0.9,2-0.9c0.8,0,1.4,0.3,1.8,0.8c0.4,0.5,0.6,1.3,0.6,2.3l0,0.4h-4
				c0.2,1.5,0.9,2.3,2.2,2.3c0.5,0,1.1-0.1,1.8-0.4V-0.2z M29.5-3.9h2.8c0-1.2-0.4-1.8-1.3-1.8C30.1-5.6,29.6-5.1,29.5-3.9z M35.5,0
				v-6.4h1.2v1.2c0.6-0.9,1.4-1.3,2.2-1.3c0.6,0,1,0.2,1.3,0.5c0.3,0.3,0.5,0.8,0.5,1.4V0h-1.2v-4.2c0-0.5-0.1-0.8-0.2-1
				c-0.1-0.2-0.4-0.3-0.7-0.3c-0.7,0-1.4,0.5-2,1.4V0H35.5z M44.9,0.1c-0.6,0-1-0.2-1.4-0.5S43-1.2,43-1.8v-3.7h-0.8v-0.9H43v-1.2
				l1.2-0.1v1.3h1.7v0.9h-1.7V-2c0,0.8,0.4,1.2,1.1,1.2c0.2,0,0.3,0,0.6-0.1V0C45.4,0.1,45.1,0.1,44.9,0.1z M47.4,0v-6.4h1.2V0H47.4
				z M47.4-7.5v-1.2h1.2v1.2H47.4z M52.3-5.5V0h-1.2v-5.5h-0.9v-0.9h0.9v-0.8c0-1.5,0.7-2.3,2.1-2.3c0.4,0,0.8,0.1,1.3,0.2v0.9
				c-0.5-0.2-0.9-0.2-1.2-0.2c-0.4,0-0.6,0.1-0.8,0.3c-0.1,0.2-0.2,0.5-0.2,1v0.9h1.6v0.9H52.3z M55.3,0v-6.4h1.2V0H55.3z M55.3-7.5
				v-1.2h1.2v1.2H55.3z M58.4,0v-0.9l3.9-4.6h-3.8v-0.9h5.2v0.9l-3.9,4.6h4V0H58.4z M65.7,0v-6.4h1.2V0H65.7z M65.7-7.5v-1.2h1.2
				v1.2H65.7z M73.8-0.2c-0.8,0.2-1.4,0.4-2,0.4c-0.9,0-1.7-0.3-2.3-0.9c-0.6-0.6-0.9-1.4-0.9-2.4c0-1,0.3-1.8,0.8-2.4
				c0.5-0.6,1.2-0.9,2-0.9c0.8,0,1.4,0.3,1.8,0.8c0.4,0.5,0.6,1.3,0.6,2.3l0,0.4h-4C70-1.5,70.7-0.7,72-0.7c0.5,0,1.1-0.1,1.8-0.4
				V-0.2z M69.9-3.9h2.8c0-1.2-0.4-1.8-1.3-1.8C70.5-5.6,70-5.1,69.9-3.9z M75.8,0v-6.4H77v1.2c0.5-0.9,1.1-1.3,2-1.3
				c0.1,0,0.2,0,0.4,0v1.1c-0.2-0.1-0.4-0.1-0.5-0.1c-0.7,0-1.3,0.4-1.8,1.3V0H75.8z M84.7,0v-1.2c-0.6,0.9-1.4,1.3-2.2,1.3
				c-0.6,0-1-0.2-1.3-0.5c-0.3-0.3-0.5-0.8-0.5-1.4v-4.6h1.2v4.2c0,0.5,0.1,0.8,0.2,1c0.1,0.2,0.4,0.3,0.7,0.3c0.7,0,1.4-0.5,2-1.4
				v-4.1h1.2V0H84.7z M88.2,0v-6.4h1.2v1.2c0.6-0.9,1.4-1.3,2.2-1.3c0.6,0,1,0.2,1.3,0.5c0.3,0.3,0.5,0.8,0.5,1.4V0h-1.2v-4.2
				c0-0.5-0.1-0.8-0.2-1c-0.1-0.2-0.4-0.3-0.7-0.3c-0.7,0-1.4,0.5-2,1.4V0H88.2z M95.6,2.1l0.1-1c0.7,0.3,1.3,0.5,2,0.5
				c1.3,0,2-0.7,2-2.1v-1c-0.4,0.9-1.1,1.3-2.1,1.3c-0.8,0-1.4-0.3-1.8-0.8c-0.4-0.6-0.7-1.3-0.7-2.2c0-1,0.3-1.8,0.8-2.4
				c0.5-0.6,1.2-0.9,2-0.9c0.7,0,1.3,0.3,1.8,0.9v-0.7h1.2v4.6c0,1-0.1,1.7-0.2,2.2c-0.1,0.5-0.3,0.9-0.6,1.2
				c-0.5,0.5-1.3,0.8-2.3,0.8C97,2.5,96.3,2.3,95.6,2.1z M99.7-2.2v-2.6c-0.5-0.5-1.1-0.8-1.7-0.8c-0.5,0-0.9,0.2-1.2,0.6
				c-0.3,0.4-0.5,1-0.5,1.8c0,1.4,0.5,2.1,1.5,2.1C98.5-1.2,99.1-1.5,99.7-2.2z M111.6-0.2c-0.8,0.2-1.4,0.4-2,0.4
				c-0.9,0-1.7-0.3-2.3-0.9s-0.9-1.4-0.9-2.4c0-1,0.3-1.8,0.8-2.4c0.5-0.6,1.2-0.9,2-0.9c0.8,0,1.4,0.3,1.8,0.8
				c0.4,0.5,0.6,1.3,0.6,2.3l0,0.4h-4c0.2,1.5,0.9,2.3,2.2,2.3c0.5,0,1.1-0.1,1.8-0.4V-0.2z M107.6-3.9h2.8c0-1.2-0.4-1.8-1.3-1.8
				C108.2-5.6,107.7-5.1,107.6-3.9z M113.6,0v-6.4h1.2v1.2c0.5-0.9,1.1-1.3,2-1.3c0.1,0,0.2,0,0.4,0v1.1c-0.2-0.1-0.4-0.1-0.5-0.1
				c-0.7,0-1.3,0.4-1.8,1.3V0H113.6z M119.9-5.5V0h-1.2v-5.5h-0.9v-0.9h0.9v-0.8c0-1.5,0.7-2.3,2.1-2.3c0.4,0,0.8,0.1,1.3,0.2v0.9
				c-0.5-0.2-0.9-0.2-1.2-0.2c-0.4,0-0.6,0.1-0.8,0.3c-0.1,0.2-0.2,0.5-0.2,1v0.9h1.6v0.9H119.9z M122.9,0v-6.4h1.2v1.2
				c0.5-0.9,1.1-1.3,2-1.3c0.1,0,0.2,0,0.4,0v1.1c-0.2-0.1-0.4-0.1-0.5-0.1c-0.7,0-1.3,0.4-1.8,1.3V0H122.9z M131.1-0.8
				c-0.7,0.6-1.4,1-2,1c-0.5,0-1-0.2-1.3-0.5c-0.3-0.3-0.5-0.7-0.5-1.3c0-0.7,0.3-1.2,0.9-1.6c0.6-0.4,1.4-0.6,2.5-0.6h0.3v-0.8
				c0-0.7-0.4-1.1-1.1-1.1c-0.6,0-1.3,0.2-2,0.6v-1c0.8-0.3,1.5-0.5,2.2-0.5c0.7,0,1.2,0.2,1.6,0.5c0.3,0.3,0.5,0.8,0.5,1.5v2.9
				c0,0.7,0.2,1,0.6,1c0.1,0,0.1,0,0.2,0L133,0c-0.3,0.1-0.6,0.2-0.9,0.2C131.6,0.1,131.3-0.2,131.1-0.8z M130.9-1.4v-1.6l-0.4,0
				c-0.6,0-1.1,0.1-1.5,0.4c-0.4,0.2-0.6,0.6-0.6,0.9c0,0.3,0.1,0.5,0.3,0.7c0.2,0.2,0.4,0.3,0.7,0.3C129.9-0.8,130.4-1,130.9-1.4z
				 M134.5,2.1l0.1-1c0.7,0.3,1.3,0.5,2,0.5c1.3,0,2-0.7,2-2.1v-1c-0.4,0.9-1.1,1.3-2.1,1.3c-0.8,0-1.4-0.3-1.8-0.8
				c-0.4-0.6-0.7-1.3-0.7-2.2c0-1,0.3-1.8,0.8-2.4c0.5-0.6,1.2-0.9,2-0.9c0.7,0,1.3,0.3,1.8,0.9v-0.7h1.2v4.6c0,1-0.1,1.7-0.2,2.2
				c-0.1,0.5-0.3,0.9-0.6,1.2c-0.5,0.5-1.3,0.8-2.3,0.8C135.9,2.5,135.2,2.3,134.5,2.1z M138.5-2.2v-2.6c-0.5-0.5-1.1-0.8-1.7-0.8
				c-0.5,0-0.9,0.2-1.2,0.6c-0.3,0.4-0.5,1-0.5,1.8c0,1.4,0.5,2.1,1.5,2.1C137.3-1.2,137.9-1.5,138.5-2.2z M146.6-0.2
				c-0.8,0.2-1.4,0.4-2,0.4c-0.9,0-1.7-0.3-2.3-0.9s-0.9-1.4-0.9-2.4c0-1,0.3-1.8,0.8-2.4c0.5-0.6,1.2-0.9,2-0.9
				c0.8,0,1.4,0.3,1.8,0.8c0.4,0.5,0.6,1.3,0.6,2.3l0,0.4h-4c0.2,1.5,0.9,2.3,2.2,2.3c0.5,0,1.1-0.1,1.8-0.4V-0.2z M142.7-3.9h2.8
				c0-1.2-0.4-1.8-1.3-1.8C143.3-5.6,142.8-5.1,142.7-3.9z M148.6,0v-6.4h1.2v1.2c0.6-0.9,1.4-1.3,2.2-1.3c0.6,0,1,0.2,1.3,0.5
				c0.3,0.3,0.5,0.8,0.5,1.4V0h-1.2v-4.2c0-0.5-0.1-0.8-0.2-1c-0.1-0.2-0.4-0.3-0.7-0.3c-0.7,0-1.4,0.5-2,1.4V0H148.6z"/>
		</g>
	</g>
	<g transform="matrix(1.3333,0,0,1.3333,-40.6667,-26.6667)">
		<g>
			<defs>
				<rect id="SVGID_111_" x="-109.5" y="-54.1" width="1120" height="593"/>
			</defs>
			<clipPath id="SVGID_112_">
				<use xlink:href="#SVGID_111_"  style="overflow:visible;"/>
			</clipPath>
			<line class="st55" x1="463.9" y1="97" x2="781.3" y2="97"/>
		</g>
		<g>
			<defs>
				<rect id="SVGID_113_" x="-109.5" y="-54.1" width="1120" height="593"/>
			</defs>
			<clipPath id="SVGID_114_">
				<use xlink:href="#SVGID_113_"  style="overflow:visible;"/>
			</clipPath>
			<polygon class="st56" points="793,97 781,91 781,104 			"/>
		</g>
		<g>
			<defs>
				<rect id="SVGID_115_" x="-109.5" y="-54.1" width="1120" height="593"/>
			</defs>
			<clipPath id="SVGID_116_">
				<use xlink:href="#SVGID_115_"  style="overflow:visible;"/>
			</clipPath>
			<polygon class="st57" points="793,97 781,91 781,104 			"/>
		</g>
		<g>
			<defs>
				<rect id="SVGID_117_" x="-109.5" y="-54.1" width="1120" height="593"/>
			</defs>
			<clipPath id="SVGID_118_">
				<use xlink:href="#SVGID_117_"  style="overflow:visible;"/>
			</clipPath>
			<line class="st58" x1="792.6" y1="133" x2="464" y2="133"/>
		</g>
		<g>
			<defs>
				<rect id="SVGID_119_" x="-109.5" y="-54.1" width="1120" height="593"/>
			</defs>
			<clipPath id="SVGID_120_">
				<use xlink:href="#SVGID_119_"  style="overflow:visible;"/>
			</clipPath>
			<line class="st59" x1="464" y1="133" x2="474.4" y2="127"/>
		</g>
		<g>
			<defs>
				<rect id="SVGID_121_" x="-109.5" y="-54.1" width="1120" height="593"/>
			</defs>
			<clipPath id="SVGID_122_">
				<use xlink:href="#SVGID_121_"  style="overflow:visible;"/>
			</clipPath>
			<line class="st60" x1="464" y1="133" x2="474.4" y2="139"/>
		</g>
	</g>
</g>
<g id="_x30_1-authorization-request">
	<g transform="matrix(1.3333,0,0,1.3333,-40.6667,-26.6667)">
		<g>
			<defs>
				<rect id="SVGID_123_" x="-109.5" y="-54.1" width="1120" height="593"/>
			</defs>
			<clipPath id="SVGID_124_">
				<use xlink:href="#SVGID_123_"  style="overflow:visible;"/>
			</clipPath>
			<rect x="107" y="97" class="st61" width="10" height="157"/>
		</g>
		<g>
			<defs>
				<rect id="SVGID_125_" x="-109.5" y="-54.1" width="1120" height="593"/>
			</defs>
			<clipPath id="SVGID_126_">
				<use xlink:href="#SVGID_125_"  style="overflow:visible;"/>
			</clipPath>
			<rect x="107" y="97" class="st62" width="10" height="157"/>
		</g>
		<g>
			<defs>
				<rect id="SVGID_127_" x="-109.5" y="-54.1" width="1120" height="593"/>
			</defs>
			<clipPath id="SVGID_128_">
				<use xlink:href="#SVGID_127_"  style="overflow:visible;"/>
			</clipPath>
			<rect x="454" y="97" class="st63" width="10" height="137"/>
		</g>
		<g>
			<defs>
				<rect id="SVGID_129_" x="-109.5" y="-54.1" width="1120" height="593"/>
			</defs>
			<clipPath id="SVGID_130_">
				<use xlink:href="#SVGID_129_"  style="overflow:visible;"/>
			</clipPath>
			<rect x="454" y="97" class="st64" width="10" height="137"/>
		</g>
	</g>
	<g transform="matrix(1.3333,0,0,1.3333,-40.6667,-26.6667) translate(161.5,90.9336)">
		<g>
			<defs>
				<rect id="SVGID_131_" x="-271" y="-145.1" width="1120" height="593"/>
			</defs>
			<clipPath id="SVGID_132_">
				<use xlink:href="#SVGID_131_"  style="overflow:visible;"/>
			</clipPath>
			<path class="st65" d="M7.6-0.2c-1.1,0.3-2,0.5-2.7,0.5C3.5,0.2,2.5-0.2,1.7-1C1-1.7,0.6-2.9,0.6-4.3c0-1.4,0.4-2.6,1.1-3.4
				c0.7-0.8,1.8-1.2,3.1-1.2c0.9,0,1.8,0.1,2.8,0.4v1.1C6.4-7.8,5.5-8,4.9-8C3.9-8,3.2-7.7,2.7-7S1.9-5.5,1.9-4.3
				c0,1.1,0.3,2,0.8,2.7c0.6,0.6,1.3,1,2.3,1c0.4,0,0.9-0.1,1.3-0.2v-2.8h1.2V-0.2z M9.8,0v-8.7h4.8v0.9H11V-5h3v0.9h-3v3.1h3.9V0
				H9.8z M18.4,0v-7.8h-3.1v-0.9h7.4v0.9h-3.1V0H18.4z M27.7,1.7l3.1-10.4h0.9L28.6,1.7H27.7z M34,0v-6.4h1.2V0H34z M34-7.5v-1.2
				h1.2v1.2H34z M37.5,0v-6.4h1.2v1.2c0.6-0.9,1.4-1.3,2.2-1.3c0.6,0,1,0.2,1.3,0.5c0.3,0.3,0.5,0.8,0.5,1.4V0h-1.2v-4.2
				c0-0.5-0.1-0.8-0.2-1c-0.1-0.2-0.4-0.3-0.7-0.3c-0.7,0-1.4,0.5-2,1.4V0H37.5z M49,0v-1.2c-0.5,0.9-1.2,1.3-2.1,1.3
				c-0.8,0-1.4-0.3-1.8-0.8C44.6-1.3,44.4-2,44.4-3c0-1.1,0.2-1.9,0.7-2.6c0.5-0.6,1.2-1,2-1c0.8,0,1.4,0.3,1.9,0.9v-3.6h1.2V0H49z
				 M49-4.8c-0.6-0.5-1.2-0.8-1.7-0.8c-1.1,0-1.7,0.8-1.7,2.5c0,1.5,0.5,2.2,1.5,2.2c0.6,0,1.3-0.3,1.9-1V-4.8z M57.1-0.2
				c-0.8,0.2-1.4,0.4-2,0.4c-0.9,0-1.7-0.3-2.3-0.9C52.3-1.4,52-2.2,52-3.2c0-1,0.3-1.8,0.8-2.4c0.5-0.6,1.2-0.9,2-0.9
				c0.8,0,1.4,0.3,1.8,0.8c0.4,0.5,0.6,1.3,0.6,2.3l0,0.4h-4c0.2,1.5,0.9,2.3,2.2,2.3c0.5,0,1.1-0.1,1.8-0.4V-0.2z M53.2-3.9H56
				c0-1.2-0.4-1.8-1.3-1.8C53.8-5.6,53.3-5.1,53.2-3.9z M58.5,0l2.4-3.3l-2.3-3.1H60l1.9,2.4l1.7-2.4h1.1l-2.2,3.2L64.8,0h-1.4
				l-1.9-2.5L59.7,0H58.5z M66.5,0v-1.4H68V0H66.5z M70.3,2.3v-8.7h1.2v1.2c0.5-0.9,1.2-1.3,2.1-1.3c0.8,0,1.4,0.3,1.8,0.8
				s0.7,1.3,0.7,2.3c0,1.1-0.2,1.9-0.7,2.6c-0.5,0.6-1.2,1-2,1c-0.8,0-1.4-0.3-1.9-0.9v3H70.3z M71.5-1.5c0.6,0.5,1.2,0.8,1.7,0.8
				c1.1,0,1.7-0.8,1.7-2.5c0-1.5-0.5-2.2-1.5-2.2c-0.6,0-1.3,0.3-1.9,1V-1.5z M77.9,0v-9.3H79v4.1c0.6-0.9,1.4-1.3,2.2-1.3
				c0.6,0,1,0.2,1.3,0.5c0.3,0.3,0.5,0.8,0.5,1.4V0h-1.2v-4.2c0-0.5-0.1-0.8-0.2-1c-0.1-0.2-0.4-0.3-0.7-0.3c-0.7,0-1.4,0.5-2,1.4V0
				H77.9z M85.3,2.3v-8.7h1.2v1.2c0.5-0.9,1.2-1.3,2.1-1.3c0.8,0,1.4,0.3,1.8,0.8s0.7,1.3,0.7,2.3c0,1.1-0.2,1.9-0.7,2.6
				c-0.5,0.6-1.2,1-2,1c-0.8,0-1.4-0.3-1.9-0.9v3H85.3z M86.5-1.5c0.6,0.5,1.2,0.8,1.7,0.8c1.1,0,1.7-0.8,1.7-2.5
				c0-1.5-0.5-2.2-1.5-2.2c-0.6,0-1.3,0.3-1.9,1V-1.5z M92.8,1.7L96-8.7h0.9L93.8,1.7H92.8z M102.4-0.8c-0.7,0.6-1.4,1-2,1
				c-0.5,0-1-0.2-1.3-0.5c-0.3-0.3-0.5-0.7-0.5-1.3c0-0.7,0.3-1.2,0.9-1.6c0.6-0.4,1.4-0.6,2.5-0.6h0.3v-0.8c0-0.7-0.4-1.1-1.1-1.1
				c-0.6,0-1.3,0.2-2,0.6v-1c0.8-0.3,1.5-0.5,2.2-0.5c0.7,0,1.2,0.2,1.6,0.5c0.3,0.3,0.5,0.8,0.5,1.5v2.9c0,0.7,0.2,1,0.6,1
				c0.1,0,0.1,0,0.2,0l0.1,0.6c-0.3,0.1-0.6,0.2-0.9,0.2C102.9,0.1,102.6-0.2,102.4-0.8z M102.3-1.4v-1.6l-0.4,0
				c-0.6,0-1.1,0.1-1.5,0.4c-0.4,0.2-0.6,0.6-0.6,0.9c0,0.3,0.1,0.5,0.3,0.7c0.2,0.2,0.4,0.3,0.7,0.3C101.3-0.8,101.8-1,102.3-1.4z
				 M105.8,2.3v-8.7h1.2v1.2c0.5-0.9,1.2-1.3,2.1-1.3c0.8,0,1.4,0.3,1.8,0.8s0.7,1.3,0.7,2.3c0,1.1-0.2,1.9-0.7,2.6
				c-0.5,0.6-1.2,1-2,1c-0.8,0-1.4-0.3-1.9-0.9v3H105.8z M106.9-1.5c0.6,0.5,1.2,0.8,1.7,0.8c1.1,0,1.7-0.8,1.7-2.5
				c0-1.5-0.5-2.2-1.5-2.2c-0.6,0-1.3,0.3-1.9,1V-1.5z M113.3,2.3v-8.7h1.2v1.2c0.5-0.9,1.2-1.3,2.1-1.3c0.8,0,1.4,0.3,1.8,0.8
				s0.7,1.3,0.7,2.3c0,1.1-0.2,1.9-0.7,2.6c-0.5,0.6-1.2,1-2,1c-0.8,0-1.4-0.3-1.9-0.9v3H113.3z M114.5-1.5c0.6,0.5,1.2,0.8,1.7,0.8
				c1.1,0,1.7-0.8,1.7-2.5c0-1.5-0.5-2.2-1.5-2.2c-0.6,0-1.3,0.3-1.9,1V-1.5z M122.6,0.1c-0.5,0-1.2-0.1-1.9-0.4v-1.1
				c0.8,0.4,1.4,0.6,2,0.6c0.3,0,0.6-0.1,0.8-0.3c0.2-0.2,0.3-0.4,0.3-0.7c0-0.4-0.3-0.7-0.9-1l-0.7-0.3c-1-0.4-1.5-1-1.5-1.8
				c0-0.6,0.2-1,0.6-1.3c0.4-0.3,0.9-0.5,1.6-0.5c0.4,0,0.8,0,1.3,0.1l0.2,0v1c-0.6-0.2-1.2-0.3-1.5-0.3c-0.7,0-1.1,0.3-1.1,0.8
				c0,0.3,0.3,0.6,0.8,0.9l0.6,0.2c0.6,0.3,1.1,0.5,1.3,0.8s0.4,0.7,0.4,1.1c0,0.6-0.2,1-0.7,1.4C123.8,0,123.3,0.1,122.6,0.1z
				 M127,1.7l3.1-10.4h0.9l-3.1,10.4H127z M135.8,0.1c-0.9,0-1.6-0.3-2.2-0.9c-0.5-0.6-0.8-1.4-0.8-2.4c0-1,0.3-1.8,0.8-2.4
				c0.5-0.6,1.3-0.9,2.2-0.9c0.9,0,1.7,0.3,2.2,0.9c0.5,0.6,0.8,1.4,0.8,2.4c0,1-0.3,1.9-0.8,2.4C137.5-0.2,136.8,0.1,135.8,0.1z
				 M135.8-0.7c1.2,0,1.8-0.8,1.8-2.5c0-1.6-0.6-2.4-1.8-2.4c-1.2,0-1.8,0.8-1.8,2.5C134-1.5,134.6-0.7,135.8-0.7z M144-0.8
				c-0.7,0.6-1.4,1-2,1c-0.5,0-1-0.2-1.3-0.5c-0.3-0.3-0.5-0.7-0.5-1.3c0-0.7,0.3-1.2,0.9-1.6c0.6-0.4,1.4-0.6,2.5-0.6h0.3v-0.8
				c0-0.7-0.4-1.1-1.1-1.1c-0.6,0-1.3,0.2-2,0.6v-1c0.8-0.3,1.5-0.5,2.2-0.5c0.7,0,1.2,0.2,1.6,0.5c0.3,0.3,0.5,0.8,0.5,1.5v2.9
				c0,0.7,0.2,1,0.6,1c0.1,0,0.1,0,0.2,0l0.1,0.6c-0.3,0.1-0.6,0.2-0.9,0.2C144.5,0.1,144.1-0.2,144-0.8z M143.8-1.4v-1.6l-0.4,0
				c-0.6,0-1.1,0.1-1.5,0.4c-0.4,0.2-0.6,0.6-0.6,0.9c0,0.3,0.1,0.5,0.3,0.7c0.2,0.2,0.4,0.3,0.7,0.3C142.8-0.8,143.3-1,143.8-1.4z
				 M151.3,0v-1.2c-0.6,0.9-1.4,1.3-2.2,1.3c-0.6,0-1-0.2-1.3-0.5c-0.3-0.3-0.5-0.8-0.5-1.4v-4.6h1.2v4.2c0,0.5,0.1,0.8,0.2,1
				c0.1,0.2,0.4,0.3,0.7,0.3c0.7,0,1.4-0.5,2-1.4v-4.1h1.2V0H151.3z M156.7,0.1c-0.6,0-1-0.2-1.4-0.5c-0.3-0.3-0.5-0.8-0.5-1.4v-3.7
				H154v-0.9h0.8v-1.2l1.2-0.1v1.3h1.7v0.9H156V-2c0,0.8,0.4,1.2,1.1,1.2c0.2,0,0.3,0,0.6-0.1V0C157.2,0.1,156.9,0.1,156.7,0.1z
				 M159.2,0v-9.3h1.2v4.1c0.6-0.9,1.4-1.3,2.2-1.3c0.6,0,1,0.2,1.3,0.5c0.3,0.3,0.5,0.8,0.5,1.4V0h-1.2v-4.2c0-0.5-0.1-0.8-0.2-1
				c-0.1-0.2-0.4-0.3-0.7-0.3c-0.7,0-1.4,0.5-2,1.4V0H159.2z M166.5,0v-1c0.3-0.8,1-1.6,2-2.6l0.7-0.6c0.9-0.8,1.3-1.5,1.3-2.3
				c0-0.5-0.1-0.9-0.4-1.1c-0.3-0.3-0.7-0.4-1.2-0.4c-0.6,0-1.3,0.2-2.1,0.7v-1c0.8-0.4,1.5-0.5,2.3-0.5c0.8,0,1.5,0.2,2,0.7
				c0.5,0.4,0.7,1,0.7,1.7c0,0.5-0.1,1-0.4,1.4c-0.2,0.4-0.7,0.9-1.4,1.5l-0.4,0.4c-0.9,0.8-1.5,1.5-1.6,2.2h3.8v1H166.5z
				 M174.3,1.7l3.1-10.4h0.9l-3.1,10.4H174.3z M183.8-0.8c-0.7,0.6-1.4,1-2,1c-0.5,0-1-0.2-1.3-0.5c-0.3-0.3-0.5-0.7-0.5-1.3
				c0-0.7,0.3-1.2,0.9-1.6c0.6-0.4,1.4-0.6,2.5-0.6h0.3v-0.8c0-0.7-0.4-1.1-1.1-1.1c-0.6,0-1.3,0.2-2,0.6v-1
				c0.8-0.3,1.5-0.5,2.2-0.5c0.7,0,1.2,0.2,1.6,0.5c0.3,0.3,0.5,0.8,0.5,1.5v2.9c0,0.7,0.2,1,0.6,1c0.1,0,0.1,0,0.2,0l0.1,0.6
				c-0.3,0.1-0.6,0.2-0.9,0.2C184.3,0.1,184-0.2,183.8-0.8z M183.7-1.4v-1.6l-0.4,0c-0.6,0-1.1,0.1-1.5,0.4
				c-0.4,0.2-0.6,0.6-0.6,0.9c0,0.3,0.1,0.5,0.3,0.7c0.2,0.2,0.4,0.3,0.7,0.3C182.7-0.8,183.2-1,183.7-1.4z M191.2,0v-1.2
				c-0.6,0.9-1.4,1.3-2.2,1.3c-0.6,0-1-0.2-1.3-0.5c-0.3-0.3-0.5-0.8-0.5-1.4v-4.6h1.2v4.2c0,0.5,0.1,0.8,0.2,1
				c0.1,0.2,0.4,0.3,0.7,0.3c0.7,0,1.4-0.5,2-1.4v-4.1h1.2V0H191.2z M196.6,0.1c-0.6,0-1-0.2-1.4-0.5c-0.3-0.3-0.5-0.8-0.5-1.4v-3.7
				h-0.8v-0.9h0.8v-1.2l1.2-0.1v1.3h1.7v0.9h-1.7V-2c0,0.8,0.4,1.2,1.1,1.2c0.2,0,0.3,0,0.6-0.1V0C197.1,0.1,196.8,0.1,196.6,0.1z
				 M199.1,0v-9.3h1.2v4.1c0.6-0.9,1.4-1.3,2.2-1.3c0.6,0,1,0.2,1.3,0.5c0.3,0.3,0.5,0.8,0.5,1.4V0h-1.2v-4.2c0-0.5-0.1-0.8-0.2-1
				c-0.1-0.2-0.4-0.3-0.7-0.3c-0.7,0-1.4,0.5-2,1.4V0H199.1z M209.1,0.1c-0.9,0-1.6-0.3-2.2-0.9c-0.5-0.6-0.8-1.4-0.8-2.4
				c0-1,0.3-1.8,0.8-2.4c0.5-0.6,1.3-0.9,2.2-0.9s1.7,0.3,2.2,0.9c0.5,0.6,0.8,1.4,0.8,2.4c0,1-0.3,1.9-0.8,2.4
				C210.8-0.2,210,0.1,209.1,0.1z M209.1-0.7c1.2,0,1.8-0.8,1.8-2.5c0-1.6-0.6-2.4-1.8-2.4c-1.2,0-1.8,0.8-1.8,2.5
				C207.3-1.5,207.9-0.7,209.1-0.7z M213.9,0v-6.4h1.2v1.2c0.5-0.9,1.1-1.3,2-1.3c0.1,0,0.2,0,0.4,0v1.1c-0.2-0.1-0.4-0.1-0.5-0.1
				c-0.7,0-1.3,0.4-1.8,1.3V0H213.9z M218.9,0v-6.4h1.2V0H218.9z M218.9-7.5v-1.2h1.2v1.2H218.9z M221.9,0v-0.9l3.9-4.6h-3.8v-0.9
				h5.2v0.9l-3.9,4.6h4V0H221.9z M233.9-0.2c-0.8,0.2-1.4,0.4-2,0.4c-0.9,0-1.7-0.3-2.3-0.9s-0.9-1.4-0.9-2.4c0-1,0.3-1.8,0.8-2.4
				c0.5-0.6,1.2-0.9,2-0.9c0.8,0,1.4,0.3,1.8,0.8c0.4,0.5,0.6,1.3,0.6,2.3l0,0.4h-4c0.2,1.5,0.9,2.3,2.2,2.3c0.5,0,1.1-0.1,1.8-0.4
				V-0.2z M229.9-3.9h2.8c0-1.2-0.4-1.8-1.3-1.8C230.5-5.6,230-5.1,229.9-3.9z"/>
		</g>
	</g>
	<g>
		<defs>
			<rect id="SVGID_133_" x="0" y="0" width="1120" height="593"/>
		</defs>
		<clipPath id="SVGID_134_">
			<use xlink:href="#SVGID_133_"  style="overflow:visible;"/>
		</clipPath>
		<line class="st66" x1="115.2" y1="102.7" x2="549.8" y2="102.7"/>
	</g>
	<g>
		<defs>
			<rect id="SVGID_135_" x="0" y="0" width="1120" height="593"/>
		</defs>
		<clipPath id="SVGID_136_">
			<use xlink:href="#SVGID_135_"  style="overflow:visible;"/>
		</clipPath>
		<polygon class="st67" points="564.7,102.7 550,94.7 550,112 		"/>
	</g>
	<g>
		<defs>
			<rect id="SVGID_137_" x="0" y="0" width="1120" height="593"/>
		</defs>
		<clipPath id="SVGID_138_">
			<use xlink:href="#SVGID_137_"  style="overflow:visible;"/>
		</clipPath>
		<polygon class="st68" points="564.7,102.7 550,94.7 550,112 		"/>
	</g>
</g>
</svg>
