<svg id="Ebene_1" data-name="Ebene 1" xmlns="http://www.w3.org/2000/svg" xmlns:xlink="http://www.w3.org/1999/xlink" viewBox="0 0 691 382"><defs><style>.cls-1,.cls-10,.cls-11,.cls-16,.cls-18,.cls-19,.cls-5,.cls-8{fill:none;}.cls-2{clip-path:url(#clip-path);}.cls-3,.cls-6{fill:#fff;}.cls-4{fill:#007993;}.cls-5{stroke:#007993;}.cls-10,.cls-5,.cls-8{stroke-linecap:round;}.cls-10,.cls-16,.cls-18,.cls-19,.cls-5,.cls-8{stroke-linejoin:round;}.cls-10,.cls-11,.cls-5,.cls-8{stroke-width:2px;}.cls-6{font-size:18px;font-family:MetaMedium-Caps, Meta;}.cls-12,.cls-7{fill:#4f4f4c;}.cls-11,.cls-8{stroke:#4f4f4c;}.cls-9{fill:#2c9050;}.cls-10{stroke:#2c9050;}.cls-11{stroke-miterlimit:10;}.cls-12,.cls-13{font-size:15px;font-family:MetaNormal, Meta;}.cls-13{fill:#888886;}.cls-14{clip-path:url(#clip-path-2);}.cls-15{clip-path:url(#clip-path-3);}.cls-16,.cls-19{stroke:#7a7878;}.cls-16{stroke-width:1.24px;}.cls-17{fill:#006784;}.cls-18{stroke:#383335;stroke-width:0.92px;}.cls-19{stroke-width:0.54px;}.cls-20{clip-path:url(#clip-path-16);}.cls-21{clip-path:url(#clip-path-17);}.cls-22{fill:#29833b;}</style><clipPath id="clip-path"><rect class="cls-1" width="691" height="382"/></clipPath><clipPath id="clip-path-2"><rect class="cls-1" x="54" y="324" width="80.43" height="45"/></clipPath><clipPath id="clip-path-3"><rect class="cls-1" x="54" y="324.02" width="80.43" height="44.96"/></clipPath><clipPath id="clip-path-16"><rect class="cls-1" x="514" y="325" width="143" height="44"/></clipPath><clipPath id="clip-path-17"><rect class="cls-1" x="514" y="325.2" width="143" height="43.59"/></clipPath></defs><title>Zeichenfläche 1</title><g class="cls-2"><rect class="cls-3" width="691" height="382"/><rect class="cls-4" x="27" y="24" width="135" height="291"/><rect class="cls-5" x="27" y="24" width="135" height="291"/><text class="cls-6" transform="translate(69.1 176)">Client</text><rect class="cls-7" x="504" y="24" width="162" height="75"/><rect class="cls-8" x="504" y="24" width="162" height="75"/><text class="cls-6" transform="translate(545.64 58.5)">Resource</text><text class="cls-6" transform="translate(557.73 77.5)">Owner</text><rect class="cls-9" x="504" y="132" width="162" height="75"/><rect class="cls-10" x="504" y="132" width="162" height="75"/><text class="cls-6" transform="translate(524.98 166.5)">Authorization </text><text class="cls-6" transform="translate(556.83 185.5)">Server</text><rect class="cls-9" x="504" y="240" width="162" height="75"/><rect class="cls-10" x="504" y="240" width="162" height="75"/><text class="cls-6" transform="translate(545.64 274.5)">Resource</text><text class="cls-6" transform="translate(556.83 293.5)">Server</text><line class="cls-8" x1="171" y1="45" x2="482.1" y2="45"/><polygon class="cls-7" points="491.7 45 482.1 41.4 482.1 48.6 491.7 45"/><polygon class="cls-11" points="491.7 45 482.1 41.4 482.1 48.6 491.7 45"/><line class="cls-8" x1="495" y1="81" x2="183.9" y2="81"/><polygon class="cls-7" points="174.3 81 183.9 84.6 183.9 77.4 174.3 81"/><polygon class="cls-11" points="174.3 81 183.9 84.6 183.9 77.4 174.3 81"/><text class="cls-12" transform="translate(274.2 35.73)">Authorization Request</text><text class="cls-12" transform="translate(273.76 71.32)">Authorization Response</text><line class="cls-8" x1="171" y1="153" x2="482.1" y2="153"/><polygon class="cls-7" points="491.7 153 482.1 149.4 482.1 156.6 491.7 153"/><polygon class="cls-11" points="491.7 153 482.1 149.4 482.1 156.6 491.7 153"/><text class="cls-12" transform="translate(273.25 143.93)">Access Token Request</text><line class="cls-8" x1="495" y1="189" x2="183.9" y2="189"/><polygon class="cls-7" points="174.3 189 183.9 192.6 183.9 185.4 174.3 189"/><polygon class="cls-11" points="174.3 189 183.9 192.6 183.9 185.4 174.3 189"/><text class="cls-12" transform="translate(272.89 179.7)">Access Token Response</text><line class="cls-8" x1="171" y1="261" x2="482.1" y2="261"/><polygon class="cls-7" points="491.7 261 482.1 257.4 482.1 264.6 491.7 261"/><polygon class="cls-11" points="491.7 261 482.1 257.4 482.1 264.6 491.7 261"/><text class="cls-12" transform="translate(272.09 251.64)">Anfrage mit Access Token</text><line class="cls-8" x1="495" y1="297" x2="183.9" y2="297"/><polygon class="cls-7" points="174.3 297 183.9 300.6 183.9 293.4 174.3 297"/><polygon class="cls-11" points="174.3 297 183.9 300.6 183.9 293.4 174.3 297"/><text class="cls-12" transform="translate(272.17 287.32)">Geschützte Ressource</text><text class="cls-13" transform="translate(257.76 35.73)">1.</text><text class="cls-13" transform="translate(257.78 71.32)">2.</text><text class="cls-13" transform="translate(257.78 141)">3.</text><text class="cls-13" transform="translate(257.78 179.7)">4.</text><text class="cls-13" transform="translate(257.78 251.64)">5.</text><text class="cls-13" transform="translate(257.78 287.32)">6.</text></g><g class="cls-14"><g class="cls-15"><ellipse class="cls-16" cx="94.21" cy="347.09" rx="39.59" ry="17.6"/></g></g><g class="cls-14"><g class="cls-14"><polygon class="cls-17" points="70.05 368.52 93.73 324.53 105.57 324.53 85.88 361.17 115.22 361.17 111.27 368.52 70.05 368.52"/></g></g><g class="cls-14"><g class="cls-15"><polygon class="cls-18" points="111.26 368.52 115.2 361.16 85.87 361.16 105.57 324.48 93.74 324.48 70.05 368.52 111.26 368.52"/><path class="cls-3" d="M82.2,347.06l-.51.07a6,6,0,0,0-2.07.43.61.61,0,0,0-.35.54.57.57,0,0,0,.26.48,1.16,1.16,0,0,0,.7.19,2.3,2.3,0,0,0,.9-.18,1.48,1.48,0,0,0,.63-.45,2.62,2.62,0,0,0,.37-.87Zm-2-1.49-2.06-.13a2.55,2.55,0,0,1,1.23-1.25,5.13,5.13,0,0,1,2.33-.45,4.2,4.2,0,0,1,2.23.46,1.34,1.34,0,0,1,.72,1.13,2.84,2.84,0,0,1-.06.57q-.06.3-.44,1.59a6.34,6.34,0,0,0-.31,1.49,2.45,2.45,0,0,0,.17.85H82a2.43,2.43,0,0,1-.16-.67,3.32,3.32,0,0,1-1.07.6,3.64,3.64,0,0,1-1.21.21,2.56,2.56,0,0,1-1.6-.48,1.51,1.51,0,0,1-.63-1.25,1.61,1.61,0,0,1,.69-1.36,4.9,4.9,0,0,1,2.48-.62,12.49,12.49,0,0,0,2-.23,1.58,1.58,0,0,0,.13-.54.51.51,0,0,0-.27-.43,1.51,1.51,0,0,0-.81-.17,1.89,1.89,0,0,0-.89.18.92.92,0,0,0-.45.5"/><path class="cls-3" d="M87.12,343.88h2L88.77,345a3.15,3.15,0,0,1,2.39-1.29,3.1,3.1,0,0,1,1,.17l-.81,1.32a2.31,2.31,0,0,0-.61-.08,2.26,2.26,0,0,0-1.11.31,2.31,2.31,0,0,0-.88.84,7,7,0,0,0-.63,1.66l-.51,1.87H85.49Z"/><path class="cls-3" d="M93.13,343.88h2l-.21.77a6,6,0,0,1,1.4-.7,4.44,4.44,0,0,1,1.37-.21,2.45,2.45,0,0,1,1.52.42,1.33,1.33,0,0,1,.56,1.11,5.53,5.53,0,0,1-.24,1.19l-.92,3.37H96.5l.93-3.38a5.89,5.89,0,0,0,.21-.9.57.57,0,0,0-.24-.49,1.09,1.09,0,0,0-.66-.18,2.25,2.25,0,0,0-1,.3,2.32,2.32,0,0,0-.89.79,5.44,5.44,0,0,0-.53,1.42l-.67,2.44H91.5Z"/></g></g><g class="cls-14"><g class="cls-14"><polygon class="cls-19" points="67.41 349.84 67.79 348.47 62.3 348.47 64.17 341.67 61.96 341.67 59.7 349.84 67.41 349.84"/></g></g><g class="cls-14"><g class="cls-15"><path class="cls-19" d="M71.36,346.4a1.86,1.86,0,0,1,.7-1.1,2,2,0,0,1,1.17-.37,1.58,1.58,0,0,1,1,.33,1.22,1.22,0,0,1,.39,1s0,.09,0,.16Zm5.23-.07a2.26,2.26,0,0,0-.85-1.88,3.58,3.58,0,0,0-2.28-.67A4.56,4.56,0,0,0,70,345.06a3.07,3.07,0,0,0-.89,2.16,2.39,2.39,0,0,0,1,2,4.09,4.09,0,0,0,2.56.76,4.84,4.84,0,0,0,2.07-.43,3.46,3.46,0,0,0,1.48-1.29L74.31,348a1.9,1.9,0,0,1-1.64.82,1.67,1.67,0,0,1-1.09-.36,1.17,1.17,0,0,1-.45-1s0-.08,0-.14h5.3A3.43,3.43,0,0,0,76.59,346.34Z"/><path class="cls-19" d="M82.15,347.29a2.62,2.62,0,0,1-.37.86,1.49,1.49,0,0,1-.63.45,2.33,2.33,0,0,1-.9.17,1.17,1.17,0,0,1-.7-.19.57.57,0,0,1-.26-.47.6.6,0,0,1,.35-.54,6,6,0,0,1,2.08-.42l.51-.07Zm-1.51-2.19a1.91,1.91,0,0,1,.9-.18,1.53,1.53,0,0,1,.81.17.5.5,0,0,1,.27.43,1.56,1.56,0,0,1-.13.54,12.78,12.78,0,0,1-2,.23,5,5,0,0,0-2.49.61,1.59,1.59,0,0,0-.7,1.35,1.49,1.49,0,0,0,.63,1.24,2.57,2.57,0,0,0,1.6.48,3.69,3.69,0,0,0,1.21-.21,3.34,3.34,0,0,0,1.07-.6,2.44,2.44,0,0,0,.16.67H84a2.38,2.38,0,0,1-.18-.84,6.3,6.3,0,0,1,.31-1.48q.38-1.28.44-1.58a2.81,2.81,0,0,0,.06-.57,1.32,1.32,0,0,0-.72-1.12,4.26,4.26,0,0,0-2.23-.46,5.19,5.19,0,0,0-2.33.45,2.54,2.54,0,0,0-1.23,1.24l2.06.13A.91.91,0,0,1,80.65,345.1Z"/><path class="cls-19" d="M85.49,349.84H87.6l.52-1.85a6.88,6.88,0,0,1,.63-1.65,2.34,2.34,0,0,1,.88-.83,2.29,2.29,0,0,1,1.11-.31,2.32,2.32,0,0,1,.61.08l.81-1.31a2.86,2.86,0,0,0-3.37,1.11l.32-1.15h-2Z"/><path class="cls-19" d="M91.5,349.84h2.11l.67-2.43a5.44,5.44,0,0,1,.53-1.41,2.36,2.36,0,0,1,.89-.78,2.27,2.27,0,0,1,1-.3,1.11,1.11,0,0,1,.67.18.56.56,0,0,1,.24.48,5.64,5.64,0,0,1-.21.9l-.93,3.36h2.11l.92-3.35a5.47,5.47,0,0,0,.24-1.18,1.32,1.32,0,0,0-.56-1.11,2.48,2.48,0,0,0-1.52-.42,4.5,4.5,0,0,0-1.37.21,6,6,0,0,0-1.4.7l.21-.77h-2Z"/></g></g><g class="cls-14"><g class="cls-14"><polygon class="cls-19" points="112.75 343.92 110.63 343.92 108.21 347.89 107.94 343.92 106.02 343.92 103.58 347.89 103.04 343.92 101.16 343.92 102.14 349.84 104.1 349.84 106.49 346.07 106.87 349.84 108.86 349.84 112.75 343.92"/></g></g><g class="cls-14"><g class="cls-15"><path class="cls-19" d="M114.94,346.4a1.87,1.87,0,0,1,.7-1.1,2,2,0,0,1,1.17-.37,1.58,1.58,0,0,1,1,.33,1.22,1.22,0,0,1,.39,1s0,.09,0,.16Zm5.24-.07a2.26,2.26,0,0,0-.85-1.88,3.58,3.58,0,0,0-2.28-.67,4.55,4.55,0,0,0-3.47,1.28,3.07,3.07,0,0,0-.89,2.16,2.39,2.39,0,0,0,1,2,4.09,4.09,0,0,0,2.56.76,4.83,4.83,0,0,0,2.07-.43,3.46,3.46,0,0,0,1.48-1.29l-1.89-.24a1.91,1.91,0,0,1-1.64.82,1.67,1.67,0,0,1-1.09-.36,1.17,1.17,0,0,1-.44-1s0-.08,0-.14H120A3.46,3.46,0,0,0,120.17,346.34Z"/><path class="cls-19" d="M124.38,345.48a1.9,1.9,0,0,1,1.37-.56,1.57,1.57,0,0,1,1,.36,1.22,1.22,0,0,1,.43,1,2.83,2.83,0,0,1-.32,1.28,2.19,2.19,0,0,1-.8.92,1.94,1.94,0,0,1-1,.29,1.58,1.58,0,0,1-1-.37,1.2,1.2,0,0,1-.45-1A2.59,2.59,0,0,1,124.38,345.48Zm-1.71,4.36.27-1A2.81,2.81,0,0,0,125.4,350a4,4,0,0,0,1.35-.23A4.19,4.19,0,0,0,128,349a3.38,3.38,0,0,0,.94-1.24,3.72,3.72,0,0,0,.35-1.57,2.25,2.25,0,0,0-.74-1.82,3,3,0,0,0-2-.63,4.06,4.06,0,0,0-1.1.14,4.83,4.83,0,0,0-1.09.48l.76-2.73H123l-2.25,8.16Z"/></g></g><g class="cls-20"><g class="cls-21"><path class="cls-22" d="M535.8,325.2a21.8,21.8,0,1,0,21.8,21.8,21.8,21.8,0,0,0-21.8-21.8m0,41.57A19.77,19.77,0,1,1,555.57,347a19.79,19.79,0,0,1-19.77,19.77"/><path class="cls-22" d="M544.69,331.66c-3.64-2-8.51-.27-10.4,3.25-2.07,3.84-1.5,9.52,1.21,12.17,1.92,1.88,4.58,1.93,7.7.16l1,1.76a10.5,10.5,0,0,1-5.19,1.56,7,7,0,0,1-4.93-2c-3.35-3.27-4.07-9.95-1.58-14.58a9.27,9.27,0,0,1,5.35-4.57,18,18,0,0,0-2.06-.12,17.74,17.74,0,0,0-1.93,35.38v-8.7h2v8.81a17.63,17.63,0,0,0,9.36-2.75l-3.65-4.33.83-.65c.05,0,5.16-4.09,5.7-9.11l2,.22c-.49,4.61-4,8.33-5.67,9.81l2.43,2.88a17.72,17.72,0,0,0-2.22-29.15m2.9,8.85a1.52,1.52,0,1,1-1-1.92,1.52,1.52,0,0,1,1,1.92"/><path class="cls-22" d="M572,356.23a13.82,13.82,0,0,1-6.45-1.87l1.75-3.63c1,.6,3.4,1.9,4.86,1.9.89,0,1.55-.57,1.55-1.12,0-.81-.49-1-2-1.35l-1.93-.4a3.86,3.86,0,0,1-3.48-4.06c0-3.05,2.39-5.07,6.1-5.07a12.26,12.26,0,0,1,5.87,1.53l-1.55,3.11a8,8,0,0,0-3.65-1.1c-.78,0-1.3.35-1.3.84s.35.92,1.55,1.18l1.84.4c2.62.58,3.68,2,3.68,4.35,0,3.22-2.76,5.29-6.91,5.29"/><path class="cls-22" d="M589.13,356.23c-4.15,0-6.73-2.62-6.73-7.66s2.65-7.94,7.11-7.94a6.57,6.57,0,0,1,4.58,1.76l-2.3,3a3.28,3.28,0,0,0-2.1-1.09c-1.18,0-1.81.63-1.81,3.94,0,3,.32,4.26,1.76,4.26a3.64,3.64,0,0,0,2.74-1.33l2.1,2.93a7.29,7.29,0,0,1-5.32,2.1"/><path class="cls-22" d="M600.78,339.92a2.85,2.85,0,0,1-2.85-2.82,2.89,2.89,0,0,1,2.94-2.82,2.8,2.8,0,0,1,2.82,2.82,2.86,2.86,0,0,1-2.91,2.82m-2.47,15.94V341.24l5-.46v15.08Z"/><path class="cls-22" d="M613.24,350a2.39,2.39,0,0,0,2.39,2.7,6.39,6.39,0,0,0,3.91-1.5l1.93,2.88a9.3,9.3,0,0,1-6,2.13c-4.75,0-7.37-2.91-7.37-7.71s2.56-7.89,6.76-7.89c4.75,0,6.7,3,6.7,8V350Zm3.34-3.54c0-1.47-.43-2.36-1.59-2.36s-1.75.66-1.75,2.65h3.34Z"/><path class="cls-22" d="M636.43,355.08a5,5,0,0,1-3.31,1.15,3.77,3.77,0,0,1-2.93-1.29,2.51,2.51,0,0,1-.29.92h-4.29A7.36,7.36,0,0,0,626,353V339.69a15.73,15.73,0,0,0-.37-4.11l5.07-.86a15.66,15.66,0,0,1,.32,2.85v2.27a8,8,0,0,1-.11,1.64,4,4,0,0,1,2.62-.83c3.45,0,5.84,2.45,5.84,7.42,0,3-.92,5.5-2.88,7m-4.17-10.42a1.54,1.54,0,0,0-1.29.72v6.22a1.71,1.71,0,0,0,1.23.49c1.27,0,1.76-1,1.76-3.77,0-2.94-.58-3.66-1.7-3.66"/><path class="cls-22" d="M649.92,356.23c-4.26,0-6.87-2.82-6.87-7.74,0-4.63,2.82-7.86,7.16-7.86,3.65,0,6.79,2.1,6.79,7.42,0,5.87-3.54,8.17-7.08,8.17m.09-12.11c-1,0-1.55.78-1.55,4.46,0,2.88.17,4.14,1.58,4.14,1.18,0,1.55-1.27,1.55-4.81,0-3-.4-3.8-1.59-3.8"/></g></g></svg>